<svg version="1.1" viewBox="0.0 0.0 393.6010498687664 393.6010498687664" fill="none" stroke="none" stroke-linecap="square" stroke-miterlimit="10" xmlns:xlink="http://www.w3.org/1999/xlink" xmlns="http://www.w3.org/2000/svg"><clipPath id="p.0"><path d="m0 0l393.60104 0l0 393.60104l-393.60104 0l0 -393.60104z" clip-rule="nonzero"/></clipPath><g clip-path="url(#p.0)"><path fill="#000000" fill-opacity="0.0" d="m0 0l393.60104 0l0 393.60104l-393.60104 0z" fill-rule="evenodd"/><path fill="#ffffff" d="m4.8005247 196.80052l0 0c0 -106.038666 85.961334 -192.0 192.0 -192.0l0 0c50.92157 0 99.75752 20.228512 135.76451 56.235497c36.00699 36.006985 56.235504 84.842926 56.235504 135.7645l0 0c0 106.03868 -85.961334 192.00002 -192.00002 192.00002l0 0c-106.038666 0 -192.0 -85.961334 -192.0 -192.00002z" fill-rule="evenodd"/><path stroke="#ffffff" stroke-width="1.0" stroke-linejoin="round" stroke-linecap="butt" d="m4.8005247 196.80052l0 0c0 -106.038666 85.961334 -192.0 192.0 -192.0l0 0c50.92157 0 99.75752 20.228512 135.76451 56.235497c36.00699 36.006985 56.235504 84.842926 56.235504 135.7645l0 0c0 106.03868 -85.961334 192.00002 -192.00002 192.00002l0 0c-106.038666 0 -192.0 -85.961334 -192.0 -192.00002z" fill-rule="evenodd"/><path fill="#171717" d="m74.40682 196.80052l0 0c0 -67.596176 54.797523 -122.3937 122.3937 -122.3937l0 0c32.46083 0 63.592148 12.895012 86.545425 35.84829c22.953278 22.953262 35.848267 54.08458 35.848267 86.54541l0 0c0 67.596176 -54.797516 122.39369 -122.39369 122.39369l0 0c-67.596176 0 -122.3937 -54.797516 -122.3937 -122.39369z" fill-rule="evenodd"/><path stroke="#171717" stroke-width="1.0" stroke-linejoin="round" stroke-linecap="butt" d="m74.40682 196.80052l0 0c0 -67.596176 54.797523 -122.3937 122.3937 -122.3937l0 0c32.46083 0 63.592148 12.895012 86.545425 35.84829c22.953278 22.953262 35.848267 54.08458 35.848267 86.54541l0 0c0 67.596176 -54.797516 122.39369 -122.39369 122.39369l0 0c-67.596176 0 -122.3937 -54.797516 -122.3937 -122.39369z" fill-rule="evenodd"/><path fill="#ffffff" d="m112.80052 196.80052l0 0c0 -46.391922 37.608078 -84.0 84.0 -84.0l0 0c22.278183 0 43.64392 8.849976 59.396988 24.603027c15.753052 15.753067 24.603027 37.11879 24.603027 59.396973l0 0c0 46.391922 -37.608093 84.000015 -84.000015 84.000015l0 0c-46.391922 0 -84.0 -37.608093 -84.0 -84.000015z" fill-rule="evenodd"/><path stroke="#ffffff" stroke-width="1.0" stroke-linejoin="round" stroke-linecap="butt" d="m112.80052 196.80052l0 0c0 -46.391922 37.608078 -84.0 84.0 -84.0l0 0c22.278183 0 43.64392 8.849976 59.396988 24.603027c15.753052 15.753067 24.603027 37.11879 24.603027 59.396973l0 0c0 46.391922 -37.608093 84.000015 -84.000015 84.000015l0 0c-46.391922 0 -84.0 -37.608093 -84.0 -84.000015z" fill-rule="evenodd"/><path fill="#171717" d="m172.80052 196.80052l0 0c0 -13.254837 10.745163 -24.0 24.0 -24.0l0 0c6.365204 0 12.469696 2.5285645 16.970566 7.029434c4.5008698 4.500885 7.029434 10.605377 7.029434 16.970566l0 0c0 13.254837 -10.745163 24.0 -24.0 24.0l0 0c-13.254837 0 -24.0 -10.745163 -24.0 -24.0z" fill-rule="evenodd"/><path stroke="#171717" stroke-width="1.0" stroke-linejoin="round" stroke-linecap="butt" d="m172.80052 196.80052l0 0c0 -13.254837 10.745163 -24.0 24.0 -24.0l0 0c6.365204 0 12.469696 2.5285645 16.970566 7.029434c4.5008698 4.500885 7.029434 10.605377 7.029434 16.970566l0 0c0 13.254837 -10.745163 24.0 -24.0 24.0l0 0c-13.254837 0 -24.0 -10.745163 -24.0 -24.0z" fill-rule="evenodd"/><path fill="#ffffff" d="m182.40683 196.80052l0 0c0 -7.949417 6.444275 -14.393692 14.393692 -14.393692l0 0c3.8174438 0 7.478546 1.5164642 10.177887 4.215805c2.6993408 2.699356 4.2158203 6.360443 4.2158203 10.177887l0 0c0 7.949417 -6.44429 14.393707 -14.393707 14.393707l0 0c-7.949417 0 -14.393692 -6.44429 -14.393692 -14.393707z" fill-rule="evenodd"/><path stroke="#171717" stroke-width="1.0" stroke-linejoin="round" stroke-linecap="butt" d="m182.40683 196.80052l0 0c0 -7.949417 6.444275 -14.393692 14.393692 -14.393692l0 0c3.8174438 0 7.478546 1.5164642 10.177887 4.215805c2.6993408 2.699356 4.2158203 6.360443 4.2158203 10.177887l0 0c0 7.949417 -6.44429 14.393707 -14.393707 14.393707l0 0c-7.949417 0 -14.393692 -6.44429 -14.393692 -14.393707z" fill-rule="evenodd"/><path fill="#ffffff" d="m187.19423 299.52682l0 0c0 -5.30542 4.300888 -9.606293 9.606293 -9.606293l0 0c2.5477448 0 4.99115 1.012085 6.792679 2.8135986c1.8015289 1.8015442 2.8136292 4.244934 2.8136292 6.792694l0 0c0 5.30542 -4.300888 9.606293 -9.606308 9.606293l0 0c-5.3054047 0 -9.606293 -4.300873 -9.606293 -9.606293z" fill-rule="evenodd"/><path stroke="#ffffff" stroke-width="1.0" stroke-linejoin="round" stroke-linecap="butt" d="m187.19423 299.52682l0 0c0 -5.30542 4.300888 -9.606293 9.606293 -9.606293l0 0c2.5477448 0 4.99115 1.012085 6.792679 2.8135986c1.8015289 1.8015442 2.8136292 4.244934 2.8136292 6.792694l0 0c0 5.30542 -4.300888 9.606293 -9.606308 9.606293l0 0c-5.3054047 0 -9.606293 -4.300873 -9.606293 -9.606293z" fill-rule="evenodd"/></g></svg>