<svg version="1.1" viewBox="0.0 0.0 316.8005249343832 316.8005249343832" fill="none" stroke="none" stroke-linecap="square" stroke-miterlimit="10" xmlns:xlink="http://www.w3.org/1999/xlink" xmlns="http://www.w3.org/2000/svg"><clipPath id="p.0"><path d="m0 0l316.80054 0l0 316.80054l-316.80054 0l0 -316.80054z" clip-rule="nonzero"/></clipPath><g clip-path="url(#p.0)"><path fill="#000000" fill-opacity="0.0" d="m0 0l316.80054 0l0 316.80054l-316.80054 0z" fill-rule="evenodd"/><path fill="#000000" fill-opacity="0.0" d="m158.23238 4.796588l0 0c42.36502 0 76.708664 34.38594 76.708664 76.803154l0 0c0 20.369461 -8.081787 39.90464 -22.467453 54.30802c-14.385666 14.403397 -33.896805 22.495132 -54.24121 22.495132l0 0c-42.36502 0 -76.708664 -34.38595 -76.708664 -76.803154l0 0c0 -42.41721 34.343643 -76.803154 76.708664 -76.803154z" fill-rule="evenodd"/><path stroke="#ffffff" stroke-width="2.0" stroke-linejoin="round" stroke-linecap="butt" d="m158.23238 4.796588l0 0c42.36502 0 76.708664 34.38594 76.708664 76.803154l0 0c0 20.369461 -8.081787 39.90464 -22.467453 54.30802c-14.385666 14.403397 -33.896805 22.495132 -54.24121 22.495132l0 0c-42.36502 0 -76.708664 -34.38595 -76.708664 -76.803154l0 0c0 -42.41721 34.343643 -76.803154 76.708664 -76.803154z" fill-rule="evenodd"/><path fill="#000000" fill-opacity="0.0" d="m234.9408 81.595894l-51.11812 0" fill-rule="evenodd"/><path stroke="#ffffff" stroke-width="2.0" stroke-linejoin="round" stroke-linecap="butt" d="m234.9408 81.595894l-51.11812 0" fill-rule="evenodd"/><path fill="#000000" fill-opacity="0.0" d="m158.2325 158.39659l0 0c42.36502 0 76.708664 34.38594 76.708664 76.80315l0 0c0 20.369461 -8.081787 39.904633 -22.467453 54.308044c-14.385666 14.403381 -33.896805 22.495117 -54.24121 22.495117l0 0c-42.36502 0 -76.708664 -34.385956 -76.708664 -76.80316l0 0c0 -42.417206 34.343643 -76.80315 76.708664 -76.80315z" fill-rule="evenodd"/><path stroke="#ffffff" stroke-width="2.0" stroke-linejoin="round" stroke-linecap="butt" d="m158.2325 158.39659l0 0c42.36502 0 76.708664 34.38594 76.708664 76.80315l0 0c0 20.369461 -8.081787 39.904633 -22.467453 54.308044c-14.385666 14.403381 -33.896805 22.495117 -54.24121 22.495117l0 0c-42.36502 0 -76.708664 -34.385956 -76.708664 -76.80316l0 0c0 -42.417206 34.343643 -76.80315 76.708664 -76.80315z" fill-rule="evenodd"/><path fill="#171717" d="m80.58765 177.5967l0 -38.393692l153.48032 0l0 38.393692z" fill-rule="evenodd"/><path stroke="#171717" stroke-width="1.0" stroke-linejoin="round" stroke-linecap="butt" d="m80.58765 177.5967l0 -38.393692l153.48032 0l0 38.393692z" fill-rule="evenodd"/><path fill="#000000" fill-opacity="0.0" d="m138.14941 157.97998l-133.35432 0.44093323" fill-rule="evenodd"/><path stroke="#ffffff" stroke-width="2.0" stroke-linejoin="round" stroke-linecap="butt" d="m138.14941 157.97998l-133.35432 0.44093323" fill-rule="evenodd"/><path fill="#171717" d="m138.14941 81.17683l38.362213 0l0 153.6063l-38.362213 0z" fill-rule="evenodd"/><path stroke="#171717" stroke-width="1.0" stroke-linejoin="round" stroke-linecap="butt" d="m138.14941 81.17683l38.362213 0l0 153.6063l-38.362213 0z" fill-rule="evenodd"/><path fill="#000000" fill-opacity="0.0" d="m81.50998 234.28566l51.118103 0" fill-rule="evenodd"/><path stroke="#ffffff" stroke-width="2.0" stroke-linejoin="round" stroke-linecap="butt" d="m81.50998 234.28566l51.118103 0" fill-rule="evenodd"/><path fill="#000000" fill-opacity="0.0" d="m132.65363 234.31085l0 0c0 2.8179626 2.2985077 5.102371 5.13385 5.102371l0 0c1.3615875 0 2.6674042 -0.53756714 3.630188 -1.4944458c0.9627838 -0.95687866 1.5036774 -2.2546844 1.5036774 -3.6079254l0 0c0 -2.8179474 -2.2985077 -5.102356 -5.1338654 -5.102356l0 0c-2.8353424 0 -5.13385 2.2844086 -5.13385 5.102356z" fill-rule="evenodd"/><path stroke="#ffffff" stroke-width="2.0" stroke-linejoin="round" stroke-linecap="butt" d="m132.65363 234.31085l0 0c0 2.8179626 2.2985077 5.102371 5.13385 5.102371l0 0c1.3615875 0 2.6674042 -0.53756714 3.630188 -1.4944458c0.9627838 -0.95687866 1.5036774 -2.2546844 1.5036774 -3.6079254l0 0c0 -2.8179474 -2.2985077 -5.102356 -5.1338654 -5.102356l0 0c-2.8353424 0 -5.13385 2.2844086 -5.13385 5.102356z" fill-rule="evenodd"/><path fill="#000000" fill-opacity="0.0" d="m178.69478 86.72345l-40.913376 142.48819" fill-rule="evenodd"/><path stroke="#ffffff" stroke-width="2.0" stroke-linejoin="round" stroke-linecap="butt" d="m178.69478 86.72345l-40.913376 142.48819" fill-rule="evenodd"/><path fill="#000000" fill-opacity="0.0" d="m312.0072 158.18259l-133.35434 0.4409485" fill-rule="evenodd"/><path stroke="#ffffff" stroke-width="2.0" stroke-linejoin="round" stroke-linecap="butt" d="m312.0072 158.18259l-133.35434 0.4409485" fill-rule="evenodd"/><path fill="#000000" fill-opacity="0.0" d="m183.79715 81.621086l0 0c0 2.817955 -2.2844086 5.1023636 -5.102371 5.1023636l0 0c-1.3532257 0 -2.6510315 -0.53756714 -3.6079102 -1.4944458c-0.95687866 -0.95687866 -1.4944458 -2.2546844 -1.4944458 -3.6079178l0 0c0 -2.817955 2.2844086 -5.1023636 5.102356 -5.1023636l0 0c2.8179626 0 5.102371 2.2844086 5.102371 5.1023636z" fill-rule="evenodd"/><path stroke="#ffffff" stroke-width="2.0" stroke-linejoin="round" stroke-linecap="butt" d="m183.79715 81.621086l0 0c0 2.817955 -2.2844086 5.1023636 -5.102371 5.1023636l0 0c-1.3532257 0 -2.6510315 -0.53756714 -3.6079102 -1.4944458c-0.95687866 -0.95687866 -1.4944458 -2.2546844 -1.4944458 -3.6079178l0 0c0 -2.817955 2.2844086 -5.1023636 5.102356 -5.1023636l0 0c2.8179626 0 5.102371 2.2844086 5.102371 5.1023636z" fill-rule="evenodd"/></g></svg>