<svg version="1.1" viewBox="0.0 0.0 470.3989501312336 470.3989501312336" fill="none" stroke="none" stroke-linecap="square" stroke-miterlimit="10" xmlns:xlink="http://www.w3.org/1999/xlink" xmlns="http://www.w3.org/2000/svg"><clipPath id="p.0"><path d="m0 0l470.39896 0l0 470.39896l-470.39896 0l0 -470.39896z" clip-rule="nonzero"/></clipPath><g clip-path="url(#p.0)"><path fill="#000000" fill-opacity="0.0" d="m0 0l470.39896 0l0 470.39896l-470.39896 0z" fill-rule="evenodd"/><path fill="#000000" fill-opacity="0.0" d="m158.40604 235.20787l0 0c0 -42.417206 34.38594 -76.80315 76.80315 -76.80315l0 0c20.369461 0 39.904648 8.091736 54.30803 22.495117c14.403381 14.403397 22.495117 33.93857 22.495117 54.30803l0 0c0 42.41722 -34.385925 76.80315 -76.80315 76.80315l0 0c-42.417206 0 -76.80315 -34.385925 -76.80315 -76.80315z" fill-rule="evenodd"/><path stroke="#ffffff" stroke-width="1.0" stroke-linejoin="round" stroke-linecap="butt" d="m158.40604 235.20787l0 0c0 -42.417206 34.38594 -76.80315 76.80315 -76.80315l0 0c20.369461 0 39.904648 8.091736 54.30803 22.495117c14.403381 14.403397 22.495117 33.93857 22.495117 54.30803l0 0c0 42.41722 -34.385925 76.80315 -76.80315 76.80315l0 0c-42.417206 0 -76.80315 -34.385925 -76.80315 -76.80315z" fill-rule="evenodd"/><path fill="#ffffff" d="m316.65005 142.88821l5.448822 3.5223694l5.448822 -3.5223694l-3.5223694 5.448822l3.5223694 5.448807l-5.448822 -3.5223694l-5.448822 3.5223694l3.5223694 -5.448807z" fill-rule="evenodd"/><path stroke="#ffffff" stroke-width="1.0" stroke-linejoin="round" stroke-linecap="butt" d="m316.65005 142.88821l5.448822 3.5223694l5.448822 -3.5223694l-3.5223694 5.448822l3.5223694 5.448807l-5.448822 -3.5223694l-5.448822 3.5223694l3.5223694 -5.448807z" fill-rule="evenodd"/><path fill="#ffffff" d="m142.86438 316.6739l5.448807 3.5223694l5.448822 -3.5223694l-3.5223694 5.448822l3.5223694 5.448822l-5.448822 -3.5223694l-5.448807 3.5223694l3.5223694 -5.448822z" fill-rule="evenodd"/><path stroke="#ffffff" stroke-width="1.0" stroke-linejoin="round" stroke-linecap="butt" d="m142.86438 316.6739l5.448807 3.5223694l5.448822 -3.5223694l-3.5223694 5.448822l3.5223694 5.448822l-5.448822 -3.5223694l-5.448807 3.5223694l3.5223694 -5.448822z" fill-rule="evenodd"/><path fill="#ffffff" d="m153.74147 153.7477l81.46457 71.333145l81.464554 -71.333145l-71.333145 81.464554l71.333145 81.46457l-81.464554 -71.333145l-81.46457 71.333145l71.333145 -81.46457z" fill-rule="evenodd"/><path stroke="#171717" stroke-width="1.0" stroke-linejoin="round" stroke-linecap="butt" d="m153.74147 153.7477l81.46457 71.333145l81.464554 -71.333145l-71.333145 81.464554l71.333145 81.46457l-81.464554 -71.333145l-81.46457 71.333145l71.333145 -81.46457z" fill-rule="evenodd"/><path fill="#ffffff" d="m316.65005 316.6739l5.448822 3.5223694l5.448822 -3.5223694l-3.5223694 5.448822l3.5223694 5.448822l-5.448822 -3.5223694l-5.448822 3.5223694l3.5223694 -5.448822z" fill-rule="evenodd"/><path stroke="#ffffff" stroke-width="1.0" stroke-linejoin="round" stroke-linecap="butt" d="m316.65005 316.6739l5.448822 3.5223694l5.448822 -3.5223694l-3.5223694 5.448822l3.5223694 5.448822l-5.448822 -3.5223694l-5.448822 3.5223694l3.5223694 -5.448822z" fill-rule="evenodd"/><path fill="#ffffff" d="m142.86438 142.88821l5.448807 3.5223694l5.448822 -3.5223694l-3.5223694 5.448822l3.5223694 5.448807l-5.448822 -3.5223694l-5.448807 3.5223694l3.5223694 -5.448807z" fill-rule="evenodd"/><path stroke="#ffffff" stroke-width="1.0" stroke-linejoin="round" stroke-linecap="butt" d="m142.86438 142.88821l5.448807 3.5223694l5.448822 -3.5223694l-3.5223694 5.448822l3.5223694 5.448807l-5.448822 -3.5223694l-5.448807 3.5223694l3.5223694 -5.448807z" fill-rule="evenodd"/><path fill="#171717" d="m153.74243 153.74783l81.46457 71.333145l81.46457 -71.333145l-71.33316 81.46457l71.33316 81.46457l-81.46457 -71.33316l-81.46457 71.33316l71.333145 -81.46457z" fill-rule="evenodd"/><path stroke="#ffffff" stroke-width="1.0" stroke-linejoin="round" stroke-linecap="butt" d="m153.74243 153.74783l81.46457 71.333145l81.46457 -71.333145l-71.33316 81.46457l71.33316 81.46457l-81.46457 -71.33316l-81.46457 71.33316l71.333145 -81.46457z" fill-rule="evenodd"/><path fill="#ffffff" d="m4.806037 235.19843l216.06714 -14.326569l14.326569 -216.06714l14.326569 216.06714l216.06714 14.326569l-216.06714 14.326569l-14.326569 216.06714l-14.326569 -216.06714z" fill-rule="evenodd"/><path stroke="#ffffff" stroke-width="1.0" stroke-linejoin="round" stroke-linecap="butt" d="m4.806037 235.19843l216.06714 -14.326569l14.326569 -216.06714l14.326569 216.06714l216.06714 14.326569l-216.06714 14.326569l-14.326569 216.06714l-14.326569 -216.06714z" fill-rule="evenodd"/><path fill="#171717" d="m219.83595 235.20473l15.370087 -15.370087l15.370071 15.370087l-15.370071 15.370071z" fill-rule="evenodd"/><path stroke="#171717" stroke-width="1.0" stroke-linejoin="round" stroke-linecap="butt" d="m219.83595 235.20473l15.370087 -15.370087l15.370071 15.370087l-15.370071 15.370071z" fill-rule="evenodd"/><path fill="#000000" fill-opacity="0.0" d="m127.69108 235.20473l215.02362 0" fill-rule="evenodd"/><path stroke="#171717" stroke-width="1.0" stroke-linejoin="round" stroke-linecap="butt" d="m127.69108 235.20473l215.02362 0" fill-rule="evenodd"/><path fill="#000000" fill-opacity="0.0" d="m235.20604 127.689766l0 215.02362" fill-rule="evenodd"/><path stroke="#171717" stroke-width="1.0" stroke-linejoin="round" stroke-linecap="butt" d="m235.20604 127.689766l0 215.02362" fill-rule="evenodd"/></g></svg>