<svg version="1.1" viewBox="0.0 0.0 393.6010498687664 393.6010498687664" fill="none" stroke="none" stroke-linecap="square" stroke-miterlimit="10" xmlns:xlink="http://www.w3.org/1999/xlink" xmlns="http://www.w3.org/2000/svg"><clipPath id="p.0"><path d="m0 0l393.60104 0l0 393.60104l-393.60104 0l0 -393.60104z" clip-rule="nonzero"/></clipPath><g clip-path="url(#p.0)"><path fill="#000000" fill-opacity="0.0" d="m0 0l393.60104 0l0 393.60104l-393.60104 0z" fill-rule="evenodd"/><path fill="#000000" fill-opacity="0.0" d="m30.359581 218.76944l0 0c0 -93.90581 74.51815 -170.0315 166.44095 -170.0315l0 0c44.142883 0 86.4778 17.913986 117.69151 49.80107c31.213745 31.887093 48.74942 75.13528 48.74942 120.23043l0 0c0 93.90579 -74.51813 170.0315 -166.44093 170.0315l0 0c-91.92279 0 -166.44095 -76.1257 -166.44095 -170.0315z" fill-rule="evenodd"/><path stroke="#ffffff" stroke-width="3.0" stroke-linejoin="round" stroke-linecap="butt" d="m30.359581 218.76944l0 0c0 -93.90581 74.51815 -170.0315 166.44095 -170.0315l0 0c44.142883 0 86.4778 17.913986 117.69151 49.80107c31.213745 31.887093 48.74942 75.13528 48.74942 120.23043l0 0c0 93.90579 -74.51813 170.0315 -166.44093 170.0315l0 0c-91.92279 0 -166.44095 -76.1257 -166.44095 -170.0315z" fill-rule="evenodd"/><path fill="#ffffff" d="m124.10597 218.77869l0 0c0 -40.190674 32.54573 -72.77165 72.69292 -72.77165l0 0c19.279358 0 37.76909 7.666992 51.401657 21.314316c13.632553 13.647339 21.291245 32.15709 21.291245 51.457336l0 0c0 40.190674 -32.545715 72.77164 -72.6929 72.77164l0 0c-40.147186 0 -72.69292 -32.580963 -72.69292 -72.77164z" fill-rule="evenodd"/><path stroke="#ffffff" stroke-width="1.0" stroke-linejoin="round" stroke-linecap="butt" d="m124.10597 218.77869l0 0c0 -40.190674 32.54573 -72.77165 72.69292 -72.77165l0 0c19.279358 0 37.76909 7.666992 51.401657 21.314316c13.632553 13.647339 21.291245 32.15709 21.291245 51.457336l0 0c0 40.190674 -32.545715 72.77164 -72.6929 72.77164l0 0c-40.147186 0 -72.69292 -32.580963 -72.69292 -72.77164z" fill-rule="evenodd"/><path fill="#ffffff" d="m142.26486 59.38189l0 0c0 -30.14518 24.416351 -54.582676 54.53543 -54.582676l0 0c14.463699 0 28.335007 5.750659 38.562378 15.986896c10.227386 10.2362385 15.973068 24.119555 15.973068 38.59578l0 0c0 30.14518 -24.416351 54.58268 -54.535446 54.58268l0 0c-30.11908 0 -54.53543 -24.4375 -54.53543 -54.58268z" fill-rule="evenodd"/><path stroke="#ffffff" stroke-width="1.0" stroke-linejoin="round" stroke-linecap="butt" d="m142.26486 59.38189l0 0c0 -30.14518 24.416351 -54.582676 54.53543 -54.582676l0 0c14.463699 0 28.335007 5.750659 38.562378 15.986896c10.227386 10.2362385 15.973068 24.119555 15.973068 38.59578l0 0c0 30.14518 -24.416351 54.58268 -54.535446 54.58268l0 0c-30.11908 0 -54.53543 -24.4375 -54.53543 -54.58268z" fill-rule="evenodd"/><path fill="#171717" d="m160.45358 47.38988l72.6929 0l0 24.000004l-72.6929 0z" fill-rule="evenodd"/><path stroke="#171717" stroke-width="1.0" stroke-linejoin="round" stroke-linecap="butt" d="m160.45358 47.38988l72.6929 0l0 24.000004l-72.6929 0z" fill-rule="evenodd"/><path fill="#171717" d="m208.78784 23.005455l0 72.755905l-23.968506 0l0 -72.755905z" fill-rule="evenodd"/><path stroke="#171717" stroke-width="1.0" stroke-linejoin="round" stroke-linecap="butt" d="m208.78784 23.005455l0 72.755905l-23.968506 0l0 -72.755905z" fill-rule="evenodd"/><path fill="#171717" d="m160.45358 206.7741l72.6929 0l0 24.0l-72.6929 0z" fill-rule="evenodd"/><path stroke="#171717" stroke-width="1.0" stroke-linejoin="round" stroke-linecap="butt" d="m160.45358 206.7741l72.6929 0l0 24.0l-72.6929 0z" fill-rule="evenodd"/></g></svg>