<svg version="1.1" viewBox="0.0 0.0 393.6010498687664 393.6010498687664" fill="none" stroke="none" stroke-linecap="square" stroke-miterlimit="10" xmlns:xlink="http://www.w3.org/1999/xlink" xmlns="http://www.w3.org/2000/svg"><clipPath id="p.0"><path d="m0 0l393.60104 0l0 393.60104l-393.60104 0l0 -393.60104z" clip-rule="nonzero"/></clipPath><g clip-path="url(#p.0)"><path fill="#000000" fill-opacity="0.0" d="m0 0l393.60104 0l0 393.60104l-393.60104 0z" fill-rule="evenodd"/><path fill="#000000" fill-opacity="0.0" d="m4.7874017 114.47202l0 0c0 -32.44129 17.534927 -58.740158 39.16535 -58.740158l0 0c10.387299 0 20.349163 6.188675 27.694088 17.20459c7.3449326 11.015923 11.471268 25.95671 11.471268 41.53557l0 0c0 32.44129 -17.534927 58.74015 -39.165356 58.74015l0 0c-21.630426 0 -39.16535 -26.298859 -39.16535 -58.74015z" fill-rule="evenodd"/><path stroke="#ffffff" stroke-width="2.0" stroke-linejoin="round" stroke-linecap="butt" d="m4.7874017 114.47202l0 0c0 -32.44129 17.534927 -58.740158 39.16535 -58.740158l0 0c10.387299 0 20.349163 6.188675 27.694088 17.20459c7.3449326 11.015923 11.471268 25.95671 11.471268 41.53557l0 0c0 32.44129 -17.534927 58.74015 -39.165356 58.74015l0 0c-21.630426 0 -39.16535 -26.298859 -39.16535 -58.74015z" fill-rule="evenodd"/><path fill="#000000" fill-opacity="0.0" d="m106.804146 55.737217l78.336006 0" fill-rule="evenodd"/><path stroke="#ffffff" stroke-width="2.0" stroke-linejoin="round" stroke-linecap="butt" d="m106.804146 55.737217l78.336006 0" fill-rule="evenodd"/><path fill="#000000" fill-opacity="0.0" d="m185.14015 55.737217l0 117.48961" fill-rule="evenodd"/><path stroke="#ffffff" stroke-width="2.0" stroke-linejoin="round" stroke-linecap="butt" d="m185.14015 55.737217l0 117.48961" fill-rule="evenodd"/><path fill="#000000" fill-opacity="0.0" d="m208.62244 114.47202l0 0c0 -32.44129 17.534927 -58.740158 39.16536 -58.740158l0 0c10.387283 0 20.349167 6.188675 27.694077 17.20459c7.34494 11.015923 11.471283 25.95671 11.471283 41.53557l0 0c0 32.44129 -17.534943 58.74015 -39.16536 58.74015l0 0c-21.630432 0 -39.16536 -26.298859 -39.16536 -58.74015z" fill-rule="evenodd"/><path stroke="#ffffff" stroke-width="2.0" stroke-linejoin="round" stroke-linecap="butt" d="m208.62244 114.47202l0 0c0 -32.44129 17.534927 -58.740158 39.16536 -58.740158l0 0c10.387283 0 20.349167 6.188675 27.694077 17.20459c7.34494 11.015923 11.471283 25.95671 11.471283 41.53557l0 0c0 32.44129 -17.534943 58.74015 -39.16536 58.74015l0 0c-21.630432 0 -39.16536 -26.298859 -39.16536 -58.74015z" fill-rule="evenodd"/><path fill="#000000" fill-opacity="0.0" d="m145.95563 220.21278l0 117.4803" fill-rule="evenodd"/><path stroke="#ffffff" stroke-width="2.0" stroke-linejoin="round" stroke-linecap="butt" d="m145.95563 220.21278l0 117.4803" fill-rule="evenodd"/><path fill="#000000" fill-opacity="0.0" d="m310.47568 55.737217l78.336 0" fill-rule="evenodd"/><path stroke="#ffffff" stroke-width="2.0" stroke-linejoin="round" stroke-linecap="butt" d="m310.47568 55.737217l78.336 0" fill-rule="evenodd"/><path fill="#000000" fill-opacity="0.0" d="m388.81168 55.737217l0 117.48961" fill-rule="evenodd"/><path stroke="#ffffff" stroke-width="2.0" stroke-linejoin="round" stroke-linecap="butt" d="m388.81168 55.737217l0 117.48961" fill-rule="evenodd"/><path fill="#000000" fill-opacity="0.0" d="m388.81168 114.48202l-78.336 0" fill-rule="evenodd"/><path stroke="#ffffff" stroke-width="2.0" stroke-linejoin="round" stroke-linecap="butt" d="m388.81168 114.48202l-78.336 0" fill-rule="evenodd"/><path fill="#000000" fill-opacity="0.0" d="m310.47568 55.737217l0 58.7448" fill-rule="evenodd"/><path stroke="#ffffff" stroke-width="2.0" stroke-linejoin="round" stroke-linecap="butt" d="m310.47568 55.737217l0 58.7448" fill-rule="evenodd"/><path fill="#000000" fill-opacity="0.0" d="m5.0463357 220.22404l78.336006 0" fill-rule="evenodd"/><path stroke="#ffffff" stroke-width="2.0" stroke-linejoin="round" stroke-linecap="butt" d="m5.0463357 220.22404l78.336006 0" fill-rule="evenodd"/><path fill="#000000" fill-opacity="0.0" d="m83.38234 278.96884l-78.336006 0" fill-rule="evenodd"/><path stroke="#ffffff" stroke-width="2.0" stroke-linejoin="round" stroke-linecap="butt" d="m83.38234 278.96884l-78.336006 0" fill-rule="evenodd"/><path fill="#000000" fill-opacity="0.0" d="m83.38234 220.22404l0 58.744797" fill-rule="evenodd"/><path stroke="#ffffff" stroke-width="2.0" stroke-linejoin="round" stroke-linecap="butt" d="m83.38234 220.22404l0 58.744797" fill-rule="evenodd"/><path fill="#000000" fill-opacity="0.0" d="m6.018682 278.96777l0 58.744812" fill-rule="evenodd"/><path stroke="#ffffff" stroke-width="2.0" stroke-linejoin="round" stroke-linecap="butt" d="m6.018682 278.96777l0 58.744812" fill-rule="evenodd"/><path fill="#000000" fill-opacity="0.0" d="m5.0463357 337.71365l78.336006 0" fill-rule="evenodd"/><path stroke="#ffffff" stroke-width="2.0" stroke-linejoin="round" stroke-linecap="butt" d="m5.0463357 337.71365l78.336006 0" fill-rule="evenodd"/><path fill="#000000" fill-opacity="0.0" d="m208.64026 220.06786l78.336 0" fill-rule="evenodd"/><path stroke="#ffffff" stroke-width="2.0" stroke-linejoin="round" stroke-linecap="butt" d="m208.64026 220.06786l78.336 0" fill-rule="evenodd"/><path fill="#000000" fill-opacity="0.0" d="m286.97626 278.81265l-78.336 0" fill-rule="evenodd"/><path stroke="#ffffff" stroke-width="2.0" stroke-linejoin="round" stroke-linecap="butt" d="m286.97626 278.81265l-78.336 0" fill-rule="evenodd"/><path fill="#000000" fill-opacity="0.0" d="m286.97626 220.06786l0 58.744797" fill-rule="evenodd"/><path stroke="#ffffff" stroke-width="2.0" stroke-linejoin="round" stroke-linecap="butt" d="m286.97626 220.06786l0 58.744797" fill-rule="evenodd"/><path fill="#000000" fill-opacity="0.0" d="m286.97626 279.12317l0 58.74478" fill-rule="evenodd"/><path stroke="#ffffff" stroke-width="2.0" stroke-linejoin="round" stroke-linecap="butt" d="m286.97626 279.12317l0 58.74478" fill-rule="evenodd"/><path fill="#000000" fill-opacity="0.0" d="m208.64026 337.55746l78.336 0" fill-rule="evenodd"/><path stroke="#ffffff" stroke-width="2.0" stroke-linejoin="round" stroke-linecap="butt" d="m208.64026 337.55746l78.336 0" fill-rule="evenodd"/><path fill="#000000" fill-opacity="0.0" d="m310.473 220.06892l78.336 0" fill-rule="evenodd"/><path stroke="#ffffff" stroke-width="2.0" stroke-linejoin="round" stroke-linecap="butt" d="m310.473 220.06892l78.336 0" fill-rule="evenodd"/><path fill="#000000" fill-opacity="0.0" d="m388.809 278.81372l-78.336 0" fill-rule="evenodd"/><path stroke="#ffffff" stroke-width="2.0" stroke-linejoin="round" stroke-linecap="butt" d="m388.809 278.81372l-78.336 0" fill-rule="evenodd"/><path fill="#000000" fill-opacity="0.0" d="m388.809 220.06892l0 58.744797" fill-rule="evenodd"/><path stroke="#ffffff" stroke-width="2.0" stroke-linejoin="round" stroke-linecap="butt" d="m388.809 220.06892l0 58.744797" fill-rule="evenodd"/><path fill="#000000" fill-opacity="0.0" d="m388.809 279.12424l0 58.744812" fill-rule="evenodd"/><path stroke="#ffffff" stroke-width="2.0" stroke-linejoin="round" stroke-linecap="butt" d="m388.809 279.12424l0 58.744812" fill-rule="evenodd"/><path fill="#000000" fill-opacity="0.0" d="m310.473 337.55853l78.336 0" fill-rule="evenodd"/><path stroke="#ffffff" stroke-width="2.0" stroke-linejoin="round" stroke-linecap="butt" d="m310.473 337.55853l78.336 0" fill-rule="evenodd"/></g></svg>