<svg version="1.1" viewBox="0.0 0.0 393.6010498687664 393.6010498687664" fill="none" stroke="none" stroke-linecap="square" stroke-miterlimit="10" xmlns:xlink="http://www.w3.org/1999/xlink" xmlns="http://www.w3.org/2000/svg"><clipPath id="p.0"><path d="m0 0l393.60104 0l0 393.60104l-393.60104 0l0 -393.60104z" clip-rule="nonzero"/></clipPath><g clip-path="url(#p.0)"><path fill="#000000" fill-opacity="0.0" d="m0 0l393.60104 0l0 393.60104l-393.60104 0z" fill-rule="evenodd"/><path fill="#ffffff" d="m30.922573 388.79147l30.41521 -44.283447l270.9176 0l30.415192 44.283447z" fill-rule="evenodd"/><path stroke="#ffffff" stroke-width="1.0" stroke-linejoin="round" stroke-linecap="butt" d="m30.922573 388.79147l30.41521 -44.283447l270.9176 0l30.415192 44.283447z" fill-rule="evenodd"/><path fill="#ffffff" d="m168.94743 388.79593l13.921265 -331.71655l27.842514 0l13.921265 331.71655z" fill-rule="evenodd"/><path fill="#ffffff" d="m149.68246 51.92126l38.78871 -8.329384l8.3293915 -38.788727l8.329376 38.788727l38.788727 8.329384l-38.788727 8.329384l-8.329376 38.788723l-8.3293915 -38.788723z" fill-rule="evenodd"/><path stroke="#ffffff" stroke-width="1.0" stroke-linejoin="round" stroke-linecap="butt" d="m149.68246 51.92126l38.78871 -8.329384l8.3293915 -38.788727l8.329376 38.788727l38.788727 8.329384l-38.788727 8.329384l-8.329376 38.788723l-8.3293915 -38.788723z" fill-rule="evenodd"/><path fill="#ffffff" d="m268.44235 104.1975l0 0c0 -26.022614 21.09549 -47.118114 47.118103 -47.118114l0 0c12.4964905 0 24.48117 4.964218 33.317535 13.800579c8.836365 8.836357 13.800568 20.82103 13.800568 33.317535l0 0c0 26.022606 -21.09549 47.11811 -47.118103 47.11811l0 0c-26.022614 0 -47.118103 -21.095505 -47.118103 -47.11811z" fill-rule="evenodd"/><path stroke="#ffffff" stroke-width="1.0" stroke-linejoin="round" stroke-linecap="butt" d="m268.44235 104.1975l0 0c0 -26.022614 21.09549 -47.118114 47.118103 -47.118114l0 0c12.4964905 0 24.48117 4.964218 33.317535 13.800579c8.836365 8.836357 13.800568 20.82103 13.800568 33.317535l0 0c0 26.022606 -21.09549 47.11811 -47.118103 47.11811l0 0c-26.022614 0 -47.118103 -21.095505 -47.118103 -47.11811z" fill-rule="evenodd"/></g></svg>