<svg version="1.1" viewBox="0.0 0.0 316.8005249343832 316.8005249343832" fill="none" stroke="none" stroke-linecap="square" stroke-miterlimit="10" xmlns:xlink="http://www.w3.org/1999/xlink" xmlns="http://www.w3.org/2000/svg"><clipPath id="p.0"><path d="m0 0l316.80054 0l0 316.80054l-316.80054 0l0 -316.80054z" clip-rule="nonzero"/></clipPath><g clip-path="url(#p.0)"><path fill="#000000" fill-opacity="0.0" d="m0 0l316.80054 0l0 316.80054l-316.80054 0z" fill-rule="evenodd"/><path fill="#171717" d="m67.22782 111.58072l0 0l0 0c16.560371 0 32.442467 6.578575 44.152412 18.288528c11.709953 11.709946 18.288528 27.592041 18.288528 44.15242l0 107.322815c0 5.79834E-4 -4.5776367E-4 0.0010681152 -0.0010375977 0.0010681152l-124.880844 -0.0010681152l0 0c-5.745888E-4 0 -0.0010409355 -4.5776367E-4 -0.0010409355 -0.0010375977l0.0010409355 -107.32178l0 0c0 -34.485184 27.955765 -62.44095 62.440945 -62.44095z" fill-rule="evenodd"/><path stroke="#ffffff" stroke-width="2.0" stroke-linejoin="round" stroke-linecap="butt" d="m67.22782 111.58072l0 0l0 0c16.560371 0 32.442467 6.578575 44.152412 18.288528c11.709953 11.709946 18.288528 27.592041 18.288528 44.15242l0 107.322815c0 5.79834E-4 -4.5776367E-4 0.0010681152 -0.0010375977 0.0010681152l-124.880844 -0.0010681152l0 0c-5.745888E-4 0 -0.0010409355 -4.5776367E-4 -0.0010409355 -0.0010375977l0.0010409355 -107.32178l0 0c0 -34.485184 27.955765 -62.44095 62.440945 -62.44095z" fill-rule="evenodd"/><path fill="#171717" d="m15.183894 87.482414l0 0c0 -28.753597 23.281193 -52.062992 51.999996 -52.062992l0 0c13.79126 0 27.017662 5.4851913 36.769554 15.248898c9.751892 9.763706 15.230446 23.006134 15.230446 36.814095l0 0c0 28.753593 -23.281189 52.062996 -52.0 52.062996l0 0c-28.718803 0 -51.999996 -23.309402 -51.999996 -52.062996z" fill-rule="evenodd"/><path stroke="#ffffff" stroke-width="2.0" stroke-linejoin="round" stroke-linecap="butt" d="m15.183894 87.482414l0 0c0 -28.753597 23.281193 -52.062992 51.999996 -52.062992l0 0c13.79126 0 27.017662 5.4851913 36.769554 15.248898c9.751892 9.763706 15.230446 23.006134 15.230446 36.814095l0 0c0 28.753593 -23.281189 52.062996 -52.0 52.062996l0 0c-28.718803 0 -51.999996 -23.309402 -51.999996 -52.062996z" fill-rule="evenodd"/><path fill="#171717" d="m249.57323 111.58067l0 0l0 0c16.560379 0 32.44246 6.578575 44.15242 18.288528c11.70993 11.709946 18.288513 27.592041 18.288513 44.15242l0 107.32283c0 5.79834E-4 -4.5776367E-4 0.0010375977 -0.0010375977 0.0010375977l-124.880844 -0.0010375977l0 0c-5.645752E-4 0 -0.0010375977 -4.5776367E-4 -0.0010375977 -0.0010375977l0.0010375977 -107.32179l0 0c0 -34.485184 27.955765 -62.44095 62.44095 -62.44095z" fill-rule="evenodd"/><path stroke="#ffffff" stroke-width="2.0" stroke-linejoin="round" stroke-linecap="butt" d="m249.57323 111.58067l0 0l0 0c16.560379 0 32.44246 6.578575 44.15242 18.288528c11.70993 11.709946 18.288513 27.592041 18.288513 44.15242l0 107.32283c0 5.79834E-4 -4.5776367E-4 0.0010375977 -0.0010375977 0.0010375977l-124.880844 -0.0010375977l0 0c-5.645752E-4 0 -0.0010375977 -4.5776367E-4 -0.0010375977 -0.0010375977l0.0010375977 -107.32179l0 0c0 -34.485184 27.955765 -62.44095 62.44095 -62.44095z" fill-rule="evenodd"/><path fill="#171717" d="m197.52992 87.482414l0 0c0 -28.753597 23.281189 -52.062992 52.0 -52.062992l0 0c13.7912445 0 27.017654 5.4851913 36.769547 15.248898c9.751892 9.763706 15.230438 23.006134 15.230438 36.814095l0 0c0 28.753593 -23.281189 52.062996 -51.999985 52.062996l0 0c-28.718811 0 -52.0 -23.309402 -52.0 -52.062996z" fill-rule="evenodd"/><path stroke="#ffffff" stroke-width="2.0" stroke-linejoin="round" stroke-linecap="butt" d="m197.52992 87.482414l0 0c0 -28.753597 23.281189 -52.062992 52.0 -52.062992l0 0c13.7912445 0 27.017654 5.4851913 36.769547 15.248898c9.751892 9.763706 15.230438 23.006134 15.230438 36.814095l0 0c0 28.753593 -23.281189 52.062996 -51.999985 52.062996l0 0c-28.718811 0 -52.0 -23.309402 -52.0 -52.062996z" fill-rule="evenodd"/><path fill="#171717" d="m158.40083 156.40312l0 0l0 0c16.560364 0 32.442474 6.578583 44.15242 18.288528c11.709946 11.709946 18.288528 27.592041 18.288528 44.15242l0 62.535416c0 5.79834E-4 -4.7302246E-4 0.0010681152 -0.0010375977 0.0010681152l-124.88085 -0.0010681152l0 0c-5.79834E-4 0 -0.001045227 -4.5776367E-4 -0.001045227 -0.0010375977l0.001045227 -62.534378l0 0c0 -34.485184 27.955757 -62.44095 62.44094 -62.44095z" fill-rule="evenodd"/><path stroke="#ffffff" stroke-width="2.0" stroke-linejoin="round" stroke-linecap="butt" d="m158.40083 156.40312l0 0l0 0c16.560364 0 32.442474 6.578583 44.15242 18.288528c11.709946 11.709946 18.288528 27.592041 18.288528 44.15242l0 62.535416c0 5.79834E-4 -4.7302246E-4 0.0010681152 -0.0010375977 0.0010681152l-124.88085 -0.0010681152l0 0c-5.79834E-4 0 -0.001045227 -4.5776367E-4 -0.001045227 -0.0010375977l0.001045227 -62.534378l0 0c0 -34.485184 27.955757 -62.44095 62.44094 -62.44095z" fill-rule="evenodd"/><path fill="#171717" d="m106.3569 132.30327l0 0c0 -28.753601 23.281189 -52.062996 52.0 -52.062996l0 0c13.79126 0 27.01767 5.4851913 36.76956 15.248894c9.751892 9.763702 15.230438 23.006134 15.230438 36.814102l0 0c0 28.753586 -23.281189 52.06299 -52.0 52.06299l0 0c-28.718811 0 -52.0 -23.309402 -52.0 -52.06299z" fill-rule="evenodd"/><path stroke="#ffffff" stroke-width="2.0" stroke-linejoin="round" stroke-linecap="butt" d="m106.3569 132.30327l0 0c0 -28.753601 23.281189 -52.062996 52.0 -52.062996l0 0c13.79126 0 27.01767 5.4851913 36.76956 15.248894c9.751892 9.763702 15.230438 23.006134 15.230438 36.814102l0 0c0 28.753586 -23.281189 52.06299 -52.0 52.06299l0 0c-28.718811 0 -52.0 -23.309402 -52.0 -52.06299z" fill-rule="evenodd"/></g></svg>