<svg version="1.1" viewBox="0.0 0.0 393.6010498687664 393.6010498687664" fill="none" stroke="none" stroke-linecap="square" stroke-miterlimit="10" xmlns:xlink="http://www.w3.org/1999/xlink" xmlns="http://www.w3.org/2000/svg"><clipPath id="p.0"><path d="m0 0l393.60104 0l0 393.60104l-393.60104 0l0 -393.60104z" clip-rule="nonzero"/></clipPath><g clip-path="url(#p.0)"><path fill="#000000" fill-opacity="0.0" d="m0 0l393.60104 0l0 393.60104l-393.60104 0z" fill-rule="evenodd"/><path fill="#ffffff" d="m164.43723 296.27145l8.40744 8.418945l-84.0192 84.1344l-8.407433 -8.418945z" fill-rule="evenodd"/><path stroke="#ffffff" stroke-width="1.0" stroke-linejoin="round" stroke-linecap="butt" d="m164.43723 296.27145l8.40744 8.418945l-84.0192 84.1344l-8.407433 -8.418945z" fill-rule="evenodd"/><path fill="#ffffff" d="m88.81857 220.5491l8.407433 8.418961l-84.0192 84.134384l-8.4074335 -8.418945z" fill-rule="evenodd"/><path stroke="#ffffff" stroke-width="1.0" stroke-linejoin="round" stroke-linecap="butt" d="m88.81857 220.5491l8.407433 8.418961l-84.0192 84.134384l-8.4074335 -8.418945z" fill-rule="evenodd"/><path fill="#ffffff" d="m89.14246 220.22476l0 0c15.047333 -15.067963 36.993507 -20.926102 57.534264 -15.357727c20.540756 5.5683746 36.53862 21.712723 41.94014 42.324142c5.4015045 20.611435 -0.6183777 42.54167 -15.781784 57.492477l-8.424133 -8.567352c12.098877 -11.92926 16.902145 -29.427399 12.592285 -45.87326c-4.3098755 -16.445847 -17.07457 -29.327423 -33.464035 -33.77043c-16.389473 -4.442993 -33.90033 0.23120117 -45.906593 12.253937z" fill-rule="evenodd"/><path stroke="#ffffff" stroke-width="1.0" stroke-linejoin="round" stroke-linecap="butt" d="m89.14246 220.22476l0 0c15.047333 -15.067963 36.993507 -20.926102 57.534264 -15.357727c20.540756 5.5683746 36.53862 21.712723 41.94014 42.324142c5.4015045 20.611435 -0.6183777 42.54167 -15.781784 57.492477l-8.424133 -8.567352c12.098877 -11.92926 16.902145 -29.427399 12.592285 -45.87326c-4.3098755 -16.445847 -17.07457 -29.327423 -33.464035 -33.77043c-16.389473 -4.442993 -33.90033 0.23120117 -45.906593 12.253937z" fill-rule="evenodd"/><path fill="#ffffff" d="m295.82068 164.63354l8.40744 8.418961l84.019196 -84.1344l-8.40744 -8.418961z" fill-rule="evenodd"/><path stroke="#ffffff" stroke-width="1.0" stroke-linejoin="round" stroke-linecap="butt" d="m295.82068 164.63354l8.40744 8.418961l84.019196 -84.1344l-8.40744 -8.418961z" fill-rule="evenodd"/><path fill="#ffffff" d="m220.20201 88.9112l8.40744 8.418961l84.01918 -84.1344l-8.40741 -8.418961z" fill-rule="evenodd"/><path stroke="#ffffff" stroke-width="1.0" stroke-linejoin="round" stroke-linecap="butt" d="m220.20201 88.9112l8.40744 8.418961l84.01918 -84.1344l-8.40741 -8.418961z" fill-rule="evenodd"/><path fill="#ffffff" d="m219.87811 89.23554l0 0c-15.047333 15.067963 -20.89743 37.044228 -15.336685 57.61315c5.5607452 20.568909 21.682983 36.588715 42.266174 41.997635c20.583206 5.4089203 42.483414 -0.6192169 57.413773 -15.803421l-8.555634 -8.435684c-11.912933 12.1154785 -29.387115 16.925323 -45.81044 12.609543c-16.42334 -4.3157654 -29.287277 -17.097977 -33.724197 -33.50992c-4.43692 -16.411934 0.230896 -33.9468 12.237152 -45.96953z" fill-rule="evenodd"/><path stroke="#ffffff" stroke-width="1.0" stroke-linejoin="round" stroke-linecap="butt" d="m219.87811 89.23554l0 0c-15.047333 15.067963 -20.89743 37.044228 -15.336685 57.61315c5.5607452 20.568909 21.682983 36.588715 42.266174 41.997635c20.583206 5.4089203 42.483414 -0.6192169 57.413773 -15.803421l-8.555634 -8.435684c-11.912933 12.1154785 -29.387115 16.925323 -45.81044 12.609543c-16.42334 -4.3157654 -29.287277 -17.097977 -33.724197 -33.50992c-4.43692 -16.411934 0.230896 -33.9468 12.237152 -45.96953z" fill-rule="evenodd"/><path fill="#ffffff" d="m229.16365 296.27258l-8.40744 8.418976l84.01921 84.1344l8.40744 -8.418976z" fill-rule="evenodd"/><path stroke="#ffffff" stroke-width="1.0" stroke-linejoin="round" stroke-linecap="butt" d="m229.16365 296.27258l-8.40744 8.418976l84.01921 84.1344l8.40744 -8.418976z" fill-rule="evenodd"/><path fill="#ffffff" d="m304.78232 220.55025l-8.40744 8.418961l84.019196 84.1344l8.40744 -8.418945z" fill-rule="evenodd"/><path stroke="#ffffff" stroke-width="1.0" stroke-linejoin="round" stroke-linecap="butt" d="m304.78232 220.55025l-8.40744 8.418961l84.019196 84.1344l8.40744 -8.418945z" fill-rule="evenodd"/><path fill="#ffffff" d="m304.4584 220.22592l0 0c-15.047333 -15.067978 -36.9935 -20.926102 -57.534256 -15.357727c-20.540756 5.5683594 -36.53862 21.712708 -41.94014 42.324127c-5.4015045 20.61142 0.6183777 42.541656 15.781784 57.492493l8.424133 -8.567352c-12.098877 -11.92926 -16.902145 -29.427399 -12.592285 -45.87326c4.3098755 -16.445862 17.07457 -29.327438 33.46405 -33.77043c16.38945 -4.4430084 33.900314 0.23120117 45.90657 12.2539215z" fill-rule="evenodd"/><path stroke="#ffffff" stroke-width="1.0" stroke-linejoin="round" stroke-linecap="butt" d="m304.4584 220.22592l0 0c-15.047333 -15.067978 -36.9935 -20.926102 -57.534256 -15.357727c-20.540756 5.5683594 -36.53862 21.712708 -41.94014 42.324127c-5.4015045 20.61142 0.6183777 42.541656 15.781784 57.492493l8.424133 -8.567352c-12.098877 -11.92926 -16.902145 -29.427399 -12.592285 -45.87326c4.3098755 -16.445862 17.07457 -29.327438 33.46405 -33.77043c16.38945 -4.4430084 33.900314 0.23120117 45.90657 12.2539215z" fill-rule="evenodd"/><path fill="#ffffff" d="m97.780205 164.63469l-8.407433 8.418961l-84.019196 -84.1344l8.4074335 -8.418961z" fill-rule="evenodd"/><path stroke="#ffffff" stroke-width="1.0" stroke-linejoin="round" stroke-linecap="butt" d="m97.780205 164.63469l-8.407433 8.418961l-84.019196 -84.1344l8.4074335 -8.418961z" fill-rule="evenodd"/><path fill="#ffffff" d="m173.39886 88.91235l-8.407425 8.418961l-84.01921 -84.1344l8.407433 -8.418961z" fill-rule="evenodd"/><path stroke="#ffffff" stroke-width="1.0" stroke-linejoin="round" stroke-linecap="butt" d="m173.39886 88.91235l-8.407425 8.418961l-84.01921 -84.1344l8.407433 -8.418961z" fill-rule="evenodd"/><path fill="#ffffff" d="m173.72276 89.23669l0 0c15.047333 15.06797 20.897446 37.044235 15.336685 57.61315c-5.5607452 20.568924 -21.682983 36.588715 -42.266174 41.997635c-20.583206 5.4089203 -42.48342 -0.6192169 -57.413773 -15.803406l8.555626 -8.435699c11.912933 12.1154785 29.387115 16.925323 45.810448 12.609558c16.42334 -4.3157806 29.287277 -17.097992 33.724197 -33.50992c4.43692 -16.41195 -0.23088074 -33.946808 -12.237152 -45.969536z" fill-rule="evenodd"/><path stroke="#ffffff" stroke-width="1.0" stroke-linejoin="round" stroke-linecap="butt" d="m173.72276 89.23669l0 0c15.047333 15.06797 20.897446 37.044235 15.336685 57.61315c-5.5607452 20.568924 -21.682983 36.588715 -42.266174 41.997635c-20.583206 5.4089203 -42.48342 -0.6192169 -57.413773 -15.803406l8.555626 -8.435699c11.912933 12.1154785 29.387115 16.925323 45.810448 12.609558c16.42334 -4.3157806 29.287277 -17.097992 33.724197 -33.50992c4.43692 -16.41195 -0.23088074 -33.946808 -12.237152 -45.969536z" fill-rule="evenodd"/></g></svg>