<svg version="1.1" viewBox="0.0 0.0 393.6010498687664 393.6010498687664" fill="none" stroke="none" stroke-linecap="square" stroke-miterlimit="10" xmlns:xlink="http://www.w3.org/1999/xlink" xmlns="http://www.w3.org/2000/svg"><clipPath id="p.0"><path d="m0 0l393.60104 0l0 393.60104l-393.60104 0l0 -393.60104z" clip-rule="nonzero"/></clipPath><g clip-path="url(#p.0)"><path fill="#000000" fill-opacity="0.0" d="m0 0l393.60104 0l0 393.60104l-393.60104 0z" fill-rule="evenodd"/><path fill="#ffffff" d="m169.60257 106.46201l20.440948 0l0 4.031494l-20.440948 0z" fill-rule="evenodd"/><path stroke="#ffffff" stroke-width="2.0" stroke-linejoin="round" stroke-linecap="butt" d="m169.60257 106.46201l20.440948 0l0 4.031494l-20.440948 0z" fill-rule="evenodd"/><path fill="#ffffff" d="m169.60257 83.42684l0 0c0 -14.968224 12.190552 -27.102364 27.228348 -27.102364l0 0c7.221405 0 14.147049 2.8554192 19.253342 7.9381027c5.106308 5.082672 7.975006 11.976265 7.975006 19.16426l0 0c0 14.968224 -12.190552 27.102364 -27.228348 27.102364l0 0c-15.037796 0 -27.228348 -12.13414 -27.228348 -27.102364z" fill-rule="evenodd"/><path stroke="#ffffff" stroke-width="2.0" stroke-linejoin="round" stroke-linecap="butt" d="m169.60257 83.42684l0 0c0 -14.968224 12.190552 -27.102364 27.228348 -27.102364l0 0c7.221405 0 14.147049 2.8554192 19.253342 7.9381027c5.106308 5.082672 7.975006 11.976265 7.975006 19.16426l0 0c0 14.968224 -12.190552 27.102364 -27.228348 27.102364l0 0c-15.037796 0 -27.228348 -12.13414 -27.228348 -27.102364z" fill-rule="evenodd"/><path fill="#171717" d="m173.6844 83.44288l0 0c0 -12.732986 10.364426 -23.055119 23.149597 -23.055119l0 0c6.1396637 0 12.027847 2.429016 16.369247 6.7526894c4.341385 4.323677 6.780365 10.187836 6.780365 16.30243l0 0c0 12.732994 -10.364441 23.055122 -23.149612 23.055122l0 0c-12.7851715 0 -23.149597 -10.322128 -23.149597 -23.055122z" fill-rule="evenodd"/><path stroke="#171717" stroke-width="2.0" stroke-linejoin="round" stroke-linecap="butt" d="m173.6844 83.44288l0 0c0 -12.732986 10.364426 -23.055119 23.149597 -23.055119l0 0c6.1396637 0 12.027847 2.429016 16.369247 6.7526894c4.341385 4.323677 6.780365 10.187836 6.780365 16.30243l0 0c0 12.732994 -10.364441 23.055122 -23.149612 23.055122l0 0c-12.7851715 0 -23.149597 -10.322128 -23.149597 -23.055122z" fill-rule="evenodd"/><path fill="#ffffff" d="m203.63266 106.46201l20.440948 0l0 4.031494l-20.440948 0z" fill-rule="evenodd"/><path stroke="#ffffff" stroke-width="2.0" stroke-linejoin="round" stroke-linecap="butt" d="m203.63266 106.46201l20.440948 0l0 4.031494l-20.440948 0z" fill-rule="evenodd"/><path fill="#171717" d="m190.02063 97.01359l13.606293 0l0 16.283463l-13.606293 0z" fill-rule="evenodd"/><path stroke="#171717" stroke-width="2.0" stroke-linejoin="round" stroke-linecap="butt" d="m190.02063 97.01359l13.606293 0l0 16.283463l-13.606293 0z" fill-rule="evenodd"/><path fill="#000000" fill-opacity="0.0" d="m170.3572 83.46404c-19.37796 0 -29.066925 19.582672 -38.755905 39.16535c-9.68898 19.582672 -19.37796 39.16536 -38.755913 39.16536" fill-rule="evenodd"/><path stroke="#ffffff" stroke-width="2.0" stroke-linejoin="round" stroke-linecap="butt" d="m170.3572 83.46404c-19.37796 0 -29.066925 19.582672 -38.755905 39.16535c-9.68898 19.582672 -19.37796 39.16536 -38.755913 39.16536" fill-rule="evenodd"/><path fill="#000000" fill-opacity="0.0" d="m223.29475 83.43182c19.37796 0 29.06694 19.58268 38.755905 39.16535c9.688995 19.58268 19.37796 39.16535 38.75592 39.16535" fill-rule="evenodd"/><path stroke="#ffffff" stroke-width="2.0" stroke-linejoin="round" stroke-linecap="butt" d="m223.29475 83.43182c19.37796 0 29.06694 19.58268 38.755905 39.16535c9.688995 19.58268 19.37796 39.16535 38.75592 39.16535" fill-rule="evenodd"/><path fill="#000000" fill-opacity="0.0" d="m170.39328 83.46404c-19.37796 0 -29.06694 -19.58268 -38.755905 -39.165356c-9.68898 -19.582678 -19.37796 -39.165356 -38.755913 -39.165356" fill-rule="evenodd"/><path stroke="#ffffff" stroke-width="2.0" stroke-linejoin="round" stroke-linecap="butt" d="m170.39328 83.46404c-19.37796 0 -29.06694 -19.58268 -38.755905 -39.165356c-9.68898 -19.582678 -19.37796 -39.165356 -38.755913 -39.165356" fill-rule="evenodd"/><path fill="#000000" fill-opacity="0.0" d="m223.33084 83.43182c19.37796 0 29.06694 -19.582676 38.75592 -39.165356c9.688965 -19.582676 19.37793 -39.16535 38.75589 -39.16535" fill-rule="evenodd"/><path stroke="#ffffff" stroke-width="2.0" stroke-linejoin="round" stroke-linecap="butt" d="m223.33084 83.43182c19.37796 0 29.06694 -19.582676 38.75592 -39.165356c9.688965 -19.582676 19.37793 -39.16535 38.75589 -39.16535" fill-rule="evenodd"/><path fill="#000000" fill-opacity="0.0" d="m92.44939 4.869128c0 19.582676 19.377953 29.374016 38.755905 39.16535c19.37796 9.79134 38.755905 19.58268 38.755905 39.165356" fill-rule="evenodd"/><path stroke="#ffffff" stroke-width="2.0" stroke-linejoin="round" stroke-linecap="butt" d="m92.44939 4.869128c0 19.582676 19.377953 29.374016 38.755905 39.16535c19.37796 9.79134 38.755905 19.58268 38.755905 39.165356" fill-rule="evenodd"/><path fill="#000000" fill-opacity="0.0" d="m92.44939 162.13176c0 -19.582672 19.377953 -29.374023 38.755905 -39.16535c19.37796 -9.791344 38.755905 -19.58268 38.755905 -39.16536" fill-rule="evenodd"/><path stroke="#ffffff" stroke-width="2.0" stroke-linejoin="round" stroke-linecap="butt" d="m92.44939 162.13176c0 -19.582672 19.377953 -29.374023 38.755905 -39.16535c19.37796 -9.791344 38.755905 -19.58268 38.755905 -39.16536" fill-rule="evenodd"/><path fill="#000000" fill-opacity="0.0" d="m301.27472 4.8005066c0 19.582678 -19.37793 29.374016 -38.75589 39.165356c-19.37796 9.791336 -38.755905 19.582676 -38.755905 39.165356" fill-rule="evenodd"/><path stroke="#ffffff" stroke-width="2.0" stroke-linejoin="round" stroke-linecap="butt" d="m301.27472 4.8005066c0 19.582678 -19.37793 29.374016 -38.75589 39.165356c-19.37796 9.791336 -38.755905 19.582676 -38.755905 39.165356" fill-rule="evenodd"/><path fill="#000000" fill-opacity="0.0" d="m301.27472 162.06314c0 -19.582687 -19.37793 -29.374023 -38.75589 -39.16536c-19.37796 -9.791336 -38.755905 -19.582672 -38.755905 -39.16535" fill-rule="evenodd"/><path stroke="#ffffff" stroke-width="2.0" stroke-linejoin="round" stroke-linecap="butt" d="m301.27472 162.06314c0 -19.582687 -19.37793 -29.374023 -38.75589 -39.16536c-19.37796 -9.791336 -38.755905 -19.582672 -38.755905 -39.16535" fill-rule="evenodd"/><path fill="#000000" fill-opacity="0.0" d="m147.48982 27.87606c-14.023636 13.881889 -7.0118103 34.704723 0 55.527557c7.0118103 20.822838 14.023621 41.645668 0 55.527565" fill-rule="evenodd"/><path stroke="#ffffff" stroke-width="2.0" stroke-linejoin="round" stroke-linecap="butt" d="m147.48982 27.87606c-14.023636 13.881889 -7.0118103 34.704723 0 55.527557c7.0118103 20.822838 14.023621 41.645668 0 55.527565" fill-rule="evenodd"/><path fill="#000000" fill-opacity="0.0" d="m246.11137 139.01958c14.023636 -13.881889 7.0118103 -34.704727 0 -55.527565c-7.0118103 -20.82283 -14.023621 -41.645664 0 -55.527557" fill-rule="evenodd"/><path stroke="#ffffff" stroke-width="2.0" stroke-linejoin="round" stroke-linecap="butt" d="m246.11137 139.01958c14.023636 -13.881889 7.0118103 -34.704727 0 -55.527565c-7.0118103 -20.82283 -14.023621 -41.645664 0 -55.527557" fill-rule="evenodd"/><path fill="#000000" fill-opacity="0.0" d="m147.54085 139.07753c-14.023621 -13.881889 -7.0118103 -34.70472 0 -55.527557c7.0118103 -20.822834 14.023621 -41.645668 0 -55.527557" fill-rule="evenodd"/><path stroke="#ffffff" stroke-width="2.0" stroke-linejoin="round" stroke-linecap="butt" d="m147.54085 139.07753c-14.023621 -13.881889 -7.0118103 -34.70472 0 -55.527557c7.0118103 -20.822834 14.023621 -41.645668 0 -55.527557" fill-rule="evenodd"/><path fill="#000000" fill-opacity="0.0" d="m246.11137 27.8181c14.023636 13.881889 7.0118103 34.704723 0 55.527557c-7.0118103 20.822838 -14.023621 41.645668 0 55.527557" fill-rule="evenodd"/><path stroke="#ffffff" stroke-width="2.0" stroke-linejoin="round" stroke-linecap="butt" d="m246.11137 27.8181c14.023636 13.881889 7.0118103 34.704723 0 55.527557c-7.0118103 20.822838 -14.023621 41.645668 0 55.527557" fill-rule="evenodd"/><path fill="#000000" fill-opacity="0.0" d="m196.54092 388.8005c-2.3385925 -0.01574707 -3.5078735 -70.543304 -4.67717 -141.07086c-1.1692963 -70.52756 -2.3385773 -141.05511 -4.67717 -141.07086" fill-rule="evenodd"/><path stroke="#ffffff" stroke-width="4.0" stroke-linejoin="round" stroke-linecap="butt" d="m196.54092 388.8005c-2.3385925 -0.01574707 -3.5078735 -70.543304 -4.67717 -141.07086c-1.1692963 -70.52756 -2.3385773 -141.05511 -4.67717 -141.07086" fill-rule="evenodd"/><path fill="#000000" fill-opacity="0.0" d="m206.04515 106.543c-2.3385925 -0.01574707 -3.5078735 70.49606 -4.67717 141.00787c-1.1692963 70.51181 -2.3385925 141.02362 -4.67717 141.00787" fill-rule="evenodd"/><path stroke="#ffffff" stroke-width="4.0" stroke-linejoin="round" stroke-linecap="butt" d="m206.04515 106.543c-2.3385925 -0.01574707 -3.5078735 70.49606 -4.67717 141.00787c-1.1692963 70.51181 -2.3385925 141.02362 -4.67717 141.00787" fill-rule="evenodd"/></g></svg>