<svg version="1.1" viewBox="0.0 0.0 393.6010498687664 393.6010498687664" fill="none" stroke="none" stroke-linecap="square" stroke-miterlimit="10" xmlns:xlink="http://www.w3.org/1999/xlink" xmlns="http://www.w3.org/2000/svg"><clipPath id="p.0"><path d="m0 0l393.60104 0l0 393.60104l-393.60104 0l0 -393.60104z" clip-rule="nonzero"/></clipPath><g clip-path="url(#p.0)"><path fill="#000000" fill-opacity="0.0" d="m0 0l393.60104 0l0 393.60104l-393.60104 0z" fill-rule="evenodd"/><path fill="#000000" fill-opacity="0.0" d="m100.80052 100.80052l0 0c0 -53.019333 42.980667 -96.0 96.0 -96.0l0 0c25.460785 0 49.87877 10.114257 67.88225 28.117748c18.00351 18.00349 28.117767 42.42147 28.117767 67.88225l0 0c0 53.019333 -42.980682 96.0 -96.000015 96.0l0 0c-53.019333 0 -96.0 -42.980667 -96.0 -96.0z" fill-rule="evenodd"/><path stroke="#ffffff" stroke-width="2.0" stroke-linejoin="round" stroke-linecap="butt" d="m100.80052 100.80052l0 0c0 -53.019333 42.980667 -96.0 96.0 -96.0l0 0c25.460785 0 49.87877 10.114257 67.88225 28.117748c18.00351 18.00349 28.117767 42.42147 28.117767 67.88225l0 0c0 53.019333 -42.980682 96.0 -96.000015 96.0l0 0c-53.019333 0 -96.0 -42.980667 -96.0 -96.0z" fill-rule="evenodd"/><path fill="#000000" fill-opacity="0.0" d="m100.80052 292.80054l0 0c0 -53.01935 42.980667 -96.000015 96.0 -96.000015l0 0c25.460785 0 49.87877 10.114258 67.88225 28.117752c18.00351 18.003494 28.117767 42.42148 28.117767 67.88226l0 0c0 53.019318 -42.980682 96.0 -96.000015 96.0l0 0c-53.019333 0 -96.0 -42.980682 -96.0 -96.0z" fill-rule="evenodd"/><path stroke="#ffffff" stroke-width="2.0" stroke-linejoin="round" stroke-linecap="butt" d="m100.80052 292.80054l0 0c0 -53.01935 42.980667 -96.000015 96.0 -96.000015l0 0c25.460785 0 49.87877 10.114258 67.88225 28.117752c18.00351 18.003494 28.117767 42.42148 28.117767 67.88226l0 0c0 53.019318 -42.980682 96.0 -96.000015 96.0l0 0c-53.019333 0 -96.0 -42.980682 -96.0 -96.0z" fill-rule="evenodd"/><path fill="#171717" d="m136.95305 160.80052l119.71654 0l0 72.0l-119.71654 0z" fill-rule="evenodd"/><path stroke="#171717" stroke-width="1.0" stroke-linejoin="round" stroke-linecap="butt" d="m136.95305 160.80052l119.71654 0l0 72.0l-119.71654 0z" fill-rule="evenodd"/><path fill="#000000" fill-opacity="0.0" d="m196.80577 100.80052l0 192.00002" fill-rule="evenodd"/><path stroke="#ffffff" stroke-width="2.0" stroke-linejoin="round" stroke-linecap="butt" d="m196.80577 100.80052l0 192.00002" fill-rule="evenodd"/><path fill="#000000" fill-opacity="0.0" d="m236.47945 128.91112l0 135.77953" fill-rule="evenodd"/><path stroke="#ffffff" stroke-width="2.0" stroke-linejoin="round" stroke-linecap="butt" d="m236.47945 128.91112l0 135.77953" fill-rule="evenodd"/><path fill="#000000" fill-opacity="0.0" d="m157.13138 128.91112l0 135.77953" fill-rule="evenodd"/><path stroke="#ffffff" stroke-width="2.0" stroke-linejoin="round" stroke-linecap="butt" d="m157.13138 128.91112l0 135.77953" fill-rule="evenodd"/><path fill="#000000" fill-opacity="0.0" d="m388.8058 196.80052l-132.1575 0" fill-rule="evenodd"/><path stroke="#ffffff" stroke-width="2.0" stroke-linejoin="round" stroke-linecap="butt" d="m388.8058 196.80052l-132.1575 0" fill-rule="evenodd"/><path fill="#000000" fill-opacity="0.0" d="m136.95305 196.80052l-132.15749 0" fill-rule="evenodd"/><path stroke="#ffffff" stroke-width="2.0" stroke-linejoin="round" stroke-linecap="butt" d="m136.95305 196.80052l-132.15749 0" fill-rule="evenodd"/><path fill="#171717" d="m182.41208 196.80052l0 0c0 -7.949417 6.444275 -14.393692 14.393692 -14.393692l0 0c3.8174438 0 7.478546 1.5164642 10.177887 4.215805c2.6993408 2.699356 4.2158203 6.360443 4.2158203 10.177887l0 0c0 7.949417 -6.444275 14.393707 -14.393707 14.393707l0 0c-7.949417 0 -14.393692 -6.44429 -14.393692 -14.393707z" fill-rule="evenodd"/><path stroke="#ffffff" stroke-width="2.0" stroke-linejoin="round" stroke-linecap="butt" d="m182.41208 196.80052l0 0c0 -7.949417 6.444275 -14.393692 14.393692 -14.393692l0 0c3.8174438 0 7.478546 1.5164642 10.177887 4.215805c2.6993408 2.699356 4.2158203 6.360443 4.2158203 10.177887l0 0c0 7.949417 -6.444275 14.393707 -14.393707 14.393707l0 0c-7.949417 0 -14.393692 -6.44429 -14.393692 -14.393707z" fill-rule="evenodd"/></g></svg>