<svg version="1.1" viewBox="0.0 0.0 393.6010498687664 393.6010498687664" fill="none" stroke="none" stroke-linecap="square" stroke-miterlimit="10" xmlns:xlink="http://www.w3.org/1999/xlink" xmlns="http://www.w3.org/2000/svg"><clipPath id="p.0"><path d="m0 0l393.60104 0l0 393.60104l-393.60104 0l0 -393.60104z" clip-rule="nonzero"/></clipPath><g clip-path="url(#p.0)"><path fill="#000000" fill-opacity="0.0" d="m0 0l393.60104 0l0 393.60104l-393.60104 0z" fill-rule="evenodd"/><path fill="#000000" fill-opacity="0.0" d="m132.73186 324.69867l0 0c0 17.003082 6.7428284 33.309784 18.745163 45.332794c12.002335 12.02298 28.280975 18.777435 45.254837 18.777435l0 -64.11023z" fill-rule="evenodd"/><path fill="#000000" fill-opacity="0.0" d="m132.73186 324.69867l0 0c0 17.003082 6.7428284 33.309784 18.745163 45.332794c12.002335 12.02298 28.280975 18.777435 45.254837 18.777435" fill-rule="evenodd"/><path stroke="#ffffff" stroke-width="8.0" stroke-linejoin="round" stroke-linecap="butt" d="m132.73186 324.69867l0 0c0 17.003082 6.7428284 33.309784 18.745163 45.332794c12.002335 12.02298 28.280975 18.777435 45.254837 18.777435" fill-rule="evenodd"/><path fill="#000000" fill-opacity="0.0" d="m260.7252 324.69867l0 0c0 17.003082 -6.7428284 33.309784 -18.745163 45.332794c-12.002319 12.02298 -28.280975 18.777435 -45.25482 18.777435l0 -64.11023z" fill-rule="evenodd"/><path fill="#000000" fill-opacity="0.0" d="m260.7252 324.69867l0 0c0 17.003082 -6.7428284 33.309784 -18.745163 45.332794c-12.002319 12.02298 -28.280975 18.777435 -45.25482 18.777435" fill-rule="evenodd"/><path stroke="#ffffff" stroke-width="8.0" stroke-linejoin="round" stroke-linecap="butt" d="m260.7252 324.69867l0 0c0 17.003082 -6.7428284 33.309784 -18.745163 45.332794c-12.002319 12.02298 -28.280975 18.777435 -45.25482 18.777435" fill-rule="evenodd"/><path fill="#000000" fill-opacity="0.0" d="m260.7252 325.0125c0 -32.055115 16.070862 -48.082672 32.141754 -64.11023c16.070862 -16.027573 32.141724 -32.05513 32.141724 -64.110245" fill-rule="evenodd"/><path stroke="#ffffff" stroke-width="8.0" stroke-linejoin="round" stroke-linecap="butt" d="m260.7252 325.0125c0 -32.055115 16.070862 -48.082672 32.141754 -64.11023c16.070862 -16.027573 32.141724 -32.05513 32.141724 -64.110245" fill-rule="evenodd"/><path fill="#000000" fill-opacity="0.0" d="m133.02144 325.0125c0 -32.055115 -16.07087 -48.082672 -32.14174 -64.11023c-16.07087 -16.027573 -32.14173 -32.05513 -32.14173 -64.110245" fill-rule="evenodd"/><path stroke="#ffffff" stroke-width="8.0" stroke-linejoin="round" stroke-linecap="butt" d="m133.02144 325.0125c0 -32.055115 -16.07087 -48.082672 -32.14174 -64.11023c-16.07087 -16.027573 -32.14173 -32.05513 -32.14173 -64.110245" fill-rule="evenodd"/><path fill="#000000" fill-opacity="0.0" d="m132.58707 68.90207l0 0c0 -17.003094 6.7428436 -33.309784 18.745163 -45.332783c12.002335 -12.023003 28.280975 -18.777454 45.254837 -18.777454l0 64.11024z" fill-rule="evenodd"/><path fill="#000000" fill-opacity="0.0" d="m132.58707 68.90207l0 0c0 -17.003094 6.7428436 -33.309784 18.745163 -45.332783c12.002335 -12.023003 28.280975 -18.777454 45.254837 -18.777454" fill-rule="evenodd"/><path stroke="#ffffff" stroke-width="8.0" stroke-linejoin="round" stroke-linecap="butt" d="m132.58707 68.90207l0 0c0 -17.003094 6.7428436 -33.309784 18.745163 -45.332783c12.002335 -12.023003 28.280975 -18.777454 45.254837 -18.777454" fill-rule="evenodd"/><path fill="#000000" fill-opacity="0.0" d="m260.5804 68.90207l0 0c0 -17.003094 -6.7428436 -33.309784 -18.745178 -45.332783c-12.002319 -12.023003 -28.280975 -18.777454 -45.25482 -18.777454l0 64.11024z" fill-rule="evenodd"/><path fill="#000000" fill-opacity="0.0" d="m260.5804 68.90207l0 0c0 -17.003094 -6.7428436 -33.309784 -18.745178 -45.332783c-12.002319 -12.023003 -28.280975 -18.777454 -45.25482 -18.777454" fill-rule="evenodd"/><path stroke="#ffffff" stroke-width="8.0" stroke-linejoin="round" stroke-linecap="butt" d="m260.5804 68.90207l0 0c0 -17.003094 -6.7428436 -33.309784 -18.745178 -45.332783c-12.002319 -12.023003 -28.280975 -18.777454 -45.25482 -18.777454" fill-rule="evenodd"/><path fill="#000000" fill-opacity="0.0" d="m260.5804 68.58823c0 32.055115 16.070862 48.082672 32.141724 64.11023c16.070862 16.027557 32.141724 32.055115 32.141724 64.110245" fill-rule="evenodd"/><path stroke="#ffffff" stroke-width="8.0" stroke-linejoin="round" stroke-linecap="butt" d="m260.5804 68.58823c0 32.055115 16.070862 48.082672 32.141724 64.11023c16.070862 16.027557 32.141724 32.055115 32.141724 64.110245" fill-rule="evenodd"/><path fill="#000000" fill-opacity="0.0" d="m132.87665 68.58823c0 32.055115 -16.07087 48.082672 -32.14174 64.11023c-16.070862 16.027557 -32.14173 32.055115 -32.14173 64.110245" fill-rule="evenodd"/><path stroke="#ffffff" stroke-width="8.0" stroke-linejoin="round" stroke-linecap="butt" d="m132.87665 68.58823c0 32.055115 -16.07087 48.082672 -32.14174 64.11023c-16.070862 16.027557 -32.14173 32.055115 -32.14173 64.110245" fill-rule="evenodd"/></g></svg>