<svg version="1.1" viewBox="0.0 0.0 288.0 316.8005249343832" fill="none" stroke="none" stroke-linecap="square" stroke-miterlimit="10" xmlns:xlink="http://www.w3.org/1999/xlink" xmlns="http://www.w3.org/2000/svg"><clipPath id="p.0"><path d="m0 0l288.0 0l0 316.80054l-288.0 0l0 -316.80054z" clip-rule="nonzero"/></clipPath><g clip-path="url(#p.0)"><path fill="#000000" fill-opacity="0.0" d="m0 0l288.0 0l0 316.80054l-288.0 0z" fill-rule="evenodd"/><path fill="#ffffff" d="m95.99606 245.41902l9.6063 0l0 -48.0l-9.6063 0z" fill-rule="evenodd"/><path stroke="#ffffff" stroke-width="1.0" stroke-linejoin="round" stroke-linecap="butt" d="m95.99606 245.41902l9.6063 0l0 -48.0l-9.6063 0z" fill-rule="evenodd"/><path fill="#ffffff" d="m105.60236 72.15958l-9.6063 0l0 48.0l9.6063 0z" fill-rule="evenodd"/><path stroke="#ffffff" stroke-width="1.0" stroke-linejoin="round" stroke-linecap="butt" d="m105.60236 72.15958l-9.6063 0l0 48.0l9.6063 0z" fill-rule="evenodd"/><path fill="#ffffff" d="m192.00394 71.7895l0 0c0 -17.193024 -9.195648 -33.072987 -24.107391 -41.631035c-14.911728 -8.558048 -33.261887 -8.486996 -48.106895 0.18627167c-14.8450165 8.673267 -23.917412 24.623962 -23.784271 41.816467l9.700508 -0.07511902c-0.10623169 -13.717903 7.1326294 -26.444962 18.97747 -33.365364c11.844841 -6.9203987 26.486427 -6.977091 38.3845 -0.14862442c11.898071 6.8284645 19.235275 19.499088 19.235275 33.217403z" fill-rule="evenodd"/><path stroke="#ffffff" stroke-width="1.0" stroke-linejoin="round" stroke-linecap="butt" d="m192.00394 71.7895l0 0c0 -17.193024 -9.195648 -33.072987 -24.107391 -41.631035c-14.911728 -8.558048 -33.261887 -8.486996 -48.106895 0.18627167c-14.8450165 8.673267 -23.917412 24.623962 -23.784271 41.816467l9.700508 -0.07511902c-0.10623169 -13.717903 7.1326294 -26.444962 18.97747 -33.365364c11.844841 -6.9203987 26.486427 -6.977091 38.3845 -0.14862442c11.898071 6.8284645 19.235275 19.499088 19.235275 33.217403z" fill-rule="evenodd"/><path fill="#ffffff" d="m108.529915 152.49521l0 0c-8.145309 -8.935852 -12.618172 -20.616577 -12.524536 -32.707344l9.700508 0.07511902c-0.07471466 9.64724 3.4941864 18.967278 9.993324 26.097206z" fill-rule="evenodd"/><path stroke="#ffffff" stroke-width="1.0" stroke-linejoin="round" stroke-linecap="butt" d="m108.529915 152.49521l0 0c-8.145309 -8.935852 -12.618172 -20.616577 -12.524536 -32.707344l9.700508 0.07511902c-0.07471466 9.64724 3.4941864 18.967278 9.993324 26.097206z" fill-rule="evenodd"/><path fill="#ffffff" d="m192.00394 245.78911l0 0c0 17.193008 -9.195648 33.072983 -24.107391 41.631027c-14.911728 8.558044 -33.261887 8.4869995 -48.106895 -0.1862793c-14.8450165 -8.673248 -23.917412 -24.623962 -23.784271 -41.816467l9.700508 0.07513428c-0.10623169 13.7178955 7.1326294 26.444946 18.97747 33.365356c11.844841 6.92041 26.486427 6.9770813 38.3845 0.1486206c11.898071 -6.8284607 19.235275 -19.499084 19.235275 -33.217392z" fill-rule="evenodd"/><path stroke="#ffffff" stroke-width="1.0" stroke-linejoin="round" stroke-linecap="butt" d="m192.00394 245.78911l0 0c0 17.193008 -9.195648 33.072983 -24.107391 41.631027c-14.911728 8.558044 -33.261887 8.4869995 -48.106895 -0.1862793c-14.8450165 -8.673248 -23.917412 -24.623962 -23.784271 -41.816467l9.700508 0.07513428c-0.10623169 13.7178955 7.1326294 26.444946 18.97747 33.365356c11.844841 6.92041 26.486427 6.9770813 38.3845 0.1486206c11.898071 -6.8284607 19.235275 -19.499084 19.235275 -33.217392z" fill-rule="evenodd"/><path fill="#ffffff" d="m143.99854 149.41942l0 0c-12.793869 0.0014343262 -25.05777 5.110367 -34.068794 14.192459c-9.011024 9.082108 -14.0234375 21.385757 -13.924362 34.179245l9.700508 -0.07511902c-0.079055786 -10.207916 3.9203568 -20.02501 11.110252 -27.271622c7.1898956 -7.2465973 16.975258 -11.323013 27.18348 -11.324158z" fill-rule="evenodd"/><path stroke="#ffffff" stroke-width="1.0" stroke-linejoin="round" stroke-linecap="butt" d="m143.99854 149.41942l0 0c-12.793869 0.0014343262 -25.05777 5.110367 -34.068794 14.192459c-9.011024 9.082108 -14.0234375 21.385757 -13.924362 34.179245l9.700508 -0.07511902c-0.079055786 -10.207916 3.9203568 -20.02501 11.110252 -27.271622c7.1898956 -7.2465973 16.975258 -11.323013 27.18348 -11.324158z" fill-rule="evenodd"/><path fill="#ffffff" d="m207.66829 233.17967l0 0c8.935867 -8.145294 20.616577 -12.618164 32.70735 -12.524536l-0.07511902 9.700516c-9.647232 -0.07470703 -18.96727 3.4941864 -26.097198 9.993332z" fill-rule="evenodd"/><path stroke="#ffffff" stroke-width="1.0" stroke-linejoin="round" stroke-linecap="butt" d="m207.66829 233.17967l0 0c8.935867 -8.145294 20.616577 -12.618164 32.70735 -12.524536l-0.07511902 9.700516c-9.647232 -0.07470703 -18.96727 3.4941864 -26.097198 9.993332z" fill-rule="evenodd"/><path fill="#ffffff" d="m207.66829 218.02274l0 0c8.935867 8.145309 20.616577 12.618179 32.70735 12.524536l-0.07511902 -9.7005005c-9.647232 0.07470703 -18.96727 -3.4942017 -26.097198 -9.993332z" fill-rule="evenodd"/><path stroke="#ffffff" stroke-width="1.0" stroke-linejoin="round" stroke-linecap="butt" d="m207.66829 218.02274l0 0c8.935867 8.145309 20.616577 12.618179 32.70735 12.524536l-0.07511902 -9.7005005c-9.647232 0.07470703 -18.96727 -3.4942017 -26.097198 -9.993332z" fill-rule="evenodd"/><path fill="#ffffff" d="m264.33728 220.79727l-24.000015 0l0 9.606308l24.000015 0z" fill-rule="evenodd"/><path stroke="#ffffff" stroke-width="1.0" stroke-linejoin="round" stroke-linecap="butt" d="m264.33728 220.79727l-24.000015 0l0 9.606308l24.000015 0z" fill-rule="evenodd"/><path fill="#ffffff" d="m80.3317 98.77968l0 0c-8.93586 -8.145302 -20.616573 -12.618172 -32.707348 -12.524536l0.07511902 9.700508c9.647232 -0.07471466 18.967274 3.4941864 26.097195 9.993332z" fill-rule="evenodd"/><path stroke="#ffffff" stroke-width="1.0" stroke-linejoin="round" stroke-linecap="butt" d="m80.3317 98.77968l0 0c-8.93586 -8.145302 -20.616573 -12.618172 -32.707348 -12.524536l0.07511902 9.700508c9.647232 -0.07471466 18.967274 3.4941864 26.097195 9.993332z" fill-rule="evenodd"/><path fill="#ffffff" d="m80.3317 83.622734l0 0c-8.93586 8.145309 -20.616573 12.618172 -32.707348 12.524544l0.07511902 -9.700516c9.647232 0.07471466 18.967274 -3.4941864 26.097195 -9.993324z" fill-rule="evenodd"/><path stroke="#ffffff" stroke-width="1.0" stroke-linejoin="round" stroke-linecap="butt" d="m80.3317 83.622734l0 0c-8.93586 8.145309 -20.616573 12.618172 -32.707348 12.524544l0.07511902 -9.700516c9.647232 0.07471466 18.967274 -3.4941864 26.097195 -9.993324z" fill-rule="evenodd"/><path fill="#ffffff" d="m23.66273 86.39728l24.000002 0l0 9.6063l-24.000002 0z" fill-rule="evenodd"/><path stroke="#ffffff" stroke-width="1.0" stroke-linejoin="round" stroke-linecap="butt" d="m23.66273 86.39728l24.000002 0l0 9.6063l-24.000002 0z" fill-rule="evenodd"/><path fill="#ffffff" d="m43.192913 159.00919l2.401577 67.2126l4.8031464 0l2.401577 -67.2126z" fill-rule="evenodd"/><path stroke="#ffffff" stroke-width="1.0" stroke-linejoin="round" stroke-linecap="butt" d="m43.192913 159.00919l2.401577 67.2126l4.8031464 0l2.401577 -67.2126z" fill-rule="evenodd"/><path fill="#ffffff" d="m43.192913 158.19817l2.401577 -19.2126l4.8031464 0l2.401577 19.2126z" fill-rule="evenodd"/><path stroke="#ffffff" stroke-width="1.0" stroke-linejoin="round" stroke-linecap="butt" d="m43.192913 158.19817l2.401577 -19.2126l4.8031464 0l2.401577 19.2126z" fill-rule="evenodd"/><path fill="#ffffff" d="m44.64173 128.56824l1.677166 9.606308l3.354332 0l1.677166 -9.606308z" fill-rule="evenodd"/><path stroke="#ffffff" stroke-width="1.0" stroke-linejoin="round" stroke-linecap="butt" d="m44.64173 128.56824l1.677166 9.606308l3.354332 0l1.677166 -9.606308z" fill-rule="evenodd"/><path fill="#ffffff" d="m44.64173 129.39502l3.354332 -9.606308l3.354332 9.606308z" fill-rule="evenodd"/><path stroke="#ffffff" stroke-width="1.0" stroke-linejoin="round" stroke-linecap="butt" d="m44.64173 129.39502l3.354332 -9.606308l3.354332 9.606308z" fill-rule="evenodd"/><path fill="#ffffff" d="m244.80708 91.04855l0 31.685043l-9.606293 0l0 -31.685043z" fill-rule="evenodd"/><path stroke="#ffffff" stroke-width="1.0" stroke-linejoin="round" stroke-linecap="butt" d="m244.80708 91.04855l0 31.685043l-9.606293 0l0 -31.685043z" fill-rule="evenodd"/><path fill="#ffffff" d="m235.20079 130.57611l4.8031464 67.2126l4.8031464 -67.2126z" fill-rule="evenodd"/><path stroke="#ffffff" stroke-width="1.0" stroke-linejoin="round" stroke-linecap="butt" d="m235.20079 130.57611l4.8031464 67.2126l4.8031464 -67.2126z" fill-rule="evenodd"/><path fill="#ffffff" d="m225.61023 122.7336l28.787415 0l0 7.842514l-28.787415 0z" fill-rule="evenodd"/><path stroke="#ffffff" stroke-width="1.0" stroke-linejoin="round" stroke-linecap="butt" d="m225.61023 122.7336l28.787415 0l0 7.842514l-28.787415 0z" fill-rule="evenodd"/></g></svg>