<svg version="1.1" viewBox="0.0 0.0 826.5590551181102 264.0" fill="none" stroke="none" stroke-linecap="square" stroke-miterlimit="10" xmlns:xlink="http://www.w3.org/1999/xlink" xmlns="http://www.w3.org/2000/svg"><clipPath id="p.0"><path d="m0 0l826.5591 0l0 264.0l-826.5591 0l0 -264.0z" clip-rule="nonzero"/></clipPath><g clip-path="url(#p.0)"><path fill="#000000" fill-opacity="0.0" d="m0 0l826.5591 0l0 264.0l-826.5591 0z" fill-rule="evenodd"/><path fill="#000000" fill-opacity="0.0" d="m106.347755 -0.23097113l711.748 0l0 165.13387l-711.748 0z" fill-rule="evenodd"/><path fill="#ffffff" d="m140.48839 43.5559l42.390625 0l0 44.140625q0 17.703125 -6.09375 26.0625q-6.078125 8.359375 -19.703125 8.359375q-13.609375 0 -19.703125 -8.359375q-6.078125 -8.359375 -6.078125 -26.0625l0 -44.140625l3.328125 0l0 44.140625q0 9.1875 1.546875 15.4375q1.546875 6.25 4.640625 9.578125q3.109375 3.3125 6.96875 4.703125q3.875 1.375 9.296875 1.375q5.4375 0 9.296875 -1.375q3.875 -1.390625 6.96875 -4.703125q3.109375 -3.328125 4.65625 -9.578125q1.546875 -6.25 1.546875 -15.4375l0 -40.828125l-39.0625 0l0 -3.3125zm104.58067 74.140625l30.53125 0l-13.390625 -36.75l6.203125 -3.53125q7.625 -4.203125 7.625 -13.390625q0 -17.15625 -26.109375 -17.15625l-10.171875 0l0 74.140625l-3.328125 0l0 -77.453125l13.5 0q14.609375 0 22.015625 5.375q7.421875 5.359375 7.421875 15.09375q0 11.0625 -9.296875 16.265625l-3.765625 2.09375l14.0625 38.625l-35.296875 0l0 -3.3125zm124.59827 -37.1875l-32.87497 0l33.859344 -33.640625l-37.390594 0l0 70.828125l42.921844 0l0 3.3125l-46.24997 0l0 -77.453125l48.796844 0l-33.859344 33.640625l24.796844 0l0 3.3125zm59.975403 -36.953125l0 77.453125l-3.328125 0l0 -77.453125l3.328125 0zm45.46875 0l-37.171875 36.953125l40.71875 40.5l-4.765625 0l-40.71875 -40.5l37.1875 -36.953125l4.75 0zm49.252777 74.140625l40.71875 0l-23.46875 -64.515625l-24.671875 67.828125l-3.546875 0l28.21875 -77.5625l28.21875 77.5625l-45.46875 0l0 -3.3125z" fill-rule="nonzero"/><path fill="#ffffff" d="m4.6735144 198.28572l3.8803148 0l0 -37.795288l-3.8803148 0z" fill-rule="evenodd"/><path stroke="#ffffff" stroke-width="1.0" stroke-linejoin="round" stroke-linecap="butt" d="m4.6735144 198.28572l3.8803148 0l0 -37.795288l-3.8803148 0z" fill-rule="evenodd"/><path fill="#ffffff" d="m8.500645 59.678154l-3.7795277 0l0 37.795273l3.7795277 0z" fill-rule="evenodd"/><path stroke="#ffffff" stroke-width="1.0" stroke-linejoin="round" stroke-linecap="butt" d="m8.500645 59.678154l-3.7795277 0l0 37.795273l3.7795277 0z" fill-rule="evenodd"/><path fill="#ffffff" d="m81.42384 59.407288l0 0c0 -13.744606 -7.336563 -26.442509 -19.24023 -33.300407c-11.903671 -6.8579025 -26.561424 -6.831293 -38.44015 0.06978035c-11.878724 6.9010735 -19.1692 19.625526 -19.119366 33.37004l3.8714628 -0.014057159l0 0c-0.044807434 -12.359699 6.510644 -23.802113 17.191755 -30.007872c10.681112 -6.205761 23.86107 -6.2296867 34.564613 -0.06274605c10.703541 6.1669426 17.300426 17.58548 17.300426 29.945263z" fill-rule="evenodd"/><path stroke="#ffffff" stroke-width="1.0" stroke-linejoin="round" stroke-linecap="butt" d="m81.42384 59.407288l0 0c0 -13.744606 -7.336563 -26.442509 -19.24023 -33.300407c-11.903671 -6.8579025 -26.561424 -6.831293 -38.44015 0.06978035c-11.878724 6.9010735 -19.1692 19.625526 -19.119366 33.37004l3.8714628 -0.014057159l0 0c-0.044807434 -12.359699 6.510644 -23.802113 17.191755 -30.007872c10.681112 -6.205761 23.86107 -6.2296867 34.564613 -0.06274605c10.703541 6.1669426 17.300426 17.58548 17.300426 29.945263z" fill-rule="evenodd"/><path fill="#ffffff" d="m14.672926 123.97956c-6.8965526 -7.575836 -10.483187 -17.59446 -9.962713 -27.829056l3.9240046 0.19981384l0 0c-0.46716022 9.187592 2.7521563 18.18132 8.94247 24.982376z" fill-rule="evenodd"/><path stroke="#ffffff" stroke-width="1.0" stroke-linejoin="round" stroke-linecap="butt" d="m14.672926 123.97956c-6.8965526 -7.575836 -10.483187 -17.59446 -9.962713 -27.829056l3.9240046 0.19981384l0 0c-0.46716022 9.187592 2.7521563 18.18132 8.94247 24.982376z" fill-rule="evenodd"/><path fill="#ffffff" d="m43.01952 121.48603l0 0c-10.431381 0.0011749268 -20.4134 4.248863 -27.650566 11.766258c-7.2371635 7.517395 -11.106617 17.657516 -10.718525 28.088516l3.9839244 -0.14842224l0 0c-0.3477726 -9.34874 3.1199665 -18.436783 9.605766 -25.17421c6.485798 -6.7374268 15.431473 -10.544403 24.779846 -10.545456z" fill-rule="evenodd"/><path stroke="#ffffff" stroke-width="1.0" stroke-linejoin="round" stroke-linecap="butt" d="m43.01952 121.48603l0 0c-10.431381 0.0011749268 -20.4134 4.248863 -27.650566 11.766258c-7.2371635 7.517395 -11.106617 17.657516 -10.718525 28.088516l3.9839244 -0.14842224l0 0c-0.3477726 -9.34874 3.1199665 -18.436783 9.605766 -25.17421c6.485798 -6.7374268 15.431473 -10.544403 24.779846 -10.545456z" fill-rule="evenodd"/><path fill="#ffffff" d="m4.6823936 197.016l0 0c-0.69081426 13.954163 6.2468715 27.183731 18.118357 34.550125c11.871487 7.3664093 26.805866 7.708725 39.002403 0.8939972c12.196541 -6.814728 19.7331 -19.712524 19.68238 -33.683685l-3.8740005 0.0140686035c0.04560852 12.562592 -6.731125 24.160019 -17.698006 30.28769c-10.966885 6.1276703 -24.395576 5.8198547 -35.070183 -0.8038635c-10.6746025 -6.6237183 -16.91283 -18.51947 -16.291664 -31.066788z" fill-rule="evenodd"/><path stroke="#ffffff" stroke-width="1.0" stroke-linejoin="round" stroke-linecap="butt" d="m4.6823936 197.016l0 0c-0.69081426 13.954163 6.2468715 27.183731 18.118357 34.550125c11.871487 7.3664093 26.805866 7.708725 39.002403 0.8939972c12.196541 -6.814728 19.7331 -19.712524 19.68238 -33.683685l-3.8740005 0.0140686035c0.04560852 12.562592 -6.731125 24.160019 -17.698006 30.28769c-10.966885 6.1276703 -24.395576 5.8198547 -35.070183 -0.8038635c-10.6746025 -6.6237183 -16.91283 -18.51947 -16.291664 -31.066788z" fill-rule="evenodd"/><path fill="#ffffff" d="m62.247627 125.26485l0 -3.7795334l-19.2 0l0 3.7795334z" fill-rule="evenodd"/><path stroke="#ffffff" stroke-width="1.0" stroke-linejoin="round" stroke-linecap="butt" d="m62.247627 125.26485l0 -3.7795334l-19.2 0l0 3.7795334z" fill-rule="evenodd"/><path fill="#000000" fill-opacity="0.0" d="m110.18871 129.77428l711.74805 0l0 134.45668l-711.74805 0z" fill-rule="evenodd"/><path fill="#ffffff" d="m170.6731 215.7724q-2.3125 5.625 -6.5 8.703125q-4.171875 3.078125 -12.53125 3.078125q-10.5 0 -15.203125 -6.4375q-4.6875 -6.453125 -4.6875 -20.109375l0 -8.359375q0 -13.65625 4.6875 -20.09375q4.703125 -6.4375 15.203125 -6.4375q8.359375 0 12.53125 3.078125q4.1875 3.0625 6.5 8.6875l-2.3125 1.109375q-1.953125 -4.9375 -5.546875 -7.625q-3.578125 -2.6875 -11.171875 -2.6875q-4.1875 0 -7.171875 1.0625q-2.984375 1.0625 -5.375 3.625q-2.390625 2.5625 -3.59375 7.390625q-1.1875 4.8125 -1.1875 11.890625l0 8.359375q0 7.09375 1.1875 11.921875q1.203125 4.8125 3.59375 7.375q2.390625 2.546875 5.375 3.625q2.984375 1.0625 7.171875 1.0625q7.59375 0 11.171875 -2.6875q3.59375 -2.6875 5.546875 -7.640625l2.3125 1.109375zm71.415634 5.34375q-4.6875 6.4375 -15.1875 6.4375q-10.5 0 -15.203125 -6.4375q-4.6875 -6.453125 -4.6875 -20.109375l0 -8.359375q0 -13.65625 4.6875 -20.09375q4.703125 -6.4375 15.203125 -6.4375q10.5 0 15.1875 6.4375q4.6875 6.4375 4.6875 20.09375l0 8.359375q0 13.65625 -4.6875 20.109375zm-8.03125 -51.375q-2.984375 -1.0625 -7.171875 -1.0625q-4.171875 0 -7.15625 1.0625q-2.984375 1.0625 -5.375 3.625q-2.390625 2.5625 -3.59375 7.390625q-1.1875 4.8125 -1.1875 11.890625l0 8.359375q0 7.09375 1.1875 11.921875q1.203125 4.8125 3.59375 7.375q2.390625 2.546875 5.375 3.625q2.984375 1.0625 7.15625 1.0625q4.1875 0 7.171875 -1.0625q3.0 -1.078125 5.390625 -3.625q2.390625 -2.5625 3.578125 -7.375q1.1875 -4.828125 1.1875 -11.921875l0 -8.359375q0 -7.078125 -1.1875 -11.890625q-1.1875 -4.828125 -3.578125 -7.390625q-2.390625 -2.5625 -5.390625 -3.625zm88.57521 54.390625l0 2.5625l-35.65625 0l0 -59.734375l2.546875 0l0 57.171875l33.109375 0zm70.566345 0l0 2.5625l-35.65628 0l0 -59.734375l2.546875 0l0 57.171875l33.109406 0zm65.535065 -28.671875l-25.34375 0l26.109375 -25.9375l-28.84375 0l0 54.609375l33.109375 0l0 2.5625l-35.65625 0l0 -59.734375l37.625 0l-26.109375 25.9375l19.109375 0l0 2.5625zm80.72702 20.3125q-2.3125 5.625 -6.5 8.703125q-4.171875 3.078125 -12.53125 3.078125q-10.5 0 -15.203125 -6.4375q-4.6875 -6.453125 -4.6875 -20.109375l0 -8.359375q0 -13.65625 4.6875 -20.09375q4.703125 -6.4375 15.203125 -6.4375q8.359375 0 12.53125 3.078125q4.1875 3.0625 6.5 8.6875l-2.3125 1.109375q-1.953125 -4.9375 -5.546875 -7.625q-3.578125 -2.6875 -11.171875 -2.6875q-4.1875 0 -7.171875 1.0625q-2.984375 1.0625 -5.375 3.625q-2.390625 2.5625 -3.59375 7.390625q-1.1875 4.8125 -1.1875 11.890625l0 8.359375q0 7.09375 1.1875 11.921875q1.203125 4.8125 3.59375 7.375q2.390625 2.546875 5.375 3.625q2.984375 1.0625 7.171875 1.0625q7.59375 0 11.171875 -2.6875q3.59375 -2.6875 5.546875 -7.640625l2.3125 1.109375zm73.71246 -48.8125l0 2.5625l-20.046875 0l0 57.171875l-2.5625 0l0 -57.171875l-20.046875 0l0 -2.5625l42.65625 0zm37.458252 59.734375l-2.546875 0l0 -59.734375l2.546875 0l0 59.734375zm43.610962 -59.734375l34.984375 0l-21.765625 59.8125l-21.75 -59.8125l2.734375 0l19.015625 52.3125l18.09375 -49.75l-31.3125 0l0 -2.5625zm100.68396 28.5l-25.34375 0l26.109375 -25.9375l-28.84375 0l0 54.609375l33.109375 0l0 2.5625l-35.65625 0l0 -59.734375l37.625 0l-26.109375 25.9375l19.109375 0l0 2.5625z" fill-rule="nonzero"/></g></svg>