<svg version="1.1" viewBox="0.0 0.0 316.8005249343832 316.8005249343832" fill="none" stroke="none" stroke-linecap="square" stroke-miterlimit="10" xmlns:xlink="http://www.w3.org/1999/xlink" xmlns="http://www.w3.org/2000/svg"><clipPath id="p.0"><path d="m0 0l316.80054 0l0 316.80054l-316.80054 0l0 -316.80054z" clip-rule="nonzero"/></clipPath><g clip-path="url(#p.0)"><path fill="#000000" fill-opacity="0.0" d="m0 0l316.80054 0l0 316.80054l-316.80054 0z" fill-rule="evenodd"/><path fill="#000000" fill-opacity="0.0" d="m49.34357 114.075455l0 -45.48031l90.645676 0l0 -45.480316" fill-rule="evenodd"/><path stroke="#ffffff" stroke-width="3.0" stroke-linejoin="round" stroke-linecap="butt" d="m49.34357 114.075455l0 -45.48031l90.645676 0l0 -45.480316" fill-rule="evenodd"/><path fill="#000000" fill-opacity="0.0" d="m176.78912 23.11665l0 45.480312l90.64569 0l0 45.480316" fill-rule="evenodd"/><path stroke="#ffffff" stroke-width="3.0" stroke-linejoin="round" stroke-linecap="butt" d="m176.78912 23.11665l0 45.480312l90.64569 0l0 45.480316" fill-rule="evenodd"/><path fill="#000000" fill-opacity="0.0" d="m49.34357 114.07371c0 22.74015 22.661419 34.110237 45.322834 45.48031c22.661415 11.370087 45.322838 22.740158 45.322838 45.480316" fill-rule="evenodd"/><path stroke="#ffffff" stroke-width="3.0" stroke-linejoin="round" stroke-linecap="butt" d="m49.34357 114.07371c0 22.74015 22.661419 34.110237 45.322834 45.48031c22.661415 11.370087 45.322838 22.740158 45.322838 45.480316" fill-rule="evenodd"/><path fill="#000000" fill-opacity="0.0" d="m223.00919 178.7787c0 22.740158 -11.5590515 34.110245 -23.118118 45.480316c-11.5590515 11.370087 -23.118103 22.740158 -23.118103 45.4803" fill-rule="evenodd"/><path stroke="#ffffff" stroke-width="3.0" stroke-linejoin="round" stroke-linecap="butt" d="m223.00919 178.7787c0 22.740158 -11.5590515 34.110245 -23.118118 45.480316c-11.5590515 11.370087 -23.118103 22.740158 -23.118103 45.4803" fill-rule="evenodd"/><path fill="#000000" fill-opacity="0.0" d="m267.45557 114.07371c0 22.74015 -22.661407 34.110237 -45.32283 45.48031c-22.661423 11.370087 -45.32283 22.740158 -45.32283 45.480316" fill-rule="evenodd"/><path stroke="#ffffff" stroke-width="3.0" stroke-linejoin="round" stroke-linecap="butt" d="m267.45557 114.07371c0 22.74015 -22.661407 34.110237 -45.32283 45.48031c-22.661423 11.370087 -45.32283 22.740158 -45.32283 45.480316" fill-rule="evenodd"/><path fill="#000000" fill-opacity="0.0" d="m176.78912 88.24635l0 45.480316l46.23622 0l0 45.480316" fill-rule="evenodd"/><path stroke="#ffffff" stroke-width="3.0" stroke-linejoin="round" stroke-linecap="butt" d="m176.78912 88.24635l0 45.480316l46.23622 0l0 45.480316" fill-rule="evenodd"/><path fill="#000000" fill-opacity="0.0" d="m140.01001 88.032684l0 45.480316l-46.23622 0l0 45.480316" fill-rule="evenodd"/><path stroke="#ffffff" stroke-width="3.0" stroke-linejoin="round" stroke-linecap="butt" d="m140.01001 88.032684l0 45.480316l-46.23622 0l0 45.480316" fill-rule="evenodd"/><path fill="#000000" fill-opacity="0.0" d="m93.796936 178.99237c0 22.740158 11.559059 34.11023 23.11811 45.480316c11.559059 11.370071 23.11811 22.740158 23.11811 45.480316" fill-rule="evenodd"/><path stroke="#ffffff" stroke-width="3.0" stroke-linejoin="round" stroke-linecap="butt" d="m93.796936 178.99237c0 22.740158 11.559059 34.11023 23.11811 45.480316c11.559059 11.370071 23.11811 22.740158 23.11811 45.480316" fill-rule="evenodd"/><path fill="#000000" fill-opacity="0.0" d="m176.59235 25.42845l0 268.25198" fill-rule="evenodd"/><path stroke="#ffffff" stroke-width="3.0" stroke-linejoin="round" stroke-linecap="butt" d="m176.59235 25.42845l0 268.25198" fill-rule="evenodd"/><path fill="#000000" fill-opacity="0.0" d="m140.20456 25.42845l0 268.25198" fill-rule="evenodd"/><path stroke="#ffffff" stroke-width="3.0" stroke-linejoin="round" stroke-linecap="butt" d="m140.20456 25.42845l0 268.25198" fill-rule="evenodd"/><path fill="#ffffff" d="m176.26443 23.114206l0.18896484 -0.15748024l-18.078735 -18.141731l-0.1889801 0.15748024z" fill-rule="evenodd"/><path stroke="#ffffff" stroke-width="3.0" stroke-linejoin="round" stroke-linecap="butt" d="m176.26443 23.114206l0.18896484 -0.15748024l-18.078735 -18.141731l-0.1889801 0.15748024z" fill-rule="evenodd"/><path fill="#ffffff" d="m158.55475 5.0010853l-0.15748596 -0.18897629l-18.078735 18.141731l0.15748596 0.1889782z" fill-rule="evenodd"/><path stroke="#ffffff" stroke-width="3.0" stroke-linejoin="round" stroke-linecap="butt" d="m158.55475 5.0010853l-0.15748596 -0.18897629l-18.078735 18.141731l0.15748596 0.1889782z" fill-rule="evenodd"/><path fill="#ffffff" d="m176.26443 293.68478l0.18896484 0.15750122l-18.078735 18.141724l-0.1889801 -0.1574707z" fill-rule="evenodd"/><path stroke="#ffffff" stroke-width="3.0" stroke-linejoin="round" stroke-linecap="butt" d="m176.26443 293.68478l0.18896484 0.15750122l-18.078735 18.141724l-0.1889801 -0.1574707z" fill-rule="evenodd"/><path fill="#ffffff" d="m158.55475 311.7979l-0.15748596 0.18896484l-18.078735 -18.141724l0.15748596 -0.18896484z" fill-rule="evenodd"/><path stroke="#ffffff" stroke-width="3.0" stroke-linejoin="round" stroke-linecap="butt" d="m158.55475 311.7979l-0.15748596 0.18896484l-18.078735 -18.141724l0.15748596 -0.18896484z" fill-rule="evenodd"/></g></svg>