<svg version="1.1" viewBox="0.0 0.0 393.6010498687664 393.6010498687664" fill="none" stroke="none" stroke-linecap="square" stroke-miterlimit="10" xmlns:xlink="http://www.w3.org/1999/xlink" xmlns="http://www.w3.org/2000/svg"><clipPath id="p.0"><path d="m0 0l393.60104 0l0 393.60104l-393.60104 0l0 -393.60104z" clip-rule="nonzero"/></clipPath><g clip-path="url(#p.0)"><path fill="#000000" fill-opacity="0.0" d="m0 0l393.60104 0l0 393.60104l-393.60104 0z" fill-rule="evenodd"/><path fill="#000000" fill-opacity="0.0" d="m196.80052 388.80054l0 0c-106.038666 0 -192.0 -85.961334 -192.0 -192.00002l0 0c0 -50.92157 20.228512 -99.757515 56.235497 -135.7645c36.006985 -36.006985 84.842926 -56.235497 135.7645 -56.235497l0 0c106.03868 0 192.00002 85.961334 192.00002 192.0l0 0c0 106.03868 -85.961334 192.00002 -192.00002 192.00002z" fill-rule="evenodd"/><path stroke="#ffffff" stroke-width="2.0" stroke-linejoin="round" stroke-linecap="butt" d="m196.80052 388.80054l0 0c-106.038666 0 -192.0 -85.961334 -192.0 -192.00002l0 0c0 -50.92157 20.228512 -99.757515 56.235497 -135.7645c36.006985 -36.006985 84.842926 -56.235497 135.7645 -56.235497l0 0c106.03868 0 192.00002 85.961334 192.00002 192.0l0 0c0 106.03868 -85.961334 192.00002 -192.00002 192.00002z" fill-rule="evenodd"/><path fill="#ffffff" d="m388.80054 196.80052l0 0c0 106.03868 -85.961334 192.00002 -192.00002 192.00002c-106.038666 0 -192.0 -85.961334 -192.0 -192.00002l0 0c18.045864 91.753555 98.48867 157.91615 192.0 157.91615c93.51134 0 173.95415 -66.1626 192.00002 -157.91615z" fill-rule="evenodd"/><path stroke="#ffffff" stroke-width="1.0" stroke-linejoin="round" stroke-linecap="butt" d="m388.80054 196.80052l0 0c0 106.03868 -85.961334 192.00002 -192.00002 192.00002c-106.038666 0 -192.0 -85.961334 -192.0 -192.00002l0 0c18.045864 91.753555 98.48867 157.91615 192.0 157.91615c93.51134 0 173.95415 -66.1626 192.00002 -157.91615z" fill-rule="evenodd"/><path fill="#000000" fill-opacity="0.0" d="m196.80052 388.7874l0 -230.61418" fill-rule="evenodd"/><path stroke="#ffffff" stroke-width="8.0" stroke-linejoin="round" stroke-linecap="butt" d="m196.80052 388.7874l0 -230.61418" fill-rule="evenodd"/><path fill="#000000" fill-opacity="0.0" d="m196.80052 158.17323l0 0c-13.254837 0 -24.0 -10.745178 -24.0 -24.0l0 0c0 -6.365204 2.5285645 -12.469696 7.029434 -16.970566c4.500885 -4.5008774 10.605377 -7.029442 16.970566 -7.029442l0 0c13.254837 0 24.0 10.745171 24.0 24.000008l0 0c0 13.254822 -10.745163 24.0 -24.0 24.0z" fill-rule="evenodd"/><path stroke="#ffffff" stroke-width="8.0" stroke-linejoin="round" stroke-linecap="butt" d="m196.80052 158.17323l0 0c-13.254837 0 -24.0 -10.745178 -24.0 -24.0l0 0c0 -6.365204 2.5285645 -12.469696 7.029434 -16.970566c4.500885 -4.5008774 10.605377 -7.029442 16.970566 -7.029442l0 0c13.254837 0 24.0 10.745171 24.0 24.000008l0 0c0 13.254822 -10.745163 24.0 -24.0 24.0z" fill-rule="evenodd"/></g></svg>