<svg version="1.1" viewBox="0.0 0.0 393.6010498687664 393.6010498687664" fill="none" stroke="none" stroke-linecap="square" stroke-miterlimit="10" xmlns:xlink="http://www.w3.org/1999/xlink" xmlns="http://www.w3.org/2000/svg"><clipPath id="p.0"><path d="m0 0l393.60104 0l0 393.60104l-393.60104 0l0 -393.60104z" clip-rule="nonzero"/></clipPath><g clip-path="url(#p.0)"><path fill="#000000" fill-opacity="0.0" d="m0 0l393.60104 0l0 393.60104l-393.60104 0z" fill-rule="evenodd"/><path fill="#ffffff" d="m196.84543 7.5677767l0 0c104.473145 0 189.16534 84.692215 189.16534 189.16534l0 0c0 50.169785 -19.92984 98.28473 -55.405243 133.7601c-35.475372 35.475403 -83.59033 55.405273 -133.7601 55.405273l0 0c-104.47314 0 -189.16534 -84.69223 -189.16534 -189.16537l0 0c0 -104.47313 84.692215 -189.16534 189.16534 -189.16534z" fill-rule="evenodd"/><path stroke="#ffffff" stroke-width="1.0" stroke-linejoin="round" stroke-linecap="butt" d="m196.84543 7.5677767l0 0c104.473145 0 189.16534 84.692215 189.16534 189.16534l0 0c0 50.169785 -19.92984 98.28473 -55.405243 133.7601c-35.475372 35.475403 -83.59033 55.405273 -133.7601 55.405273l0 0c-104.47314 0 -189.16534 -84.69223 -189.16534 -189.16537l0 0c0 -104.47313 84.692215 -189.16534 189.16534 -189.16534z" fill-rule="evenodd"/><path fill="#171717" d="m196.83165 16.00749l0 0c99.82002 0 180.74016 80.92012 180.74016 180.74016l0 0c0 47.935272 -19.042206 93.90723 -52.93756 127.80258c-33.895355 33.895355 -79.867325 52.93756 -127.8026 52.93756l0 0c-99.82004 0 -180.74016 -80.920105 -180.74016 -180.74014l0 0c0 -99.82004 80.92012 -180.74016 180.74016 -180.74016z" fill-rule="evenodd"/><path stroke="#ffffff" stroke-width="1.0" stroke-linejoin="round" stroke-linecap="butt" d="m196.83165 16.00749l0 0c99.82002 0 180.74016 80.92012 180.74016 180.74016l0 0c0 47.935272 -19.042206 93.90723 -52.93756 127.80258c-33.895355 33.895355 -79.867325 52.93756 -127.8026 52.93756l0 0c-99.82004 0 -180.74016 -80.920105 -180.74016 -180.74014l0 0c0 -99.82004 80.92012 -180.74016 180.74016 -180.74016z" fill-rule="evenodd"/><path fill="#ffffff" d="m165.23476 122.81745l0 0c-17.460236 0 -31.614563 14.15432 -31.614563 31.61457l0 0c0 8.384705 3.3308105 16.425995 9.259689 22.354874c5.928879 5.928879 13.970169 9.259689 22.354874 9.259689l0 0c17.46025 0 31.614578 -14.154327 31.614578 -31.614563l0 0c0 -17.46025 -14.154327 -31.61457 -31.614578 -31.61457z" fill-rule="evenodd"/><path stroke="#ffffff" stroke-width="1.0" stroke-linejoin="round" stroke-linecap="butt" d="m165.23476 122.81745l0 0c-17.460236 0 -31.614563 14.15432 -31.614563 31.61457l0 0c0 8.384705 3.3308105 16.425995 9.259689 22.354874c5.928879 5.928879 13.970169 9.259689 22.354874 9.259689l0 0c17.46025 0 31.614578 -14.154327 31.614578 -31.614563l0 0c0 -17.46025 -14.154327 -31.61457 -31.614578 -31.61457z" fill-rule="evenodd"/><path fill="#ffffff" d="m228.48463 271.10544l0 0c-17.46025 0 -31.614578 -14.154327 -31.614578 -31.614563l0 0c0 -8.384705 3.3308105 -16.425995 9.259705 -22.354874c5.928879 -5.928879 13.970169 -9.259689 22.354874 -9.259689l0 0c17.460236 0 31.614548 14.154327 31.614548 31.614563l0 0c0 17.460236 -14.154312 31.614563 -31.614548 31.614563z" fill-rule="evenodd"/><path stroke="#ffffff" stroke-width="1.0" stroke-linejoin="round" stroke-linecap="butt" d="m228.48463 271.10544l0 0c-17.46025 0 -31.614578 -14.154327 -31.614578 -31.614563l0 0c0 -8.384705 3.3308105 -16.425995 9.259705 -22.354874c5.928879 -5.928879 13.970169 -9.259689 22.354874 -9.259689l0 0c17.460236 0 31.614548 14.154327 31.614548 31.614563l0 0c0 17.460236 -14.154312 31.614563 -31.614548 31.614563z" fill-rule="evenodd"/><path fill="#ffffff" d="m232.99167 77.137436l0 0c0 -13.011391 -7.0045013 -25.018574 -18.339615 -31.437927c-11.335129 -6.4193573 -25.251175 -6.260002 -36.435852 0.4172325c-11.184677 6.677231 -17.91153 18.841656 -17.612656 31.849628l9.2747345 -0.21244049l0 0c-0.22239685 -9.669128 4.780411 -18.711273 13.098633 -23.674683c8.318222 -4.9634094 18.667847 -5.0819244 27.098022 -0.31030655c8.4301605 4.7716217 13.639572 13.696827 13.639572 23.368496z" fill-rule="evenodd"/><path stroke="#ffffff" stroke-width="1.0" stroke-linejoin="round" stroke-linecap="butt" d="m232.99167 77.137436l0 0c0 -13.011391 -7.0045013 -25.018574 -18.339615 -31.437927c-11.335129 -6.4193573 -25.251175 -6.260002 -36.435852 0.4172325c-11.184677 6.677231 -17.91153 18.841656 -17.612656 31.849628l9.2747345 -0.21244049l0 0c-0.22239685 -9.669128 4.780411 -18.711273 13.098633 -23.674683c8.318222 -4.9634094 18.667847 -5.0819244 27.098022 -0.31030655c8.4301605 4.7716217 13.639572 13.696827 13.639572 23.368496z" fill-rule="evenodd"/><path fill="#ffffff" d="m160.61009 316.46262l0 0c0 13.011414 7.0045166 25.018585 18.33963 31.437927c11.335114 6.4193726 25.25116 6.26001 36.435837 -0.41723633c11.184677 -6.6772156 17.91153 -18.841644 17.612656 -31.84961l-9.2747345 0.21243286l0 0c0.22239685 9.669128 -4.7803955 18.711273 -13.098618 23.674683c-8.318222 4.9634094 -18.667862 5.0819397 -27.098038 0.31030273c-8.4301605 -4.7716064 -13.639557 -13.696838 -13.639557 -23.3685z" fill-rule="evenodd"/><path stroke="#ffffff" stroke-width="1.0" stroke-linejoin="round" stroke-linecap="butt" d="m160.61009 316.46262l0 0c0 13.011414 7.0045166 25.018585 18.33963 31.437927c11.335114 6.4193726 25.25116 6.26001 36.435837 -0.41723633c11.184677 -6.6772156 17.91153 -18.841644 17.612656 -31.84961l-9.2747345 0.21243286l0 0c0.22239685 9.669128 -4.7803955 18.711273 -13.098618 23.674683c-8.318222 4.9634094 -18.667862 5.0819397 -27.098038 0.31030273c-8.4301605 -4.7716064 -13.639557 -13.696838 -13.639557 -23.3685z" fill-rule="evenodd"/><path fill="#ffffff" d="m160.7287 77.49826l0 238.94016l9.000778 0l0 -238.94016z" fill-rule="evenodd"/><path stroke="#ffffff" stroke-width="1.0" stroke-linejoin="round" stroke-linecap="butt" d="m160.7287 77.49826l0 238.94016l9.000778 0l0 -238.94016z" fill-rule="evenodd"/><path fill="#ffffff" d="m223.97856 316.42462l0 -238.94016l9.000778 0l0 238.94016z" fill-rule="evenodd"/><path stroke="#ffffff" stroke-width="1.0" stroke-linejoin="round" stroke-linecap="butt" d="m223.97856 316.42462l0 -238.94016l9.000778 0l0 238.94016z" fill-rule="evenodd"/><path fill="#171717" d="m228.48875 262.07257l0 0c-12.473801 0 -22.585815 -10.112015 -22.585815 -22.58583l0 0c0 -5.9901276 2.3795624 -11.734924 6.6152344 -15.970581c4.2356567 -4.235672 9.9804535 -6.6152344 15.970581 -6.6152344l0 0c12.473816 0 22.58583 10.112015 22.58583 22.585815l0 0c0 12.473816 -10.112015 22.58583 -22.58583 22.58583z" fill-rule="evenodd"/><path stroke="#ffffff" stroke-width="1.0" stroke-linejoin="round" stroke-linecap="butt" d="m228.48875 262.07257l0 0c-12.473801 0 -22.585815 -10.112015 -22.585815 -22.58583l0 0c0 -5.9901276 2.3795624 -11.734924 6.6152344 -15.970581c4.2356567 -4.235672 9.9804535 -6.6152344 15.970581 -6.6152344l0 0c12.473816 0 22.58583 10.112015 22.58583 22.585815l0 0c0 12.473816 -10.112015 22.58583 -22.58583 22.58583z" fill-rule="evenodd"/><path fill="#171717" d="m165.23889 131.85033l0 0c-12.473801 0 -22.58583 10.112015 -22.58583 22.58583l0 0c0 5.9901276 2.3795776 11.734924 6.6152344 15.970581c4.235672 4.235672 9.980469 6.6152344 15.970596 6.6152344l0 0c12.473816 0 22.58583 -10.112015 22.58583 -22.585815l0 0c0 -12.473816 -10.112015 -22.58583 -22.58583 -22.58583z" fill-rule="evenodd"/><path stroke="#ffffff" stroke-width="1.0" stroke-linejoin="round" stroke-linecap="butt" d="m165.23889 131.85033l0 0c-12.473801 0 -22.58583 10.112015 -22.58583 22.58583l0 0c0 5.9901276 2.3795776 11.734924 6.6152344 15.970581c4.235672 4.235672 9.980469 6.6152344 15.970596 6.6152344l0 0c12.473816 0 22.58583 -10.112015 22.58583 -22.585815l0 0c0 -12.473816 -10.112015 -22.58583 -22.58583 -22.58583z" fill-rule="evenodd"/></g></svg>