<svg version="1.1" viewBox="0.0 0.0 316.8005249343832 316.8005249343832" fill="none" stroke="none" stroke-linecap="square" stroke-miterlimit="10" xmlns:xlink="http://www.w3.org/1999/xlink" xmlns="http://www.w3.org/2000/svg"><clipPath id="p.0"><path d="m0 0l316.80054 0l0 316.80054l-316.80054 0l0 -316.80054z" clip-rule="nonzero"/></clipPath><g clip-path="url(#p.0)"><path fill="#000000" fill-opacity="0.0" d="m0 0l316.80054 0l0 316.80054l-316.80054 0z" fill-rule="evenodd"/><path fill="#000000" fill-opacity="0.0" d="m23.993439 4.794488l0 0c10.604301 0 19.200787 8.596485 19.200787 19.200787l-19.200787 0c5.3021507 0 9.600395 4.2982426 9.600395 9.600393c0 5.3021507 -4.2982445 9.600395 -9.600395 9.600395l19.200787 0l0 249.61024l0 0c0 10.604309 8.596485 19.200775 19.200787 19.200775l230.40945 0c10.604279 0 19.200775 -8.596466 19.200775 -19.200775c0 -10.604309 -8.596497 -19.200806 -19.200775 -19.200806l-19.200806 0l0 -249.61023c0 -10.604302 -8.596466 -19.200787 -19.200775 -19.200787zm57.602364 288.0118l0 0c0 -10.604309 -8.596489 -19.200806 -19.20079 -19.200806c-5.3021507 0 -9.600391 4.2982483 -9.600391 9.600403c0 5.3021545 4.2982407 9.600403 9.600391 9.600403z" fill-rule="evenodd"/><path fill="#000000" fill-opacity="0.0" d="m81.5958 292.8063l0 0c0 -10.604309 -8.596489 -19.200806 -19.20079 -19.200806c-5.3021507 0 -9.600391 4.2982483 -9.600391 9.600403c0 5.3021545 4.2982407 9.600403 9.600391 9.600403zm-38.401577 -268.81104c0 -10.604302 -8.596485 -19.200787 -19.200787 -19.200787c-10.604302 0 -19.200788 8.596485 -19.200788 19.200787c0 10.604303 8.596485 19.200788 19.200788 19.200788l0 0c5.3021507 0 9.600395 -4.2982445 9.600395 -9.600395c0 -5.3021507 -4.2982445 -9.600393 -9.600395 -9.600393z" fill-rule="evenodd"/><path fill="#000000" fill-opacity="0.0" d="m62.39501 312.00708c-10.604301 0 -19.200787 -8.596466 -19.200787 -19.200775l0 -249.61024l-19.200787 0l0 0c-10.604302 0 -19.200788 -8.596485 -19.200788 -19.200788c0 -10.604302 8.596485 -19.200787 19.200788 -19.200787l230.40945 0c10.604309 0 19.200775 8.596485 19.200775 19.200787l0 249.61023l19.200806 0c10.604279 0 19.200775 8.596497 19.200775 19.200806c0 10.604309 -8.596497 19.200775 -19.200775 19.200775zm-19.200787 -268.811l0 -19.200788c0 -10.604302 -8.596485 -19.200787 -19.200787 -19.200787m19.200787 19.200787l-19.200787 0c5.3021507 0 9.600395 4.2982426 9.600395 9.600393c0 5.3021507 -4.2982445 9.600395 -9.600395 9.600395m57.602364 249.61024l-19.20079 0c-5.3021507 0 -9.600391 -4.2982483 -9.600391 -9.600403c0 -5.3021545 4.2982407 -9.600403 9.600391 -9.600403c10.604301 0 19.20079 8.596497 19.20079 19.200806c0 10.604309 -8.596489 19.200775 -19.20079 19.200775m0 -38.40158l211.20865 0" fill-rule="evenodd"/><path fill="#000000" fill-opacity="0.2" d="m81.5958 292.8063l0 0c0 -10.604309 -8.596489 -19.200806 -19.20079 -19.200806c-5.3021507 0 -9.600391 4.2982483 -9.600391 9.600403c0 5.3021545 4.2982407 9.600403 9.600391 9.600403zm-38.401577 -268.81104c0 -10.604302 -8.596485 -19.200787 -19.200787 -19.200787c-10.604302 0 -19.200788 8.596485 -19.200788 19.200787c0 10.604303 8.596485 19.200788 19.200788 19.200788l0 0c5.3021507 0 9.600395 -4.2982445 9.600395 -9.600395c0 -5.3021507 -4.2982445 -9.600393 -9.600395 -9.600393z" fill-rule="evenodd"/><path stroke="#ffffff" stroke-width="2.0" stroke-linejoin="round" stroke-linecap="butt" d="m62.39501 312.00708c-10.604301 0 -19.200787 -8.596466 -19.200787 -19.200775l0 -249.61024l-19.200787 0l0 0c-10.604302 0 -19.200788 -8.596485 -19.200788 -19.200788c0 -10.604302 8.596485 -19.200787 19.200788 -19.200787l230.40945 0c10.604309 0 19.200775 8.596485 19.200775 19.200787l0 249.61023l19.200806 0c10.604279 0 19.200775 8.596497 19.200775 19.200806c0 10.604309 -8.596497 19.200775 -19.200775 19.200775zm-19.200787 -268.811l0 -19.200788c0 -10.604302 -8.596485 -19.200787 -19.200787 -19.200787m19.200787 19.200787l-19.200787 0c5.3021507 0 9.600395 4.2982426 9.600395 9.600393c0 5.3021507 -4.2982445 9.600395 -9.600395 9.600395m57.602364 249.61024l-19.20079 0c-5.3021507 0 -9.600391 -4.2982483 -9.600391 -9.600403c0 -5.3021545 4.2982407 -9.600403 9.600391 -9.600403c10.604301 0 19.20079 8.596497 19.20079 19.200806c0 10.604309 -8.596489 19.200775 -19.20079 19.200775m0 -38.40158l211.20865 0" fill-rule="evenodd"/><path fill="#000000" fill-opacity="0.0" d="m81.59265 97.4811l153.6063 0" fill-rule="evenodd"/><path stroke="#ffffff" stroke-width="2.0" stroke-linejoin="round" stroke-linecap="butt" d="m81.59265 97.4811l153.6063 0" fill-rule="evenodd"/><path fill="#000000" fill-opacity="0.0" d="m119.99265 62.579266l76.78741 0" fill-rule="evenodd"/><path stroke="#ffffff" stroke-width="2.0" stroke-linejoin="round" stroke-linecap="butt" d="m119.99265 62.579266l76.78741 0" fill-rule="evenodd"/><path fill="#000000" fill-opacity="0.0" d="m81.59265 127.68826l153.6063 0" fill-rule="evenodd"/><path stroke="#ffffff" stroke-width="2.0" stroke-linejoin="round" stroke-linecap="butt" d="m81.59265 127.68826l153.6063 0" fill-rule="evenodd"/><path fill="#000000" fill-opacity="0.0" d="m81.59265 158.40826l153.6063 0" fill-rule="evenodd"/><path stroke="#ffffff" stroke-width="2.0" stroke-linejoin="round" stroke-linecap="butt" d="m81.59265 158.40826l153.6063 0" fill-rule="evenodd"/><path fill="#000000" fill-opacity="0.0" d="m81.59265 189.12827l153.6063 0" fill-rule="evenodd"/><path stroke="#ffffff" stroke-width="2.0" stroke-linejoin="round" stroke-linecap="butt" d="m81.59265 189.12827l153.6063 0" fill-rule="evenodd"/><path fill="#000000" fill-opacity="0.0" d="m81.59265 219.84827l153.6063 0" fill-rule="evenodd"/><path stroke="#ffffff" stroke-width="2.0" stroke-linejoin="round" stroke-linecap="butt" d="m81.59265 219.84827l153.6063 0" fill-rule="evenodd"/></g></svg>