<svg version="1.1" viewBox="0.0 0.0 393.6010498687664 393.6010498687664" fill="none" stroke="none" stroke-linecap="square" stroke-miterlimit="10" xmlns:xlink="http://www.w3.org/1999/xlink" xmlns="http://www.w3.org/2000/svg"><clipPath id="p.0"><path d="m0 0l393.60104 0l0 393.60104l-393.60104 0l0 -393.60104z" clip-rule="nonzero"/></clipPath><g clip-path="url(#p.0)"><path fill="#000000" fill-opacity="0.0" d="m0 0l393.60104 0l0 393.60104l-393.60104 0z" fill-rule="evenodd"/><path fill="#000000" fill-opacity="0.0" d="m4.8005247 4.8005247l384.0 0l0 384.0l-384.0 0z" fill-rule="evenodd"/><path fill="#ffffff" d="m42.050526 60.64679q-3.296875 6.234375 -10.140625 6.234375q-6.84375 0 -10.140625 -6.203125q-3.296875 -6.21875 -3.296875 -16.84375q0 -10.625 3.296875 -16.828125q3.296875 -6.203125 10.140625 -6.203125q6.84375 0 10.140625 6.25q3.296875 6.234375 3.296875 16.796875q0 10.546875 -3.296875 16.796875zm-1.59375 -32.125q-2.96875 -5.796875 -8.546875 -5.796875q-5.5625 0 -8.546875 5.765625q-2.96875 5.75 -2.96875 15.359375q0 9.59375 2.96875 15.359375q2.984375 5.75 8.546875 5.75q5.578125 0 8.546875 -5.78125q2.96875 -5.796875 2.96875 -15.328125q0 -9.546875 -2.96875 -15.328125zm38.744534 37.71875l-1.90625 0l0 -37.828125l-3.40625 11.71875l-1.96875 0l5.375 -18.6875l1.90625 0l0 44.796875zm35.58394 0l-1.90625 0l0 -37.828125l-3.40625 11.71875l-1.96875 0l5.375 -18.6875l1.90625 0l0 44.796875zm35.58394 0l-1.90625 0l0 -37.828125l-3.40625 11.71875l-1.96875 0l5.375 -18.6875l1.90625 0l0 44.796875zm53.537064 -5.59375q-3.296875 6.234375 -10.140625 6.234375q-6.84375 0 -10.140625 -6.203125q-3.296875 -6.21875 -3.296875 -16.84375q0 -10.625 3.296875 -16.828125q3.296875 -6.203125 10.140625 -6.203125q6.84375 0 10.140625 6.25q3.296875 6.234375 3.296875 16.796875q0 10.546875 -3.296875 16.796875zm-1.59375 -32.125q-2.96875 -5.796875 -8.546875 -5.796875q-5.5625 0 -8.546875 5.765625q-2.96875 5.75 -2.96875 15.359375q0 9.59375 2.96875 15.359375q2.984375 5.75 8.546875 5.75q5.578125 0 8.546875 -5.78125q2.96875 -5.796875 2.96875 -15.328125q0 -9.546875 -2.96875 -15.328125zm56.697662 32.125q-3.296875 6.234375 -10.140625 6.234375q-6.84375 0 -10.140625 -6.203125q-3.296875 -6.21875 -3.296875 -16.84375q0 -10.625 3.296875 -16.828125q3.296875 -6.203125 10.140625 -6.203125q6.84375 0 10.140625 6.25q3.2969055 6.234375 3.2969055 16.796875q0 10.546875 -3.2969055 16.796875zm-1.59375 -32.125q-2.96875 -5.796875 -8.546875 -5.796875q-5.5625 0 -8.546875 5.765625q-2.96875 5.75 -2.96875 15.359375q0 9.59375 2.96875 15.359375q2.984375 5.75 8.546875 5.75q5.578125 0 8.546875 -5.78125q2.96875 -5.796875 2.96875 -15.328125q0 -9.546875 -2.96875 -15.328125zm38.744537 37.71875l-1.90625 0l0 -37.828125l-3.40625 11.71875l-1.96875 0l5.375 -18.6875l1.90625 0l0 44.796875zm35.583954 0l-1.90625 0l0 -37.828125l-3.40625 11.71875l-1.96875 0l5.375 -18.6875l1.90625 0l0 44.796875z" fill-rule="nonzero"/><path fill="#ffffff" d="m42.050526 137.44678q-3.296875 6.234375 -10.140625 6.234375q-6.84375 0 -10.140625 -6.203125q-3.296875 -6.21875 -3.296875 -16.84375q0 -10.625 3.296875 -16.828125q3.296875 -6.203125 10.140625 -6.203125q6.84375 0 10.140625 6.25q3.296875 6.234375 3.296875 16.796875q0 10.546875 -3.296875 16.796875zm-1.59375 -32.125q-2.96875 -5.796875 -8.546875 -5.796875q-5.5625 0 -8.546875 5.765625q-2.96875 5.75 -2.96875 15.359375q0 9.59375 2.96875 15.359375q2.984375 5.75 8.546875 5.75q5.578125 0 8.546875 -5.78125q2.96875 -5.796875 2.96875 -15.328125q0 -9.546875 -2.96875 -15.328125zm38.744534 37.71875l-1.90625 0l0 -37.828125l-3.40625 11.71875l-1.96875 0l5.375 -18.6875l1.90625 0l0 44.796875zm35.58394 0l-1.90625 0l0 -37.828125l-3.40625 11.71875l-1.96875 0l5.375 -18.6875l1.90625 0l0 44.796875zm35.58394 0l-1.90625 0l0 -37.828125l-3.40625 11.71875l-1.96875 0l5.375 -18.6875l1.90625 0l0 44.796875zm53.537064 -5.59375q-3.296875 6.234375 -10.140625 6.234375q-6.84375 0 -10.140625 -6.203125q-3.296875 -6.21875 -3.296875 -16.84375q0 -10.625 3.296875 -16.828125q3.296875 -6.203125 10.140625 -6.203125q6.84375 0 10.140625 6.25q3.296875 6.234375 3.296875 16.796875q0 10.546875 -3.296875 16.796875zm-1.59375 -32.125q-2.96875 -5.796875 -8.546875 -5.796875q-5.5625 0 -8.546875 5.765625q-2.96875 5.75 -2.96875 15.359375q0 9.59375 2.96875 15.359375q2.984375 5.75 8.546875 5.75q5.578125 0 8.546875 -5.78125q2.96875 -5.796875 2.96875 -15.328125q0 -9.546875 -2.96875 -15.328125zm56.697662 32.125q-3.296875 6.234375 -10.140625 6.234375q-6.84375 0 -10.140625 -6.203125q-3.296875 -6.21875 -3.296875 -16.84375q0 -10.625 3.296875 -16.828125q3.296875 -6.203125 10.140625 -6.203125q6.84375 0 10.140625 6.25q3.2969055 6.234375 3.2969055 16.796875q0 10.546875 -3.2969055 16.796875zm-1.59375 -32.125q-2.96875 -5.796875 -8.546875 -5.796875q-5.5625 0 -8.546875 5.765625q-2.96875 5.75 -2.96875 15.359375q0 9.59375 2.96875 15.359375q2.984375 5.75 8.546875 5.75q5.578125 0 8.546875 -5.78125q2.96875 -5.796875 2.96875 -15.328125q0 -9.546875 -2.96875 -15.328125zm56.697662 32.125q-3.296875 6.234375 -10.140625 6.234375q-6.84375 0 -10.140625 -6.203125q-3.296875 -6.21875 -3.296875 -16.84375q0 -10.625 3.296875 -16.828125q3.296875 -6.203125 10.140625 -6.203125q6.84375 0 10.140625 6.25q3.296875 6.234375 3.296875 16.796875q0 10.546875 -3.296875 16.796875zm-1.59375 -32.125q-2.96875 -5.796875 -8.546875 -5.796875q-5.5625 0 -8.546875 5.765625q-2.96875 5.75 -2.96875 15.359375q0 9.59375 2.96875 15.359375q2.984375 5.75 8.546875 5.75q5.578125 0 8.546875 -5.78125q2.96875 -5.796875 2.96875 -15.328125q0 -9.546875 -2.96875 -15.328125zm56.697662 32.125q-3.296875 6.234375 -10.140625 6.234375q-6.84375 0 -10.140625 -6.203125q-3.296875 -6.21875 -3.296875 -16.84375q0 -10.625 3.296875 -16.828125q3.296875 -6.203125 10.140625 -6.203125q6.84375 0 10.140625 6.25q3.296875 6.234375 3.296875 16.796875q0 10.546875 -3.296875 16.796875zm-1.59375 -32.125q-2.96875 -5.796875 -8.546875 -5.796875q-5.5625 0 -8.546875 5.765625q-2.96875 5.75 -2.96875 15.359375q0 9.59375 2.96875 15.359375q2.984375 5.75 8.546875 5.75q5.578125 0 8.546875 -5.78125q2.96875 -5.796875 2.96875 -15.328125q0 -9.546875 -2.96875 -15.328125z" fill-rule="nonzero"/><path fill="#ffffff" d="m42.050526 214.24678q-3.296875 6.234375 -10.140625 6.234375q-6.84375 0 -10.140625 -6.203125q-3.296875 -6.21875 -3.296875 -16.84375q0 -10.625 3.296875 -16.828125q3.296875 -6.203125 10.140625 -6.203125q6.84375 0 10.140625 6.25q3.296875 6.234375 3.296875 16.796875q0 10.546875 -3.296875 16.796875zm-1.59375 -32.125q-2.96875 -5.796875 -8.546875 -5.796875q-5.5625 0 -8.546875 5.765625q-2.96875 5.75 -2.96875 15.359375q0 9.59375 2.96875 15.359375q2.984375 5.75 8.546875 5.75q5.578125 0 8.546875 -5.78125q2.96875 -5.796875 2.96875 -15.328125q0 -9.546875 -2.96875 -15.328125zm38.744534 37.71875l-1.90625 0l0 -37.828125l-3.40625 11.71875l-1.96875 0l5.375 -18.6875l1.90625 0l0 44.796875zm35.58394 0l-1.90625 0l0 -37.828125l-3.40625 11.71875l-1.96875 0l5.375 -18.6875l1.90625 0l0 44.796875zm53.537064 -5.59375q-3.296875 6.234375 -10.140625 6.234375q-6.84375 0 -10.140625 -6.203125q-3.296875 -6.21875 -3.296875 -16.84375q0 -10.625 3.296875 -16.828125q3.296875 -6.203125 10.140625 -6.203125q6.84375 0 10.140625 6.25q3.296875 6.234375 3.296875 16.796875q0 10.546875 -3.296875 16.796875zm-1.59375 -32.125q-2.96875 -5.796875 -8.546875 -5.796875q-5.5625 0 -8.546875 5.765625q-2.96875 5.75 -2.96875 15.359375q0 9.59375 2.96875 15.359375q2.984375 5.75 8.546875 5.75q5.578125 0 8.546875 -5.78125q2.96875 -5.796875 2.96875 -15.328125q0 -9.546875 -2.96875 -15.328125zm56.697662 32.125q-3.296875 6.234375 -10.140625 6.234375q-6.84375 0 -10.140625 -6.203125q-3.296875 -6.21875 -3.296875 -16.84375q0 -10.625 3.296875 -16.828125q3.296875 -6.203125 10.140625 -6.203125q6.84375 0 10.140625 6.25q3.296875 6.234375 3.296875 16.796875q0 10.546875 -3.296875 16.796875zm-1.59375 -32.125q-2.96875 -5.796875 -8.546875 -5.796875q-5.5625 0 -8.546875 5.765625q-2.96875 5.75 -2.96875 15.359375q0 9.59375 2.96875 15.359375q2.984375 5.75 8.546875 5.75q5.578125 0 8.546875 -5.78125q2.96875 -5.796875 2.96875 -15.328125q0 -9.546875 -2.96875 -15.328125zm38.744553 37.71875l-1.90625 0l0 -37.828125l-3.4062653 11.71875l-1.96875 0l5.3750153 -18.6875l1.90625 0l0 44.796875zm53.53705 -5.59375q-3.296875 6.234375 -10.140625 6.234375q-6.84375 0 -10.140625 -6.203125q-3.296875 -6.21875 -3.296875 -16.84375q0 -10.625 3.296875 -16.828125q3.296875 -6.203125 10.140625 -6.203125q6.84375 0 10.140625 6.25q3.296875 6.234375 3.296875 16.796875q0 10.546875 -3.296875 16.796875zm-1.59375 -32.125q-2.96875 -5.796875 -8.546875 -5.796875q-5.5625 0 -8.546875 5.765625q-2.96875 5.75 -2.96875 15.359375q0 9.59375 2.96875 15.359375q2.984375 5.75 8.546875 5.75q5.578125 0 8.546875 -5.78125q2.96875 -5.796875 2.96875 -15.328125q0 -9.546875 -2.96875 -15.328125zm38.744537 37.71875l-1.90625 0l0 -37.828125l-3.40625 11.71875l-1.96875 0l5.375 -18.6875l1.90625 0l0 44.796875z" fill-rule="nonzero"/><path fill="#ffffff" d="m42.050526 291.04678q-3.296875 6.234375 -10.140625 6.234375q-6.84375 0 -10.140625 -6.203125q-3.296875 -6.21875 -3.296875 -16.84375q0 -10.625 3.296875 -16.828125q3.296875 -6.2031403 10.140625 -6.2031403q6.84375 0 10.140625 6.2500153q3.296875 6.234375 3.296875 16.796875q0 10.546875 -3.296875 16.796875zm-1.59375 -32.125q-2.96875 -5.7968903 -8.546875 -5.7968903q-5.5625 0 -8.546875 5.7656403q-2.96875 5.75 -2.96875 15.359375q0 9.59375 2.96875 15.359375q2.984375 5.75 8.546875 5.75q5.578125 0 8.546875 -5.78125q2.96875 -5.796875 2.96875 -15.328125q0 -9.546875 -2.96875 -15.328125zm38.744534 37.71875l-1.90625 0l0 -37.828125l-3.40625 11.71875l-1.96875 0l5.375 -18.687515l1.90625 0l0 44.79689zm35.58394 0l-1.90625 0l0 -37.828125l-3.40625 11.71875l-1.96875 0l5.375 -18.687515l1.90625 0l0 44.79689zm53.537064 -5.59375q-3.296875 6.234375 -10.140625 6.234375q-6.84375 0 -10.140625 -6.203125q-3.296875 -6.21875 -3.296875 -16.84375q0 -10.625 3.296875 -16.828125q3.296875 -6.2031403 10.140625 -6.2031403q6.84375 0 10.140625 6.2500153q3.296875 6.234375 3.296875 16.796875q0 10.546875 -3.296875 16.796875zm-1.59375 -32.125q-2.96875 -5.7968903 -8.546875 -5.7968903q-5.5625 0 -8.546875 5.7656403q-2.96875 5.75 -2.96875 15.359375q0 9.59375 2.96875 15.359375q2.984375 5.75 8.546875 5.75q5.578125 0 8.546875 -5.78125q2.96875 -5.796875 2.96875 -15.328125q0 -9.546875 -2.96875 -15.328125zm38.744537 37.71875l-1.90625 0l0 -37.828125l-3.40625 11.71875l-1.96875 0l5.375 -18.687515l1.90625 0l0 44.79689zm35.58394 0l-1.90625 0l0 -37.828125l-3.40625 11.71875l-1.96875 0l5.375 -18.687515l1.90625 0l0 44.79689zm53.53708 -5.59375q-3.296875 6.234375 -10.140625 6.234375q-6.84375 0 -10.140625 -6.203125q-3.296875 -6.21875 -3.296875 -16.84375q0 -10.625 3.296875 -16.828125q3.296875 -6.2031403 10.140625 -6.2031403q6.84375 0 10.140625 6.2500153q3.296875 6.234375 3.296875 16.796875q0 10.546875 -3.296875 16.796875zm-1.59375 -32.125q-2.96875 -5.7968903 -8.546875 -5.7968903q-5.5625 0 -8.546875 5.7656403q-2.96875 5.75 -2.96875 15.359375q0 9.59375 2.96875 15.359375q2.984375 5.75 8.546875 5.75q5.578125 0 8.546875 -5.78125q2.96875 -5.796875 2.96875 -15.328125q0 -9.546875 -2.96875 -15.328125zm56.697662 32.125q-3.296875 6.234375 -10.140625 6.234375q-6.84375 0 -10.140625 -6.203125q-3.296875 -6.21875 -3.296875 -16.84375q0 -10.625 3.296875 -16.828125q3.296875 -6.2031403 10.140625 -6.2031403q6.84375 0 10.140625 6.2500153q3.296875 6.234375 3.296875 16.796875q0 10.546875 -3.296875 16.796875zm-1.59375 -32.125q-2.96875 -5.7968903 -8.546875 -5.7968903q-5.5625 0 -8.546875 5.7656403q-2.96875 5.75 -2.96875 15.359375q0 9.59375 2.96875 15.359375q2.984375 5.75 8.546875 5.75q5.578125 0 8.546875 -5.78125q2.96875 -5.796875 2.96875 -15.328125q0 -9.546875 -2.96875 -15.328125z" fill-rule="nonzero"/><path fill="#ffffff" d="m42.050526 367.84677q-3.296875 6.234375 -10.140625 6.234375q-6.84375 0 -10.140625 -6.203125q-3.296875 -6.21875 -3.296875 -16.84375q0 -10.625 3.296875 -16.828125q3.296875 -6.203125 10.140625 -6.203125q6.84375 0 10.140625 6.25q3.296875 6.234375 3.296875 16.796875q0 10.546875 -3.296875 16.796875zm-1.59375 -32.125q-2.96875 -5.796875 -8.546875 -5.796875q-5.5625 0 -8.546875 5.765625q-2.96875 5.75 -2.96875 15.359375q0 9.59375 2.96875 15.359375q2.984375 5.75 8.546875 5.75q5.578125 0 8.546875 -5.78125q2.96875 -5.796875 2.96875 -15.328125q0 -9.546875 -2.96875 -15.328125zm38.744534 37.71875l-1.90625 0l0 -37.828125l-3.40625 11.71875l-1.96875 0l5.375 -18.6875l1.90625 0l0 44.796875zm35.58394 0l-1.90625 0l0 -37.828125l-3.40625 11.71875l-1.96875 0l5.375 -18.6875l1.90625 0l0 44.796875zm53.537064 -5.59375q-3.296875 6.234375 -10.140625 6.234375q-6.84375 0 -10.140625 -6.203125q-3.296875 -6.21875 -3.296875 -16.84375q0 -10.625 3.296875 -16.828125q3.296875 -6.203125 10.140625 -6.203125q6.84375 0 10.140625 6.25q3.296875 6.234375 3.296875 16.796875q0 10.546875 -3.296875 16.796875zm-1.59375 -32.125q-2.96875 -5.796875 -8.546875 -5.796875q-5.5625 0 -8.546875 5.765625q-2.96875 5.75 -2.96875 15.359375q0 9.59375 2.96875 15.359375q2.984375 5.75 8.546875 5.75q5.578125 0 8.546875 -5.78125q2.96875 -5.796875 2.96875 -15.328125q0 -9.546875 -2.96875 -15.328125zm38.744537 37.71875l-1.90625 0l0 -37.828125l-3.40625 11.71875l-1.96875 0l5.375 -18.6875l1.90625 0l0 44.796875zm35.58394 0l-1.90625 0l0 -37.828125l-3.40625 11.71875l-1.96875 0l5.375 -18.6875l1.90625 0l0 44.796875zm53.53708 -5.59375q-3.296875 6.234375 -10.140625 6.234375q-6.84375 0 -10.140625 -6.203125q-3.296875 -6.21875 -3.296875 -16.84375q0 -10.625 3.296875 -16.828125q3.296875 -6.203125 10.140625 -6.203125q6.84375 0 10.140625 6.25q3.296875 6.234375 3.296875 16.796875q0 10.546875 -3.296875 16.796875zm-1.59375 -32.125q-2.96875 -5.796875 -8.546875 -5.796875q-5.5625 0 -8.546875 5.765625q-2.96875 5.75 -2.96875 15.359375q0 9.59375 2.96875 15.359375q2.984375 5.75 8.546875 5.75q5.578125 0 8.546875 -5.78125q2.96875 -5.796875 2.96875 -15.328125q0 -9.546875 -2.96875 -15.328125zm56.697662 32.125q-3.296875 6.234375 -10.140625 6.234375q-6.84375 0 -10.140625 -6.203125q-3.296875 -6.21875 -3.296875 -16.84375q0 -10.625 3.296875 -16.828125q3.296875 -6.203125 10.140625 -6.203125q6.84375 0 10.140625 6.25q3.296875 6.234375 3.296875 16.796875q0 10.546875 -3.296875 16.796875zm-1.59375 -32.125q-2.96875 -5.796875 -8.546875 -5.796875q-5.5625 0 -8.546875 5.765625q-2.96875 5.75 -2.96875 15.359375q0 9.59375 2.96875 15.359375q2.984375 5.75 8.546875 5.75q5.578125 0 8.546875 -5.78125q2.96875 -5.796875 2.96875 -15.328125q0 -9.546875 -2.96875 -15.328125z" fill-rule="nonzero"/></g></svg>