<svg version="1.1" viewBox="0.0 0.0 393.6010498687664 393.6010498687664" fill="none" stroke="none" stroke-linecap="square" stroke-miterlimit="10" xmlns:xlink="http://www.w3.org/1999/xlink" xmlns="http://www.w3.org/2000/svg"><clipPath id="p.0"><path d="m0 0l393.60104 0l0 393.60104l-393.60104 0l0 -393.60104z" clip-rule="nonzero"/></clipPath><g clip-path="url(#p.0)"><path fill="#000000" fill-opacity="0.0" d="m0 0l393.60104 0l0 393.60104l-393.60104 0z" fill-rule="evenodd"/><path fill="#000000" fill-opacity="0.0" d="m4.8005247 196.80052l0 0c0 -106.038666 85.961334 -192.0 192.0 -192.0l0 0c50.92157 0 99.75752 20.228512 135.76451 56.235497c36.00699 36.006985 56.235504 84.842926 56.235504 135.7645l0 0c0 106.03868 -85.961334 192.00002 -192.00002 192.00002l0 0c-106.038666 0 -192.0 -85.961334 -192.0 -192.00002z" fill-rule="evenodd"/><path stroke="#ffffff" stroke-width="2.0" stroke-linejoin="round" stroke-linecap="butt" d="m4.8005247 196.80052l0 0c0 -106.038666 85.961334 -192.0 192.0 -192.0l0 0c50.92157 0 99.75752 20.228512 135.76451 56.235497c36.00699 36.006985 56.235504 84.842926 56.235504 135.7645l0 0c0 106.03868 -85.961334 192.00002 -192.00002 192.00002l0 0c-106.038666 0 -192.0 -85.961334 -192.0 -192.00002z" fill-rule="evenodd"/><path fill="#000000" fill-opacity="0.0" d="m61.036022 61.036022l135.77953 327.77954" fill-rule="evenodd"/><path stroke="#ffffff" stroke-width="2.0" stroke-linejoin="round" stroke-linecap="butt" d="m61.036022 61.036022l135.77953 327.77954" fill-rule="evenodd"/><path fill="#000000" fill-opacity="0.0" d="m332.56503 61.036022l-135.77954 327.77954" fill-rule="evenodd"/><path stroke="#ffffff" stroke-width="2.0" stroke-linejoin="round" stroke-linecap="butt" d="m332.56503 61.036022l-135.77954 327.77954" fill-rule="evenodd"/><path fill="#000000" fill-opacity="0.0" d="m61.036022 61.036022l271.52756 0" fill-rule="evenodd"/><path stroke="#ffffff" stroke-width="2.0" stroke-linejoin="round" stroke-linecap="butt" d="m61.036022 61.036022l271.52756 0" fill-rule="evenodd"/><path fill="#000000" fill-opacity="0.0" d="m332.56503 332.56503l-135.77954 -327.77954" fill-rule="evenodd"/><path stroke="#ffffff" stroke-width="2.0" stroke-linejoin="round" stroke-linecap="butt" d="m332.56503 332.56503l-135.77954 -327.77954" fill-rule="evenodd"/><path fill="#000000" fill-opacity="0.0" d="m61.036022 332.56503l135.77953 -327.77954" fill-rule="evenodd"/><path stroke="#ffffff" stroke-width="2.0" stroke-linejoin="round" stroke-linecap="butt" d="m61.036022 332.56503l135.77953 -327.77954" fill-rule="evenodd"/><path fill="#000000" fill-opacity="0.0" d="m61.036022 332.56503l271.52756 0" fill-rule="evenodd"/><path stroke="#ffffff" stroke-width="2.0" stroke-linejoin="round" stroke-linecap="butt" d="m61.036022 332.56503l271.52756 0" fill-rule="evenodd"/></g></svg>