<svg version="1.1" viewBox="0.0 0.0 393.6010498687664 393.6010498687664" fill="none" stroke="none" stroke-linecap="square" stroke-miterlimit="10" xmlns:xlink="http://www.w3.org/1999/xlink" xmlns="http://www.w3.org/2000/svg"><clipPath id="p.0"><path d="m0 0l393.60104 0l0 393.60104l-393.60104 0l0 -393.60104z" clip-rule="nonzero"/></clipPath><g clip-path="url(#p.0)"><path fill="#000000" fill-opacity="0.0" d="m0 0l393.60104 0l0 393.60104l-393.60104 0z" fill-rule="evenodd"/><path fill="#000000" fill-opacity="0.0" d="m4.7992125 196.80052l0 0c0 -106.038666 85.961334 -192.0 192.0 -192.0l0 0c50.92157 0 99.75752 20.228512 135.76451 56.235497c36.00699 36.006985 56.235504 84.842926 56.235504 135.7645l0 0c0 106.03868 -85.961334 192.00002 -192.00002 192.00002l0 0c-106.038666 0 -192.0 -85.961334 -192.0 -192.00002z" fill-rule="evenodd"/><path stroke="#ffffff" stroke-width="2.0" stroke-linejoin="round" stroke-linecap="butt" d="m4.7992125 196.80052l0 0c0 -106.038666 85.961334 -192.0 192.0 -192.0l0 0c50.92157 0 99.75752 20.228512 135.76451 56.235497c36.00699 36.006985 56.235504 84.842926 56.235504 135.7645l0 0c0 106.03868 -85.961334 192.00002 -192.00002 192.00002l0 0c-106.038666 0 -192.0 -85.961334 -192.0 -192.00002z" fill-rule="evenodd"/><path fill="#000000" fill-opacity="0.0" d="m68.799736 340.74252l127.99999 -255.68506l128.00002 255.68506z" fill-rule="evenodd"/><path stroke="#ffffff" stroke-width="2.0" stroke-linejoin="round" stroke-linecap="butt" d="m68.799736 340.74252l127.99999 -255.68506l128.00002 255.68506z" fill-rule="evenodd"/><path fill="#000000" fill-opacity="0.0" d="m68.799736 56.77202l127.99999 255.68504l128.00002 -255.68504z" fill-rule="evenodd"/><path stroke="#ffffff" stroke-width="2.0" stroke-linejoin="round" stroke-linecap="butt" d="m68.799736 56.77202l127.99999 255.68504l128.00002 -255.68504z" fill-rule="evenodd"/><path fill="#000000" fill-opacity="0.0" d="m68.799736 85.06327l127.99999 255.68506l128.00002 -255.68506z" fill-rule="evenodd"/><path stroke="#ffffff" stroke-width="2.0" stroke-linejoin="round" stroke-linecap="butt" d="m68.799736 85.06327l127.99999 255.68506l128.00002 -255.68506z" fill-rule="evenodd"/><path fill="#000000" fill-opacity="0.0" d="m68.799736 312.45126l127.99999 -255.68504l128.00002 255.68504z" fill-rule="evenodd"/><path stroke="#ffffff" stroke-width="2.0" stroke-linejoin="round" stroke-linecap="butt" d="m68.799736 312.45126l127.99999 -255.68504l128.00002 255.68504z" fill-rule="evenodd"/><path fill="#000000" fill-opacity="0.0" d="m145.607 196.78821l0 0c0 -28.23175 22.907501 -51.118103 51.165344 -51.118103l0 0c13.5699005 0 26.584015 5.3856354 36.179367 14.972137c9.595367 9.586502 14.985992 22.588593 14.985992 36.145966l0 0c0 28.23175 -22.907516 51.118103 -51.16536 51.118103l0 0c-28.257843 0 -51.165344 -22.886353 -51.165344 -51.118103z" fill-rule="evenodd"/><path stroke="#ffffff" stroke-width="2.0" stroke-linejoin="round" stroke-linecap="butt" d="m145.607 196.78821l0 0c0 -28.23175 22.907501 -51.118103 51.165344 -51.118103l0 0c13.5699005 0 26.584015 5.3856354 36.179367 14.972137c9.595367 9.586502 14.985992 22.588593 14.985992 36.145966l0 0c0 28.23175 -22.907516 51.118103 -51.16536 51.118103l0 0c-28.257843 0 -51.165344 -22.886353 -51.165344 -51.118103z" fill-rule="evenodd"/><path fill="#000000" fill-opacity="0.0" d="m52.673676 68.95446l256.0 127.84252l-256.0 127.842514z" fill-rule="evenodd"/><path stroke="#ffffff" stroke-width="2.0" stroke-linejoin="round" stroke-linecap="butt" d="m52.673676 68.95446l256.0 127.84252l-256.0 127.842514z" fill-rule="evenodd"/><path fill="#000000" fill-opacity="0.0" d="m337.00253 68.95446l-256.0 127.84252l256.0 127.842514z" fill-rule="evenodd"/><path stroke="#ffffff" stroke-width="2.0" stroke-linejoin="round" stroke-linecap="butt" d="m337.00253 68.95446l-256.0 127.84252l256.0 127.842514z" fill-rule="evenodd"/><path fill="#000000" fill-opacity="0.0" d="m308.6775 68.95446l-256.0 127.84252l256.0 127.842514z" fill-rule="evenodd"/><path stroke="#ffffff" stroke-width="2.0" stroke-linejoin="round" stroke-linecap="butt" d="m308.6775 68.95446l-256.0 127.84252l256.0 127.842514z" fill-rule="evenodd"/><path fill="#000000" fill-opacity="0.0" d="m80.99871 68.95446l256.0 127.84252l-256.0 127.842514z" fill-rule="evenodd"/><path stroke="#ffffff" stroke-width="2.0" stroke-linejoin="round" stroke-linecap="butt" d="m80.99871 68.95446l256.0 127.84252l-256.0 127.842514z" fill-rule="evenodd"/><path fill="#000000" fill-opacity="0.0" d="m4.8006873 196.79553l0 0c0 -105.90822 85.96133 -191.76378 192.0 -191.76378l0 0c50.92157 0 99.75751 20.203625 135.7645 56.166313c36.00699 35.962685 56.235504 84.738556 56.235504 135.59747l0 0c0 105.9082 -85.961334 191.76376 -192.0 191.76376l0 0c-106.03867 0 -192.0 -85.85556 -192.0 -191.76376z" fill-rule="evenodd"/><path stroke="#ffffff" stroke-width="2.0" stroke-linejoin="round" stroke-linecap="butt" d="m4.8006873 196.79553l0 0c0 -105.90822 85.96133 -191.76378 192.0 -191.76378l0 0c50.92157 0 99.75751 20.203625 135.7645 56.166313c36.00699 35.962685 56.235504 84.738556 56.235504 135.59747l0 0c0 105.9082 -85.961334 191.76376 -192.0 191.76376l0 0c-106.03867 0 -192.0 -85.85556 -192.0 -191.76376z" fill-rule="evenodd"/></g></svg>