<svg version="1.1" viewBox="0.0 0.0 393.6010498687664 393.6010498687664" fill="none" stroke="none" stroke-linecap="square" stroke-miterlimit="10" xmlns:xlink="http://www.w3.org/1999/xlink" xmlns="http://www.w3.org/2000/svg"><clipPath id="p.0"><path d="m0 0l393.60104 0l0 393.60104l-393.60104 0l0 -393.60104z" clip-rule="nonzero"/></clipPath><g clip-path="url(#p.0)"><path fill="#000000" fill-opacity="0.0" d="m0 0l393.60104 0l0 393.60104l-393.60104 0z" fill-rule="evenodd"/><path fill="#000000" fill-opacity="0.0" d="m100.80052 4.816185l192.00002 0" fill-rule="evenodd"/><path stroke="#ffffff" stroke-width="2.0" stroke-linejoin="round" stroke-linecap="butt" d="m100.80052 4.816185l192.00002 0" fill-rule="evenodd"/><path fill="#000000" fill-opacity="0.0" d="m100.80052 4.8158383c0 45.99175 14.716537 43.98743 29.433075 91.98349c14.716537 47.996063 29.433075 145.99251 29.433075 291.985" fill-rule="evenodd"/><path stroke="#ffffff" stroke-width="2.0" stroke-linejoin="round" stroke-linecap="butt" d="m100.80052 4.8158383c0 45.99175 14.716537 43.98743 29.433075 91.98349c14.716537 47.996063 29.433075 145.99251 29.433075 291.985" fill-rule="evenodd"/><path fill="#000000" fill-opacity="0.0" d="m292.80054 4.8158383c0 45.99175 -14.716553 43.98743 -29.433075 91.98349c-14.716537 47.996063 -29.433075 145.99251 -29.433075 291.985" fill-rule="evenodd"/><path stroke="#ffffff" stroke-width="2.0" stroke-linejoin="round" stroke-linecap="butt" d="m292.80054 4.8158383c0 45.99175 -14.716553 43.98743 -29.433075 91.98349c-14.716537 47.996063 -29.433075 145.99251 -29.433075 291.985" fill-rule="evenodd"/><path fill="#000000" fill-opacity="0.0" d="m124.80052 4.8158383c0 45.99175 11.039368 43.98743 22.07875 91.98349c11.039368 47.996063 22.078735 145.99251 22.078735 291.985" fill-rule="evenodd"/><path stroke="#ffffff" stroke-width="2.0" stroke-linejoin="round" stroke-linecap="butt" d="m124.80052 4.8158383c0 45.99175 11.039368 43.98743 22.07875 91.98349c11.039368 47.996063 22.078735 145.99251 22.078735 291.985" fill-rule="evenodd"/><path fill="#000000" fill-opacity="0.0" d="m268.80054 4.8158383c0 45.99175 -11.031494 43.98743 -22.063004 91.98349c-11.031494 47.996063 -22.062988 145.99251 -22.062988 291.985" fill-rule="evenodd"/><path stroke="#ffffff" stroke-width="2.0" stroke-linejoin="round" stroke-linecap="butt" d="m268.80054 4.8158383c0 45.99175 -11.031494 43.98743 -22.063004 91.98349c-11.031494 47.996063 -22.062988 145.99251 -22.062988 291.985" fill-rule="evenodd"/><path fill="#000000" fill-opacity="0.0" d="m148.80052 4.8158383c0 45.99175 7.362213 43.98743 14.724411 91.98349c7.362213 47.996063 14.724411 145.99251 14.724411 291.985" fill-rule="evenodd"/><path stroke="#ffffff" stroke-width="2.0" stroke-linejoin="round" stroke-linecap="butt" d="m148.80052 4.8158383c0 45.99175 7.362213 43.98743 14.724411 91.98349c7.362213 47.996063 14.724411 145.99251 14.724411 291.985" fill-rule="evenodd"/><path fill="#000000" fill-opacity="0.0" d="m244.80052 4.8158383c0 45.99175 -7.3543243 43.98743 -14.708664 91.98349c-7.3543243 47.996063 -14.708649 145.99251 -14.708649 291.985" fill-rule="evenodd"/><path stroke="#ffffff" stroke-width="2.0" stroke-linejoin="round" stroke-linecap="butt" d="m244.80052 4.8158383c0 45.99175 -7.3543243 43.98743 -14.708664 91.98349c-7.3543243 47.996063 -14.708649 145.99251 -14.708649 291.985" fill-rule="evenodd"/><path fill="#000000" fill-opacity="0.0" d="m100.80052 388.77487c0 -45.99173 14.716537 -43.987427 29.433075 -91.98349c14.716537 -47.996048 29.433075 -145.9925 29.433075 -291.985" fill-rule="evenodd"/><path stroke="#ffffff" stroke-width="2.0" stroke-linejoin="round" stroke-linecap="butt" d="m100.80052 388.77487c0 -45.99173 14.716537 -43.987427 29.433075 -91.98349c14.716537 -47.996048 29.433075 -145.9925 29.433075 -291.985" fill-rule="evenodd"/><path fill="#000000" fill-opacity="0.0" d="m292.80054 388.77487c0 -45.99173 -14.716553 -43.987427 -29.433075 -91.98349c-14.716537 -47.996048 -29.433075 -145.9925 -29.433075 -291.985" fill-rule="evenodd"/><path stroke="#ffffff" stroke-width="2.0" stroke-linejoin="round" stroke-linecap="butt" d="m292.80054 388.77487c0 -45.99173 -14.716553 -43.987427 -29.433075 -91.98349c-14.716537 -47.996048 -29.433075 -145.9925 -29.433075 -291.985" fill-rule="evenodd"/><path fill="#000000" fill-opacity="0.0" d="m124.80052 388.77487c0 -45.99173 11.039368 -43.987427 22.07875 -91.98349c11.039368 -47.996048 22.078735 -145.9925 22.078735 -291.985" fill-rule="evenodd"/><path stroke="#ffffff" stroke-width="2.0" stroke-linejoin="round" stroke-linecap="butt" d="m124.80052 388.77487c0 -45.99173 11.039368 -43.987427 22.07875 -91.98349c11.039368 -47.996048 22.078735 -145.9925 22.078735 -291.985" fill-rule="evenodd"/><path fill="#000000" fill-opacity="0.0" d="m268.80054 388.77487c0 -45.99173 -11.031494 -43.987427 -22.063004 -91.98349c-11.031494 -47.996048 -22.062988 -145.9925 -22.062988 -291.985" fill-rule="evenodd"/><path stroke="#ffffff" stroke-width="2.0" stroke-linejoin="round" stroke-linecap="butt" d="m268.80054 388.77487c0 -45.99173 -11.031494 -43.987427 -22.063004 -91.98349c-11.031494 -47.996048 -22.062988 -145.9925 -22.062988 -291.985" fill-rule="evenodd"/><path fill="#000000" fill-opacity="0.0" d="m148.80052 388.77487c0 -45.99173 7.362213 -43.987427 14.724411 -91.98349c7.362213 -47.996048 14.724411 -145.9925 14.724411 -291.985" fill-rule="evenodd"/><path stroke="#ffffff" stroke-width="2.0" stroke-linejoin="round" stroke-linecap="butt" d="m148.80052 388.77487c0 -45.99173 7.362213 -43.987427 14.724411 -91.98349c7.362213 -47.996048 14.724411 -145.9925 14.724411 -291.985" fill-rule="evenodd"/><path fill="#000000" fill-opacity="0.0" d="m244.80052 388.77487c0 -45.99173 -7.3543243 -43.987427 -14.708664 -91.98349c-7.3543243 -47.996048 -14.708649 -145.9925 -14.708649 -291.985" fill-rule="evenodd"/><path stroke="#ffffff" stroke-width="2.0" stroke-linejoin="round" stroke-linecap="butt" d="m244.80052 388.77487c0 -45.99173 -7.3543243 -43.987427 -14.708664 -91.98349c-7.3543243 -47.996048 -14.708649 -145.9925 -14.708649 -291.985" fill-rule="evenodd"/><path fill="#000000" fill-opacity="0.0" d="m100.80052 388.79553l192.00002 0" fill-rule="evenodd"/><path stroke="#ffffff" stroke-width="2.0" stroke-linejoin="round" stroke-linecap="butt" d="m100.80052 388.79553l192.00002 0" fill-rule="evenodd"/><path fill="#000000" fill-opacity="0.0" d="m203.22041 120.64829l0 0c1.7685089 0 3.2021637 1.4336624 3.2021637 3.2021637l0 145.91061c0 0.8492737 -0.33737183 1.6637573 -0.9378967 2.2642822c-0.6005249 0.6005249 -1.4150085 0.9378967 -2.264267 0.9378967l-12.808273 0c-1.7685089 0 -3.2021637 -1.4336548 -3.2021637 -3.202179l0 -145.91061c0 -1.7685013 1.4336548 -3.2021637 3.2021637 -3.2021637z" fill-rule="evenodd"/><path stroke="#ffffff" stroke-width="3.0" stroke-linejoin="round" stroke-linecap="butt" d="m203.22041 120.64829l0 0c1.7685089 0 3.2021637 1.4336624 3.2021637 3.2021637l0 145.91061c0 0.8492737 -0.33737183 1.6637573 -0.9378967 2.2642822c-0.6005249 0.6005249 -1.4150085 0.9378967 -2.264267 0.9378967l-12.808273 0c-1.7685089 0 -3.2021637 -1.4336548 -3.2021637 -3.202179l0 -145.91061c0 -1.7685013 1.4336548 -3.2021637 3.2021637 -3.2021637z" fill-rule="evenodd"/></g></svg>