<svg version="1.1" viewBox="0.0 0.0 316.8005249343832 316.8005249343832" fill="none" stroke="none" stroke-linecap="square" stroke-miterlimit="10" xmlns:xlink="http://www.w3.org/1999/xlink" xmlns="http://www.w3.org/2000/svg"><clipPath id="p.0"><path d="m0 0l316.80054 0l0 316.80054l-316.80054 0l0 -316.80054z" clip-rule="nonzero"/></clipPath><g clip-path="url(#p.0)"><path fill="#000000" fill-opacity="0.0" d="m0 0l316.80054 0l0 316.80054l-316.80054 0z" fill-rule="evenodd"/><path fill="#000000" fill-opacity="0.0" d="m169.93205 165.93747l-23.055115 0l0 -153.73228l23.055115 0z" fill-rule="evenodd"/><path stroke="#ffffff" stroke-width="2.0" stroke-linejoin="round" stroke-linecap="butt" d="m169.93205 165.93747l-23.055115 0l0 -153.73228l23.055115 0z" fill-rule="evenodd"/><path fill="#171717" d="m139.21812 24.017166l0 0c0 -10.610826 8.594727 -19.212599 19.196854 -19.212599l0 0c5.091324 0 9.974106 2.0241785 13.574219 5.6272397c3.600113 3.6030617 5.622635 8.489861 5.622635 13.58536l0 0c0 10.610825 -8.594727 19.212597 -19.196854 19.212597l0 0c-10.602127 0 -19.196854 -8.601772 -19.196854 -19.212597z" fill-rule="evenodd"/><path stroke="#ffffff" stroke-width="2.0" stroke-linejoin="round" stroke-linecap="butt" d="m139.21812 24.017166l0 0c0 -10.610826 8.594727 -19.212599 19.196854 -19.212599l0 0c5.091324 0 9.974106 2.0241785 13.574219 5.6272397c3.600113 3.6030617 5.622635 8.489861 5.622635 13.58536l0 0c0 10.610825 -8.594727 19.212597 -19.196854 19.212597l0 0c-10.602127 0 -19.196854 -8.601772 -19.196854 -19.212597z" fill-rule="evenodd"/><path fill="#000000" fill-opacity="0.0" d="m258.24405 165.93747l0 15.401566l-199.68504 0l0 -15.401566z" fill-rule="evenodd"/><path stroke="#ffffff" stroke-width="2.0" stroke-linejoin="round" stroke-linecap="butt" d="m258.24405 165.93747l0 15.401566l-199.68504 0l0 -15.401566z" fill-rule="evenodd"/><path fill="#171717" d="m146.49977 24.028652l0 0c0 -6.801365 5.337326 -12.3149605 11.921265 -12.3149605l0 0c3.1617126 0 6.193924 1.2974653 8.429596 3.6069689c2.235672 2.3095026 3.4916534 5.441861 3.4916534 8.707992l0 0c0 6.801365 -5.337326 12.3149605 -11.921249 12.3149605l0 0c-6.5839386 0 -11.921265 -5.5135956 -11.921265 -12.3149605z" fill-rule="evenodd"/><path stroke="#ffffff" stroke-width="2.0" stroke-linejoin="round" stroke-linecap="butt" d="m146.49977 24.028652l0 0c0 -6.801365 5.337326 -12.3149605 11.921265 -12.3149605l0 0c3.1617126 0 6.193924 1.2974653 8.429596 3.6069689c2.235672 2.3095026 3.4916534 5.441861 3.4916534 8.707992l0 0c0 6.801365 -5.337326 12.3149605 -11.921249 12.3149605l0 0c-6.5839386 0 -11.921265 -5.5135956 -11.921265 -12.3149605z" fill-rule="evenodd"/><path fill="#000000" fill-opacity="0.0" d="m131.85039 181.31909l10.078751 0l0 130.67715l-10.078751 0z" fill-rule="evenodd"/><path stroke="#ffffff" stroke-width="2.0" stroke-linejoin="round" stroke-linecap="butt" d="m131.85039 181.31909l10.078751 0l0 130.67715l-10.078751 0z" fill-rule="evenodd"/><path fill="#000000" fill-opacity="0.0" d="m184.98036 181.31909l-10.078735 0l0 130.67715l10.078735 0z" fill-rule="evenodd"/><path stroke="#ffffff" stroke-width="2.0" stroke-linejoin="round" stroke-linecap="butt" d="m184.98036 181.31909l-10.078735 0l0 130.67715l10.078735 0z" fill-rule="evenodd"/></g></svg>