<svg version="1.1" viewBox="0.0 0.0 393.6010498687664 393.6010498687664" fill="none" stroke="none" stroke-linecap="square" stroke-miterlimit="10" xmlns:xlink="http://www.w3.org/1999/xlink" xmlns="http://www.w3.org/2000/svg"><clipPath id="p.0"><path d="m0 0l393.60104 0l0 393.60104l-393.60104 0l0 -393.60104z" clip-rule="nonzero"/></clipPath><g clip-path="url(#p.0)"><path fill="#000000" fill-opacity="0.0" d="m0 0l393.60104 0l0 393.60104l-393.60104 0z" fill-rule="evenodd"/><path fill="#ffffff" d="m361.33554 169.30022l0 0c15.168274 0 27.46457 12.31041 27.46457 27.496063l0 0c0 7.2924194 -2.8935852 14.286148 -8.044189 19.442657c-5.1506042 5.1565094 -12.136322 8.053406 -19.42038 8.053406l0 0c-15.168243 0 -27.46457 -12.310394 -27.46457 -27.496063l0 0c0 -15.185654 12.296326 -27.496063 27.46457 -27.496063z" fill-rule="evenodd"/><path stroke="#ffffff" stroke-width="2.0" stroke-linejoin="round" stroke-linecap="butt" d="m361.33554 169.30022l0 0c15.168274 0 27.46457 12.31041 27.46457 27.496063l0 0c0 7.2924194 -2.8935852 14.286148 -8.044189 19.442657c-5.1506042 5.1565094 -12.136322 8.053406 -19.42038 8.053406l0 0c-15.168243 0 -27.46457 -12.310394 -27.46457 -27.496063l0 0c0 -15.185654 12.296326 -27.496063 27.46457 -27.496063z" fill-rule="evenodd"/><path fill="#ffffff" d="m296.2763 261.9875l0 0c-7.5841064 13.150482 -24.385773 17.655823 -37.527557 10.063019l0 0c-6.3108826 -3.6462097 -10.916519 -9.651733 -12.803696 -16.69542c-1.8871765 -7.043701 -0.9013214 -14.548569 2.7407074 -20.863647l0 0c7.584137 -13.150467 24.385803 -17.655823 37.527557 -10.062988l0 0c13.141785 7.592819 17.647125 24.408585 10.062988 37.559036z" fill-rule="evenodd"/><path stroke="#ffffff" stroke-width="2.0" stroke-linejoin="round" stroke-linecap="butt" d="m296.2763 261.9875l0 0c-7.5841064 13.150482 -24.385773 17.655823 -37.527557 10.063019l0 0c-6.3108826 -3.6462097 -10.916519 -9.651733 -12.803696 -16.69542c-1.8871765 -7.043701 -0.9013214 -14.548569 2.7407074 -20.863647l0 0c7.584137 -13.150467 24.385803 -17.655823 37.527557 -10.062988l0 0c13.141785 7.592819 17.647125 24.408585 10.062988 37.559036z" fill-rule="evenodd"/><path fill="#ffffff" d="m248.71776 159.11134l0 0c-7.5841217 -13.150467 -3.0858307 -29.966232 10.047256 -37.55906l0 0c6.3067017 -3.6462097 13.80191 -4.6344147 20.836761 -2.7472382c7.0348206 1.8871765 13.03302 6.4951553 16.675049 12.810234l0 0c7.584137 13.150467 3.0858154 29.966217 -10.047241 37.55905l0 0c-13.133087 7.592819 -29.927704 3.0874786 -37.511826 -10.062988z" fill-rule="evenodd"/><path stroke="#ffffff" stroke-width="2.0" stroke-linejoin="round" stroke-linecap="butt" d="m248.71776 159.11134l0 0c-7.5841217 -13.150467 -3.0858307 -29.966232 10.047256 -37.55906l0 0c6.3067017 -3.6462097 13.80191 -4.6344147 20.836761 -2.7472382c7.0348206 1.8871765 13.03302 6.4951553 16.675049 12.810234l0 0c7.584137 13.150467 3.0858154 29.966217 -10.047241 37.55905l0 0c-13.133087 7.592819 -29.927704 3.0874786 -37.511826 -10.062988z" fill-rule="evenodd"/><path fill="#ffffff" d="m32.264687 169.30022l0 0c-15.1682625 0 -27.46457 12.31041 -27.46457 27.496063l0 0c0 7.2924194 2.89358 14.286148 8.044186 19.442657c5.150606 5.1565094 12.136326 8.053406 19.420383 8.053406l0 0c15.168259 0 27.464565 -12.310394 27.464565 -27.496063l0 0c0 -15.185654 -12.296307 -27.496063 -27.464565 -27.496063z" fill-rule="evenodd"/><path stroke="#ffffff" stroke-width="2.0" stroke-linejoin="round" stroke-linecap="butt" d="m32.264687 169.30022l0 0c-15.1682625 0 -27.46457 12.31041 -27.46457 27.496063l0 0c0 7.2924194 2.89358 14.286148 8.044186 19.442657c5.150606 5.1565094 12.136326 8.053406 19.420383 8.053406l0 0c15.168259 0 27.464565 -12.310394 27.464565 -27.496063l0 0c0 -15.185654 -12.296307 -27.496063 -27.464565 -27.496063z" fill-rule="evenodd"/><path fill="#ffffff" d="m97.32392 261.9875l0 0c7.5841293 13.150482 24.385788 17.655823 37.52755 10.063019l0 0c6.310913 -3.6462097 10.916534 -9.651733 12.803711 -16.69542c1.8871765 -7.043701 0.9013214 -14.548569 -2.7407074 -20.863647l0 0c-7.584137 -13.150467 -24.385796 -17.655823 -37.527565 -10.062988l0 0c-13.141769 7.592819 -17.647118 24.408585 -10.062988 37.559036z" fill-rule="evenodd"/><path stroke="#ffffff" stroke-width="2.0" stroke-linejoin="round" stroke-linecap="butt" d="m97.32392 261.9875l0 0c7.5841293 13.150482 24.385788 17.655823 37.52755 10.063019l0 0c6.310913 -3.6462097 10.916534 -9.651733 12.803711 -16.69542c1.8871765 -7.043701 0.9013214 -14.548569 -2.7407074 -20.863647l0 0c-7.584137 -13.150467 -24.385796 -17.655823 -37.527565 -10.062988l0 0c-13.141769 7.592819 -17.647118 24.408585 -10.062988 37.559036z" fill-rule="evenodd"/><path fill="#ffffff" d="m144.88248 159.11134l0 0c7.5841217 -13.150467 3.0858307 -29.966232 -10.047241 -37.55906l0 0c-6.306732 -3.6462097 -13.801933 -4.6344147 -20.836761 -2.7472382c-7.034828 1.8871765 -13.033028 6.4951553 -16.675056 12.810234l0 0c-7.5841293 13.150467 -3.085823 29.966217 10.047249 37.55905l0 0c13.133072 7.592819 29.927673 3.0874786 37.51181 -10.062988z" fill-rule="evenodd"/><path stroke="#ffffff" stroke-width="2.0" stroke-linejoin="round" stroke-linecap="butt" d="m144.88248 159.11134l0 0c7.5841217 -13.150467 3.0858307 -29.966232 -10.047241 -37.55906l0 0c-6.306732 -3.6462097 -13.801933 -4.6344147 -20.836761 -2.7472382c-7.034828 1.8871765 -13.033028 6.4951553 -16.675056 12.810234l0 0c-7.5841293 13.150467 -3.085823 29.966217 10.047249 37.55905l0 0c13.133072 7.592819 29.927673 3.0874786 37.51181 -10.062988z" fill-rule="evenodd"/></g></svg>