<svg version="1.1" viewBox="0.0 0.0 393.6010498687664 393.6010498687664" fill="none" stroke="none" stroke-linecap="square" stroke-miterlimit="10" xmlns:xlink="http://www.w3.org/1999/xlink" xmlns="http://www.w3.org/2000/svg"><clipPath id="p.0"><path d="m0 0l393.60104 0l0 393.60104l-393.60104 0l0 -393.60104z" clip-rule="nonzero"/></clipPath><g clip-path="url(#p.0)"><path fill="#000000" fill-opacity="0.0" d="m0 0l393.60104 0l0 393.60104l-393.60104 0z" fill-rule="evenodd"/><path fill="#000000" fill-opacity="0.0" d="m184.83185 335.48633c0 -32.96704 2.9921265 -46.501007 5.984253 -65.93408c2.9921265 -19.43306 5.984253 -44.765244 5.984253 -89.53049" fill-rule="evenodd"/><path stroke="#ffffff" stroke-width="2.0" stroke-linejoin="round" stroke-linecap="butt" d="m184.83185 335.48633c0 -32.96704 2.9921265 -46.501007 5.984253 -65.93408c2.9921265 -19.43306 5.984253 -44.765244 5.984253 -89.53049" fill-rule="evenodd"/><path fill="#000000" fill-opacity="0.0" d="m208.76921 335.48633c0 -32.96704 -2.9921265 -46.501007 -5.984253 -65.93408c-2.9921265 -19.43306 -5.984253 -44.765244 -5.984253 -89.53049" fill-rule="evenodd"/><path stroke="#ffffff" stroke-width="2.0" stroke-linejoin="round" stroke-linecap="butt" d="m208.76921 335.48633c0 -32.96704 -2.9921265 -46.501007 -5.984253 -65.93408c-2.9921265 -19.43306 -5.984253 -44.765244 -5.984253 -89.53049" fill-rule="evenodd"/><path fill="#000000" fill-opacity="0.0" d="m172.86317 335.48633c0 -32.96704 5.9763794 -46.501007 11.952759 -65.93408c5.9763794 -19.43306 11.952744 -44.765244 11.952744 -89.53049" fill-rule="evenodd"/><path stroke="#ffffff" stroke-width="2.0" stroke-linejoin="round" stroke-linecap="butt" d="m172.86317 335.48633c0 -32.96704 5.9763794 -46.501007 11.952759 -65.93408c5.9763794 -19.43306 11.952744 -44.765244 11.952744 -89.53049" fill-rule="evenodd"/><path fill="#000000" fill-opacity="0.0" d="m220.7379 335.48633c0 -32.96704 -5.9763794 -46.501007 -11.952759 -65.93408c-5.9763794 -19.43306 -11.952759 -44.765244 -11.952759 -89.53049" fill-rule="evenodd"/><path stroke="#ffffff" stroke-width="2.0" stroke-linejoin="round" stroke-linecap="butt" d="m220.7379 335.48633c0 -32.96704 -5.9763794 -46.501007 -11.952759 -65.93408c-5.9763794 -19.43306 -11.952759 -44.765244 -11.952759 -89.53049" fill-rule="evenodd"/><path fill="#000000" fill-opacity="0.0" d="m160.89449 335.48633c0 -32.96704 8.968506 -46.501007 17.937012 -65.93408c8.968506 -19.43306 17.937012 -44.765244 17.937012 -89.53049" fill-rule="evenodd"/><path stroke="#ffffff" stroke-width="2.0" stroke-linejoin="round" stroke-linecap="butt" d="m160.89449 335.48633c0 -32.96704 8.968506 -46.501007 17.937012 -65.93408c8.968506 -19.43306 17.937012 -44.765244 17.937012 -89.53049" fill-rule="evenodd"/><path fill="#000000" fill-opacity="0.0" d="m232.70657 335.48633c0 -32.96704 -8.968506 -46.501007 -17.936996 -65.93408c-8.968506 -19.43306 -17.937012 -44.765244 -17.937012 -89.53049" fill-rule="evenodd"/><path stroke="#ffffff" stroke-width="2.0" stroke-linejoin="round" stroke-linecap="butt" d="m232.70657 335.48633c0 -32.96704 -8.968506 -46.501007 -17.936996 -65.93408c-8.968506 -19.43306 -17.937012 -44.765244 -17.937012 -89.53049" fill-rule="evenodd"/><path fill="#000000" fill-opacity="0.0" d="m172.86284 335.44925l0 0c0 -13.185242 10.702866 -23.874023 23.905502 -23.874023l0 0c6.340149 0 12.4206085 2.5152893 16.903763 6.9925537c4.483139 4.477234 7.0017548 10.549683 7.0017548 16.88147l0 0c0 13.185242 -10.702866 23.874023 -23.905518 23.874023l0 0c-13.202637 0 -23.905502 -10.688782 -23.905502 -23.874023z" fill-rule="evenodd"/><path stroke="#ffffff" stroke-width="2.0" stroke-linejoin="round" stroke-linecap="butt" d="m172.86284 335.44925l0 0c0 -13.185242 10.702866 -23.874023 23.905502 -23.874023l0 0c6.340149 0 12.4206085 2.5152893 16.903763 6.9925537c4.483139 4.477234 7.0017548 10.549683 7.0017548 16.88147l0 0c0 13.185242 -10.702866 23.874023 -23.905518 23.874023l0 0c-13.202637 0 -23.905502 -10.688782 -23.905502 -23.874023z" fill-rule="evenodd"/><path fill="#171717" d="m160.89415 335.50916l0 0c0 -19.82138 16.075455 -35.88977 35.905518 -35.88977l0 0c9.522736 0 18.655441 3.78125 25.389023 10.511871c6.733597 6.730652 10.516495 15.8593445 10.516495 25.3779l0 0c0 19.82138 -16.075455 35.88977 -35.905518 35.88977l0 0c-19.830063 0 -35.905518 -16.06839 -35.905518 -35.88977z" fill-rule="evenodd"/><path stroke="#ffffff" stroke-width="2.0" stroke-linejoin="round" stroke-linecap="butt" d="m160.89415 335.50916l0 0c0 -19.82138 16.075455 -35.88977 35.905518 -35.88977l0 0c9.522736 0 18.655441 3.78125 25.389023 10.511871c6.733597 6.730652 10.516495 15.8593445 10.516495 25.3779l0 0c0 19.82138 -16.075455 35.88977 -35.905518 35.88977l0 0c-19.830063 0 -35.905518 -16.06839 -35.905518 -35.88977z" fill-rule="evenodd"/><path fill="#ffffff" d="m184.83151 335.46808l0 0c0 -6.592621 5.3514404 -11.937012 11.952759 -11.937012l0 0c3.1700745 0 6.2102966 1.2576599 8.451874 3.4962769c2.2415771 2.238617 3.500885 5.2748413 3.500885 8.440735l0 0c0 6.5926514 -5.351425 11.937012 -11.952759 11.937012l0 0c-6.6013184 0 -11.952759 -5.3443604 -11.952759 -11.937012z" fill-rule="evenodd"/><path stroke="#ffffff" stroke-width="2.0" stroke-linejoin="round" stroke-linecap="butt" d="m184.83151 335.46808l0 0c0 -6.592621 5.3514404 -11.937012 11.952759 -11.937012l0 0c3.1700745 0 6.2102966 1.2576599 8.451874 3.4962769c2.2415771 2.238617 3.500885 5.2748413 3.500885 8.440735l0 0c0 6.5926514 -5.351425 11.937012 -11.952759 11.937012l0 0c-6.6013184 0 -11.952759 -5.3443604 -11.952759 -11.937012z" fill-rule="evenodd"/><path fill="#000000" fill-opacity="0.0" d="m38.112694 81.63978c28.579002 16.476837 41.81549 20.658401 60.16588 27.788322c18.350395 7.129921 41.814705 17.208199 80.62153 39.581757" fill-rule="evenodd"/><path stroke="#ffffff" stroke-width="2.0" stroke-linejoin="round" stroke-linecap="butt" d="m38.112694 81.63978c28.579002 16.476837 41.81549 20.658401 60.16588 27.788322c18.350395 7.129921 41.814705 17.208199 80.62153 39.581757" fill-rule="evenodd"/><path fill="#000000" fill-opacity="0.0" d="m50.081375 60.93165c28.579002 16.476837 38.807617 25.823761 54.15013 38.119034c15.342522 12.295273 35.79895 27.53891 74.605774 49.912468" fill-rule="evenodd"/><path stroke="#ffffff" stroke-width="2.0" stroke-linejoin="round" stroke-linecap="butt" d="m50.081375 60.93165c28.579002 16.476837 38.807617 25.823761 54.15013 38.119034c15.342522 12.295273 35.79895 27.53891 74.605774 49.912468" fill-rule="evenodd"/><path fill="#000000" fill-opacity="0.0" d="m32.128353 91.99384c28.579006 16.476837 43.303677 18.07573 63.14226 22.62297c19.838577 4.547241 44.791077 12.042847 83.5979 34.416405" fill-rule="evenodd"/><path stroke="#ffffff" stroke-width="2.0" stroke-linejoin="round" stroke-linecap="butt" d="m32.128353 91.99384c28.579006 16.476837 43.303677 18.07573 63.14226 22.62297c19.838577 4.547241 44.791077 12.042847 83.5979 34.416405" fill-rule="evenodd"/><path fill="#000000" fill-opacity="0.0" d="m56.065716 50.57758c28.579006 16.476841 37.319424 28.406437 51.173756 43.28439c13.854332 14.877953 32.82257 32.70426 71.629395 55.07782" fill-rule="evenodd"/><path stroke="#ffffff" stroke-width="2.0" stroke-linejoin="round" stroke-linecap="butt" d="m56.065716 50.57758c28.579006 16.476841 37.319424 28.406437 51.173756 43.28439c13.854332 14.877953 32.82257 32.70426 71.629395 55.07782" fill-rule="evenodd"/><path fill="#000000" fill-opacity="0.0" d="m26.144014 102.34791c28.579004 16.476837 44.799744 15.485176 66.134384 17.441872c21.334648 1.9566879 47.783203 6.86174 86.59003 29.23529" fill-rule="evenodd"/><path stroke="#ffffff" stroke-width="2.0" stroke-linejoin="round" stroke-linecap="butt" d="m26.144014 102.34791c28.579004 16.476837 44.799744 15.485176 66.134384 17.441872c21.334648 1.9566879 47.783203 6.86174 86.59003 29.23529" fill-rule="evenodd"/><path fill="#000000" fill-opacity="0.0" d="m62.050056 40.223515c28.579002 16.476841 35.823364 30.99699 48.181633 48.465496c12.358261 17.468498 29.830444 37.88536 68.63727 60.25891" fill-rule="evenodd"/><path stroke="#ffffff" stroke-width="2.0" stroke-linejoin="round" stroke-linecap="butt" d="m62.050056 40.223515c28.579002 16.476841 35.823364 30.99699 48.181633 48.465496c12.358261 17.468498 29.830444 37.88536 68.63727 60.25891" fill-rule="evenodd"/><path fill="#000000" fill-opacity="0.0" d="m32.117878 92.01267l0 0c11.454472 6.5926285 26.09159 2.6724777 32.692913 -8.755905l0 0c3.1700668 -5.488098 4.0251846 -12.009071 2.3772278 -18.128365c-1.6479645 -6.119301 -5.6639977 -11.335667 -11.164627 -14.501556l0 0c-11.454475 -6.5926285 -26.091589 -2.672474 -32.692917 8.755905l0 0c-6.601324 11.428383 -2.6670704 26.037292 8.787401 32.62992z" fill-rule="evenodd"/><path stroke="#ffffff" stroke-width="2.0" stroke-linejoin="round" stroke-linecap="butt" d="m32.117878 92.01267l0 0c11.454472 6.5926285 26.09159 2.6724777 32.692913 -8.755905l0 0c3.1700668 -5.488098 4.0251846 -12.009071 2.3772278 -18.128365c-1.6479645 -6.119301 -5.6639977 -11.335667 -11.164627 -14.501556l0 0c-11.454475 -6.5926285 -26.091589 -2.672474 -32.692917 8.755905l0 0c-6.601324 11.428383 -2.6670704 26.037292 8.787401 32.62992z" fill-rule="evenodd"/><path fill="#171717" d="m26.152264 102.32891l0 0c17.168663 9.915031 39.117283 4.0348053 49.023624 -13.133858l0 0c4.757187 -8.244682 6.0443497 -18.043129 3.5783157 -27.239796c-2.4660263 -9.196667 -8.483246 -17.038208 -16.727924 -21.799572l0 0c-17.168663 -9.915035 -39.117287 -4.0348053 -49.02362 13.133858l0 0c-9.906336 17.168663 -4.0190573 39.124336 13.149607 49.039368z" fill-rule="evenodd"/><path stroke="#ffffff" stroke-width="2.0" stroke-linejoin="round" stroke-linecap="butt" d="m26.152264 102.32891l0 0c17.168663 9.915031 39.117283 4.0348053 49.023624 -13.133858l0 0c4.757187 -8.244682 6.0443497 -18.043129 3.5783157 -27.239796c-2.4660263 -9.196667 -8.483246 -17.038208 -16.727924 -21.799572l0 0c-17.168663 -9.915035 -39.117287 -4.0348053 -49.02362 13.133858l0 0c-9.906336 17.168663 -4.0190573 39.124336 13.149607 49.039368z" fill-rule="evenodd"/><path fill="#ffffff" d="m38.130737 81.601944l0 0c5.7141914 3.3224106 13.0257 1.3905334 16.330708 -4.3149567l0 0c1.5871239 -2.7398758 2.0191727 -6.001335 1.2010994 -9.066887c-0.8180733 -3.0655594 -2.819252 -5.6840973 -5.563301 -7.2795715l0 0c-5.7141914 -3.3224068 -13.0257 -1.3905334 -16.330711 4.3149567l0 0c-3.3050098 5.7054977 -1.3519859 13.0240555 4.3622055 16.346458z" fill-rule="evenodd"/><path stroke="#ffffff" stroke-width="2.0" stroke-linejoin="round" stroke-linecap="butt" d="m38.130737 81.601944l0 0c5.7141914 3.3224106 13.0257 1.3905334 16.330708 -4.3149567l0 0c1.5871239 -2.7398758 2.0191727 -6.001335 1.2010994 -9.066887c-0.8180733 -3.0655594 -2.819252 -5.6840973 -5.563301 -7.2795715l0 0c-5.7141914 -3.3224068 -13.0257 -1.3905334 -16.330711 4.3149567l0 0c-3.3050098 5.7054977 -1.3519859 13.0240555 4.3622055 16.346458z" fill-rule="evenodd"/><path fill="#000000" fill-opacity="0.0" d="m355.4873 81.63978c-28.57901 16.476837 -41.81549 20.658401 -60.165863 27.788322c-18.350403 7.129921 -41.814713 17.208199 -80.62154 39.581757" fill-rule="evenodd"/><path stroke="#ffffff" stroke-width="2.0" stroke-linejoin="round" stroke-linecap="butt" d="m355.4873 81.63978c-28.57901 16.476837 -41.81549 20.658401 -60.165863 27.788322c-18.350403 7.129921 -41.814713 17.208199 -80.62154 39.581757" fill-rule="evenodd"/><path fill="#000000" fill-opacity="0.0" d="m343.51862 60.93165c-28.57898 16.476837 -38.807587 25.823761 -54.150116 38.119034c-15.342529 12.295273 -35.79895 27.53891 -74.605774 49.912468" fill-rule="evenodd"/><path stroke="#ffffff" stroke-width="2.0" stroke-linejoin="round" stroke-linecap="butt" d="m343.51862 60.93165c-28.57898 16.476837 -38.807587 25.823761 -54.150116 38.119034c-15.342529 12.295273 -35.79895 27.53891 -74.605774 49.912468" fill-rule="evenodd"/><path fill="#000000" fill-opacity="0.0" d="m361.47165 91.99384c-28.57901 16.476837 -43.30368 18.07573 -63.142242 22.62297c-19.838593 4.547241 -44.791092 12.042847 -83.597916 34.416405" fill-rule="evenodd"/><path stroke="#ffffff" stroke-width="2.0" stroke-linejoin="round" stroke-linecap="butt" d="m361.47165 91.99384c-28.57901 16.476837 -43.30368 18.07573 -63.142242 22.62297c-19.838593 4.547241 -44.791092 12.042847 -83.597916 34.416405" fill-rule="evenodd"/><path fill="#000000" fill-opacity="0.0" d="m337.5343 50.57758c-28.57901 16.476841 -37.319427 28.406437 -51.173767 43.28439c-13.85434 14.877953 -32.82257 32.70426 -71.629395 55.07782" fill-rule="evenodd"/><path stroke="#ffffff" stroke-width="2.0" stroke-linejoin="round" stroke-linecap="butt" d="m337.5343 50.57758c-28.57901 16.476841 -37.319427 28.406437 -51.173767 43.28439c-13.85434 14.877953 -32.82257 32.70426 -71.629395 55.07782" fill-rule="evenodd"/><path fill="#000000" fill-opacity="0.0" d="m367.456 102.34791c-28.57901 16.476837 -44.799744 15.485176 -66.13437 17.441872c-21.334656 1.9566879 -47.78322 6.86174 -86.59004 29.23529" fill-rule="evenodd"/><path stroke="#ffffff" stroke-width="2.0" stroke-linejoin="round" stroke-linecap="butt" d="m367.456 102.34791c-28.57901 16.476837 -44.799744 15.485176 -66.13437 17.441872c-21.334656 1.9566879 -47.78322 6.86174 -86.59004 29.23529" fill-rule="evenodd"/><path fill="#000000" fill-opacity="0.0" d="m331.54996 40.223515c-28.57901 16.476841 -35.823364 30.99699 -48.18164 48.465496c-12.358276 17.468498 -29.830444 37.88536 -68.63727 60.25891" fill-rule="evenodd"/><path stroke="#ffffff" stroke-width="2.0" stroke-linejoin="round" stroke-linecap="butt" d="m331.54996 40.223515c-28.57901 16.476841 -35.823364 30.99699 -48.18164 48.465496c-12.358276 17.468498 -29.830444 37.88536 -68.63727 60.25891" fill-rule="evenodd"/><path fill="#000000" fill-opacity="0.0" d="m361.48212 92.01267l0 0c-11.454468 6.5926285 -26.091583 2.6724777 -32.6929 -8.755905l0 0c-3.1700745 -5.488098 -4.025177 -12.009071 -2.3772278 -18.128365c1.6479492 -6.119301 5.6640015 -11.335667 11.164642 -14.501556l0 0c11.454468 -6.5926285 26.091583 -2.672474 32.6929 8.755905l0 0c6.6013184 11.428383 2.6670837 26.037292 -8.787415 32.62992z" fill-rule="evenodd"/><path stroke="#ffffff" stroke-width="2.0" stroke-linejoin="round" stroke-linecap="butt" d="m361.48212 92.01267l0 0c-11.454468 6.5926285 -26.091583 2.6724777 -32.6929 -8.755905l0 0c-3.1700745 -5.488098 -4.025177 -12.009071 -2.3772278 -18.128365c1.6479492 -6.119301 5.6640015 -11.335667 11.164642 -14.501556l0 0c11.454468 -6.5926285 26.091583 -2.672474 32.6929 8.755905l0 0c6.6013184 11.428383 2.6670837 26.037292 -8.787415 32.62992z" fill-rule="evenodd"/><path fill="#171717" d="m367.44775 102.32891l0 0c-17.16867 9.915031 -39.11731 4.0348053 -49.02362 -13.133858l0 0c-4.757202 -8.244682 -6.0443726 -18.043129 -3.5783386 -27.239796c2.466034 -9.196667 8.483246 -17.038208 16.727936 -21.799572l0 0c17.16867 -9.915035 39.11728 -4.0348053 49.02362 13.133858l0 0c9.906342 17.168663 4.019043 39.124336 -13.149597 49.039368z" fill-rule="evenodd"/><path stroke="#ffffff" stroke-width="2.0" stroke-linejoin="round" stroke-linecap="butt" d="m367.44775 102.32891l0 0c-17.16867 9.915031 -39.11731 4.0348053 -49.02362 -13.133858l0 0c-4.757202 -8.244682 -6.0443726 -18.043129 -3.5783386 -27.239796c2.466034 -9.196667 8.483246 -17.038208 16.727936 -21.799572l0 0c17.16867 -9.915035 39.11728 -4.0348053 49.02362 13.133858l0 0c9.906342 17.168663 4.019043 39.124336 -13.149597 49.039368z" fill-rule="evenodd"/><path fill="#ffffff" d="m355.46927 81.601944l0 0c-5.714203 3.3224106 -13.025696 1.3905334 -16.330719 -4.3149567l0 0c-1.5870972 -2.7398758 -2.019165 -6.001335 -1.2010803 -9.066887c0.8180542 -3.0655594 2.8192444 -5.6840973 5.5632935 -7.2795715l0 0c5.714203 -3.3224068 13.025696 -1.3905334 16.330719 4.3149567l0 0c3.3049927 5.7054977 1.3519897 13.0240555 -4.362213 16.346458z" fill-rule="evenodd"/><path stroke="#ffffff" stroke-width="2.0" stroke-linejoin="round" stroke-linecap="butt" d="m355.46927 81.601944l0 0c-5.714203 3.3224106 -13.025696 1.3905334 -16.330719 -4.3149567l0 0c-1.5870972 -2.7398758 -2.019165 -6.001335 -1.2010803 -9.066887c0.8180542 -3.0655594 2.8192444 -5.6840973 5.5632935 -7.2795715l0 0c5.714203 -3.3224068 13.025696 -1.3905334 16.330719 4.3149567l0 0c3.3049927 5.7054977 1.3519897 13.0240555 -4.362213 16.346458z" fill-rule="evenodd"/></g></svg>