<svg version="1.1" viewBox="0.0 0.0 393.6010498687664 393.6010498687664" fill="none" stroke="none" stroke-linecap="square" stroke-miterlimit="10" xmlns:xlink="http://www.w3.org/1999/xlink" xmlns="http://www.w3.org/2000/svg"><clipPath id="p.0"><path d="m0 0l393.60104 0l0 393.60104l-393.60104 0l0 -393.60104z" clip-rule="nonzero"/></clipPath><g clip-path="url(#p.0)"><path fill="#000000" fill-opacity="0.0" d="m0 0l393.60104 0l0 393.60104l-393.60104 0z" fill-rule="evenodd"/><path fill="#000000" fill-opacity="0.0" d="m245.70589 332.59058l0 0c0 12.922516 -5.1334534 25.315765 -14.271057 34.45337c-9.137604 9.137604 -21.530838 14.271027 -34.453354 14.271027l0 -48.724396z" fill-rule="evenodd"/><path fill="#000000" fill-opacity="0.0" d="m245.70589 332.59058l0 0c0 12.922516 -5.1334534 25.315765 -14.271057 34.45337c-9.137604 9.137604 -21.530838 14.271027 -34.453354 14.271027" fill-rule="evenodd"/><path stroke="#ffffff" stroke-width="2.0" stroke-linejoin="round" stroke-linecap="butt" d="m245.70589 332.59058l0 0c0 12.922516 -5.1334534 25.315765 -14.271057 34.45337c-9.137604 9.137604 -21.530838 14.271027 -34.453354 14.271027" fill-rule="evenodd"/><path fill="#000000" fill-opacity="0.0" d="m148.25706 332.59058l0 0c0 12.922516 5.133438 25.315765 14.271042 34.45337c9.137604 9.137604 21.530853 14.271027 34.45337 14.271027l0 -48.724396z" fill-rule="evenodd"/><path fill="#000000" fill-opacity="0.0" d="m148.25706 332.59058l0 0c0 12.922516 5.133438 25.315765 14.271042 34.45337c9.137604 9.137604 21.530853 14.271027 34.45337 14.271027" fill-rule="evenodd"/><path stroke="#ffffff" stroke-width="2.0" stroke-linejoin="round" stroke-linecap="butt" d="m148.25706 332.59058l0 0c0 12.922516 5.133438 25.315765 14.271042 34.45337c9.137604 9.137604 21.530853 14.271027 34.45337 14.271027" fill-rule="evenodd"/><path fill="#000000" fill-opacity="0.0" d="m148.25722 332.83218c0 -29.530396 12.236221 -42.056854 24.472443 -59.06079c12.236221 -17.003937 24.472443 -38.485367 24.472443 -76.9707" fill-rule="evenodd"/><path stroke="#ffffff" stroke-width="2.0" stroke-linejoin="round" stroke-linecap="butt" d="m148.25722 332.83218c0 -29.530396 12.236221 -42.056854 24.472443 -59.06079c12.236221 -17.003937 24.472443 -38.485367 24.472443 -76.9707" fill-rule="evenodd"/><path fill="#000000" fill-opacity="0.0" d="m246.14699 332.83218c0 -29.530396 -12.236221 -42.056854 -24.472443 -59.06079c-12.236221 -17.003937 -24.472443 -38.485367 -24.472443 -76.9707" fill-rule="evenodd"/><path stroke="#ffffff" stroke-width="2.0" stroke-linejoin="round" stroke-linecap="butt" d="m246.14699 332.83218c0 -29.530396 -12.236221 -42.056854 -24.472443 -59.06079c-12.236221 -17.003937 -24.472443 -38.485367 -24.472443 -76.9707" fill-rule="evenodd"/><path fill="#000000" fill-opacity="0.0" d="m245.48541 61.010654l0 0c0 -12.922516 -5.1334534 -25.315758 -14.271057 -34.453358c-9.137604 -9.1376 -21.530838 -14.27105 -34.453354 -14.27105l0 48.724407z" fill-rule="evenodd"/><path fill="#000000" fill-opacity="0.0" d="m245.48541 61.010654l0 0c0 -12.922516 -5.1334534 -25.315758 -14.271057 -34.453358c-9.137604 -9.1376 -21.530838 -14.27105 -34.453354 -14.27105" fill-rule="evenodd"/><path stroke="#ffffff" stroke-width="2.0" stroke-linejoin="round" stroke-linecap="butt" d="m245.48541 61.010654l0 0c0 -12.922516 -5.1334534 -25.315758 -14.271057 -34.453358c-9.137604 -9.1376 -21.530838 -14.27105 -34.453354 -14.27105" fill-rule="evenodd"/><path fill="#000000" fill-opacity="0.0" d="m148.03659 61.010654l0 0c0 -12.922516 5.1334534 -25.315758 14.271042 -34.453358c9.137604 -9.1376 21.530853 -14.27105 34.45337 -14.27105l0 48.724407z" fill-rule="evenodd"/><path fill="#000000" fill-opacity="0.0" d="m148.03659 61.010654l0 0c0 -12.922516 5.1334534 -25.315758 14.271042 -34.453358c9.137604 -9.1376 21.530853 -14.27105 34.45337 -14.27105" fill-rule="evenodd"/><path stroke="#ffffff" stroke-width="2.0" stroke-linejoin="round" stroke-linecap="butt" d="m148.03659 61.010654l0 0c0 -12.922516 5.1334534 -25.315758 14.271042 -34.453358c9.137604 -9.1376 21.530853 -14.27105 34.45337 -14.27105" fill-rule="evenodd"/><path fill="#000000" fill-opacity="0.0" d="m148.03674 60.769054c0 29.5304 12.236221 42.056858 24.472443 59.060795c12.236221 17.003937 24.472443 38.48535 24.472443 76.9707" fill-rule="evenodd"/><path stroke="#ffffff" stroke-width="2.0" stroke-linejoin="round" stroke-linecap="butt" d="m148.03674 60.769054c0 29.5304 12.236221 42.056858 24.472443 59.060795c12.236221 17.003937 24.472443 38.48535 24.472443 76.9707" fill-rule="evenodd"/><path fill="#000000" fill-opacity="0.0" d="m245.92651 60.769054c0 29.5304 -12.236221 42.056858 -24.472443 59.060795c-12.236221 17.003937 -24.472443 38.48535 -24.472443 76.9707" fill-rule="evenodd"/><path stroke="#ffffff" stroke-width="2.0" stroke-linejoin="round" stroke-linecap="butt" d="m245.92651 60.769054c0 29.5304 -12.236221 42.056858 -24.472443 59.060795c-12.236221 17.003937 -24.472443 38.48535 -24.472443 76.9707" fill-rule="evenodd"/><path fill="#000000" fill-opacity="0.0" d="m54.738007 171.19777l0 0c-11.19339 -6.461258 -19.361603 -17.104431 -22.707726 -29.588165c-3.3461208 -12.483719 -1.5960541 -25.785378 4.865204 -36.978767l42.204727 24.362206z" fill-rule="evenodd"/><path fill="#000000" fill-opacity="0.0" d="m54.738007 171.19777l0 0c-11.19339 -6.461258 -19.361603 -17.104431 -22.707726 -29.588165c-3.3461208 -12.483719 -1.5960541 -25.785378 4.865204 -36.978767" fill-rule="evenodd"/><path stroke="#ffffff" stroke-width="2.0" stroke-linejoin="round" stroke-linecap="butt" d="m54.738007 171.19777l0 0c-11.19339 -6.461258 -19.361603 -17.104431 -22.707726 -29.588165c-3.3461208 -12.483719 -1.5960541 -25.785378 4.865204 -36.978767" fill-rule="evenodd"/><path fill="#000000" fill-opacity="0.0" d="m103.46242 86.80462l0 0c-11.19339 -6.461258 -24.495056 -8.211327 -36.978775 -4.865204c-12.483719 3.3461227 -23.1269 11.514328 -29.588158 22.707718l42.204727 24.362206z" fill-rule="evenodd"/><path fill="#000000" fill-opacity="0.0" d="m103.46242 86.80462l0 0c-11.19339 -6.461258 -24.495056 -8.211327 -36.978775 -4.865204c-12.483719 3.3461227 -23.1269 11.514328 -29.588158 22.707718" fill-rule="evenodd"/><path stroke="#ffffff" stroke-width="2.0" stroke-linejoin="round" stroke-linecap="butt" d="m103.46242 86.80462l0 0c-11.19339 -6.461258 -24.495056 -8.211327 -36.978775 -4.865204c-12.483719 3.3461227 -23.1269 11.514328 -29.588158 22.707718" fill-rule="evenodd"/><path fill="#000000" fill-opacity="0.0" d="m103.26125 86.68395c25.571587 14.76178 30.300652 31.621986 38.906944 50.720406c8.606308 19.098434 21.089844 40.435074 54.415894 59.673294" fill-rule="evenodd"/><path stroke="#ffffff" stroke-width="2.0" stroke-linejoin="round" stroke-linecap="butt" d="m103.26125 86.68395c25.571587 14.76178 30.300652 31.621986 38.906944 50.720406c8.606308 19.098434 21.089844 40.435074 54.415894 59.673294" fill-rule="evenodd"/><path fill="#000000" fill-opacity="0.0" d="m54.31637 171.45897c25.571587 14.76178 42.536873 10.42514 63.379395 8.326721c20.842522 -2.0984344 45.56228 -1.9586334 78.88833 17.279587" fill-rule="evenodd"/><path stroke="#ffffff" stroke-width="2.0" stroke-linejoin="round" stroke-linecap="butt" d="m54.31637 171.45897c25.571587 14.76178 42.536873 10.42514 63.379395 8.326721c20.842522 -2.0984344 45.56228 -1.9586334 78.88833 17.279587" fill-rule="evenodd"/><path fill="#000000" fill-opacity="0.0" d="m290.05966 306.79678l0 0c11.193359 6.461273 24.495026 8.211334 36.97876 4.865204c12.483704 -3.3460999 23.126892 -11.514313 29.588165 -22.707703l-42.204742 -24.362213z" fill-rule="evenodd"/><path fill="#000000" fill-opacity="0.0" d="m290.05966 306.79678l0 0c11.193359 6.461273 24.495026 8.211334 36.97876 4.865204c12.483704 -3.3460999 23.126892 -11.514313 29.588165 -22.707703" fill-rule="evenodd"/><path stroke="#ffffff" stroke-width="2.0" stroke-linejoin="round" stroke-linecap="butt" d="m290.05966 306.79678l0 0c11.193359 6.461273 24.495026 8.211334 36.97876 4.865204c12.483704 -3.3460999 23.126892 -11.514313 29.588165 -22.707703" fill-rule="evenodd"/><path fill="#000000" fill-opacity="0.0" d="m338.78406 222.40364l0 0c11.19339 6.461258 19.361603 17.104431 22.707733 29.588165c3.3460999 12.483719 1.5960388 25.785385 -4.865204 36.978775l-42.204742 -24.362213z" fill-rule="evenodd"/><path fill="#000000" fill-opacity="0.0" d="m338.78406 222.40364l0 0c11.19339 6.461258 19.361603 17.104431 22.707733 29.588165c3.3460999 12.483719 1.5960388 25.785385 -4.865204 36.978775" fill-rule="evenodd"/><path stroke="#ffffff" stroke-width="2.0" stroke-linejoin="round" stroke-linecap="butt" d="m338.78406 222.40364l0 0c11.19339 6.461258 19.361603 17.104431 22.707733 29.588165c3.3460999 12.483719 1.5960388 25.785385 -4.865204 36.978775" fill-rule="evenodd"/><path fill="#000000" fill-opacity="0.0" d="m338.98508 222.52458c-25.571594 -14.76178 -42.536896 -10.42514 -63.379395 -8.326706c-20.84253 2.0984192 -45.562286 1.9586182 -78.888336 -17.279602" fill-rule="evenodd"/><path stroke="#ffffff" stroke-width="2.0" stroke-linejoin="round" stroke-linecap="butt" d="m338.98508 222.52458c-25.571594 -14.76178 -42.536896 -10.42514 -63.379395 -8.326706c-20.84253 2.0984192 -45.562286 1.9586182 -78.888336 -17.279602" fill-rule="evenodd"/><path fill="#000000" fill-opacity="0.0" d="m290.0402 307.2996c-25.571594 -14.76178 -30.30066 -31.621979 -38.906967 -50.720398c-8.606293 -19.098434 -21.089828 -40.435074 -54.41588 -59.673294" fill-rule="evenodd"/><path stroke="#ffffff" stroke-width="2.0" stroke-linejoin="round" stroke-linecap="butt" d="m290.0402 307.2996c-25.571594 -14.76178 -30.30066 -31.621979 -38.906967 -50.720398c-8.606293 -19.098434 -21.089828 -40.435074 -54.41588 -59.673294" fill-rule="evenodd"/><path fill="#000000" fill-opacity="0.0" d="m290.15424 86.61377l0 0c11.189209 -6.461258 24.486877 -8.212982 36.96765 -4.869812c12.480743 3.3431625 23.122284 11.50737 29.583527 22.696587l-42.188965 24.362206z" fill-rule="evenodd"/><path fill="#000000" fill-opacity="0.0" d="m290.15424 86.61377l0 0c11.189209 -6.461258 24.486877 -8.212982 36.96765 -4.869812c12.480743 3.3431625 23.122284 11.50737 29.583527 22.696587" fill-rule="evenodd"/><path stroke="#ffffff" stroke-width="2.0" stroke-linejoin="round" stroke-linecap="butt" d="m290.15424 86.61377l0 0c11.189209 -6.461258 24.486877 -8.212982 36.96765 -4.869812c12.480743 3.3431625 23.122284 11.50737 29.583527 22.696587" fill-rule="evenodd"/><path fill="#000000" fill-opacity="0.0" d="m338.87863 171.00693l0 0c11.1892395 -6.461258 19.353424 -17.102783 22.696594 -29.583557c3.3431702 -12.480759 1.5914612 -25.77842 -4.869812 -36.96763l-42.188965 24.362206z" fill-rule="evenodd"/><path fill="#000000" fill-opacity="0.0" d="m338.87863 171.00693l0 0c11.1892395 -6.461258 19.353424 -17.102783 22.696594 -29.583557c3.3431702 -12.480759 1.5914612 -25.77842 -4.869812 -36.96763" fill-rule="evenodd"/><path stroke="#ffffff" stroke-width="2.0" stroke-linejoin="round" stroke-linecap="butt" d="m338.87863 171.00693l0 0c11.1892395 -6.461258 19.353424 -17.102783 22.696594 -29.583557c3.3431702 -12.480759 1.5914612 -25.77842 -4.869812 -36.96763" fill-rule="evenodd"/><path fill="#000000" fill-opacity="0.0" d="m339.0954 170.88599c-25.571594 14.76178 -42.536865 10.42514 -63.379395 8.326706c-20.842514 -2.0984192 -45.56227 -1.9586334 -78.88832 17.279587" fill-rule="evenodd"/><path stroke="#ffffff" stroke-width="2.0" stroke-linejoin="round" stroke-linecap="butt" d="m339.0954 170.88599c-25.571594 14.76178 -42.536865 10.42514 -63.379395 8.326706c-20.842514 -2.0984192 -45.56227 -1.9586334 -78.88832 17.279587" fill-rule="evenodd"/><path fill="#000000" fill-opacity="0.0" d="m290.1505 86.11096c-25.571594 14.76178 -30.30066 31.621986 -38.90695 50.720413c-8.606293 19.09842 -21.089828 40.435074 -54.41588 59.673294" fill-rule="evenodd"/><path stroke="#ffffff" stroke-width="2.0" stroke-linejoin="round" stroke-linecap="butt" d="m290.1505 86.11096c-25.571594 14.76178 -30.30066 31.621986 -38.90695 50.720413c-8.606293 19.09842 -21.089828 40.435074 -54.41588 59.673294" fill-rule="evenodd"/><path fill="#000000" fill-opacity="0.0" d="m55.084564 222.59467l0 0c-11.189213 6.461258 -19.35342 17.102783 -22.696587 29.583542c-3.3431702 12.480759 -1.5914459 25.778427 4.869812 36.967636l42.18898 -24.362213z" fill-rule="evenodd"/><path fill="#000000" fill-opacity="0.0" d="m55.084564 222.59467l0 0c-11.189213 6.461258 -19.35342 17.102783 -22.696587 29.583542c-3.3431702 12.480759 -1.5914459 25.778427 4.869812 36.967636" fill-rule="evenodd"/><path stroke="#ffffff" stroke-width="2.0" stroke-linejoin="round" stroke-linecap="butt" d="m55.084564 222.59467l0 0c-11.189213 6.461258 -19.35342 17.102783 -22.696587 29.583542c-3.3431702 12.480759 -1.5914459 25.778427 4.869812 36.967636" fill-rule="evenodd"/><path fill="#000000" fill-opacity="0.0" d="m103.808975 306.98782l0 0c-11.189217 6.4612427 -24.48687 8.212982 -36.967636 4.869812c-12.48077 -3.3431702 -23.122292 -11.507385 -29.58355 -22.696594l42.18898 -24.362213z" fill-rule="evenodd"/><path fill="#000000" fill-opacity="0.0" d="m103.808975 306.98782l0 0c-11.189217 6.4612427 -24.48687 8.212982 -36.967636 4.869812c-12.48077 -3.3431702 -23.122292 -11.507385 -29.58355 -22.696594" fill-rule="evenodd"/><path stroke="#ffffff" stroke-width="2.0" stroke-linejoin="round" stroke-linecap="butt" d="m103.808975 306.98782l0 0c-11.189217 6.4612427 -24.48687 8.212982 -36.967636 4.869812c-12.48077 -3.3431702 -23.122292 -11.507385 -29.58355 -22.696594" fill-rule="evenodd"/><path fill="#000000" fill-opacity="0.0" d="m103.592064 307.1085c25.571587 -14.76178 30.300652 -31.621979 38.906944 -50.72043c8.606308 -19.09842 21.089844 -40.43506 54.415894 -59.67328" fill-rule="evenodd"/><path stroke="#ffffff" stroke-width="2.0" stroke-linejoin="round" stroke-linecap="butt" d="m103.592064 307.1085c25.571587 -14.76178 30.300652 -31.621979 38.906944 -50.72043c8.606308 -19.09842 21.089844 -40.43506 54.415894 -59.67328" fill-rule="evenodd"/><path fill="#000000" fill-opacity="0.0" d="m54.64718 222.33347c25.571587 -14.76178 42.536873 -10.42514 63.379395 -8.326721c20.842522 2.0984344 45.56228 1.9586334 78.88833 -17.279587" fill-rule="evenodd"/><path stroke="#ffffff" stroke-width="2.0" stroke-linejoin="round" stroke-linecap="butt" d="m54.64718 222.33347c25.571587 -14.76178 42.536873 -10.42514 63.379395 -8.326721c20.842522 2.0984344 45.56228 1.9586334 78.88833 -17.279587" fill-rule="evenodd"/><path fill="#171717" d="m148.98294 196.80106l0 0c0 -26.509674 21.490326 -48.0 48.0 -48.0l0 0c12.730392 0 24.939377 5.057129 33.941116 14.058868c9.001755 9.0017395 14.058884 21.21074 14.058884 33.94113l0 0c0 26.509659 -21.490341 48.0 -48.0 48.0l0 0c-26.509674 0 -48.0 -21.490341 -48.0 -48.0z" fill-rule="evenodd"/><path stroke="#ffffff" stroke-width="2.0" stroke-linejoin="round" stroke-linecap="butt" d="m148.98294 196.80106l0 0c0 -26.509674 21.490326 -48.0 48.0 -48.0l0 0c12.730392 0 24.939377 5.057129 33.941116 14.058868c9.001755 9.0017395 14.058884 21.21074 14.058884 33.94113l0 0c0 26.509659 -21.490341 48.0 -48.0 48.0l0 0c-26.509674 0 -48.0 -21.490341 -48.0 -48.0z" fill-rule="evenodd"/></g></svg>