<svg version="1.1" viewBox="0.0 0.0 393.6010498687664 393.6010498687664" fill="none" stroke="none" stroke-linecap="square" stroke-miterlimit="10" xmlns:xlink="http://www.w3.org/1999/xlink" xmlns="http://www.w3.org/2000/svg"><clipPath id="p.0"><path d="m0 0l393.60104 0l0 393.60104l-393.60104 0l0 -393.60104z" clip-rule="nonzero"/></clipPath><g clip-path="url(#p.0)"><path fill="#000000" fill-opacity="0.0" d="m0 0l393.60104 0l0 393.60104l-393.60104 0z" fill-rule="evenodd"/><path fill="#000000" fill-opacity="0.0" d="m326.12964 4.8005247l-256.0 192.0" fill-rule="evenodd"/><path stroke="#ffffff" stroke-width="2.0" stroke-linejoin="round" stroke-linecap="butt" d="m326.12964 4.8005247l-256.0 192.0" fill-rule="evenodd"/><path fill="#000000" fill-opacity="0.0" d="m67.31365 4.8005247l0 383.49606" fill-rule="evenodd"/><path stroke="#ffffff" stroke-width="2.0" stroke-linejoin="round" stroke-linecap="butt" d="m67.31365 4.8005247l0 383.49606" fill-rule="evenodd"/><path fill="#000000" fill-opacity="0.0" d="m229.81233 124.80052l96.47246 0" fill-rule="evenodd"/><path stroke="#ffffff" stroke-width="2.0" stroke-linejoin="round" stroke-linecap="butt" d="m229.81233 124.80052l96.47246 0" fill-rule="evenodd"/><path fill="#000000" fill-opacity="0.0" d="m229.81233 268.80054l96.47246 0" fill-rule="evenodd"/><path stroke="#ffffff" stroke-width="2.0" stroke-linejoin="round" stroke-linecap="butt" d="m229.81233 268.80054l96.47246 0" fill-rule="evenodd"/><path fill="#000000" fill-opacity="0.0" d="m324.72452 388.80054l-256.0 -192.00002" fill-rule="evenodd"/><path stroke="#ffffff" stroke-width="2.0" stroke-linejoin="round" stroke-linecap="butt" d="m324.72452 388.80054l-256.0 -192.00002" fill-rule="evenodd"/><path fill="#000000" fill-opacity="0.0" d="m278.05276 124.80052l0 144.00002" fill-rule="evenodd"/><path stroke="#ffffff" stroke-width="2.0" stroke-linejoin="round" stroke-linecap="butt" d="m278.05276 124.80052l0 144.00002" fill-rule="evenodd"/></g></svg>