<svg version="1.1" viewBox="0.0 0.0 316.8005249343832 316.8005249343832" fill="none" stroke="none" stroke-linecap="square" stroke-miterlimit="10" xmlns:xlink="http://www.w3.org/1999/xlink" xmlns="http://www.w3.org/2000/svg"><clipPath id="p.0"><path d="m0 0l316.80054 0l0 316.80054l-316.80054 0l0 -316.80054z" clip-rule="nonzero"/></clipPath><g clip-path="url(#p.0)"><path fill="#000000" fill-opacity="0.0" d="m0 0l316.80054 0l0 316.80054l-316.80054 0z" fill-rule="evenodd"/><path fill="#000000" fill-opacity="0.0" d="m226.53963 81.58241l0 153.70079" fill-rule="evenodd"/><path stroke="#ffffff" stroke-width="2.0" stroke-linejoin="round" stroke-linecap="butt" d="m226.53963 81.58241l0 153.70079" fill-rule="evenodd"/><path fill="#000000" fill-opacity="0.0" d="m188.14594 43.188713l0 0c0 -21.204254 17.189438 -38.3937 38.393692 -38.3937l0 0c10.182648 0 19.948242 4.0450397 27.148453 11.2452545c7.200226 7.2002163 11.245239 16.965805 11.245239 27.148445l0 0c0 21.204254 -17.189438 38.3937 -38.393692 38.3937l0 0c-21.204254 0 -38.393692 -17.189445 -38.393692 -38.3937z" fill-rule="evenodd"/><path stroke="#ffffff" stroke-width="2.0" stroke-linejoin="round" stroke-linecap="butt" d="m188.14594 43.188713l0 0c0 -21.204254 17.189438 -38.3937 38.393692 -38.3937l0 0c10.182648 0 19.948242 4.0450397 27.148453 11.2452545c7.200226 7.2002163 11.245239 16.965805 11.245239 27.148445l0 0c0 21.204254 -17.189438 38.3937 -38.393692 38.3937l0 0c-21.204254 0 -38.393692 -17.189445 -38.393692 -38.3937z" fill-rule="evenodd"/><path fill="#000000" fill-opacity="0.0" d="m4.7926507 254.4013l0 0c0 -31.815079 68.77189 -57.606293 153.60631 -57.606293l0 0c84.83441 0 153.6063 25.791214 153.6063 57.606293l0 0c0 31.815094 -68.77188 57.606293 -153.6063 57.606293l0 0c-84.83442 0 -153.60631 -25.791199 -153.60631 -57.606293z" fill-rule="evenodd"/><path stroke="#ffffff" stroke-width="2.0" stroke-linejoin="round" stroke-linecap="butt" d="m4.7926507 254.4013l0 0c0 -31.815079 68.77189 -57.606293 153.60631 -57.606293l0 0c84.83441 0 153.6063 25.791214 153.6063 57.606293l0 0c0 31.815094 -68.77188 57.606293 -153.6063 57.606293l0 0c-84.83442 0 -153.60631 -25.791199 -153.60631 -57.606293z" fill-rule="evenodd"/><path fill="#000000" fill-opacity="0.0" d="m55.144356 158.09685l-0.03149414 97.5748" fill-rule="evenodd"/><path stroke="#ffffff" stroke-width="2.0" stroke-linejoin="round" stroke-linecap="butt" d="m55.144356 158.09685l-0.03149414 97.5748" fill-rule="evenodd"/><path fill="#000000" fill-opacity="0.0" d="m24.4042 127.35669l0 0c0 -16.977318 13.762838 -30.74015 30.740156 -30.74015l0 0c8.152798 0 15.97168 3.2386856 21.736572 9.003578c5.7649 5.7649 9.003586 13.583778 9.003586 21.736572l0 0c0 16.977325 -13.76284 30.740158 -30.740158 30.740158l0 0c-16.977318 0 -30.740156 -13.762833 -30.740156 -30.740158z" fill-rule="evenodd"/><path stroke="#ffffff" stroke-width="2.0" stroke-linejoin="round" stroke-linecap="butt" d="m24.4042 127.35669l0 0c0 -16.977318 13.762838 -30.74015 30.740156 -30.74015l0 0c8.152798 0 15.97168 3.2386856 21.736572 9.003578c5.7649 5.7649 9.003586 13.583778 9.003586 21.736572l0 0c0 16.977325 -13.76284 30.740158 -30.740158 30.740158l0 0c-16.977318 0 -30.740156 -13.762833 -30.740156 -30.740158z" fill-rule="evenodd"/><path fill="#000000" fill-opacity="0.0" d="m158.38635 262.04227l0 30.740143" fill-rule="evenodd"/><path stroke="#ffffff" stroke-width="2.0" stroke-linejoin="round" stroke-linecap="butt" d="m158.38635 262.04227l0 30.740143" fill-rule="evenodd"/><path fill="#000000" fill-opacity="0.0" d="m135.36273 239.01863l0 0c0 -12.715591 10.308029 -23.02362 23.02362 -23.02362l0 0c6.106247 0 11.962387 2.425705 16.280151 6.743469c4.3177795 4.3177643 6.743469 10.173904 6.743469 16.280151l0 0c0 12.715607 -10.308029 23.023636 -23.02362 23.023636l0 0c-12.715591 0 -23.02362 -10.308029 -23.02362 -23.023636z" fill-rule="evenodd"/><path stroke="#ffffff" stroke-width="2.0" stroke-linejoin="round" stroke-linecap="butt" d="m135.36273 239.01863l0 0c0 -12.715591 10.308029 -23.02362 23.02362 -23.02362l0 0c6.106247 0 11.962387 2.425705 16.280151 6.743469c4.3177795 4.3177643 6.743469 10.173904 6.743469 16.280151l0 0c0 12.715607 -10.308029 23.023636 -23.02362 23.023636l0 0c-12.715591 0 -23.02362 -10.308029 -23.02362 -23.023636z" fill-rule="evenodd"/></g></svg>