<svg version="1.1" viewBox="0.0 0.0 393.6010498687664 393.6010498687664" fill="none" stroke="none" stroke-linecap="square" stroke-miterlimit="10" xmlns:xlink="http://www.w3.org/1999/xlink" xmlns="http://www.w3.org/2000/svg"><clipPath id="p.0"><path d="m0 0l393.60104 0l0 393.60104l-393.60104 0l0 -393.60104z" clip-rule="nonzero"/></clipPath><g clip-path="url(#p.0)"><path fill="#000000" fill-opacity="0.0" d="m0 0l393.60104 0l0 393.60104l-393.60104 0z" fill-rule="evenodd"/><path fill="#000000" fill-opacity="0.0" d="m53.650917 109.643105l286.29922 0l0 279.3386l-286.29922 0z" fill-rule="evenodd"/><path fill="#ffffff" d="m272.09756 191.88684l2.1875 18.3125l-68.593735 152.79688q0 0 -2.0625 4.640625q-2.046875 4.640625 -4.234375 11.078125q-2.1875 6.421875 -3.0 12.15625l-2.734375 0l-3.828125 -17.21875l82.26561 -181.76562zm-168.09375 175.20312l0 19.953125l-30.34375 0l0 -2.734375q0.28125 0 2.328125 0q2.046875 0 2.046875 0q7.390625 0 13.125 -4.5q5.734375 -4.515625 6.828125 -12.71875l6.015625 0zm7.921875 4.375q0 0.265625 0 0.546875q0 0.265625 0 0.8125q0 4.375 3.140625 8.078125q3.15625 3.6875 7.53125 3.6875l4.09375 0l0 2.453125l-16.671875 0l0 -15.578125l1.90625 0zm6.5625 -179.57812l2.734375 0l5.46875 16.125l-16.125 179.03125l-14.765625 0l22.6875 -195.15625zm2.734375 0l78.718765 170.28125l-6.28125 28.703125l-77.625015 -168.375l5.1875 -30.609375zm153.34375 0l23.5 195.15625l-21.3125 0l-15.03125 -165.64062l10.375 -29.515625l2.46875 0zm15.296875 175.20312l5.75 0q1.359375 8.203125 7.09375 12.71875q5.75 4.5 12.859375 4.5q0 0 2.1875 0q2.1875 0 2.1875 0l0 2.734375l-30.078125 0l0 -19.953125zm-14.484375 4.375l1.921875 0l0 15.578125l-16.671875 0l0 -2.453125l4.09375 0q4.640625 0 7.640625 -3.6875q3.015625 -3.703125 3.015625 -8.078125q0 -0.546875 0 -0.8125q0 -0.28125 0 -0.546875z" fill-rule="nonzero"/><path fill="#000000" fill-opacity="0.0" d="m53.650917 284.33337l286.29922 0l0 -279.71652l-286.29922 0z" fill-rule="evenodd"/><path fill="#ffffff" d="m121.50348 202.08965l-2.1875 -18.3125l68.59375 -152.79688q0 0 2.0625 -4.640625q2.046875 -4.640625 4.234375 -11.078124q2.1875 -6.421875 3.0 -12.15625l2.734375 0l3.828125 17.21875l-82.265625 181.76562zm168.09375 -175.20312l0 -19.953125l30.34375 0l0 2.7343755q-0.28125 0 -2.328125 0q-2.046875 0 -2.046875 0q-7.390625 0 -13.125 4.5q-5.734375 4.515624 -6.828125 12.718749l-6.015625 0zm-7.921875 -4.375q0 -0.265625 0 -0.546875q0 -0.265625 0 -0.8125q0 -4.375 -3.140625 -8.078124q-3.15625 -3.6875 -7.53125 -3.6875l-4.09375 0l0 -2.4531255l16.671875 0l0 15.578125l-1.90625 0zm-6.5625 179.57812l-2.734375 0l-5.46875 -16.125l16.125 -179.03125l14.765625 0l-22.6875 195.15625zm-2.734375 0l-78.71875 -170.28125l6.28125 -28.703125l77.625 168.375l-5.1875 30.609375zm-153.34375 0l-23.5 -195.15625l21.3125 0l15.03125 165.64062l-10.375 29.515625l-2.46875 0zm-15.296875 -175.20312l-5.75 0q-1.359375 -8.203125 -7.09375 -12.718749q-5.75 -4.5 -12.859375 -4.5q0 0 -2.1875 0q-2.1875 0 -2.1875 0l0 -2.7343755l30.078125 0l0 19.953125zm14.484375 -4.375l-1.921875 0l0 -15.578125l16.671875 0l0 2.4531255l-4.09375 0q-4.640625 0 -7.640625 3.6875q-3.015625 3.703124 -3.015625 8.078124q0 0.546875 0 0.8125q0 0.28125 0 0.546875z" fill-rule="nonzero"/></g></svg>