<svg version="1.1" viewBox="0.0 0.0 393.6010498687664 393.6010498687664" fill="none" stroke="none" stroke-linecap="square" stroke-miterlimit="10" xmlns:xlink="http://www.w3.org/1999/xlink" xmlns="http://www.w3.org/2000/svg"><clipPath id="p.0"><path d="m0 0l393.60104 0l0 393.60104l-393.60104 0l0 -393.60104z" clip-rule="nonzero"/></clipPath><g clip-path="url(#p.0)"><path fill="#000000" fill-opacity="0.0" d="m0 0l393.60104 0l0 393.60104l-393.60104 0z" fill-rule="evenodd"/><path fill="#000000" fill-opacity="0.0" d="m282.40775 196.80028c0 31.94487 -21.480316 47.917313 -42.960632 63.889755c-21.480316 15.972443 -42.960632 31.944885 -42.960632 63.88977" fill-rule="evenodd"/><path stroke="#ffffff" stroke-width="4.0" stroke-linejoin="round" stroke-linecap="butt" d="m282.40775 196.80028c0 31.94487 -21.480316 47.917313 -42.960632 63.889755c-21.480316 15.972443 -42.960632 31.944885 -42.960632 63.88977" fill-rule="evenodd"/><path fill="#000000" fill-opacity="0.0" d="m111.192314 196.80028c0 31.94487 21.480309 47.917313 42.960625 63.889755c21.480316 15.972443 42.960632 31.944885 42.960632 63.88977" fill-rule="evenodd"/><path stroke="#ffffff" stroke-width="4.0" stroke-linejoin="round" stroke-linecap="butt" d="m111.192314 196.80028c0 31.94487 21.480309 47.917313 42.960625 63.889755c21.480316 15.972443 42.960632 31.944885 42.960632 63.88977" fill-rule="evenodd"/><path fill="#000000" fill-opacity="0.0" d="m282.40775 196.80028c0 -31.944885 -21.480316 -47.917328 -42.960632 -63.88977c-21.480316 -15.972443 -42.960632 -31.944878 -42.960632 -63.889763" fill-rule="evenodd"/><path stroke="#ffffff" stroke-width="4.0" stroke-linejoin="round" stroke-linecap="butt" d="m282.40775 196.80028c0 -31.944885 -21.480316 -47.917328 -42.960632 -63.88977c-21.480316 -15.972443 -42.960632 -31.944878 -42.960632 -63.889763" fill-rule="evenodd"/><path fill="#000000" fill-opacity="0.0" d="m111.192314 196.80028c0 -31.944885 21.480309 -47.917328 42.960625 -63.88977c21.480316 -15.972443 42.960632 -31.944878 42.960632 -63.889763" fill-rule="evenodd"/><path stroke="#ffffff" stroke-width="4.0" stroke-linejoin="round" stroke-linecap="butt" d="m111.192314 196.80028c0 -31.944885 21.480309 -47.917328 42.960625 -63.88977c21.480316 -15.972443 42.960632 -31.944878 42.960632 -63.889763" fill-rule="evenodd"/><path fill="#000000" fill-opacity="0.0" d="m325.2116 196.80028c0 48.0 -31.826782 71.999985 -63.653564 95.999985c-31.826752 24.0 -63.653534 48.0 -63.653534 96.0" fill-rule="evenodd"/><path stroke="#ffffff" stroke-width="4.0" stroke-linejoin="round" stroke-linecap="butt" d="m325.2116 196.80028c0 48.0 -31.826782 71.999985 -63.653564 95.999985c-31.826752 24.0 -63.653534 48.0 -63.653534 96.0" fill-rule="evenodd"/><path fill="#000000" fill-opacity="0.0" d="m68.38845 196.80028c0 48.0 31.826775 71.999985 63.65354 95.999985c31.826767 24.0 63.65355 48.0 63.65355 96.0" fill-rule="evenodd"/><path stroke="#ffffff" stroke-width="4.0" stroke-linejoin="round" stroke-linecap="butt" d="m68.38845 196.80028c0 48.0 31.826775 71.999985 63.65354 95.999985c31.826767 24.0 63.65355 48.0 63.65355 96.0" fill-rule="evenodd"/><path fill="#000000" fill-opacity="0.0" d="m325.2116 196.80028c0 -48.0 -31.826782 -72.00001 -63.653564 -96.00001c-31.826752 -24.0 -63.653534 -47.999996 -63.653534 -96.0" fill-rule="evenodd"/><path stroke="#ffffff" stroke-width="4.0" stroke-linejoin="round" stroke-linecap="butt" d="m325.2116 196.80028c0 -48.0 -31.826782 -72.00001 -63.653564 -96.00001c-31.826752 -24.0 -63.653534 -47.999996 -63.653534 -96.0" fill-rule="evenodd"/><path fill="#000000" fill-opacity="0.0" d="m68.38845 196.80028c0 -48.0 31.826775 -72.00001 63.65354 -96.00001c31.826767 -24.0 63.65355 -47.999996 63.65355 -96.0" fill-rule="evenodd"/><path stroke="#ffffff" stroke-width="4.0" stroke-linejoin="round" stroke-linecap="butt" d="m68.38845 196.80028c0 -48.0 31.826775 -72.00001 63.65354 -96.00001c31.826767 -24.0 63.65355 -47.999996 63.65355 -96.0" fill-rule="evenodd"/></g></svg>