<svg version="1.1" viewBox="0.0 0.0 393.6010498687664 393.6010498687664" fill="none" stroke="none" stroke-linecap="square" stroke-miterlimit="10" xmlns:xlink="http://www.w3.org/1999/xlink" xmlns="http://www.w3.org/2000/svg"><clipPath id="p.0"><path d="m0 0l393.60104 0l0 393.60104l-393.60104 0l0 -393.60104z" clip-rule="nonzero"/></clipPath><g clip-path="url(#p.0)"><path fill="#000000" fill-opacity="0.0" d="m0 0l393.60104 0l0 393.60104l-393.60104 0z" fill-rule="evenodd"/><path fill="#ffffff" d="m260.79956 132.80215l0 0c0 70.69069 -57.306107 127.996796 -127.996796 127.996796c-70.690674 0 -127.996796 -57.306107 -127.996796 -127.996796l0 0c30.215948 40.287933 77.636894 63.998413 127.996796 63.998413c50.35991 0 97.78087 -23.71048 127.996796 -63.998413z" fill-rule="evenodd"/><path stroke="#ffffff" stroke-width="1.0" stroke-linejoin="round" stroke-linecap="butt" d="m260.79956 132.80215l0 0c0 70.69069 -57.306107 127.996796 -127.996796 127.996796c-70.690674 0 -127.996796 -57.306107 -127.996796 -127.996796l0 0c30.215948 40.287933 77.636894 63.998413 127.996796 63.998413c50.35991 0 97.78087 -23.71048 127.996796 -63.998413z" fill-rule="evenodd"/><path fill="#ffffff" d="m260.79956 260.79895l0 0c-70.690674 0 -127.996796 -57.306107 -127.996796 -127.996796c0 -70.690674 57.30612 -127.996796 127.996796 -127.996796l0 0c-40.287918 30.215944 -63.998383 77.636894 -63.998383 127.996796c0 50.35991 23.710464 97.78085 63.998383 127.996796z" fill-rule="evenodd"/><path stroke="#ffffff" stroke-width="1.0" stroke-linejoin="round" stroke-linecap="butt" d="m260.79956 260.79895l0 0c-70.690674 0 -127.996796 -57.306107 -127.996796 -127.996796c0 -70.690674 57.30612 -127.996796 127.996796 -127.996796l0 0c-40.287918 30.215944 -63.998383 77.636894 -63.998383 127.996796c0 50.35991 23.710464 97.78085 63.998383 127.996796z" fill-rule="evenodd"/><path fill="#ffffff" d="m132.80276 260.79895l0 0c0 -70.690674 57.30612 -127.996796 127.996796 -127.996796c70.690704 0 127.996826 57.30612 127.996826 127.996796l0 0c-30.215973 -40.287918 -77.6369 -63.998383 -127.996826 -63.998383c-50.359894 0 -97.78084 23.710464 -127.996796 63.998383z" fill-rule="evenodd"/><path stroke="#ffffff" stroke-width="1.0" stroke-linejoin="round" stroke-linecap="butt" d="m132.80276 260.79895l0 0c0 -70.690674 57.30612 -127.996796 127.996796 -127.996796c70.690704 0 127.996826 57.30612 127.996826 127.996796l0 0c-30.215973 -40.287918 -77.6369 -63.998383 -127.996826 -63.998383c-50.359894 0 -97.78084 23.710464 -127.996796 63.998383z" fill-rule="evenodd"/><path fill="#ffffff" d="m132.80276 132.80215l0 0c70.69069 0 127.996796 57.30612 127.996796 127.996796c0 70.690704 -57.306107 127.996796 -127.996796 127.996796l0 0c40.287933 -30.215942 63.998413 -77.63687 63.998413 -127.996796c0 -50.359894 -23.71048 -97.78084 -63.998413 -127.996796z" fill-rule="evenodd"/><path stroke="#ffffff" stroke-width="1.0" stroke-linejoin="round" stroke-linecap="butt" d="m132.80276 132.80215l0 0c70.69069 0 127.996796 57.30612 127.996796 127.996796c0 70.690704 -57.306107 127.996796 -127.996796 127.996796l0 0c40.287933 -30.215942 63.998413 -77.63687 63.998413 -127.996796c0 -50.359894 -23.71048 -97.78084 -63.998413 -127.996796z" fill-rule="evenodd"/><path fill="#171717" d="m132.80276 196.80057l0 0c0 -35.345352 28.65306 -63.998413 63.998413 -63.998413l0 0c16.97342 0 33.251663 6.742676 45.253693 18.744705c12.002029 12.002029 18.74469 28.280273 18.74469 45.253708l0 0c0 35.345337 -28.653046 63.998383 -63.998383 63.998383l0 0c-35.345352 0 -63.998413 -28.653046 -63.998413 -63.998383z" fill-rule="evenodd"/><path stroke="#ffffff" stroke-width="2.0" stroke-linejoin="round" stroke-linecap="butt" d="m132.80276 196.80057l0 0c0 -35.345352 28.65306 -63.998413 63.998413 -63.998413l0 0c16.97342 0 33.251663 6.742676 45.253693 18.744705c12.002029 12.002029 18.74469 28.280273 18.74469 45.253708l0 0c0 35.345337 -28.653046 63.998383 -63.998383 63.998383l0 0c-35.345352 0 -63.998413 -28.653046 -63.998413 -63.998383z" fill-rule="evenodd"/></g></svg>