<svg version="1.1" viewBox="0.0 0.0 393.6010498687664 393.6010498687664" fill="none" stroke="none" stroke-linecap="square" stroke-miterlimit="10" xmlns:xlink="http://www.w3.org/1999/xlink" xmlns="http://www.w3.org/2000/svg"><clipPath id="p.0"><path d="m0 0l393.60104 0l0 393.60104l-393.60104 0l0 -393.60104z" clip-rule="nonzero"/></clipPath><g clip-path="url(#p.0)"><path fill="#000000" fill-opacity="0.0" d="m0 0l393.60104 0l0 393.60104l-393.60104 0z" fill-rule="evenodd"/><path fill="#000000" fill-opacity="0.0" d="m196.80504 272.478c0 -18.385834 11.196854 -27.594498 22.393692 -36.80316c11.196854 -9.208649 22.393707 -18.417313 22.393707 -36.803146" fill-rule="evenodd"/><path stroke="#ffffff" stroke-width="2.0" stroke-linejoin="round" stroke-linecap="butt" d="m196.80504 272.478c0 -18.385834 11.196854 -27.594498 22.393692 -36.80316c11.196854 -9.208649 22.393707 -18.417313 22.393707 -36.803146" fill-rule="evenodd"/><path fill="#000000" fill-opacity="0.0" d="m196.80504 272.478c0 -18.385834 -11.196854 -27.563004 -22.393707 -36.740158c-11.196854 -9.17717 -22.393692 -18.35434 -22.393692 -36.740158" fill-rule="evenodd"/><path stroke="#ffffff" stroke-width="2.0" stroke-linejoin="round" stroke-linecap="butt" d="m196.80504 272.478c0 -18.385834 -11.196854 -27.563004 -22.393707 -36.740158c-11.196854 -9.17717 -22.393692 -18.35434 -22.393692 -36.740158" fill-rule="evenodd"/><path fill="#000000" fill-opacity="0.0" d="m196.80383 266.79654l0.06298828 107.653534" fill-rule="evenodd"/><path stroke="#ffffff" stroke-width="2.0" stroke-linejoin="round" stroke-linecap="butt" d="m196.80383 266.79654l0.06298828 107.653534" fill-rule="evenodd"/><path fill="#000000" fill-opacity="0.0" d="m151.94061 92.7577c0 -18.385826 11.196838 -27.59449 22.393692 -36.80315c11.196854 -9.20866 22.393707 -18.41732 22.393707 -36.803146" fill-rule="evenodd"/><path stroke="#ffffff" stroke-width="2.0" stroke-linejoin="round" stroke-linecap="butt" d="m151.94061 92.7577c0 -18.385826 11.196838 -27.59449 22.393692 -36.80315c11.196854 -9.20866 22.393707 -18.41732 22.393707 -36.803146" fill-rule="evenodd"/><path fill="#000000" fill-opacity="0.0" d="m151.9418 91.11153l0.06300354 107.71654" fill-rule="evenodd"/><path stroke="#ffffff" stroke-width="2.0" stroke-linejoin="round" stroke-linecap="butt" d="m151.9418 91.11153l0.06300354 107.71654" fill-rule="evenodd"/><path fill="#000000" fill-opacity="0.0" d="m241.66055 92.826935c0 -18.385826 -11.196854 -27.562988 -22.393707 -36.740154c-11.196854 -9.177166 -22.393692 -18.354332 -22.393692 -36.740158" fill-rule="evenodd"/><path stroke="#ffffff" stroke-width="2.0" stroke-linejoin="round" stroke-linecap="butt" d="m241.66055 92.826935c0 -18.385826 -11.196854 -27.562988 -22.393707 -36.740154c-11.196854 -9.177166 -22.393692 -18.354332 -22.393692 -36.740158" fill-rule="evenodd"/><path fill="#000000" fill-opacity="0.0" d="m241.66176 91.18077l0.06298828 107.71654" fill-rule="evenodd"/><path stroke="#ffffff" stroke-width="2.0" stroke-linejoin="round" stroke-linecap="butt" d="m241.66176 91.18077l0.06298828 107.71654" fill-rule="evenodd"/><path fill="#000000" fill-opacity="0.0" d="m196.83713 175.97217l0 0c-16.82077 0 -30.456696 -13.459656 -30.456696 -30.062988l0 0c0 -7.9732056 3.2088165 -15.619843 8.920563 -21.257751c5.711731 -5.6379013 13.458511 -8.805244 21.536133 -8.805244l0 0c16.820755 0 30.45668 13.459663 30.45668 30.062996l0 0c0 16.603333 -13.635925 30.062988 -30.45668 30.062988z" fill-rule="evenodd"/><path stroke="#ffffff" stroke-width="2.0" stroke-linejoin="round" stroke-linecap="butt" d="m196.83713 175.97217l0 0c-16.82077 0 -30.456696 -13.459656 -30.456696 -30.062988l0 0c0 -7.9732056 3.2088165 -15.619843 8.920563 -21.257751c5.711731 -5.6379013 13.458511 -8.805244 21.536133 -8.805244l0 0c16.820755 0 30.45668 13.459663 30.45668 30.062996l0 0c0 16.603333 -13.635925 30.062988 -30.45668 30.062988z" fill-rule="evenodd"/><path fill="#000000" fill-opacity="0.0" d="m247.58083 286.11023c9.181107 -15.921265 23.4803 -18.29132 37.779526 -20.661407c14.299225 -2.3700867 28.59842 -4.7401733 37.77954 -20.661423" fill-rule="evenodd"/><path stroke="#ffffff" stroke-width="2.0" stroke-linejoin="round" stroke-linecap="butt" d="m247.58083 286.11023c9.181107 -15.921265 23.4803 -18.29132 37.779526 -20.661407c14.299225 -2.3700867 28.59842 -4.7401733 37.77954 -20.661423" fill-rule="evenodd"/><path fill="#000000" fill-opacity="0.0" d="m247.58083 286.11023c9.181107 -15.921265 4.0629883 -29.472443 -1.0551147 -43.02362c-5.1181183 -13.551178 -10.236221 -27.102356 -1.0551147 -43.02362" fill-rule="evenodd"/><path stroke="#ffffff" stroke-width="2.0" stroke-linejoin="round" stroke-linecap="butt" d="m247.58083 286.11023c9.181107 -15.921265 4.0629883 -29.472443 -1.0551147 -43.02362c-5.1181183 -13.551178 -10.236221 -27.102356 -1.0551147 -43.02362" fill-rule="evenodd"/><path fill="#000000" fill-opacity="0.0" d="m250.41537 281.18933l-53.669296 93.25986" fill-rule="evenodd"/><path stroke="#ffffff" stroke-width="2.0" stroke-linejoin="round" stroke-linecap="butt" d="m250.41537 281.18933l-53.669296 93.25986" fill-rule="evenodd"/><path fill="#000000" fill-opacity="0.0" d="m298.4247 107.99504c9.181122 -15.921265 23.480316 -18.291344 37.77954 -20.661423c14.299194 -2.370079 28.59842 -4.740158 37.77951 -20.661415" fill-rule="evenodd"/><path stroke="#ffffff" stroke-width="2.0" stroke-linejoin="round" stroke-linecap="butt" d="m298.4247 107.99504c9.181122 -15.921265 23.480316 -18.291344 37.77954 -20.661423c14.299194 -2.370079 28.59842 -4.740158 37.77951 -20.661415" fill-rule="evenodd"/><path fill="#000000" fill-opacity="0.0" d="m299.24734 106.570015l-53.73227 93.32284" fill-rule="evenodd"/><path stroke="#ffffff" stroke-width="2.0" stroke-linejoin="round" stroke-linecap="butt" d="m299.24734 106.570015l-53.73227 93.32284" fill-rule="evenodd"/><path fill="#000000" fill-opacity="0.0" d="m376.0899 152.99625c9.181122 -15.921249 4.0629883 -29.472435 -1.0551147 -43.02362c-5.118103 -13.551178 -10.236206 -27.102356 -1.0551147 -43.02362" fill-rule="evenodd"/><path stroke="#ffffff" stroke-width="2.0" stroke-linejoin="round" stroke-linecap="butt" d="m376.0899 152.99625c9.181122 -15.921249 4.0629883 -29.472435 -1.0551147 -43.02362c-5.118103 -13.551178 -10.236206 -27.102356 -1.0551147 -43.02362" fill-rule="evenodd"/><path fill="#000000" fill-opacity="0.0" d="m376.91254 151.57123l-53.73227 93.32283" fill-rule="evenodd"/><path stroke="#ffffff" stroke-width="2.0" stroke-linejoin="round" stroke-linecap="butt" d="m376.91254 151.57123l-53.73227 93.32283" fill-rule="evenodd"/><path fill="#000000" fill-opacity="0.0" d="m295.7602 202.55371l0 0c-14.559448 -8.427765 -19.649994 -26.914536 -11.370087 -41.291336l0 0c3.9761658 -6.9039764 10.566925 -11.917465 18.322357 -13.937546c7.755432 -2.0200653 16.040283 -0.88127136 23.031982 3.1658936l0 0c14.559448 8.42778 19.649994 26.914536 11.370087 41.291336l0 0c-8.279938 14.376801 -26.794891 19.199432 -41.35434 10.771652z" fill-rule="evenodd"/><path stroke="#ffffff" stroke-width="2.0" stroke-linejoin="round" stroke-linecap="butt" d="m295.7602 202.55371l0 0c-14.559448 -8.427765 -19.649994 -26.914536 -11.370087 -41.291336l0 0c3.9761658 -6.9039764 10.566925 -11.917465 18.322357 -13.937546c7.755432 -2.0200653 16.040283 -0.88127136 23.031982 3.1658936l0 0c14.559448 8.42778 19.649994 26.914536 11.370087 41.291336l0 0c-8.279938 14.376801 -26.794891 19.199432 -41.35434 10.771652z" fill-rule="evenodd"/><path fill="#000000" fill-opacity="0.0" d="m146.01874 286.11023c-9.181107 -15.921265 -23.480316 -18.29132 -37.779533 -20.661407c-14.29921 -2.3700867 -28.598427 -4.7401733 -37.779526 -20.661423" fill-rule="evenodd"/><path stroke="#ffffff" stroke-width="2.0" stroke-linejoin="round" stroke-linecap="butt" d="m146.01874 286.11023c-9.181107 -15.921265 -23.480316 -18.29132 -37.779533 -20.661407c-14.29921 -2.3700867 -28.598427 -4.7401733 -37.779526 -20.661423" fill-rule="evenodd"/><path fill="#000000" fill-opacity="0.0" d="m146.01874 286.11023c-9.181107 -15.921265 -4.0629883 -29.472443 1.0551147 -43.02362c5.118103 -13.551178 10.236221 -27.102356 1.0551147 -43.02362" fill-rule="evenodd"/><path stroke="#ffffff" stroke-width="2.0" stroke-linejoin="round" stroke-linecap="butt" d="m146.01874 286.11023c-9.181107 -15.921265 -4.0629883 -29.472443 1.0551147 -43.02362c5.118103 -13.551178 10.236221 -27.102356 1.0551147 -43.02362" fill-rule="evenodd"/><path fill="#000000" fill-opacity="0.0" d="m143.18419 281.18933l53.669296 93.25986" fill-rule="evenodd"/><path stroke="#ffffff" stroke-width="2.0" stroke-linejoin="round" stroke-linecap="butt" d="m143.18419 281.18933l53.669296 93.25986" fill-rule="evenodd"/><path fill="#000000" fill-opacity="0.0" d="m95.17484 107.99504c-9.181099 -15.921265 -23.480316 -18.291344 -37.77953 -20.661423c-14.29921 -2.370079 -28.598423 -4.740158 -37.779526 -20.661415" fill-rule="evenodd"/><path stroke="#ffffff" stroke-width="2.0" stroke-linejoin="round" stroke-linecap="butt" d="m95.17484 107.99504c-9.181099 -15.921265 -23.480316 -18.291344 -37.77953 -20.661423c-14.29921 -2.370079 -28.598423 -4.740158 -37.779526 -20.661415" fill-rule="evenodd"/><path fill="#000000" fill-opacity="0.0" d="m94.3522 106.570015l53.732285 93.32284" fill-rule="evenodd"/><path stroke="#ffffff" stroke-width="2.0" stroke-linejoin="round" stroke-linecap="butt" d="m94.3522 106.570015l53.732285 93.32284" fill-rule="evenodd"/><path fill="#000000" fill-opacity="0.0" d="m17.50965 152.99625c-9.181103 -15.921249 -4.062992 -29.472435 1.0551186 -43.02362c5.1181107 -13.551178 10.236219 -27.102356 1.0551186 -43.02362" fill-rule="evenodd"/><path stroke="#ffffff" stroke-width="2.0" stroke-linejoin="round" stroke-linecap="butt" d="m17.50965 152.99625c-9.181103 -15.921249 -4.062992 -29.472435 1.0551186 -43.02362c5.1181107 -13.551178 10.236219 -27.102356 1.0551186 -43.02362" fill-rule="evenodd"/><path fill="#000000" fill-opacity="0.0" d="m16.68701 151.57123l53.732285 93.32283" fill-rule="evenodd"/><path stroke="#ffffff" stroke-width="2.0" stroke-linejoin="round" stroke-linecap="butt" d="m16.68701 151.57123l53.732285 93.32283" fill-rule="evenodd"/><path fill="#000000" fill-opacity="0.0" d="m97.83937 202.55371l0 0c14.559441 -8.427765 19.650002 -26.914536 11.370079 -41.291336l0 0c-3.9761581 -6.9039764 -10.56691 -11.917465 -18.32235 -13.937546c-7.7554398 -2.0200653 -16.04029 -0.88127136 -23.031982 3.1658936l0 0c-14.559444 8.42778 -19.650002 26.914536 -11.370079 41.291336l0 0c8.2799225 14.376801 26.794884 19.199432 41.354332 10.771652z" fill-rule="evenodd"/><path stroke="#ffffff" stroke-width="2.0" stroke-linejoin="round" stroke-linecap="butt" d="m97.83937 202.55371l0 0c14.559441 -8.427765 19.650002 -26.914536 11.370079 -41.291336l0 0c-3.9761581 -6.9039764 -10.56691 -11.917465 -18.32235 -13.937546c-7.7554398 -2.0200653 -16.04029 -0.88127136 -23.031982 3.1658936l0 0c-14.559444 8.42778 -19.650002 26.914536 -11.370079 41.291336l0 0c8.2799225 14.376801 26.794884 19.199432 41.354332 10.771652z" fill-rule="evenodd"/></g></svg>