<svg version="1.1" viewBox="0.0 0.0 393.6010498687664 393.6010498687664" fill="none" stroke="none" stroke-linecap="square" stroke-miterlimit="10" xmlns:xlink="http://www.w3.org/1999/xlink" xmlns="http://www.w3.org/2000/svg"><clipPath id="p.0"><path d="m0 0l393.60104 0l0 393.60104l-393.60104 0l0 -393.60104z" clip-rule="nonzero"/></clipPath><g clip-path="url(#p.0)"><path fill="#000000" fill-opacity="0.0" d="m0 0l393.60104 0l0 393.60104l-393.60104 0z" fill-rule="evenodd"/><path fill="#000000" fill-opacity="0.0" d="m196.8011 29.82892l0 333.88977" fill-rule="evenodd"/><path stroke="#ffffff" stroke-width="2.0" stroke-linejoin="round" stroke-linecap="butt" d="m196.8011 29.82892l0 333.88977" fill-rule="evenodd"/><path fill="#000000" fill-opacity="0.0" d="m184.28528 17.32021l0 0c0 -6.9144306 5.605255 -12.519685 12.519684 -12.519685l0 0c3.3204346 0 6.5048523 1.3190346 8.852753 3.6669312c2.3479004 2.3478966 3.6669312 5.5323277 3.6669312 8.852754l0 0c0 6.9144325 -5.605255 12.519686 -12.519684 12.519686l0 0c-6.9144287 0 -12.519684 -5.605253 -12.519684 -12.519686z" fill-rule="evenodd"/><path stroke="#ffffff" stroke-width="2.0" stroke-linejoin="round" stroke-linecap="butt" d="m184.28528 17.32021l0 0c0 -6.9144306 5.605255 -12.519685 12.519684 -12.519685l0 0c3.3204346 0 6.5048523 1.3190346 8.852753 3.6669312c2.3479004 2.3478966 3.6669312 5.5323277 3.6669312 8.852754l0 0c0 6.9144325 -5.605255 12.519686 -12.519684 12.519686l0 0c-6.9144287 0 -12.519684 -5.605253 -12.519684 -12.519686z" fill-rule="evenodd"/><path fill="#000000" fill-opacity="0.0" d="m255.81116 38.72159l0 0c4.896637 -4.8879356 12.828613 -4.880886 17.716553 0.015750885l0 0c2.3472595 2.3514442 3.6642761 5.539032 3.661316 8.8615265c-0.0029296875 3.3224945 -1.3256226 6.507736 -3.6770935 8.855007l0 0c-4.8966064 4.8879395 -12.828583 4.880886 -17.716522 -0.01574707l0 0c-4.8879395 -4.896637 -4.88089 -12.828598 0.01574707 -17.716537z" fill-rule="evenodd"/><path stroke="#ffffff" stroke-width="2.0" stroke-linejoin="round" stroke-linecap="butt" d="m255.81116 38.72159l0 0c4.896637 -4.8879356 12.828613 -4.880886 17.716553 0.015750885l0 0c2.3472595 2.3514442 3.6642761 5.539032 3.661316 8.8615265c-0.0029296875 3.3224945 -1.3256226 6.507736 -3.6770935 8.855007l0 0c-4.8966064 4.8879395 -12.828583 4.880886 -17.716522 -0.01574707l0 0c-4.8879395 -4.896637 -4.88089 -12.828598 0.01574707 -17.716537z" fill-rule="evenodd"/><path fill="#000000" fill-opacity="0.0" d="m196.80133 115.447525l59.05513 -59.02362" fill-rule="evenodd"/><path stroke="#ffffff" stroke-width="2.0" stroke-linejoin="round" stroke-linecap="butt" d="m196.80133 115.447525l59.05513 -59.02362" fill-rule="evenodd"/><path fill="#000000" fill-opacity="0.0" d="m137.7913 38.72159l0 0c-4.8966217 -4.8879356 -12.82859 -4.880886 -17.71653 0.015750885l0 0c-2.3472672 2.3514442 -3.6642914 5.539032 -3.6613388 8.8615265c0.0029525757 3.3224945 1.3256378 6.507736 3.6770859 8.855007l0 0c4.896637 4.8879395 12.828606 4.880886 17.71653 -0.01574707l0 0c4.8879395 -4.896637 4.88089 -12.828598 -0.01574707 -17.716537z" fill-rule="evenodd"/><path stroke="#ffffff" stroke-width="2.0" stroke-linejoin="round" stroke-linecap="butt" d="m137.7913 38.72159l0 0c-4.8966217 -4.8879356 -12.82859 -4.880886 -17.71653 0.015750885l0 0c-2.3472672 2.3514442 -3.6642914 5.539032 -3.6613388 8.8615265c0.0029525757 3.3224945 1.3256378 6.507736 3.6770859 8.855007l0 0c4.896637 4.8879395 12.828606 4.880886 17.71653 -0.01574707l0 0c4.8879395 -4.896637 4.88089 -12.828598 -0.01574707 -17.716537z" fill-rule="evenodd"/><path fill="#000000" fill-opacity="0.0" d="m196.80113 115.447525l-59.055115 -59.02362" fill-rule="evenodd"/><path stroke="#ffffff" stroke-width="2.0" stroke-linejoin="round" stroke-linecap="butt" d="m196.80113 115.447525l-59.055115 -59.02362" fill-rule="evenodd"/><path fill="#000000" fill-opacity="0.0" d="m196.8011 363.77213l0 -333.88977" fill-rule="evenodd"/><path stroke="#ffffff" stroke-width="2.0" stroke-linejoin="round" stroke-linecap="butt" d="m196.8011 363.77213l0 -333.88977" fill-rule="evenodd"/><path fill="#000000" fill-opacity="0.0" d="m184.28528 376.28085l0 0c0 6.9144287 5.605255 12.519684 12.519684 12.519684l0 0c3.3204346 0 6.5048523 -1.3190613 8.852753 -3.6669312c2.3479004 -2.3479004 3.6669312 -5.5323486 3.6669312 -8.852753l0 0c0 -6.914459 -5.605255 -12.519684 -12.519684 -12.519684l0 0c-6.9144287 0 -12.519684 5.6052246 -12.519684 12.519684z" fill-rule="evenodd"/><path stroke="#ffffff" stroke-width="2.0" stroke-linejoin="round" stroke-linecap="butt" d="m184.28528 376.28085l0 0c0 6.9144287 5.605255 12.519684 12.519684 12.519684l0 0c3.3204346 0 6.5048523 -1.3190613 8.852753 -3.6669312c2.3479004 -2.3479004 3.6669312 -5.5323486 3.6669312 -8.852753l0 0c0 -6.914459 -5.605255 -12.519684 -12.519684 -12.519684l0 0c-6.9144287 0 -12.519684 5.6052246 -12.519684 12.519684z" fill-rule="evenodd"/><path fill="#000000" fill-opacity="0.0" d="m255.81116 354.87946l0 0c4.896637 4.8879395 12.828613 4.88089 17.716553 -0.01574707l0 0c2.3472595 -2.3514404 3.6642761 -5.539032 3.661316 -8.861511c-0.0029296875 -3.3225098 -1.3256226 -6.5077515 -3.6770935 -8.855011l0 0c-4.8966064 -4.8879395 -12.828583 -4.88089 -17.716522 0.01574707l0 0c-4.8879395 4.896637 -4.88089 12.828583 0.01574707 17.716522z" fill-rule="evenodd"/><path stroke="#ffffff" stroke-width="2.0" stroke-linejoin="round" stroke-linecap="butt" d="m255.81116 354.87946l0 0c4.896637 4.8879395 12.828613 4.88089 17.716553 -0.01574707l0 0c2.3472595 -2.3514404 3.6642761 -5.539032 3.661316 -8.861511c-0.0029296875 -3.3225098 -1.3256226 -6.5077515 -3.6770935 -8.855011l0 0c-4.8966064 -4.8879395 -12.828583 -4.88089 -17.716522 0.01574707l0 0c-4.8879395 4.896637 -4.88089 12.828583 0.01574707 17.716522z" fill-rule="evenodd"/><path fill="#000000" fill-opacity="0.0" d="m196.80133 278.15353l59.05513 59.02362" fill-rule="evenodd"/><path stroke="#ffffff" stroke-width="2.0" stroke-linejoin="round" stroke-linecap="butt" d="m196.80133 278.15353l59.05513 59.02362" fill-rule="evenodd"/><path fill="#000000" fill-opacity="0.0" d="m137.7913 354.87946l0 0c-4.8966217 4.8879395 -12.82859 4.88089 -17.71653 -0.01574707l0 0c-2.3472672 -2.3514404 -3.6642914 -5.539032 -3.6613388 -8.861511c0.0029525757 -3.3225098 1.3256378 -6.5077515 3.6770859 -8.855011l0 0c4.896637 -4.8879395 12.828606 -4.88089 17.71653 0.01574707l0 0c4.8879395 4.896637 4.88089 12.828583 -0.01574707 17.716522z" fill-rule="evenodd"/><path stroke="#ffffff" stroke-width="2.0" stroke-linejoin="round" stroke-linecap="butt" d="m137.7913 354.87946l0 0c-4.8966217 4.8879395 -12.82859 4.88089 -17.71653 -0.01574707l0 0c-2.3472672 -2.3514404 -3.6642914 -5.539032 -3.6613388 -8.861511c0.0029525757 -3.3225098 1.3256378 -6.5077515 3.6770859 -8.855011l0 0c4.896637 -4.8879395 12.828606 -4.88089 17.71653 0.01574707l0 0c4.8879395 4.896637 4.88089 12.828583 -0.01574707 17.716522z" fill-rule="evenodd"/><path fill="#000000" fill-opacity="0.0" d="m196.80113 278.15353l-59.055115 59.02362" fill-rule="evenodd"/><path stroke="#ffffff" stroke-width="2.0" stroke-linejoin="round" stroke-linecap="butt" d="m196.80113 278.15353l-59.055115 59.02362" fill-rule="evenodd"/><path fill="#000000" fill-opacity="0.0" d="m363.77283 196.79924l-333.88974 0" fill-rule="evenodd"/><path stroke="#ffffff" stroke-width="2.0" stroke-linejoin="round" stroke-linecap="butt" d="m363.77283 196.79924l-333.88974 0" fill-rule="evenodd"/><path fill="#000000" fill-opacity="0.0" d="m376.28156 184.28343l0 0c6.9144287 0 12.519684 5.605255 12.519684 12.519684l0 0c0 3.3204193 -1.3190308 6.5048523 -3.6669312 8.852753c-2.3479004 2.3479004 -5.532318 3.6669312 -8.852753 3.6669312l0 0c-6.9144287 0 -12.519684 -5.605255 -12.519684 -12.519684l0 0c0 -6.9144287 5.605255 -12.519684 12.519684 -12.519684z" fill-rule="evenodd"/><path stroke="#ffffff" stroke-width="2.0" stroke-linejoin="round" stroke-linecap="butt" d="m376.28156 184.28343l0 0c6.9144287 0 12.519684 5.605255 12.519684 12.519684l0 0c0 3.3204193 -1.3190308 6.5048523 -3.6669312 8.852753c-2.3479004 2.3479004 -5.532318 3.6669312 -8.852753 3.6669312l0 0c-6.9144287 0 -12.519684 -5.605255 -12.519684 -12.519684l0 0c0 -6.9144287 5.605255 -12.519684 12.519684 -12.519684z" fill-rule="evenodd"/><path fill="#000000" fill-opacity="0.0" d="m354.88016 255.80931l0 0c4.8879395 4.8966217 4.88089 12.828598 -0.01574707 17.716537l0 0c-2.3514404 2.3472595 -5.539032 3.6642761 -8.861511 3.6613464c-3.3225098 -0.002960205 -6.5077515 -1.3256531 -8.855011 -3.6770935l0 0c-4.8879395 -4.896637 -4.88089 -12.828613 0.01574707 -17.716537l0 0c4.896637 -4.8879395 12.828613 -4.88089 17.716522 0.01574707z" fill-rule="evenodd"/><path stroke="#ffffff" stroke-width="2.0" stroke-linejoin="round" stroke-linecap="butt" d="m354.88016 255.80931l0 0c4.8879395 4.8966217 4.88089 12.828598 -0.01574707 17.716537l0 0c-2.3514404 2.3472595 -5.539032 3.6642761 -8.861511 3.6613464c-3.3225098 -0.002960205 -6.5077515 -1.3256531 -8.855011 -3.6770935l0 0c-4.8879395 -4.896637 -4.88089 -12.828613 0.01574707 -17.716537l0 0c4.896637 -4.8879395 12.828613 -4.88089 17.716522 0.01574707z" fill-rule="evenodd"/><path fill="#000000" fill-opacity="0.0" d="m278.15424 196.79948l59.02362 59.055115" fill-rule="evenodd"/><path stroke="#ffffff" stroke-width="2.0" stroke-linejoin="round" stroke-linecap="butt" d="m278.15424 196.79948l59.02362 59.055115" fill-rule="evenodd"/><path fill="#000000" fill-opacity="0.0" d="m354.88016 137.78946l0 0c4.8879395 -4.896637 4.88089 -12.828598 -0.01574707 -17.716537l0 0c-2.3514404 -2.3472672 -5.539032 -3.6642914 -8.861511 -3.6613388c-3.3225098 0.0029525757 -6.5077515 1.3256454 -8.855011 3.6770859l0 0c-4.8879395 4.896637 -4.88089 12.828598 0.01574707 17.716537l0 0c4.896637 4.8879395 12.828613 4.88089 17.716522 -0.01574707z" fill-rule="evenodd"/><path stroke="#ffffff" stroke-width="2.0" stroke-linejoin="round" stroke-linecap="butt" d="m354.88016 137.78946l0 0c4.8879395 -4.896637 4.88089 -12.828598 -0.01574707 -17.716537l0 0c-2.3514404 -2.3472672 -5.539032 -3.6642914 -8.861511 -3.6613388c-3.3225098 0.0029525757 -6.5077515 1.3256454 -8.855011 3.6770859l0 0c-4.8879395 4.896637 -4.88089 12.828598 0.01574707 17.716537l0 0c4.896637 4.8879395 12.828613 4.88089 17.716522 -0.01574707z" fill-rule="evenodd"/><path fill="#000000" fill-opacity="0.0" d="m278.15424 196.79929l59.02362 -59.055115" fill-rule="evenodd"/><path stroke="#ffffff" stroke-width="2.0" stroke-linejoin="round" stroke-linecap="butt" d="m278.15424 196.79929l59.02362 -59.055115" fill-rule="evenodd"/><path fill="#000000" fill-opacity="0.0" d="m29.829632 196.79924l333.88977 0" fill-rule="evenodd"/><path stroke="#ffffff" stroke-width="2.0" stroke-linejoin="round" stroke-linecap="butt" d="m29.829632 196.79924l333.88977 0" fill-rule="evenodd"/><path fill="#000000" fill-opacity="0.0" d="m17.32092 184.28343l0 0c-6.9144316 0 -12.519686 5.605255 -12.519686 12.519684l0 0c0 3.3204193 1.3190346 6.5048523 3.6669307 8.852753c2.3478966 2.3479004 5.5323277 3.6669312 8.852755 3.6669312l0 0c6.9144306 0 12.519686 -5.605255 12.519686 -12.519684l0 0c0 -6.9144287 -5.605255 -12.519684 -12.519686 -12.519684z" fill-rule="evenodd"/><path stroke="#ffffff" stroke-width="2.0" stroke-linejoin="round" stroke-linecap="butt" d="m17.32092 184.28343l0 0c-6.9144316 0 -12.519686 5.605255 -12.519686 12.519684l0 0c0 3.3204193 1.3190346 6.5048523 3.6669307 8.852753c2.3478966 2.3479004 5.5323277 3.6669312 8.852755 3.6669312l0 0c6.9144306 0 12.519686 -5.605255 12.519686 -12.519684l0 0c0 -6.9144287 -5.605255 -12.519684 -12.519686 -12.519684z" fill-rule="evenodd"/><path fill="#000000" fill-opacity="0.0" d="m38.7223 255.80931l0 0c-4.8879395 4.8966217 -4.88089 12.828598 0.01574707 17.716537l0 0c2.351448 2.3472595 5.539036 3.6642761 8.86153 3.6613464c3.3224945 -0.002960205 6.507736 -1.3256531 8.855003 -3.6770935l0 0c4.8879395 -4.896637 4.88089 -12.828613 -0.01574707 -17.716537l0 0c-4.896633 -4.8879395 -12.828598 -4.88089 -17.716534 0.01574707z" fill-rule="evenodd"/><path stroke="#ffffff" stroke-width="2.0" stroke-linejoin="round" stroke-linecap="butt" d="m38.7223 255.80931l0 0c-4.8879395 4.8966217 -4.88089 12.828598 0.01574707 17.716537l0 0c2.351448 2.3472595 5.539036 3.6642761 8.86153 3.6613464c3.3224945 -0.002960205 6.507736 -1.3256531 8.855003 -3.6770935l0 0c4.8879395 -4.896637 4.88089 -12.828613 -0.01574707 -17.716537l0 0c-4.896633 -4.8879395 -12.828598 -4.88089 -17.716534 0.01574707z" fill-rule="evenodd"/><path fill="#000000" fill-opacity="0.0" d="m115.44824 196.79948l-59.023624 59.055115" fill-rule="evenodd"/><path stroke="#ffffff" stroke-width="2.0" stroke-linejoin="round" stroke-linecap="butt" d="m115.44824 196.79948l-59.023624 59.055115" fill-rule="evenodd"/><path fill="#000000" fill-opacity="0.0" d="m38.7223 137.78946l0 0c-4.8879395 -4.896637 -4.88089 -12.828598 0.01574707 -17.716537l0 0c2.351448 -2.3472672 5.539036 -3.6642914 8.86153 -3.6613388c3.3224945 0.0029525757 6.507736 1.3256454 8.855003 3.6770859l0 0c4.8879395 4.896637 4.88089 12.828598 -0.01574707 17.716537l0 0c-4.896633 4.8879395 -12.828598 4.88089 -17.716534 -0.01574707z" fill-rule="evenodd"/><path stroke="#ffffff" stroke-width="2.0" stroke-linejoin="round" stroke-linecap="butt" d="m38.7223 137.78946l0 0c-4.8879395 -4.896637 -4.88089 -12.828598 0.01574707 -17.716537l0 0c2.351448 -2.3472672 5.539036 -3.6642914 8.86153 -3.6613388c3.3224945 0.0029525757 6.507736 1.3256454 8.855003 3.6770859l0 0c4.8879395 4.896637 4.88089 12.828598 -0.01574707 17.716537l0 0c-4.896633 4.8879395 -12.828598 4.88089 -17.716534 -0.01574707z" fill-rule="evenodd"/><path fill="#000000" fill-opacity="0.0" d="m115.44824 196.79929l-59.023624 -59.055115" fill-rule="evenodd"/><path stroke="#ffffff" stroke-width="2.0" stroke-linejoin="round" stroke-linecap="butt" d="m115.44824 196.79929l-59.023624 -59.055115" fill-rule="evenodd"/><path fill="#171717" d="m196.79689 184.2857l0 0c6.9144287 0 12.519684 5.605255 12.519684 12.519684l0 0c0 3.3204346 -1.3190308 6.5048676 -3.6669312 8.852753c-2.3479004 2.3479004 -5.5323334 3.6669312 -8.852753 3.6669312l0 0c-6.9144287 0 -12.519684 -5.605255 -12.519684 -12.519684l0 0c0 -6.9144287 5.605255 -12.519684 12.519684 -12.519684z" fill-rule="evenodd"/><path stroke="#ffffff" stroke-width="2.0" stroke-linejoin="round" stroke-linecap="butt" d="m196.79689 184.2857l0 0c6.9144287 0 12.519684 5.605255 12.519684 12.519684l0 0c0 3.3204346 -1.3190308 6.5048676 -3.6669312 8.852753c-2.3479004 2.3479004 -5.5323334 3.6669312 -8.852753 3.6669312l0 0c-6.9144287 0 -12.519684 -5.605255 -12.519684 -12.519684l0 0c0 -6.9144287 5.605255 -12.519684 12.519684 -12.519684z" fill-rule="evenodd"/></g></svg>