<svg version="1.1" viewBox="0.0 0.0 393.6010498687664 393.6010498687664" fill="none" stroke="none" stroke-linecap="square" stroke-miterlimit="10" xmlns:xlink="http://www.w3.org/1999/xlink" xmlns="http://www.w3.org/2000/svg"><clipPath id="p.0"><path d="m0 0l393.60104 0l0 393.60104l-393.60104 0l0 -393.60104z" clip-rule="nonzero"/></clipPath><g clip-path="url(#p.0)"><path fill="#000000" fill-opacity="0.0" d="m0 0l393.60104 0l0 393.60104l-393.60104 0z" fill-rule="evenodd"/><path fill="#000000" fill-opacity="0.0" d="m244.80052 148.79968l0 0c26.509659 26.509674 26.509659 69.490326 0 96.0q-48.0 48.0 -48.0 144.0q0 -96.0 -48.0 -144.0l0 0c-26.509666 -26.509674 -26.509666 -69.490326 0 -96.0l0 0c26.509674 -26.509666 69.49034 -26.509666 96.0 0z" fill-rule="evenodd"/><path stroke="#ffffff" stroke-width="2.0" stroke-linejoin="round" stroke-linecap="butt" d="m244.80052 148.79968l0 0c26.509659 26.509674 26.509659 69.490326 0 96.0q-48.0 48.0 -48.0 144.0q0 -96.0 -48.0 -144.0l0 0c-26.509666 -26.509674 -26.509666 -69.490326 0 -96.0l0 0c26.509674 -26.509666 69.49034 -26.509666 96.0 0z" fill-rule="evenodd"/><path fill="#000000" fill-opacity="0.0" d="m244.80052 244.79968l0 0c-26.509659 26.509674 -69.490326 26.509674 -96.0 0q-48.0 -48.0 -144.0 -48.0q96.0 0 144.0 -48.0l0 0c26.509674 -26.509666 69.49034 -26.509666 96.0 0l0 0c26.509659 26.509674 26.509659 69.490326 0 96.0z" fill-rule="evenodd"/><path stroke="#ffffff" stroke-width="2.0" stroke-linejoin="round" stroke-linecap="butt" d="m244.80052 244.79968l0 0c-26.509659 26.509674 -69.490326 26.509674 -96.0 0q-48.0 -48.0 -144.0 -48.0q96.0 0 144.0 -48.0l0 0c26.509674 -26.509666 69.49034 -26.509666 96.0 0l0 0c26.509659 26.509674 26.509659 69.490326 0 96.0z" fill-rule="evenodd"/><path fill="#000000" fill-opacity="0.0" d="m148.80052 244.79968l0 0c-26.509666 -26.509674 -26.509666 -69.490326 0 -96.0q48.0 -48.0 48.0 -144.0q0 96.0 48.0 144.0l0 0c26.509659 26.509674 26.509659 69.490326 0 96.0l0 0c-26.509659 26.509674 -69.490326 26.509674 -96.0 0z" fill-rule="evenodd"/><path stroke="#ffffff" stroke-width="2.0" stroke-linejoin="round" stroke-linecap="butt" d="m148.80052 244.79968l0 0c-26.509666 -26.509674 -26.509666 -69.490326 0 -96.0q48.0 -48.0 48.0 -144.0q0 96.0 48.0 144.0l0 0c26.509659 26.509674 26.509659 69.490326 0 96.0l0 0c-26.509659 26.509674 -69.490326 26.509674 -96.0 0z" fill-rule="evenodd"/><path fill="#000000" fill-opacity="0.0" d="m148.80052 148.79968l0 0c26.509674 -26.509666 69.49034 -26.509666 96.0 0q48.000015 48.0 144.00002 48.0q-96.0 0 -144.00002 48.0l0 0c-26.509659 26.509674 -69.490326 26.509674 -96.0 0l0 0c-26.509666 -26.509674 -26.509666 -69.490326 0 -96.0z" fill-rule="evenodd"/><path stroke="#ffffff" stroke-width="2.0" stroke-linejoin="round" stroke-linecap="butt" d="m148.80052 148.79968l0 0c26.509674 -26.509666 69.49034 -26.509666 96.0 0q48.000015 48.0 144.00002 48.0q-96.0 0 -144.00002 48.0l0 0c-26.509659 26.509674 -69.490326 26.509674 -96.0 0l0 0c-26.509666 -26.509674 -26.509666 -69.490326 0 -96.0z" fill-rule="evenodd"/><path fill="#000000" fill-opacity="0.0" d="m244.80052 52.799683l0 0c26.509659 26.509666 26.509659 69.49033 0 96.0q-48.0 48.0 -48.0 144.0q0 -96.0 -48.0 -144.0l0 0c-26.509666 -26.509666 -26.509666 -69.49033 0 -96.0l0 0c26.509674 -26.509668 69.49034 -26.509668 96.0 0z" fill-rule="evenodd"/><path stroke="#ffffff" stroke-width="2.0" stroke-linejoin="round" stroke-linecap="butt" d="m244.80052 52.799683l0 0c26.509659 26.509666 26.509659 69.49033 0 96.0q-48.0 48.0 -48.0 144.0q0 -96.0 -48.0 -144.0l0 0c-26.509666 -26.509666 -26.509666 -69.49033 0 -96.0l0 0c26.509674 -26.509668 69.49034 -26.509668 96.0 0z" fill-rule="evenodd"/><path fill="#000000" fill-opacity="0.0" d="m340.80054 244.79968l0 0c-26.509674 26.509674 -69.49036 26.509674 -96.000015 0q-48.0 -48.0 -144.0 -48.0q96.0 0 144.0 -48.0l0 0c26.509659 -26.509666 69.49034 -26.509666 96.000015 0l0 0c26.509644 26.509674 26.509644 69.490326 0 96.0z" fill-rule="evenodd"/><path stroke="#ffffff" stroke-width="2.0" stroke-linejoin="round" stroke-linecap="butt" d="m340.80054 244.79968l0 0c-26.509674 26.509674 -69.49036 26.509674 -96.000015 0q-48.0 -48.0 -144.0 -48.0q96.0 0 144.0 -48.0l0 0c26.509659 -26.509666 69.49034 -26.509666 96.000015 0l0 0c26.509644 26.509674 26.509644 69.490326 0 96.0z" fill-rule="evenodd"/><path fill="#000000" fill-opacity="0.0" d="m148.80052 340.79968l0 0c-26.509666 -26.509674 -26.509666 -69.490326 0 -96.0q48.0 -48.0 48.0 -144.0q0 96.0 48.0 144.0l0 0c26.509659 26.509674 26.509659 69.490326 0 96.0l0 0c-26.509659 26.509674 -69.490326 26.509674 -96.0 0z" fill-rule="evenodd"/><path stroke="#ffffff" stroke-width="2.0" stroke-linejoin="round" stroke-linecap="butt" d="m148.80052 340.79968l0 0c-26.509666 -26.509674 -26.509666 -69.490326 0 -96.0q48.0 -48.0 48.0 -144.0q0 96.0 48.0 144.0l0 0c26.509659 26.509674 26.509659 69.490326 0 96.0l0 0c-26.509659 26.509674 -69.490326 26.509674 -96.0 0z" fill-rule="evenodd"/><path fill="#000000" fill-opacity="0.0" d="m52.800526 148.79968l0 0c26.50967 -26.509666 69.490326 -26.509666 96.0 0q48.0 48.0 144.00002 48.0q-96.000015 0 -144.00002 48.0l0 0c-26.509666 26.509674 -69.490326 26.509674 -96.0 0l0 0c-26.509668 -26.509674 -26.509668 -69.490326 0 -96.0z" fill-rule="evenodd"/><path stroke="#ffffff" stroke-width="2.0" stroke-linejoin="round" stroke-linecap="butt" d="m52.800526 148.79968l0 0c26.50967 -26.509666 69.490326 -26.509666 96.0 0q48.0 48.0 144.00002 48.0q-96.000015 0 -144.00002 48.0l0 0c-26.509666 26.509674 -69.490326 26.509674 -96.0 0l0 0c-26.509668 -26.509674 -26.509668 -69.490326 0 -96.0z" fill-rule="evenodd"/></g></svg>