<svg version="1.1" viewBox="0.0 0.0 393.6010498687664 393.6010498687664" fill="none" stroke="none" stroke-linecap="square" stroke-miterlimit="10" xmlns:xlink="http://www.w3.org/1999/xlink" xmlns="http://www.w3.org/2000/svg"><clipPath id="p.0"><path d="m0 0l393.60104 0l0 393.60104l-393.60104 0l0 -393.60104z" clip-rule="nonzero"/></clipPath><g clip-path="url(#p.0)"><path fill="#000000" fill-opacity="0.0" d="m0 0l393.60104 0l0 393.60104l-393.60104 0z" fill-rule="evenodd"/><path fill="#000000" fill-opacity="0.0" d="m196.80052 4.8320208l0 0c21.204254 0 38.393707 17.189445 38.393707 38.393703l0 0c0 10.18264 -4.045044 19.94823 -11.2452545 27.148445c-7.200226 7.200218 -16.965805 11.2452545 -27.148453 11.2452545l0 0c-21.204254 0 -38.393692 -17.189445 -38.393692 -38.3937l0 0c0 -21.204256 17.189438 -38.393703 38.393692 -38.393703z" fill-rule="evenodd"/><path stroke="#ffffff" stroke-width="2.0" stroke-linejoin="round" stroke-linecap="butt" d="m196.80052 4.8320208l0 0c21.204254 0 38.393707 17.189445 38.393707 38.393703l0 0c0 10.18264 -4.045044 19.94823 -11.2452545 27.148445c-7.200226 7.200218 -16.965805 11.2452545 -27.148453 11.2452545l0 0c-21.204254 0 -38.393692 -17.189445 -38.393692 -38.3937l0 0c0 -21.204256 17.189438 -38.393703 38.393692 -38.393703z" fill-rule="evenodd"/><path fill="#000000" fill-opacity="0.0" d="m196.80052 158.40683l0 0c21.204254 0 38.393707 17.189438 38.393707 38.393692l0 0c0 10.182648 -4.045044 19.948227 -11.2452545 27.148453c-7.200226 7.2002106 -16.965805 11.2452545 -27.148453 11.2452545l0 0c-21.204254 0 -38.393692 -17.189453 -38.393692 -38.393707l0 0c0 -21.204254 17.189438 -38.393692 38.393692 -38.393692z" fill-rule="evenodd"/><path stroke="#ffffff" stroke-width="2.0" stroke-linejoin="round" stroke-linecap="butt" d="m196.80052 158.40683l0 0c21.204254 0 38.393707 17.189438 38.393707 38.393692l0 0c0 10.182648 -4.045044 19.948227 -11.2452545 27.148453c-7.200226 7.2002106 -16.965805 11.2452545 -27.148453 11.2452545l0 0c-21.204254 0 -38.393692 -17.189453 -38.393692 -38.393707l0 0c0 -21.204254 17.189438 -38.393692 38.393692 -38.393692z" fill-rule="evenodd"/><path fill="#000000" fill-opacity="0.0" d="m196.80052 311.98163l0 0c21.204254 0 38.393707 17.189453 38.393707 38.393707l0 0c0 10.182648 -4.045044 19.948212 -11.2452545 27.148438c-7.200226 7.200226 -16.965805 11.24527 -27.148453 11.24527l0 0c-21.204254 0 -38.393692 -17.189453 -38.393692 -38.393707l0 0c0 -21.204254 17.189438 -38.393707 38.393692 -38.393707z" fill-rule="evenodd"/><path stroke="#ffffff" stroke-width="2.0" stroke-linejoin="round" stroke-linecap="butt" d="m196.80052 311.98163l0 0c21.204254 0 38.393707 17.189453 38.393707 38.393707l0 0c0 10.182648 -4.045044 19.948212 -11.2452545 27.148438c-7.200226 7.200226 -16.965805 11.24527 -27.148453 11.24527l0 0c-21.204254 0 -38.393692 -17.189453 -38.393692 -38.393707l0 0c0 -21.204254 17.189438 -38.393707 38.393692 -38.393707z" fill-rule="evenodd"/><path fill="#000000" fill-opacity="0.0" d="m169.65208 70.37417l27.149597 88.0315" fill-rule="evenodd"/><path stroke="#ffffff" stroke-width="2.0" stroke-linejoin="round" stroke-linecap="butt" d="m169.65208 70.37417l27.149597 88.0315" fill-rule="evenodd"/><path fill="#000000" fill-opacity="0.0" d="m223.94897 70.37417l-27.149612 88.0315" fill-rule="evenodd"/><path stroke="#ffffff" stroke-width="2.0" stroke-linejoin="round" stroke-linecap="butt" d="m223.94897 70.37417l-27.149612 88.0315" fill-rule="evenodd"/><path fill="#000000" fill-opacity="0.0" d="m196.80052 81.61942l-27.149597 88.0315" fill-rule="evenodd"/><path stroke="#ffffff" stroke-width="2.0" stroke-linejoin="round" stroke-linecap="butt" d="m196.80052 81.61942l-27.149597 88.0315" fill-rule="evenodd"/><path fill="#000000" fill-opacity="0.0" d="m196.80052 81.61942l27.149612 88.0315" fill-rule="evenodd"/><path stroke="#ffffff" stroke-width="2.0" stroke-linejoin="round" stroke-linecap="butt" d="m196.80052 81.61942l27.149612 88.0315" fill-rule="evenodd"/><path fill="#000000" fill-opacity="0.0" d="m169.65208 223.94897l27.149597 88.031494" fill-rule="evenodd"/><path stroke="#ffffff" stroke-width="2.0" stroke-linejoin="round" stroke-linecap="butt" d="m169.65208 223.94897l27.149597 88.031494" fill-rule="evenodd"/><path fill="#000000" fill-opacity="0.0" d="m223.94897 223.94897l-27.149612 88.031494" fill-rule="evenodd"/><path stroke="#ffffff" stroke-width="2.0" stroke-linejoin="round" stroke-linecap="butt" d="m223.94897 223.94897l-27.149612 88.031494" fill-rule="evenodd"/><path fill="#000000" fill-opacity="0.0" d="m196.80052 235.19423l-27.149597 88.03148" fill-rule="evenodd"/><path stroke="#ffffff" stroke-width="2.0" stroke-linejoin="round" stroke-linecap="butt" d="m196.80052 235.19423l-27.149597 88.03148" fill-rule="evenodd"/><path fill="#000000" fill-opacity="0.0" d="m196.80052 235.19423l27.149612 88.03148" fill-rule="evenodd"/><path stroke="#ffffff" stroke-width="2.0" stroke-linejoin="round" stroke-linecap="butt" d="m196.80052 235.19423l27.149612 88.03148" fill-rule="evenodd"/></g></svg>