<svg version="1.1" viewBox="0.0 0.0 393.6010498687664 393.6010498687664" fill="none" stroke="none" stroke-linecap="square" stroke-miterlimit="10" xmlns:xlink="http://www.w3.org/1999/xlink" xmlns="http://www.w3.org/2000/svg"><clipPath id="p.0"><path d="m0 0l393.60104 0l0 393.60104l-393.60104 0l0 -393.60104z" clip-rule="nonzero"/></clipPath><g clip-path="url(#p.0)"><path fill="#000000" fill-opacity="0.0" d="m0 0l393.60104 0l0 393.60104l-393.60104 0z" fill-rule="evenodd"/><path fill="#000000" fill-opacity="0.0" d="m6.88847 196.7916c47.031498 0 70.54724 47.818893 94.06299 95.63779c23.515747 47.81891 47.031494 95.63779 94.06299 95.63779" fill-rule="evenodd"/><path stroke="#ffffff" stroke-width="2.0" stroke-linejoin="round" stroke-linecap="butt" d="m6.88847 196.7916c47.031498 0 70.54724 47.818893 94.06299 95.63779c23.515747 47.81891 47.031494 95.63779 94.06299 95.63779" fill-rule="evenodd"/><path fill="#000000" fill-opacity="0.0" d="m386.71423 196.72186c-47.031494 0 -70.54724 47.818893 -94.06299 95.63779c-23.515747 47.81891 -47.03151 95.63779 -94.063 95.63779" fill-rule="evenodd"/><path stroke="#ffffff" stroke-width="2.0" stroke-linejoin="round" stroke-linecap="butt" d="m386.71423 196.72186c-47.031494 0 -70.54724 47.818893 -94.06299 95.63779c-23.515747 47.81891 -47.03151 95.63779 -94.063 95.63779" fill-rule="evenodd"/><path fill="#000000" fill-opacity="0.0" d="m6.800872 196.7916c47.031494 0 70.54724 -47.818893 94.06299 -95.637794c23.515747 -47.8189 47.031494 -95.6378 94.06299 -95.6378" fill-rule="evenodd"/><path stroke="#ffffff" stroke-width="2.0" stroke-linejoin="round" stroke-linecap="butt" d="m6.800872 196.7916c47.031494 0 70.54724 -47.818893 94.06299 -95.637794c23.515747 -47.8189 47.031494 -95.6378 94.06299 -95.6378" fill-rule="evenodd"/><path fill="#000000" fill-opacity="0.0" d="m386.62662 196.72186c-47.031494 0 -70.54724 -47.81891 -94.06299 -95.6378c-23.515747 -47.818893 -47.031494 -95.637794 -94.06299 -95.637794" fill-rule="evenodd"/><path stroke="#ffffff" stroke-width="2.0" stroke-linejoin="round" stroke-linecap="butt" d="m386.62662 196.72186c-47.031494 0 -70.54724 -47.81891 -94.06299 -95.6378c-23.515747 -47.818893 -47.031494 -95.637794 -94.06299 -95.637794" fill-rule="evenodd"/><path fill="#000000" fill-opacity="0.0" d="m196.01831 4.9026904c0 47.818897 -47.03151 71.72835 -94.062996 95.6378c-47.031498 23.909447 -94.062996 47.8189 -94.062996 95.637794" fill-rule="evenodd"/><path stroke="#ffffff" stroke-width="2.0" stroke-linejoin="round" stroke-linecap="butt" d="m196.01831 4.9026904c0 47.818897 -47.03151 71.72835 -94.062996 95.6378c-47.031498 23.909447 -94.062996 47.8189 -94.062996 95.637794" fill-rule="evenodd"/><path fill="#000000" fill-opacity="0.0" d="m196.01831 388.85825c0 -47.81891 -47.03151 -71.72833 -94.062996 -95.63779c-47.031498 -23.909454 -94.062996 -47.81891 -94.062996 -95.6378" fill-rule="evenodd"/><path stroke="#ffffff" stroke-width="2.0" stroke-linejoin="round" stroke-linecap="butt" d="m196.01831 388.85825c0 -47.81891 -47.03151 -71.72833 -94.062996 -95.63779c-47.031498 -23.909454 -94.062996 -47.81891 -94.062996 -95.6378" fill-rule="evenodd"/><path fill="#000000" fill-opacity="0.0" d="m197.40918 4.7440763c0 47.818897 47.03151 71.72834 94.06299 95.637794c47.031494 23.909447 94.06299 47.8189 94.06299 95.637794" fill-rule="evenodd"/><path stroke="#ffffff" stroke-width="2.0" stroke-linejoin="round" stroke-linecap="butt" d="m197.40918 4.7440763c0 47.818897 47.03151 71.72834 94.06299 95.637794c47.031494 23.909447 94.06299 47.8189 94.06299 95.637794" fill-rule="evenodd"/><path fill="#000000" fill-opacity="0.0" d="m197.40918 388.69965c0 -47.81891 47.03151 -71.72836 94.06299 -95.63782c47.031494 -23.909424 94.06299 -47.81888 94.06299 -95.63779" fill-rule="evenodd"/><path stroke="#ffffff" stroke-width="2.0" stroke-linejoin="round" stroke-linecap="butt" d="m197.40918 388.69965c0 -47.81891 47.03151 -71.72836 94.06299 -95.63782c47.031494 -23.909424 94.06299 -47.81888 94.06299 -95.63779" fill-rule="evenodd"/><path fill="#000000" fill-opacity="0.0" d="m62.401558 61.073948c34.04725 33.88976 17.02362 84.72441 0 135.55905c-17.02362 50.834656 -34.04724 101.66931 0 135.55905" fill-rule="evenodd"/><path stroke="#ffffff" stroke-width="2.0" stroke-linejoin="round" stroke-linecap="butt" d="m62.401558 61.073948c34.04725 33.88976 17.02362 84.72441 0 135.55905c-17.02362 50.834656 -34.04724 101.66931 0 135.55905" fill-rule="evenodd"/><path fill="#000000" fill-opacity="0.0" d="m331.32437 332.43893c-34.04724 -33.88974 -17.02362 -84.724396 0 -135.55904c17.02362 -50.834656 34.04724 -101.6693 0 -135.55907" fill-rule="evenodd"/><path stroke="#ffffff" stroke-width="2.0" stroke-linejoin="round" stroke-linecap="butt" d="m331.32437 332.43893c-34.04724 -33.88974 -17.02362 -84.724396 0 -135.55904c17.02362 -50.834656 34.04724 -101.6693 0 -135.55907" fill-rule="evenodd"/><path fill="#000000" fill-opacity="0.0" d="m62.277676 332.57153c34.047245 -33.88977 17.023624 -84.72441 0 -135.55907c-17.02362 -50.83464 -34.04724 -101.66928 0 -135.55905" fill-rule="evenodd"/><path stroke="#ffffff" stroke-width="2.0" stroke-linejoin="round" stroke-linecap="butt" d="m62.277676 332.57153c34.047245 -33.88977 17.023624 -84.72441 0 -135.55907c-17.02362 -50.83464 -34.04724 -101.66928 0 -135.55905" fill-rule="evenodd"/><path fill="#000000" fill-opacity="0.0" d="m331.32437 60.94136c-34.04724 33.889763 -17.02362 84.72441 0 135.55905c17.02362 50.834656 34.04724 101.6693 0 135.55907" fill-rule="evenodd"/><path stroke="#ffffff" stroke-width="2.0" stroke-linejoin="round" stroke-linecap="butt" d="m331.32437 60.94136c-34.04724 33.889763 -17.02362 84.72441 0 135.55905c17.02362 50.834656 34.04724 101.6693 0 135.55907" fill-rule="evenodd"/><path fill="#000000" fill-opacity="0.0" d="m124.79921 196.80052l0 0c0 -39.764496 32.235504 -72.0 72.0 -72.0l0 0c19.095596 0 37.409073 7.5856934 50.911697 21.088318c13.5026245 13.502609 21.088318 31.816101 21.088318 50.911682l0 0c0 39.76451 -32.235504 72.000015 -72.000015 72.000015l0 0c-39.764496 0 -72.0 -32.235504 -72.0 -72.000015z" fill-rule="evenodd"/><path stroke="#ffffff" stroke-width="4.0" stroke-linejoin="round" stroke-linecap="butt" d="m124.79921 196.80052l0 0c0 -39.764496 32.235504 -72.0 72.0 -72.0l0 0c19.095596 0 37.409073 7.5856934 50.911697 21.088318c13.5026245 13.502609 21.088318 31.816101 21.088318 50.911682l0 0c0 39.76451 -32.235504 72.000015 -72.000015 72.000015l0 0c-39.764496 0 -72.0 -32.235504 -72.0 -72.000015z" fill-rule="evenodd"/></g></svg>