<svg version="1.1" viewBox="0.0 0.0 1290.238845144357 178.55905511811022" fill="none" stroke="none" stroke-linecap="square" stroke-miterlimit="10" xmlns:xlink="http://www.w3.org/1999/xlink" xmlns="http://www.w3.org/2000/svg"><clipPath id="p.0"><path d="m0 0l1290.2389 0l0 178.55905l-1290.2389 0l0 -178.55905z" clip-rule="nonzero"/></clipPath><g clip-path="url(#p.0)"><path fill="#000000" fill-opacity="0.0" d="m0 0l1290.2389 0l0 178.55905l-1290.2389 0z" fill-rule="evenodd"/><path fill="#000000" fill-opacity="0.0" d="m61.613235 90.24846l0 0c0 -16.490265 13.537216 -29.858265 30.236221 -29.858265l0 0c8.019142 0 15.7098465 3.145771 21.380234 8.745281c5.670395 5.59951 8.855988 13.194077 8.855988 21.112984l0 0c0 16.490265 -13.537216 29.858269 -30.236221 29.858269l0 0c-16.699005 0 -30.236221 -13.368004 -30.236221 -29.858269z" fill-rule="evenodd"/><path stroke="#ffffff" stroke-width="1.0" stroke-linejoin="round" stroke-linecap="butt" d="m61.613235 90.24846l0 0c0 -16.490265 13.537216 -29.858265 30.236221 -29.858265l0 0c8.019142 0 15.7098465 3.145771 21.380234 8.745281c5.670395 5.59951 8.855988 13.194077 8.855988 21.112984l0 0c0 16.490265 -13.537216 29.858269 -30.236221 29.858269l0 0c-16.699005 0 -30.236221 -13.368004 -30.236221 -29.858269z" fill-rule="evenodd"/><path fill="#ffffff" d="m124.54273 55.89742l2.5196838 2.443264l2.5196915 -2.443264l-1.6288452 3.7795296l1.6288452 3.7795258l-2.5196915 -2.4432602l-2.5196838 2.4432602l1.6288452 -3.7795258z" fill-rule="evenodd"/><path stroke="#ffffff" stroke-width="1.0" stroke-linejoin="round" stroke-linecap="butt" d="m124.54273 55.89742l2.5196838 2.443264l2.5196915 -2.443264l-1.6288452 3.7795296l1.6288452 3.7795258l-2.5196915 -2.4432602l-2.5196838 2.4432602l1.6288452 -3.7795258z" fill-rule="evenodd"/><path fill="#ffffff" d="m55.058132 124.46788l2.5196838 2.4432602l2.5196838 -2.4432602l-1.6288414 3.7795258l1.6288414 3.7795258l-2.5196838 -2.4432678l-2.5196838 2.4432678l1.6288414 -3.7795258z" fill-rule="evenodd"/><path stroke="#ffffff" stroke-width="1.0" stroke-linejoin="round" stroke-linecap="butt" d="m55.058132 124.46788l2.5196838 2.4432602l2.5196838 -2.4432602l-1.6288414 3.7795258l1.6288414 3.7795258l-2.5196838 -2.4432678l-2.5196838 2.4432678l1.6288414 -3.7795258z" fill-rule="evenodd"/><path fill="#ffffff" d="m59.595707 60.047035l32.75395 29.4544l32.726364 -29.4544l-28.652649 33.637794l28.68415 33.637794l-32.753952 -29.4544l-32.726368 29.4544l28.652653 -33.637794z" fill-rule="evenodd"/><path stroke="#171717" stroke-width="1.0" stroke-linejoin="round" stroke-linecap="butt" d="m59.595707 60.047035l32.75395 29.4544l32.726364 -29.4544l-28.652649 33.637794l28.68415 33.637794l-32.753952 -29.4544l-32.726368 29.4544l28.652653 -33.637794z" fill-rule="evenodd"/><path fill="#ffffff" d="m124.54273 124.46788l2.5196838 2.4432602l2.5196915 -2.4432602l-1.6288452 3.7795258l1.6288452 3.7795258l-2.5196915 -2.4432678l-2.5196838 2.4432678l1.6288452 -3.7795258z" fill-rule="evenodd"/><path stroke="#ffffff" stroke-width="1.0" stroke-linejoin="round" stroke-linecap="butt" d="m124.54273 124.46788l2.5196838 2.4432602l2.5196915 -2.4432602l-1.6288452 3.7795258l1.6288452 3.7795258l-2.5196915 -2.4432678l-2.5196838 2.4432678l1.6288452 -3.7795258z" fill-rule="evenodd"/><path fill="#ffffff" d="m55.058132 55.89742l2.5196838 2.443264l2.5196838 -2.443264l-1.6288414 3.7795296l1.6288414 3.7795258l-2.5196838 -2.4432602l-2.5196838 2.4432602l1.6288414 -3.7795258z" fill-rule="evenodd"/><path stroke="#ffffff" stroke-width="1.0" stroke-linejoin="round" stroke-linecap="butt" d="m55.058132 55.89742l2.5196838 2.443264l2.5196838 -2.443264l-1.6288414 3.7795296l1.6288414 3.7795258l-2.5196838 -2.4432602l-2.5196838 2.4432602l1.6288414 -3.7795258z" fill-rule="evenodd"/><path fill="#171717" d="m59.596085 60.047096l32.753944 29.4544l32.72637 -29.4544l-28.652649 33.637794l28.684143 33.637794l-32.753944 -29.4544l-32.726368 29.4544l28.652645 -33.637794z" fill-rule="evenodd"/><path stroke="#ffffff" stroke-width="1.0" stroke-linejoin="round" stroke-linecap="butt" d="m59.596085 60.047096l32.753944 29.4544l32.72637 -29.4544l-28.652649 33.637794l28.684143 33.637794l-32.753944 -29.4544l-32.726368 29.4544l28.652645 -33.637794z" fill-rule="evenodd"/><path fill="#ffffff" d="m0.19947506 89.28043l86.220085 -5.565132l5.716919 -83.93093l5.716919 83.93093l86.220085 5.565132l-86.220085 5.565132l-5.716919 83.93092l-5.716919 -83.93092z" fill-rule="evenodd"/><path stroke="#ffffff" stroke-width="1.0" stroke-linejoin="round" stroke-linecap="butt" d="m0.19947506 89.28043l86.220085 -5.565132l5.716919 -83.93093l5.716919 83.93093l86.220085 5.565132l-86.220085 5.565132l-5.716919 83.93092l-5.716919 -83.93092z" fill-rule="evenodd"/><path fill="#171717" d="m86.17471 92.18753l6.2992096 -7.5590515l6.2992096 7.5590515l-6.2992096 7.559059z" fill-rule="evenodd"/><path stroke="#171717" stroke-width="1.0" stroke-linejoin="round" stroke-linecap="butt" d="m86.17471 92.18753l6.2992096 -7.5590515l6.2992096 7.5590515l-6.2992096 7.559059z" fill-rule="evenodd"/><path fill="#000000" fill-opacity="0.0" d="m49.3325 90.69305l85.66928 0" fill-rule="evenodd"/><path stroke="#171717" stroke-width="1.0" stroke-linejoin="round" stroke-linecap="butt" d="m49.3325 90.69305l85.66928 0" fill-rule="evenodd"/><path fill="#000000" fill-opacity="0.0" d="m92.320114 48.27102l0 81.95275" fill-rule="evenodd"/><path stroke="#171717" stroke-width="1.0" stroke-linejoin="round" stroke-linecap="butt" d="m92.320114 48.27102l0 81.95275" fill-rule="evenodd"/><path fill="#000000" fill-opacity="0.0" d="m184.08406 19.464043l1105.9528 0l0 139.3071l-1105.9528 0z" fill-rule="evenodd"/><path fill="#ffffff" d="m239.90425 53.224045l2.953125 0q9.28125 0 15.79689 6.390625q6.53125 6.390625 6.53125 15.0625q0 8.65625 -6.75 14.90625q-6.7343903 6.25 -14.875015 6.25l-0.703125 0l0 24.390625l-2.953125 0l0 -67.0zm2.953125 40.109375l0.703125 0q7.515625 0 13.093765 -5.53125q5.578125 -5.546875 5.578125 -13.140625q0 -7.59375 -5.671875 -13.21875q-5.6718903 -5.625 -13.000015 -5.625l-0.703125 0l0 37.515625zm63.243393 -40.109375l3.84375 0q8.65625 0 15.21875 6.390625q6.578125 6.390625 6.578125 15.015625q0 8.609375 -6.703125 14.953125q-6.703125 6.34375 -14.390625 6.34375l-0.625 0l23.046875 24.296875l-3.84375 0l-20.265625 -21.265625l0 21.265625l-2.859375 0l0 -67.0zm2.859375 40.109375l1.609375 0q7.234375 0 12.765625 -5.53125q5.546875 -5.546875 5.546875 -13.140625q0 -7.59375 -5.71875 -13.21875q-5.71875 -5.625 -13.046875 -5.625l-1.15625 0l0 37.515625zm96.19946 28.046875q-13.84375 0 -23.984375 -10.4375q-10.140625 -10.453125 -10.140625 -24.4375q0 -13.984375 10.265625 -24.203125q10.28125 -10.234375 24.65625 -10.234375q14.390625 0 24.578125 10.1875q10.1875 10.171875 10.1875 24.25q0 14.0625 -10.109375 24.46875q-10.09375 10.40625 -24.109375 10.40625l-1.34375 0zm32.609375 -34.6875q0 -13.1875 -9.34375 -22.609375q-9.328125 -9.421875 -22.515625 -9.421875q-13.171875 0 -22.546875 9.421875q-9.375 9.421875 -9.375 22.609375q0 13.171875 9.375 22.640625q9.375 9.46875 22.5 9.46875q13.140625 0 22.515625 -9.46875q9.390625 -9.46875 9.390625 -22.640625zm53.7771 -30.875l0 -2.59375l19.46875 0l0 46.453125q0 9.734375 -5.3125 15.8125q-5.3125 6.078125 -13.890625 6.078125l-0.890625 0q-7.15625 0 -13.140625 -5.09375l0 -3.671875q5.640625 6.171875 13.5 6.171875q7.859375 0 12.3125 -5.3125q4.46875 -5.3125 4.46875 -13.625l0 -44.21875l-16.515625 0zm64.13727 -2.59375l24.03125 0l0 2.59375l-21.09375 0l0 36.453125l17.609375 0l0 2.578125l-17.609375 0l0 22.78125l21.09375 0l0 2.59375l-24.03125 0l0 -67.0zm96.82062 67.984375l-0.96875 0q-9.203125 0 -17.15625 -4.828125q-7.953125 -4.828125 -12.5625 -12.8125q-4.59375 -8.0 -4.59375 -17.015625q0 -14.203125 10.265625 -24.4375q10.28125 -10.234375 24.578125 -10.234375q9.5625 0 18.125 5.015625l0 3.296875q-8.390625 -5.71875 -18.125 -5.71875q-13.140625 0 -22.515625 9.4375q-9.375 9.421875 -9.375 22.59375q0 13.171875 9.375 22.640625q9.375 9.46875 22.515625 9.46875q9.734375 0 18.125 -5.71875l0 3.3125q-8.125 5.0 -17.6875 5.0zm89.78766 -67.984375l0 2.59375l-15.28125 0l0 64.40625l-2.953125 0l0 -64.40625l-15.453125 0l0 -2.59375l33.6875 0zm100.40448 -1.609375l33.5 68.609375l-3.140625 0l-12.671875 -25.546875l-35.828125 0l-12.5 25.546875l-2.765625 0l33.40625 -68.609375zm-0.265625 6.171875l-16.71875 34.296875l33.59375 0l-16.875 -34.296875zm123.71869 -4.5625l2.578125 0l0 67.984375l-49.296875 -60.65625l0 59.671875l-2.59375 0l0 -67.984375l49.3125 60.5625l0 -59.578125zm47.6886 0l2.953125 0l0 67.0l-2.953125 0l0 -67.0zm116.75513 0l0 67.0l-2.953125 0l0 -63.515625l-31.609375 64.765625l-31.453125 -64.765625l0 63.515625l-2.671875 0l0 -67.0l4.28125 0l30.109375 61.8125l30.1875 -61.8125l4.109375 0zm74.060425 -1.609375l33.500122 68.609375l-3.140625 0l-12.671875 -25.546875l-35.828247 0l-12.5 25.546875l-2.765625 0l33.40625 -68.609375zm-0.265625 6.171875l-16.71875 34.296875l33.593872 0l-16.875122 -34.296875z" fill-rule="nonzero"/></g></svg>