<svg version="1.1" viewBox="0.0 0.0 393.6010498687664 393.6010498687664" fill="none" stroke="none" stroke-linecap="square" stroke-miterlimit="10" xmlns:xlink="http://www.w3.org/1999/xlink" xmlns="http://www.w3.org/2000/svg"><clipPath id="p.0"><path d="m0 0l393.60104 0l0 393.60104l-393.60104 0l0 -393.60104z" clip-rule="nonzero"/></clipPath><g clip-path="url(#p.0)"><path fill="#000000" fill-opacity="0.0" d="m0 0l393.60104 0l0 393.60104l-393.60104 0z" fill-rule="evenodd"/><path fill="#000000" fill-opacity="0.0" d="m324.80054 138.17715c0 62.653534 -32.0 93.9803 -64.0 125.30707c-32.000015 31.326782 -64.000015 62.653564 -64.000015 125.3071" fill-rule="evenodd"/><path stroke="#ffffff" stroke-width="4.0" stroke-linejoin="round" stroke-linecap="butt" d="m324.80054 138.17715c0 62.653534 -32.0 93.9803 -64.0 125.30707c-32.000015 31.326782 -64.000015 62.653564 -64.000015 125.3071" fill-rule="evenodd"/><path fill="#000000" fill-opacity="0.0" d="m68.80052 4.7979c0 62.653545 32.0 93.980316 64.0 125.30708c32.0 31.326782 64.0 62.65355 64.0 125.3071" fill-rule="evenodd"/><path stroke="#ffffff" stroke-width="4.0" stroke-linejoin="round" stroke-linecap="butt" d="m68.80052 4.7979c0 62.653545 32.0 93.980316 64.0 125.30708c32.0 31.326782 64.0 62.65355 64.0 125.3071" fill-rule="evenodd"/><path fill="#000000" fill-opacity="0.0" d="m69.40828 4.7979l0 135.71654" fill-rule="evenodd"/><path stroke="#ffffff" stroke-width="4.0" stroke-linejoin="round" stroke-linecap="butt" d="m69.40828 4.7979l0 135.71654" fill-rule="evenodd"/><path fill="#000000" fill-opacity="0.0" d="m324.80054 4.7979l0 135.71654" fill-rule="evenodd"/><path stroke="#ffffff" stroke-width="4.0" stroke-linejoin="round" stroke-linecap="butt" d="m324.80054 4.7979l0 135.71654" fill-rule="evenodd"/><path fill="#000000" fill-opacity="0.0" d="m196.80052 253.085l0 135.71654" fill-rule="evenodd"/><path stroke="#ffffff" stroke-width="4.0" stroke-linejoin="round" stroke-linecap="butt" d="m196.80052 253.085l0 135.71654" fill-rule="evenodd"/></g></svg>