<svg version="1.1" viewBox="0.0 0.0 393.6010498687664 393.6010498687664" fill="none" stroke="none" stroke-linecap="square" stroke-miterlimit="10" xmlns:xlink="http://www.w3.org/1999/xlink" xmlns="http://www.w3.org/2000/svg"><clipPath id="p.0"><path d="m0 0l393.60104 0l0 393.60104l-393.60104 0l0 -393.60104z" clip-rule="nonzero"/></clipPath><g clip-path="url(#p.0)"><path fill="#000000" fill-opacity="0.0" d="m0 0l393.60104 0l0 393.60104l-393.60104 0z" fill-rule="evenodd"/><path fill="#000000" fill-opacity="0.0" d="m5.7076426 100.278366c0 47.74803 31.2126 71.62204 62.4252 95.49606c31.212593 23.874008 62.425186 47.74803 62.425186 95.49605" fill-rule="evenodd"/><path stroke="#ffffff" stroke-width="4.0" stroke-linejoin="round" stroke-linecap="butt" d="m5.7076426 100.278366c0 47.74803 31.2126 71.62204 62.4252 95.49606c31.212593 23.874008 62.425186 47.74803 62.425186 95.49605" fill-rule="evenodd"/><path fill="#000000" fill-opacity="0.0" d="m72.02758 197.81133c0 47.74803 31.2126 71.622055 62.425194 95.49608c31.2126 23.873993 62.4252 47.748016 62.4252 95.49606" fill-rule="evenodd"/><path stroke="#ffffff" stroke-width="4.0" stroke-linejoin="round" stroke-linecap="butt" d="m72.02758 197.81133c0 47.74803 31.2126 71.622055 62.425194 95.49608c31.2126 23.873993 62.4252 47.748016 62.4252 95.49606" fill-rule="evenodd"/><path fill="#000000" fill-opacity="0.0" d="m5.703412 31.64607l0 0c0 -13.6984005 11.11885 -24.80315 24.834644 -24.80315l0 0c6.5865574 0 12.903349 2.613181 17.560747 7.264674c4.657398 4.651493 7.273899 10.960272 7.273899 17.538475l0 0c0 13.6984005 -11.118851 24.803148 -24.834646 24.803148l0 0c-13.7157955 0 -24.834644 -11.104748 -24.834644 -24.803148z" fill-rule="evenodd"/><path stroke="#ffffff" stroke-width="4.0" stroke-linejoin="round" stroke-linecap="butt" d="m5.703412 31.64607l0 0c0 -13.6984005 11.11885 -24.80315 24.834644 -24.80315l0 0c6.5865574 0 12.903349 2.613181 17.560747 7.264674c4.657398 4.651493 7.273899 10.960272 7.273899 17.538475l0 0c0 13.6984005 -11.118851 24.803148 -24.834646 24.803148l0 0c-13.7157955 0 -24.834644 -11.104748 -24.834644 -24.803148z" fill-rule="evenodd"/><path fill="#000000" fill-opacity="0.0" d="m387.89212 98.22941c0 47.748024 -31.212585 71.62205 -62.4252 95.496056c-31.212585 23.874023 -62.4252 47.74803 -62.4252 95.49606" fill-rule="evenodd"/><path stroke="#ffffff" stroke-width="4.0" stroke-linejoin="round" stroke-linecap="butt" d="m387.89212 98.22941c0 47.748024 -31.212585 71.62205 -62.4252 95.496056c-31.212585 23.874023 -62.4252 47.74803 -62.4252 95.49606" fill-rule="evenodd"/><path fill="#000000" fill-opacity="0.0" d="m321.57217 195.76237c0 47.74803 -31.212585 71.622055 -62.42517 95.49605c-31.212616 23.874023 -62.425217 47.748047 -62.425217 95.49606" fill-rule="evenodd"/><path stroke="#ffffff" stroke-width="4.0" stroke-linejoin="round" stroke-linecap="butt" d="m321.57217 195.76237c0 47.74803 -31.212585 71.622055 -62.42517 95.49605c-31.212616 23.874023 -62.425217 47.748047 -62.425217 95.49606" fill-rule="evenodd"/><path fill="#000000" fill-opacity="0.0" d="m387.89636 29.597113l0 0c0 -13.698401 -11.118866 -24.80315 -24.834656 -24.80315l0 0c-6.586548 0 -12.903351 2.613181 -17.56076 7.264674c-4.657379 4.651493 -7.2738953 10.960272 -7.2738953 17.538475l0 0c0 13.6984005 11.118866 24.803148 24.834656 24.803148l0 0c13.71579 0 24.834656 -11.104748 24.834656 -24.803148z" fill-rule="evenodd"/><path stroke="#ffffff" stroke-width="4.0" stroke-linejoin="round" stroke-linecap="butt" d="m387.89636 29.597113l0 0c0 -13.698401 -11.118866 -24.80315 -24.834656 -24.80315l0 0c-6.586548 0 -12.903351 2.613181 -17.56076 7.264674c-4.657379 4.651493 -7.2738953 10.960272 -7.2738953 17.538475l0 0c0 13.6984005 11.118866 24.803148 24.834656 24.803148l0 0c13.71579 0 24.834656 -11.104748 24.834656 -24.803148z" fill-rule="evenodd"/><path fill="#000000" fill-opacity="0.0" d="m196.79945 187.32318c0 -39.92125 -22.59842 -59.88188 -45.19684 -79.842514c-22.598434 -19.960632 -45.196854 -39.921257 -45.196854 -79.842514" fill-rule="evenodd"/><path stroke="#ffffff" stroke-width="4.0" stroke-linejoin="round" stroke-linecap="butt" d="m196.79945 187.32318c0 -39.92125 -22.59842 -59.88188 -45.19684 -79.842514c-22.598434 -19.960632 -45.196854 -39.921257 -45.196854 -79.842514" fill-rule="evenodd"/><path fill="#000000" fill-opacity="0.0" d="m196.79945 187.32318c0 -39.92125 22.598434 -59.88188 45.196854 -79.842514c22.59842 -19.960632 45.19684 -39.921257 45.19684 -79.842514" fill-rule="evenodd"/><path stroke="#ffffff" stroke-width="4.0" stroke-linejoin="round" stroke-linecap="butt" d="m196.79945 187.32318c0 -39.92125 22.598434 -59.88188 45.196854 -79.842514c22.59842 -19.960632 45.19684 -39.921257 45.19684 -79.842514" fill-rule="evenodd"/><path fill="#000000" fill-opacity="0.0" d="m196.85574 183.79895l0 205.00787" fill-rule="evenodd"/><path stroke="#ffffff" stroke-width="4.0" stroke-linejoin="round" stroke-linecap="butt" d="m196.85574 183.79895l0 205.00787" fill-rule="evenodd"/><path fill="#000000" fill-opacity="0.0" d="m172.13733 52.34455l0 0c0 -13.654915 11.069489 -24.724411 24.724411 -24.724411l0 0c6.557312 0 12.846069 2.604887 17.482788 7.2416115c4.636734 4.6367264 7.2416077 10.925476 7.2416077 17.4828l0 0c0 13.654915 -11.069489 24.724411 -24.724396 24.724411l0 0c-13.6549225 0 -24.724411 -11.069496 -24.724411 -24.724411z" fill-rule="evenodd"/><path stroke="#ffffff" stroke-width="4.0" stroke-linejoin="round" stroke-linecap="butt" d="m172.13733 52.34455l0 0c0 -13.654915 11.069489 -24.724411 24.724411 -24.724411l0 0c6.557312 0 12.846069 2.604887 17.482788 7.2416115c4.636734 4.6367264 7.2416077 10.925476 7.2416077 17.4828l0 0c0 13.654915 -11.069489 24.724411 -24.724396 24.724411l0 0c-13.6549225 0 -24.724411 -11.069496 -24.724411 -24.724411z" fill-rule="evenodd"/></g></svg>