<svg version="1.1" viewBox="0.0 0.0 393.6010498687664 393.6010498687664" fill="none" stroke="none" stroke-linecap="square" stroke-miterlimit="10" xmlns:xlink="http://www.w3.org/1999/xlink" xmlns="http://www.w3.org/2000/svg"><clipPath id="p.0"><path d="m0 0l393.60104 0l0 393.60104l-393.60104 0l0 -393.60104z" clip-rule="nonzero"/></clipPath><g clip-path="url(#p.0)"><path fill="#000000" fill-opacity="0.0" d="m0 0l393.60104 0l0 393.60104l-393.60104 0z" fill-rule="evenodd"/><path fill="#ffffff" d="m25.451263 288.41568l0 0c22.01398 -22.013977 57.705704 -22.013977 79.71968 0q39.859848 39.859833 119.57953 39.859833q-79.71968 0 -119.57953 39.859863l0 0c-22.013977 22.013977 -57.7057 22.013977 -79.71968 0l0 0c-22.013985 -22.014008 -22.013985 -57.70572 0 -79.719696z" fill-rule="evenodd"/><path stroke="#ffffff" stroke-width="1.0" stroke-linejoin="round" stroke-linecap="butt" d="m25.451263 288.41568l0 0c22.01398 -22.013977 57.705704 -22.013977 79.71968 0q39.859848 39.859833 119.57953 39.859833q-79.71968 0 -119.57953 39.859863l0 0c-22.013977 22.013977 -57.7057 22.013977 -79.71968 0l0 0c-22.013985 -22.014008 -22.013985 -57.70572 0 -79.719696z" fill-rule="evenodd"/><path fill="#ffffff" d="m368.1495 288.41568l0 0c-22.013977 -22.013977 -57.70572 -22.013977 -79.719696 0q-39.859833 39.859833 -119.57951 39.859833q79.71968 0 119.57951 39.859863l0 0c22.013977 22.013977 57.70572 22.013977 79.719696 0l0 0c22.013977 -22.014008 22.013977 -57.70572 0 -79.719696z" fill-rule="evenodd"/><path stroke="#ffffff" stroke-width="1.0" stroke-linejoin="round" stroke-linecap="butt" d="m368.1495 288.41568l0 0c-22.013977 -22.013977 -57.70572 -22.013977 -79.719696 0q-39.859833 39.859833 -119.57951 39.859833q79.71968 0 119.57951 39.859863l0 0c22.013977 22.013977 57.70572 22.013977 79.719696 0l0 0c22.013977 -22.014008 22.013977 -57.70572 0 -79.719696z" fill-rule="evenodd"/><path fill="#ffffff" d="m368.14053 25.451477l0 0c22.013977 22.01398 22.013977 57.705704 0 79.71968q-39.859833 39.859848 -39.859833 119.57953q0 -79.71968 -39.859833 -119.57953l0 0c-22.014008 -22.013977 -22.014008 -57.7057 0 -79.71968l0 0c22.013977 -22.013985 57.70569 -22.013985 79.719666 0z" fill-rule="evenodd"/><path stroke="#ffffff" stroke-width="1.0" stroke-linejoin="round" stroke-linecap="butt" d="m368.14053 25.451477l0 0c22.013977 22.01398 22.013977 57.705704 0 79.71968q-39.859833 39.859848 -39.859833 119.57953q0 -79.71968 -39.859833 -119.57953l0 0c-22.014008 -22.013977 -22.014008 -57.7057 0 -79.71968l0 0c22.013977 -22.013985 57.70569 -22.013985 79.719666 0z" fill-rule="evenodd"/><path fill="#ffffff" d="m368.14053 368.14972l0 0c22.013977 -22.013977 22.013977 -57.70572 0 -79.719696q-39.859833 -39.859833 -39.859833 -119.57951q0 79.71968 -39.859833 119.57951l0 0c-22.014008 22.013977 -22.014008 57.70572 0 79.719696l0 0c22.013977 22.013977 57.70569 22.013977 79.719666 0z" fill-rule="evenodd"/><path stroke="#ffffff" stroke-width="1.0" stroke-linejoin="round" stroke-linecap="butt" d="m368.14053 368.14972l0 0c22.013977 -22.013977 22.013977 -57.70572 0 -79.719696q-39.859833 -39.859833 -39.859833 -119.57951q0 79.71968 -39.859833 119.57951l0 0c-22.014008 22.013977 -22.014008 57.70572 0 79.719696l0 0c22.013977 22.013977 57.70569 22.013977 79.719666 0z" fill-rule="evenodd"/><path fill="#ffffff" d="m25.451263 25.460438l0 0c22.01398 -22.013983 57.705704 -22.013983 79.71968 0q39.859848 39.859844 119.57953 39.859844q-79.71968 0 -119.57953 39.85984l0 0c-22.013977 22.013985 -57.7057 22.013985 -79.71968 0l0 0c-22.013985 -22.013985 -22.013985 -57.7057 0 -79.71968z" fill-rule="evenodd"/><path stroke="#ffffff" stroke-width="1.0" stroke-linejoin="round" stroke-linecap="butt" d="m25.451263 25.460438l0 0c22.01398 -22.013983 57.705704 -22.013983 79.71968 0q39.859848 39.859844 119.57953 39.859844q-79.71968 0 -119.57953 39.85984l0 0c-22.013977 22.013985 -57.7057 22.013985 -79.71968 0l0 0c-22.013985 -22.013985 -22.013985 -57.7057 0 -79.71968z" fill-rule="evenodd"/><path fill="#ffffff" d="m368.1495 25.460438l0 0c-22.013977 -22.013983 -57.70572 -22.013983 -79.719696 0q-39.859833 39.859844 -119.57951 39.859844q79.71968 0 119.57951 39.85984l0 0c22.013977 22.013985 57.70572 22.013985 79.719696 0l0 0c22.013977 -22.013985 22.013977 -57.7057 0 -79.71968z" fill-rule="evenodd"/><path stroke="#ffffff" stroke-width="1.0" stroke-linejoin="round" stroke-linecap="butt" d="m368.1495 25.460438l0 0c-22.013977 -22.013983 -57.70572 -22.013983 -79.719696 0q-39.859833 39.859844 -119.57951 39.859844q79.71968 0 119.57951 39.85984l0 0c22.013977 22.013985 57.70572 22.013985 79.719696 0l0 0c22.013977 -22.013985 22.013977 -57.7057 0 -79.71968z" fill-rule="evenodd"/><path fill="#ffffff" d="m105.1853 25.451477l0 0c22.013977 22.01398 22.013977 57.705704 0 79.71968q-39.859848 39.859848 -39.859848 119.57953q0 -79.71968 -39.85984 -119.57953l0 0c-22.013983 -22.013977 -22.013983 -57.7057 0 -79.71968l0 0c22.013985 -22.013985 57.705704 -22.013985 79.71969 0z" fill-rule="evenodd"/><path stroke="#ffffff" stroke-width="1.0" stroke-linejoin="round" stroke-linecap="butt" d="m105.1853 25.451477l0 0c22.013977 22.01398 22.013977 57.705704 0 79.71968q-39.859848 39.859848 -39.859848 119.57953q0 -79.71968 -39.85984 -119.57953l0 0c-22.013983 -22.013977 -22.013983 -57.7057 0 -79.71968l0 0c22.013985 -22.013985 57.705704 -22.013985 79.71969 0z" fill-rule="evenodd"/><path fill="#ffffff" d="m105.1853 368.14972l0 0c22.013977 -22.013977 22.013977 -57.70572 0 -79.719696q-39.859848 -39.859833 -39.859848 -119.57951q0 79.71968 -39.85984 119.57951l0 0c-22.013983 22.013977 -22.013983 57.70572 0 79.719696l0 0c22.013985 22.013977 57.705704 22.013977 79.71969 0z" fill-rule="evenodd"/><path stroke="#ffffff" stroke-width="1.0" stroke-linejoin="round" stroke-linecap="butt" d="m105.1853 368.14972l0 0c22.013977 -22.013977 22.013977 -57.70572 0 -79.719696q-39.859848 -39.859833 -39.859848 -119.57951q0 79.71968 -39.85984 119.57951l0 0c-22.013983 22.013977 -22.013983 57.70572 0 79.719696l0 0c22.013985 22.013977 57.705704 22.013977 79.71969 0z" fill-rule="evenodd"/><path fill="#ffffff" d="m384.6522 328.27448l0 0c0 -31.13147 -25.23706 -56.3685 -56.3685 -56.3685q-56.36853 0 -112.737015 -56.3685q56.368484 56.3685 56.368484 112.737l0 0c0 31.13147 25.23706 56.3685 56.36853 56.3685l0 0c31.13144 0 56.3685 -25.23703 56.3685 -56.3685z" fill-rule="evenodd"/><path stroke="#ffffff" stroke-width="1.0" stroke-linejoin="round" stroke-linecap="butt" d="m384.6522 328.27448l0 0c0 -31.13147 -25.23706 -56.3685 -56.3685 -56.3685q-56.36853 0 -112.737015 -56.3685q56.368484 56.3685 56.368484 112.737l0 0c0 31.13147 25.23706 56.3685 56.36853 56.3685l0 0c31.13144 0 56.3685 -25.23703 56.3685 -56.3685z" fill-rule="evenodd"/><path fill="#ffffff" d="m8.950215 328.27448l0 0c0 -31.13147 25.237038 -56.3685 56.368504 -56.3685q56.368507 0 112.73701 -56.3685q-56.3685 56.3685 -56.3685 112.737l0 0c0 31.13147 -25.237038 56.3685 -56.368507 56.3685l0 0c-31.131466 0 -56.368504 -25.23703 -56.368504 -56.3685z" fill-rule="evenodd"/><path stroke="#ffffff" stroke-width="1.0" stroke-linejoin="round" stroke-linecap="butt" d="m8.950215 328.27448l0 0c0 -31.13147 25.237038 -56.3685 56.368504 -56.3685q56.368507 0 112.73701 -56.3685q-56.3685 56.3685 -56.3685 112.737l0 0c0 31.13147 -25.237038 56.3685 -56.368507 56.3685l0 0c-31.131466 0 -56.368504 -25.23703 -56.368504 -56.3685z" fill-rule="evenodd"/><path fill="#ffffff" d="m384.6522 65.328964l0 0c0 31.131462 -25.23706 56.3685 -56.3685 56.3685q-56.36853 0 -112.737015 56.3685q56.368484 -56.3685 56.368484 -112.737l0 0c0 -31.131466 25.23706 -56.368507 56.36853 -56.368507l0 0c31.13144 0 56.3685 25.237041 56.3685 56.368507z" fill-rule="evenodd"/><path stroke="#ffffff" stroke-width="1.0" stroke-linejoin="round" stroke-linecap="butt" d="m384.6522 65.328964l0 0c0 31.131462 -25.23706 56.3685 -56.3685 56.3685q-56.36853 0 -112.737015 56.3685q56.368484 -56.3685 56.368484 -112.737l0 0c0 -31.131466 25.23706 -56.368507 56.36853 -56.368507l0 0c31.13144 0 56.3685 25.237041 56.3685 56.368507z" fill-rule="evenodd"/><path fill="#ffffff" d="m8.950215 65.328964l0 0c0 31.131462 25.237038 56.3685 56.368504 56.3685q56.368507 0 112.73701 56.3685q-56.3685 -56.3685 -56.3685 -112.737l0 0c0 -31.131466 -25.237038 -56.368507 -56.368507 -56.368507l0 0c-31.131466 0 -56.368504 25.237041 -56.368504 56.368507z" fill-rule="evenodd"/><path stroke="#ffffff" stroke-width="1.0" stroke-linejoin="round" stroke-linecap="butt" d="m8.950215 65.328964l0 0c0 31.131462 25.237038 56.3685 56.368504 56.3685q56.368507 0 112.73701 56.3685q-56.3685 -56.3685 -56.3685 -112.737l0 0c0 -31.131466 -25.237038 -56.368507 -56.368507 -56.368507l0 0c-31.131466 0 -56.368504 25.237041 -56.368504 56.368507z" fill-rule="evenodd"/></g></svg>