<svg version="1.1" viewBox="0.0 0.0 393.6010498687664 393.6010498687664" fill="none" stroke="none" stroke-linecap="square" stroke-miterlimit="10" xmlns:xlink="http://www.w3.org/1999/xlink" xmlns="http://www.w3.org/2000/svg"><clipPath id="p.0"><path d="m0 0l393.60104 0l0 393.60104l-393.60104 0l0 -393.60104z" clip-rule="nonzero"/></clipPath><g clip-path="url(#p.0)"><path fill="#000000" fill-opacity="0.0" d="m0 0l393.60104 0l0 393.60104l-393.60104 0z" fill-rule="evenodd"/><path fill="#000000" fill-opacity="0.0" d="m117.376366 4.7979c0 48.0 48.259834 72.0 96.51968 96.0c48.259842 24.0 96.5197 48.0 96.5197 96.0" fill-rule="evenodd"/><path stroke="#ffffff" stroke-width="4.0" stroke-linejoin="round" stroke-linecap="butt" d="m117.376366 4.7979c0 48.0 48.259834 72.0 96.51968 96.0c48.259842 24.0 96.5197 48.0 96.5197 96.0" fill-rule="evenodd"/><path fill="#000000" fill-opacity="0.0" d="m310.40396 196.7979c0 48.0 -48.259827 72.000015 -96.51967 96.000015c-48.259842 24.0 -96.51969 48.0 -96.51969 96.0" fill-rule="evenodd"/><path stroke="#ffffff" stroke-width="4.0" stroke-linejoin="round" stroke-linecap="butt" d="m310.40396 196.7979c0 48.0 -48.259827 72.000015 -96.51967 96.000015c-48.259842 24.0 -96.51969 48.0 -96.51969 96.0" fill-rule="evenodd"/><path fill="#000000" fill-opacity="0.0" d="m117.376366 4.7979l0 103.968506" fill-rule="evenodd"/><path stroke="#ffffff" stroke-width="4.0" stroke-linejoin="round" stroke-linecap="butt" d="m117.376366 4.7979l0 103.968506" fill-rule="evenodd"/><path fill="#000000" fill-opacity="0.0" d="m117.376366 284.8351l0 103.968506" fill-rule="evenodd"/><path stroke="#ffffff" stroke-width="4.0" stroke-linejoin="round" stroke-linecap="butt" d="m117.376366 284.8351l0 103.968506" fill-rule="evenodd"/><path fill="#ffffff" d="m83.185036 196.80435l0 0c0 -18.786392 15.306931 -34.015747 34.18898 -34.015747l0 0c9.067482 0 17.763573 3.583786 24.175255 9.962982c6.411682 6.379181 10.013718 15.0312195 10.013718 24.052765l0 0c0 18.786377 -15.306915 34.015747 -34.188972 34.015747l0 0c-18.88205 0 -34.18898 -15.22937 -34.18898 -34.015747z" fill-rule="evenodd"/><path stroke="#ffffff" stroke-width="1.0" stroke-linejoin="round" stroke-linecap="butt" d="m83.185036 196.80435l0 0c0 -18.786392 15.306931 -34.015747 34.18898 -34.015747l0 0c9.067482 0 17.763573 3.583786 24.175255 9.962982c6.411682 6.379181 10.013718 15.0312195 10.013718 24.052765l0 0c0 18.786377 -15.306915 34.015747 -34.188972 34.015747l0 0c-18.88205 0 -34.18898 -15.22937 -34.18898 -34.015747z" fill-rule="evenodd"/></g></svg>