<svg version="1.1" viewBox="0.0 0.0 393.6010498687664 393.6010498687664" fill="none" stroke="none" stroke-linecap="square" stroke-miterlimit="10" xmlns:xlink="http://www.w3.org/1999/xlink" xmlns="http://www.w3.org/2000/svg"><clipPath id="p.0"><path d="m0 0l393.60104 0l0 393.60104l-393.60104 0l0 -393.60104z" clip-rule="nonzero"/></clipPath><g clip-path="url(#p.0)"><path fill="#000000" fill-opacity="0.0" d="m0 0l393.60104 0l0 393.60104l-393.60104 0z" fill-rule="evenodd"/><path fill="#ffffff" d="m173.00525 4.8005247l47.590546 0l0 216.0l-47.590546 0z" fill-rule="evenodd"/><path stroke="#ffffff" stroke-width="1.0" stroke-linejoin="round" stroke-linecap="butt" d="m173.00525 4.8005247l47.590546 0l0 216.0l-47.590546 0z" fill-rule="evenodd"/><path fill="#ffffff" d="m340.80054 244.80052l0 48.000015l-288.0 0l0 -48.000015z" fill-rule="evenodd"/><path stroke="#ffffff" stroke-width="1.0" stroke-linejoin="round" stroke-linecap="butt" d="m340.80054 244.80052l0 48.000015l-288.0 0l0 -48.000015z" fill-rule="evenodd"/><path fill="#ffffff" d="m173.00525 316.80054l47.590546 0l0 72.0l-47.590546 0z" fill-rule="evenodd"/><path stroke="#ffffff" stroke-width="1.0" stroke-linejoin="round" stroke-linecap="butt" d="m173.00525 316.80054l47.590546 0l0 72.0l-47.590546 0z" fill-rule="evenodd"/><path fill="#ffffff" d="m187.19423 220.80052l19.2126 0l0 96.000015l-19.2126 0z" fill-rule="evenodd"/><path stroke="#ffffff" stroke-width="1.0" stroke-linejoin="round" stroke-linecap="butt" d="m187.19423 220.80052l19.2126 0l0 96.000015l-19.2126 0z" fill-rule="evenodd"/></g></svg>