<svg version="1.1" viewBox="0.0 0.0 393.6010498687664 393.6010498687664" fill="none" stroke="none" stroke-linecap="square" stroke-miterlimit="10" xmlns:xlink="http://www.w3.org/1999/xlink" xmlns="http://www.w3.org/2000/svg"><clipPath id="p.0"><path d="m0 0l393.60104 0l0 393.60104l-393.60104 0l0 -393.60104z" clip-rule="nonzero"/></clipPath><g clip-path="url(#p.0)"><path fill="#000000" fill-opacity="0.0" d="m0 0l393.60104 0l0 393.60104l-393.60104 0z" fill-rule="evenodd"/><path fill="#ffffff" d="m273.0917 5.984507c30.68869 6.7064767 56.89035 58.743793 66.87869 85.69394c9.988342 26.950142 -14.910431 46.32444 -6.9487305 76.006935c7.9617004 29.68248 63.83844 69.67345 54.718933 102.088c-9.119476 32.41455 -81.063416 72.65253 -109.43585 92.39926c-28.372452 19.746735 -33.439682 29.061584 -60.79883 26.081055c-27.35913 -2.9805298 -69.91696 -35.64325 -103.35598 -43.964233c-33.43902 -8.320984 -81.354706 19.12555 -97.27811 -5.9616394c-15.923406 -25.087158 -16.791243 -116.99034 1.7376823 -144.56139c18.528925 -27.57103 86.56441 2.8562927 109.43587 -20.864838c22.87146 -23.721146 3.6184998 -93.6425 27.792892 -121.46201c24.174377 -27.819515 86.56474 -52.161552 117.25343 -45.455074z" fill-rule="evenodd"/><path stroke="#ffffff" stroke-width="1.0" stroke-linejoin="round" stroke-linecap="butt" d="m273.0917 5.984507c30.68869 6.7064767 56.89035 58.743793 66.87869 85.69394c9.988342 26.950142 -14.910431 46.32444 -6.9487305 76.006935c7.9617004 29.68248 63.83844 69.67345 54.718933 102.088c-9.119476 32.41455 -81.063416 72.65253 -109.43585 92.39926c-28.372452 19.746735 -33.439682 29.061584 -60.79883 26.081055c-27.35913 -2.9805298 -69.91696 -35.64325 -103.35598 -43.964233c-33.43902 -8.320984 -81.354706 19.12555 -97.27811 -5.9616394c-15.923406 -25.087158 -16.791243 -116.99034 1.7376823 -144.56139c18.528925 -27.57103 86.56441 2.8562927 109.43587 -20.864838c22.87146 -23.721146 3.6184998 -93.6425 27.792892 -121.46201c24.174377 -27.819515 86.56474 -52.161552 117.25343 -45.455074z" fill-rule="evenodd"/></g></svg>