<svg version="1.1" viewBox="0.0 0.0 393.6010498687664 393.6010498687664" fill="none" stroke="none" stroke-linecap="square" stroke-miterlimit="10" xmlns:xlink="http://www.w3.org/1999/xlink" xmlns="http://www.w3.org/2000/svg"><clipPath id="p.0"><path d="m0 0l393.60104 0l0 393.60104l-393.60104 0l0 -393.60104z" clip-rule="nonzero"/></clipPath><g clip-path="url(#p.0)"><path fill="#000000" fill-opacity="0.0" d="m0 0l393.60104 0l0 393.60104l-393.60104 0z" fill-rule="evenodd"/><path fill="#ffffff" d="m172.80052 12.800685l0 0c0 -4.4183664 3.5818024 -8.00016 8.000168 -8.00016l31.99968 0l0 0c2.1217651 0 4.1566467 0.84287167 5.656967 2.343193c1.5003204 1.5003204 2.3431854 3.5351925 2.3431854 5.656967l0 367.99966c0 4.4183655 -3.581787 8.000183 -8.000153 8.000183l-31.99968 0c-4.4183655 0 -8.000168 -3.5818176 -8.000168 -8.000183z" fill-rule="evenodd"/><path stroke="#ffffff" stroke-width="2.0" stroke-linejoin="round" stroke-linecap="butt" d="m172.80052 12.800685l0 0c0 -4.4183664 3.5818024 -8.00016 8.000168 -8.00016l31.99968 0l0 0c2.1217651 0 4.1566467 0.84287167 5.656967 2.343193c1.5003204 1.5003204 2.3431854 3.5351925 2.3431854 5.656967l0 367.99966c0 4.4183655 -3.581787 8.000183 -8.000153 8.000183l-31.99968 0c-4.4183655 0 -8.000168 -3.5818176 -8.000168 -8.000183z" fill-rule="evenodd"/><path fill="#000000" fill-opacity="0.0" d="m196.80052 292.80054c0 24.0 6.0 36.0 12.0 48.0c6.0 12.0 12.0 24.0 12.0 48.0" fill-rule="evenodd"/><path stroke="#171717" stroke-width="2.0" stroke-linejoin="round" stroke-linecap="butt" d="m196.80052 292.80054c0 24.0 6.0 36.0 12.0 48.0c6.0 12.0 12.0 24.0 12.0 48.0" fill-rule="evenodd"/><path fill="#000000" fill-opacity="0.0" d="m172.80052 388.80054c0 -24.0 6.0 -36.0 12.0 -48.0c6.0 -12.0 12.0 -24.0 12.0 -48.0" fill-rule="evenodd"/><path stroke="#171717" stroke-width="2.0" stroke-linejoin="round" stroke-linecap="butt" d="m172.80052 388.80054c0 -24.0 6.0 -36.0 12.0 -48.0c6.0 -12.0 12.0 -24.0 12.0 -48.0" fill-rule="evenodd"/><path fill="#000000" fill-opacity="0.0" d="m196.80052 388.80054c0 -24.0 6.0 -36.0 12.0 -48.0c6.0 -12.0 12.0 -24.0 12.0 -48.0" fill-rule="evenodd"/><path stroke="#171717" stroke-width="2.0" stroke-linejoin="round" stroke-linecap="butt" d="m196.80052 388.80054c0 -24.0 6.0 -36.0 12.0 -48.0c6.0 -12.0 12.0 -24.0 12.0 -48.0" fill-rule="evenodd"/><path fill="#000000" fill-opacity="0.0" d="m172.80052 292.80054c0 24.0 6.0 36.0 12.0 48.0c6.0 12.0 12.0 24.0 12.0 48.0" fill-rule="evenodd"/><path stroke="#171717" stroke-width="2.0" stroke-linejoin="round" stroke-linecap="butt" d="m172.80052 292.80054c0 24.0 6.0 36.0 12.0 48.0c6.0 12.0 12.0 24.0 12.0 48.0" fill-rule="evenodd"/><path fill="#000000" fill-opacity="0.0" d="m196.80052 196.80052c0 24.0 6.0 36.0 12.0 48.0c6.0 12.000015 12.0 24.000015 12.0 48.000015" fill-rule="evenodd"/><path stroke="#171717" stroke-width="2.0" stroke-linejoin="round" stroke-linecap="butt" d="m196.80052 196.80052c0 24.0 6.0 36.0 12.0 48.0c6.0 12.000015 12.0 24.000015 12.0 48.000015" fill-rule="evenodd"/><path fill="#000000" fill-opacity="0.0" d="m172.80052 292.80054c0 -24.0 6.0 -36.0 12.0 -48.000015c6.0 -12.0 12.0 -24.0 12.0 -48.0" fill-rule="evenodd"/><path stroke="#171717" stroke-width="2.0" stroke-linejoin="round" stroke-linecap="butt" d="m172.80052 292.80054c0 -24.0 6.0 -36.0 12.0 -48.000015c6.0 -12.0 12.0 -24.0 12.0 -48.0" fill-rule="evenodd"/><path fill="#000000" fill-opacity="0.0" d="m196.80052 292.80054c0 -24.0 6.0 -36.0 12.0 -48.000015c6.0 -12.0 12.0 -24.0 12.0 -48.0" fill-rule="evenodd"/><path stroke="#171717" stroke-width="2.0" stroke-linejoin="round" stroke-linecap="butt" d="m196.80052 292.80054c0 -24.0 6.0 -36.0 12.0 -48.000015c6.0 -12.0 12.0 -24.0 12.0 -48.0" fill-rule="evenodd"/><path fill="#000000" fill-opacity="0.0" d="m172.80052 196.80052c0 24.0 6.0 36.0 12.0 48.0c6.0 12.000015 12.0 24.000015 12.0 48.000015" fill-rule="evenodd"/><path stroke="#171717" stroke-width="2.0" stroke-linejoin="round" stroke-linecap="butt" d="m172.80052 196.80052c0 24.0 6.0 36.0 12.0 48.0c6.0 12.000015 12.0 24.000015 12.0 48.000015" fill-rule="evenodd"/><path fill="#000000" fill-opacity="0.0" d="m196.80052 100.80052c0 24.0 6.0 36.0 12.0 48.0c6.0 12.0 12.0 24.0 12.0 48.0" fill-rule="evenodd"/><path stroke="#171717" stroke-width="2.0" stroke-linejoin="round" stroke-linecap="butt" d="m196.80052 100.80052c0 24.0 6.0 36.0 12.0 48.0c6.0 12.0 12.0 24.0 12.0 48.0" fill-rule="evenodd"/><path fill="#000000" fill-opacity="0.0" d="m172.80052 196.80052c0 -24.0 6.0 -36.0 12.0 -48.0c6.0 -12.0 12.0 -24.0 12.0 -48.0" fill-rule="evenodd"/><path stroke="#171717" stroke-width="2.0" stroke-linejoin="round" stroke-linecap="butt" d="m172.80052 196.80052c0 -24.0 6.0 -36.0 12.0 -48.0c6.0 -12.0 12.0 -24.0 12.0 -48.0" fill-rule="evenodd"/><path fill="#000000" fill-opacity="0.0" d="m196.80052 196.80052c0 -24.0 6.0 -36.0 12.0 -48.0c6.0 -12.0 12.0 -24.0 12.0 -48.0" fill-rule="evenodd"/><path stroke="#171717" stroke-width="2.0" stroke-linejoin="round" stroke-linecap="butt" d="m196.80052 196.80052c0 -24.0 6.0 -36.0 12.0 -48.0c6.0 -12.0 12.0 -24.0 12.0 -48.0" fill-rule="evenodd"/><path fill="#000000" fill-opacity="0.0" d="m172.80052 100.80052c0 24.0 6.0 36.0 12.0 48.0c6.0 12.0 12.0 24.0 12.0 48.0" fill-rule="evenodd"/><path stroke="#171717" stroke-width="2.0" stroke-linejoin="round" stroke-linecap="butt" d="m172.80052 100.80052c0 24.0 6.0 36.0 12.0 48.0c6.0 12.0 12.0 24.0 12.0 48.0" fill-rule="evenodd"/><path fill="#000000" fill-opacity="0.0" d="m196.80052 4.8005247c0 24.0 6.0 36.0 12.0 48.0c6.0 11.999996 12.0 23.999996 12.0 47.999996" fill-rule="evenodd"/><path stroke="#171717" stroke-width="2.0" stroke-linejoin="round" stroke-linecap="butt" d="m196.80052 4.8005247c0 24.0 6.0 36.0 12.0 48.0c6.0 11.999996 12.0 23.999996 12.0 47.999996" fill-rule="evenodd"/><path fill="#000000" fill-opacity="0.0" d="m172.80052 100.80052c0 -24.0 6.0 -36.0 12.0 -47.999996c6.0 -12.0 12.0 -24.0 12.0 -48.0" fill-rule="evenodd"/><path stroke="#171717" stroke-width="2.0" stroke-linejoin="round" stroke-linecap="butt" d="m172.80052 100.80052c0 -24.0 6.0 -36.0 12.0 -47.999996c6.0 -12.0 12.0 -24.0 12.0 -48.0" fill-rule="evenodd"/><path fill="#000000" fill-opacity="0.0" d="m196.80052 100.80052c0 -24.0 6.0 -36.0 12.0 -47.999996c6.0 -12.0 12.0 -24.0 12.0 -48.0" fill-rule="evenodd"/><path stroke="#171717" stroke-width="2.0" stroke-linejoin="round" stroke-linecap="butt" d="m196.80052 100.80052c0 -24.0 6.0 -36.0 12.0 -47.999996c6.0 -12.0 12.0 -24.0 12.0 -48.0" fill-rule="evenodd"/><path fill="#000000" fill-opacity="0.0" d="m172.80052 4.8005247c0 24.0 6.0 36.0 12.0 48.0c6.0 11.999996 12.0 23.999996 12.0 47.999996" fill-rule="evenodd"/><path stroke="#171717" stroke-width="2.0" stroke-linejoin="round" stroke-linecap="butt" d="m172.80052 4.8005247c0 24.0 6.0 36.0 12.0 48.0c6.0 11.999996 12.0 23.999996 12.0 47.999996" fill-rule="evenodd"/></g></svg>