<svg version="1.1" viewBox="0.0 0.0 316.8005249343832 316.8005249343832" fill="none" stroke="none" stroke-linecap="square" stroke-miterlimit="10" xmlns:xlink="http://www.w3.org/1999/xlink" xmlns="http://www.w3.org/2000/svg"><clipPath id="p.0"><path d="m0 0l316.80054 0l0 316.80054l-316.80054 0l0 -316.80054z" clip-rule="nonzero"/></clipPath><g clip-path="url(#p.0)"><path fill="#000000" fill-opacity="0.0" d="m0 0l316.80054 0l0 316.80054l-316.80054 0z" fill-rule="evenodd"/><path fill="#000000" fill-opacity="0.0" d="m100.62782 100.52452l57.755905 -57.448814l57.755905 57.448814l-57.755905 57.448822z" fill-rule="evenodd"/><path fill="#000000" fill-opacity="0.0" d="m158.38373 43.075706l0 -38.299213l57.755905 57.44882l0 38.29921z" fill-rule="evenodd"/><path fill="#000000" fill-opacity="0.0" d="m100.62782 100.52452l0 -38.29921l57.755905 -57.44882l0 38.299213z" fill-rule="evenodd"/><path fill="#000000" fill-opacity="0.0" d="m100.62782 100.52452l0 -38.29921l57.755905 -57.44882l57.755905 57.44882l0 38.29921l-57.755905 57.448822zm0 0l57.755905 -57.448814l0 -38.299213m0 38.299213l57.755905 57.448814" fill-rule="evenodd"/><path fill="#000000" fill-opacity="0.2" d="m158.38373 43.075706l0 -38.299213l57.755905 57.44882l0 38.29921z" fill-rule="evenodd"/><path fill="#ffffff" fill-opacity="0.2" d="m100.62782 100.52452l0 -38.29921l57.755905 -57.44882l0 38.299213z" fill-rule="evenodd"/><path stroke="#ffffff" stroke-width="2.0" stroke-linejoin="round" stroke-linecap="butt" d="m100.62782 100.52452l0 -38.29921l57.755905 -57.44882l57.755905 57.44882l0 38.29921l-57.755905 57.448822zm0 0l57.755905 -57.448814l0 -38.299213m0 38.299213l57.755905 57.448814" fill-rule="evenodd"/><path fill="#000000" fill-opacity="0.0" d="m216.27669 100.62767l57.448807 57.755905l-57.448807 57.755905l-57.448822 -57.755905z" fill-rule="evenodd"/><path fill="#000000" fill-opacity="0.0" d="m273.7255 158.38358l38.299225 0l-57.448822 57.755905l-38.29921 0z" fill-rule="evenodd"/><path fill="#000000" fill-opacity="0.0" d="m216.27669 100.62767l38.29921 0l57.448822 57.755905l-38.299225 0z" fill-rule="evenodd"/><path fill="#000000" fill-opacity="0.0" d="m216.27669 100.62767l38.29921 0l57.448822 57.755905l-57.448822 57.755905l-38.29921 0l-57.448822 -57.755905zm0 0l57.448807 57.755905l38.299225 0m-38.299225 0l-57.448807 57.755905" fill-rule="evenodd"/><path fill="#000000" fill-opacity="0.2" d="m273.7255 158.38358l38.299225 0l-57.448822 57.755905l-38.29921 0z" fill-rule="evenodd"/><path fill="#ffffff" fill-opacity="0.2" d="m216.27669 100.62767l38.29921 0l57.448822 57.755905l-38.299225 0z" fill-rule="evenodd"/><path stroke="#ffffff" stroke-width="2.0" stroke-linejoin="round" stroke-linecap="butt" d="m216.27669 100.62767l38.29921 0l57.448822 57.755905l-57.448822 57.755905l-38.29921 0l-57.448822 -57.755905zm0 0l57.448807 57.755905l38.299225 0m-38.299225 0l-57.448807 57.755905" fill-rule="evenodd"/><path fill="#000000" fill-opacity="0.0" d="m100.52468 100.62767l-57.448822 57.755905l57.448822 57.755905l57.448814 -57.755905z" fill-rule="evenodd"/><path fill="#000000" fill-opacity="0.0" d="m43.07586 158.38358l-38.299213 0l57.44882 57.755905l38.299217 0z" fill-rule="evenodd"/><path fill="#000000" fill-opacity="0.0" d="m100.52468 100.62767l-38.299217 0l-57.44882 57.755905l38.299213 0z" fill-rule="evenodd"/><path fill="#000000" fill-opacity="0.0" d="m100.52468 100.62767l-38.299217 0l-57.44882 57.755905l57.44882 57.755905l38.299217 0l57.448814 -57.755905zm0 0l-57.448822 57.755905l-38.299213 0m38.299213 0l57.448822 57.755905" fill-rule="evenodd"/><path fill="#000000" fill-opacity="0.2" d="m43.07586 158.38358l-38.299213 0l57.44882 57.755905l38.299217 0z" fill-rule="evenodd"/><path fill="#ffffff" fill-opacity="0.2" d="m100.52468 100.62767l-38.299217 0l-57.44882 57.755905l38.299213 0z" fill-rule="evenodd"/><path stroke="#ffffff" stroke-width="2.0" stroke-linejoin="round" stroke-linecap="butt" d="m100.52468 100.62767l-38.299217 0l-57.44882 57.755905l57.44882 57.755905l38.299217 0l57.448814 -57.755905zm0 0l-57.448822 57.755905l-38.299213 0m38.299213 0l57.448822 57.755905" fill-rule="evenodd"/><path fill="#000000" fill-opacity="0.0" d="m100.62782 216.27654l57.755905 57.448807l57.755905 -57.448807l-57.755905 -57.448822z" fill-rule="evenodd"/><path fill="#000000" fill-opacity="0.0" d="m158.38373 273.72534l0 38.299225l57.755905 -57.448822l0 -38.29921z" fill-rule="evenodd"/><path fill="#000000" fill-opacity="0.0" d="m100.62782 216.27654l0 38.29921l57.755905 57.448822l0 -38.299225z" fill-rule="evenodd"/><path fill="#000000" fill-opacity="0.0" d="m100.62782 216.27654l0 38.29921l57.755905 57.448822l57.755905 -57.448822l0 -38.29921l-57.755905 -57.448822zm0 0l57.755905 57.448807l0 38.299225m0 -38.299225l57.755905 -57.448807" fill-rule="evenodd"/><path fill="#000000" fill-opacity="0.2" d="m158.38373 273.72534l0 38.299225l57.755905 -57.448822l0 -38.29921z" fill-rule="evenodd"/><path fill="#ffffff" fill-opacity="0.2" d="m100.62782 216.27654l0 38.29921l57.755905 57.448822l0 -38.299225z" fill-rule="evenodd"/><path stroke="#ffffff" stroke-width="2.0" stroke-linejoin="round" stroke-linecap="butt" d="m100.62782 216.27654l0 38.29921l57.755905 57.448822l57.755905 -57.448822l0 -38.29921l-57.755905 -57.448822zm0 0l57.755905 57.448807l0 38.299225m0 -38.299225l57.755905 -57.448807" fill-rule="evenodd"/><path fill="#171717" d="m158.43643 43.029938l115.33859 115.33858l-115.401596 115.401566l-115.33858 -115.33856z" fill-rule="evenodd"/><path stroke="#ffffff" stroke-width="2.0" stroke-linejoin="round" stroke-linecap="butt" d="m158.43643 43.029938l115.33859 115.33858l-115.401596 115.401566l-115.33858 -115.33856z" fill-rule="evenodd"/><path fill="#000000" fill-opacity="0.0" d="m158.39865 159.67639c0 -15.62204 -9.535431 -23.43306 -19.070862 -31.244095c-9.535446 -7.81102 -19.07087 -15.62204 -19.07087 -31.244087" fill-rule="evenodd"/><path stroke="#ffffff" stroke-width="2.0" stroke-linejoin="round" stroke-linecap="butt" d="m158.39865 159.67639c0 -15.62204 -9.535431 -23.43306 -19.070862 -31.244095c-9.535446 -7.81102 -19.07087 -15.62204 -19.07087 -31.244087" fill-rule="evenodd"/><path fill="#000000" fill-opacity="0.0" d="m158.39865 159.67639c0 -15.62204 9.535431 -23.43306 19.070862 -31.244095c9.535431 -7.81102 19.070862 -15.62204 19.070862 -31.244087" fill-rule="evenodd"/><path stroke="#ffffff" stroke-width="2.0" stroke-linejoin="round" stroke-linecap="butt" d="m158.39865 159.67639c0 -15.62204 9.535431 -23.43306 19.070862 -31.244095c9.535431 -7.81102 19.070862 -15.62204 19.070862 -31.244087" fill-rule="evenodd"/><path fill="#000000" fill-opacity="0.0" d="m158.39967 158.27858l0 91.46457" fill-rule="evenodd"/><path stroke="#ffffff" stroke-width="2.0" stroke-linejoin="round" stroke-linecap="butt" d="m158.39967 158.27858l0 91.46457" fill-rule="evenodd"/><path fill="#000000" fill-opacity="0.0" d="m148.22571 107.32274l0 0c0 -5.59243 4.554718 -10.125984 10.173233 -10.125984l0 0c2.6981049 0 5.2857056 1.0668411 7.1935577 2.965828c1.9078522 1.8989944 2.9796753 4.474571 2.9796753 7.1601562l0 0c0 5.5924225 -4.554718 10.125984 -10.173233 10.125984l0 0c-5.618515 0 -10.173233 -4.5335617 -10.173233 -10.125984z" fill-rule="evenodd"/><path stroke="#ffffff" stroke-width="2.0" stroke-linejoin="round" stroke-linecap="butt" d="m148.22571 107.32274l0 0c0 -5.59243 4.554718 -10.125984 10.173233 -10.125984l0 0c2.6981049 0 5.2857056 1.0668411 7.1935577 2.965828c1.9078522 1.8989944 2.9796753 4.474571 2.9796753 7.1601562l0 0c0 5.5924225 -4.554718 10.125984 -10.173233 10.125984l0 0c-5.618515 0 -10.173233 -4.5335617 -10.173233 -10.125984z" fill-rule="evenodd"/></g></svg>