<svg version="1.1" viewBox="0.0 0.0 316.8005249343832 316.8005249343832" fill="none" stroke="none" stroke-linecap="square" stroke-miterlimit="10" xmlns:xlink="http://www.w3.org/1999/xlink" xmlns="http://www.w3.org/2000/svg"><clipPath id="p.0"><path d="m0 0l316.80054 0l0 316.80054l-316.80054 0l0 -316.80054z" clip-rule="nonzero"/></clipPath><g clip-path="url(#p.0)"><path fill="#000000" fill-opacity="0.0" d="m0 0l316.80054 0l0 316.80054l-316.80054 0z" fill-rule="evenodd"/><path fill="#000000" fill-opacity="0.0" d="m107.13722 158.4013l0 0c0 -84.83441 22.956863 -153.6063 51.27559 -153.6063l0 0c13.599136 0 26.641281 16.183474 36.257324 44.990242c9.616028 28.80677 15.018265 67.87714 15.018265 108.61605l0 0c0 84.83443 -22.956863 153.6063 -51.27559 153.6063l0 0c-13.599136 0 -26.641281 -16.183472 -36.257317 -44.990234c-9.616043 -28.806763 -15.018272 -67.87714 -15.018272 -108.61606z" fill-rule="evenodd"/><path stroke="#ffffff" stroke-width="2.0" stroke-linejoin="round" stroke-linecap="butt" d="m107.13722 158.4013l0 0c0 -84.83441 22.956863 -153.6063 51.27559 -153.6063l0 0c13.599136 0 26.641281 16.183474 36.257324 44.990242c9.616028 28.80677 15.018265 67.87714 15.018265 108.61605l0 0c0 84.83443 -22.956863 153.6063 -51.27559 153.6063l0 0c-13.599136 0 -26.641281 -16.183472 -36.257317 -44.990234c-9.616043 -28.806763 -15.018272 -67.87714 -15.018272 -108.61606z" fill-rule="evenodd"/><path fill="#000000" fill-opacity="0.0" d="m138.80594 205.67383l0 0c78.467926 32.467392 150.85678 37.61435 161.68503 11.496063l0 0c5.1999207 -12.542435 -4.7821045 -30.764832 -27.750153 -50.658463c-22.968033 -19.893616 -57.04065 -39.828888 -94.722275 -55.420273l0 0c-78.467926 -32.467384 -150.85678 -37.61435 -161.68504 -11.496063l0 0c-5.199913 12.542442 4.782114 30.764832 27.750154 50.658463c22.968037 19.893616 57.04066 39.828888 94.72229 55.420273z" fill-rule="evenodd"/><path stroke="#ffffff" stroke-width="2.0" stroke-linejoin="round" stroke-linecap="butt" d="m138.80594 205.67383l0 0c78.467926 32.467392 150.85678 37.61435 161.68503 11.496063l0 0c5.1999207 -12.542435 -4.7821045 -30.764832 -27.750153 -50.658463c-22.968033 -19.893616 -57.04065 -39.828888 -94.722275 -55.420273l0 0c-78.467926 -32.467384 -150.85678 -37.61435 -161.68504 -11.496063l0 0c-5.199913 12.542442 4.782114 30.764832 27.750154 50.658463c22.968037 19.893616 57.04066 39.828888 94.72229 55.420273z" fill-rule="evenodd"/><path fill="#000000" fill-opacity="0.0" d="m177.9912 205.67383l0 0c-78.467926 32.467392 -150.85678 37.61435 -161.68504 11.496063l0 0c-5.199914 -12.542435 4.782114 -30.764832 27.75015 -50.658463c22.968037 -19.893616 57.04067 -39.828888 94.72229 -55.420273l0 0c78.46791 -32.467384 150.85678 -37.61435 161.68503 -11.496063l0 0c5.1999207 12.542442 -4.7821045 30.764832 -27.750153 50.658463c-22.968033 19.893616 -57.04065 39.828888 -94.722275 55.420273z" fill-rule="evenodd"/><path stroke="#ffffff" stroke-width="2.0" stroke-linejoin="round" stroke-linecap="butt" d="m177.9912 205.67383l0 0c-78.467926 32.467392 -150.85678 37.61435 -161.68504 11.496063l0 0c-5.199914 -12.542435 4.782114 -30.764832 27.75015 -50.658463c22.968037 -19.893616 57.04067 -39.828888 94.72229 -55.420273l0 0c78.46791 -32.467384 150.85678 -37.61435 161.68503 -11.496063l0 0c5.1999207 12.542442 -4.7821045 30.764832 -27.750153 50.658463c-22.968033 19.893616 -57.04065 39.828888 -94.722275 55.420273z" fill-rule="evenodd"/><path fill="#000000" fill-opacity="0.0" d="m132.76799 158.39502l0 0c0 -14.141968 11.4713745 -25.606308 25.62204 -25.606308l0 0c6.795395 0 13.312454 2.6977997 18.117523 7.4999084c4.805069 4.802124 7.5045166 11.315186 7.5045166 18.1064l0 0c0 14.141968 -11.4713745 25.606293 -25.62204 25.606293l0 0c-14.150665 0 -25.62204 -11.464325 -25.62204 -25.606293z" fill-rule="evenodd"/><path stroke="#ffffff" stroke-width="2.0" stroke-linejoin="round" stroke-linecap="butt" d="m132.76799 158.39502l0 0c0 -14.141968 11.4713745 -25.606308 25.62204 -25.606308l0 0c6.795395 0 13.312454 2.6977997 18.117523 7.4999084c4.805069 4.802124 7.5045166 11.315186 7.5045166 18.1064l0 0c0 14.141968 -11.4713745 25.606293 -25.62204 25.606293l0 0c-14.150665 0 -25.62204 -11.464325 -25.62204 -25.606293z" fill-rule="evenodd"/></g></svg>