<svg version="1.1" viewBox="0.0 0.0 393.6010498687664 393.6010498687664" fill="none" stroke="none" stroke-linecap="square" stroke-miterlimit="10" xmlns:xlink="http://www.w3.org/1999/xlink" xmlns="http://www.w3.org/2000/svg"><clipPath id="p.0"><path d="m0 0l393.60104 0l0 393.60104l-393.60104 0l0 -393.60104z" clip-rule="nonzero"/></clipPath><g clip-path="url(#p.0)"><path fill="#000000" fill-opacity="0.0" d="m0 0l393.60104 0l0 393.60104l-393.60104 0z" fill-rule="evenodd"/><path fill="#000000" fill-opacity="0.0" d="m52.800526 196.57086c0 36.0 35.999996 54.0 72.0 72.0c36.0 18.0 72.0 36.0 72.0 72.0" fill-rule="evenodd"/><path stroke="#ffffff" stroke-width="2.0" stroke-linejoin="round" stroke-linecap="butt" d="m52.800526 196.57086c0 36.0 35.999996 54.0 72.0 72.0c36.0 18.0 72.0 36.0 72.0 72.0" fill-rule="evenodd"/><path fill="#000000" fill-opacity="0.0" d="m172.7979 28.800526l0 0c0 -13.254835 10.745163 -24.0 24.0 -24.0l0 0c6.365204 0 12.469696 2.5285645 16.970566 7.029437c4.5008698 4.5008736 7.029434 10.605368 7.029434 16.970564l0 0c0 13.254833 -10.745163 24.0 -24.0 24.0l0 0c-13.254837 0 -24.0 -10.745167 -24.0 -24.0z" fill-rule="evenodd"/><path stroke="#ffffff" stroke-width="2.0" stroke-linejoin="round" stroke-linecap="butt" d="m172.7979 28.800526l0 0c0 -13.254835 10.745163 -24.0 24.0 -24.0l0 0c6.365204 0 12.469696 2.5285645 16.970566 7.029437c4.5008698 4.5008736 7.029434 10.605368 7.029434 16.970564l0 0c0 13.254833 -10.745163 24.0 -24.0 24.0l0 0c-13.254837 0 -24.0 -10.745167 -24.0 -24.0z" fill-rule="evenodd"/><path fill="#000000" fill-opacity="0.0" d="m340.7979 196.34383c0 36.0 -36.0 54.0 -72.0 72.000015c-36.000015 18.0 -72.000015 36.0 -72.000015 72.0" fill-rule="evenodd"/><path stroke="#ffffff" stroke-width="2.0" stroke-linejoin="round" stroke-linecap="butt" d="m340.7979 196.34383c0 36.0 -36.0 54.0 -72.0 72.000015c-36.000015 18.0 -72.000015 36.0 -72.000015 72.0" fill-rule="evenodd"/><path fill="#000000" fill-opacity="0.0" d="m292.80054 148.80052c0 36.0 -24.0 54.0 -48.000015 72.0c-24.0 18.0 -48.0 36.000015 -48.0 72.000015" fill-rule="evenodd"/><path stroke="#ffffff" stroke-width="2.0" stroke-linejoin="round" stroke-linecap="butt" d="m292.80054 148.80052c0 36.0 -24.0 54.0 -48.000015 72.0c-24.0 18.0 -48.0 36.000015 -48.0 72.000015" fill-rule="evenodd"/><path fill="#000000" fill-opacity="0.0" d="m100.80052 148.80052c0 36.0 24.0 54.0 48.0 72.0c24.0 18.0 48.0 36.000015 48.0 72.000015" fill-rule="evenodd"/><path stroke="#ffffff" stroke-width="2.0" stroke-linejoin="round" stroke-linecap="butt" d="m100.80052 148.80052c0 36.0 24.0 54.0 48.0 72.0c24.0 18.0 48.0 36.000015 48.0 72.000015" fill-rule="evenodd"/><path fill="#000000" fill-opacity="0.0" d="m148.80052 100.80052c0 36.0 12.0 54.0 24.0 72.0c12.0 18.0 24.0 36.0 24.0 72.0" fill-rule="evenodd"/><path stroke="#ffffff" stroke-width="2.0" stroke-linejoin="round" stroke-linecap="butt" d="m148.80052 100.80052c0 36.0 12.0 54.0 24.0 72.0c12.0 18.0 24.0 36.0 24.0 72.0" fill-rule="evenodd"/><path fill="#000000" fill-opacity="0.0" d="m244.80052 100.80052c0 36.0 -12.0 54.0 -24.0 72.0c-12.0 18.0 -24.0 36.0 -24.0 72.0" fill-rule="evenodd"/><path stroke="#ffffff" stroke-width="2.0" stroke-linejoin="round" stroke-linecap="butt" d="m244.80052 100.80052c0 36.0 -12.0 54.0 -24.0 72.0c-12.0 18.0 -24.0 36.0 -24.0 72.0" fill-rule="evenodd"/><path fill="#000000" fill-opacity="0.0" d="m220.80052 76.80052l0 0c0 -13.254829 10.745163 -23.999996 24.0 -23.999996l0 0c6.365204 0 12.469681 2.5285645 16.970566 7.029438c4.500885 4.5008698 7.0294495 10.605362 7.0294495 16.970558l0 0c0 13.254837 -10.745178 24.0 -24.000015 24.0l0 0c-13.254837 0 -24.0 -10.745163 -24.0 -24.0z" fill-rule="evenodd"/><path stroke="#ffffff" stroke-width="2.0" stroke-linejoin="round" stroke-linecap="butt" d="m220.80052 76.80052l0 0c0 -13.254829 10.745163 -23.999996 24.0 -23.999996l0 0c6.365204 0 12.469681 2.5285645 16.970566 7.029438c4.500885 4.5008698 7.0294495 10.605362 7.0294495 16.970558l0 0c0 13.254837 -10.745178 24.0 -24.000015 24.0l0 0c-13.254837 0 -24.0 -10.745163 -24.0 -24.0z" fill-rule="evenodd"/><path fill="#000000" fill-opacity="0.0" d="m268.80054 124.80052l0 0c0 -13.254829 10.745148 -24.0 24.0 -24.0l0 0c6.3651733 0 12.469666 2.5285645 16.97055 7.029442c4.500885 4.5008698 7.0294495 10.605362 7.0294495 16.970558l0 0c0 13.254837 -10.745178 24.0 -24.0 24.0l0 0c-13.254852 0 -24.0 -10.745163 -24.0 -24.0z" fill-rule="evenodd"/><path stroke="#ffffff" stroke-width="2.0" stroke-linejoin="round" stroke-linecap="butt" d="m268.80054 124.80052l0 0c0 -13.254829 10.745148 -24.0 24.0 -24.0l0 0c6.3651733 0 12.469666 2.5285645 16.97055 7.029442c4.500885 4.5008698 7.0294495 10.605362 7.0294495 16.970558l0 0c0 13.254837 -10.745178 24.0 -24.0 24.0l0 0c-13.254852 0 -24.0 -10.745163 -24.0 -24.0z" fill-rule="evenodd"/><path fill="#000000" fill-opacity="0.0" d="m316.7979 172.34383l0 0c0 -13.254822 10.745148 -24.0 24.0 -24.0l0 0c6.3651733 0 12.469666 2.5285645 16.97055 7.0294495c4.500885 4.5008698 7.0294495 10.605362 7.0294495 16.97055l0 0c0 13.254837 -10.745178 24.0 -24.0 24.0l0 0c-13.254852 0 -24.0 -10.745163 -24.0 -24.0z" fill-rule="evenodd"/><path stroke="#ffffff" stroke-width="2.0" stroke-linejoin="round" stroke-linecap="butt" d="m316.7979 172.34383l0 0c0 -13.254822 10.745148 -24.0 24.0 -24.0l0 0c6.3651733 0 12.469666 2.5285645 16.97055 7.0294495c4.500885 4.5008698 7.0294495 10.605362 7.0294495 16.97055l0 0c0 13.254837 -10.745178 24.0 -24.0 24.0l0 0c-13.254852 0 -24.0 -10.745163 -24.0 -24.0z" fill-rule="evenodd"/><path fill="#000000" fill-opacity="0.0" d="m124.80052 76.80052l0 0c0 -13.254829 10.745163 -23.999996 24.0 -23.999996l0 0c6.365204 0 12.469696 2.5285645 16.970566 7.029438c4.5008698 4.5008698 7.029434 10.605362 7.029434 16.970558l0 0c0 13.254837 -10.745163 24.0 -24.0 24.0l0 0c-13.254837 0 -24.0 -10.745163 -24.0 -24.0z" fill-rule="evenodd"/><path stroke="#ffffff" stroke-width="2.0" stroke-linejoin="round" stroke-linecap="butt" d="m124.80052 76.80052l0 0c0 -13.254829 10.745163 -23.999996 24.0 -23.999996l0 0c6.365204 0 12.469696 2.5285645 16.970566 7.029438c4.5008698 4.5008698 7.029434 10.605362 7.029434 16.970558l0 0c0 13.254837 -10.745163 24.0 -24.0 24.0l0 0c-13.254837 0 -24.0 -10.745163 -24.0 -24.0z" fill-rule="evenodd"/><path fill="#000000" fill-opacity="0.0" d="m76.80052 124.80052l0 0c0 -13.254829 10.745171 -24.0 24.0 -24.0l0 0c6.365196 0 12.469696 2.5285645 16.970566 7.029442c4.5008698 4.5008698 7.029434 10.605362 7.029434 16.970558l0 0c0 13.254837 -10.745163 24.0 -24.0 24.0l0 0c-13.254829 0 -24.0 -10.745163 -24.0 -24.0z" fill-rule="evenodd"/><path stroke="#ffffff" stroke-width="2.0" stroke-linejoin="round" stroke-linecap="butt" d="m76.80052 124.80052l0 0c0 -13.254829 10.745171 -24.0 24.0 -24.0l0 0c6.365196 0 12.469696 2.5285645 16.970566 7.029442c4.5008698 4.5008698 7.029434 10.605362 7.029434 16.970558l0 0c0 13.254837 -10.745163 24.0 -24.0 24.0l0 0c-13.254829 0 -24.0 -10.745163 -24.0 -24.0z" fill-rule="evenodd"/><path fill="#000000" fill-opacity="0.0" d="m28.800526 173.02887l0 0c0 -13.254837 10.745167 -24.0 24.0 -24.0l0 0c6.365196 0 12.469692 2.5285645 16.970562 7.029434c4.5008698 4.500885 7.029434 10.605377 7.029434 16.970566l0 0c0 13.254837 -10.745163 24.0 -23.999996 24.0l0 0c-13.254833 0 -24.0 -10.745163 -24.0 -24.0z" fill-rule="evenodd"/><path stroke="#ffffff" stroke-width="2.0" stroke-linejoin="round" stroke-linecap="butt" d="m28.800526 173.02887l0 0c0 -13.254837 10.745167 -24.0 24.0 -24.0l0 0c6.365196 0 12.469692 2.5285645 16.970562 7.029434c4.5008698 4.500885 7.029434 10.605377 7.029434 16.970566l0 0c0 13.254837 -10.745163 24.0 -23.999996 24.0l0 0c-13.254833 0 -24.0 -10.745163 -24.0 -24.0z" fill-rule="evenodd"/><path fill="#000000" fill-opacity="0.0" d="m196.77565 340.8001c0 12.0 -6.0 18.0 -12.0 24.0c-6.0 6.0 -12.0 12.0 -12.0 24.0" fill-rule="evenodd"/><path stroke="#ffffff" stroke-width="2.0" stroke-linejoin="round" stroke-linecap="butt" d="m196.77565 340.8001c0 12.0 -6.0 18.0 -12.0 24.0c-6.0 6.0 -12.0 12.0 -12.0 24.0" fill-rule="evenodd"/><path fill="#000000" fill-opacity="0.0" d="m220.77841 388.8001c0 -12.0 -6.0 -18.0 -12.0 -24.0c-6.0 -6.0 -12.0 -12.0 -12.0 -24.0" fill-rule="evenodd"/><path stroke="#ffffff" stroke-width="2.0" stroke-linejoin="round" stroke-linecap="butt" d="m220.77841 388.8001c0 -12.0 -6.0 -18.0 -12.0 -24.0c-6.0 -6.0 -12.0 -12.0 -12.0 -24.0" fill-rule="evenodd"/><path fill="#000000" fill-opacity="0.0" d="m172.8009 388.79987l48.0 0" fill-rule="evenodd"/><path stroke="#ffffff" stroke-width="2.0" stroke-linejoin="round" stroke-linecap="butt" d="m172.8009 388.79987l48.0 0" fill-rule="evenodd"/><path fill="#000000" fill-opacity="0.0" d="m196.80052 52.800526l0 288.0" fill-rule="evenodd"/><path stroke="#ffffff" stroke-width="2.0" stroke-linejoin="round" stroke-linecap="butt" d="m196.80052 52.800526l0 288.0" fill-rule="evenodd"/></g></svg>