<svg version="1.1" viewBox="0.0 0.0 393.6010498687664 393.6010498687664" fill="none" stroke="none" stroke-linecap="square" stroke-miterlimit="10" xmlns:xlink="http://www.w3.org/1999/xlink" xmlns="http://www.w3.org/2000/svg"><clipPath id="p.0"><path d="m0 0l393.60104 0l0 393.60104l-393.60104 0l0 -393.60104z" clip-rule="nonzero"/></clipPath><g clip-path="url(#p.0)"><path fill="#000000" fill-opacity="0.0" d="m0 0l393.60104 0l0 393.60104l-393.60104 0z" fill-rule="evenodd"/><path fill="#000000" fill-opacity="0.0" d="m4.8005247 196.80052l0 0c0 -106.038666 85.961334 -192.0 192.0 -192.0l0 0c50.92157 0 99.75752 20.228512 135.76451 56.235497c36.00699 36.006985 56.235504 84.842926 56.235504 135.7645l0 0c0 106.03868 -85.961334 192.00002 -192.00002 192.00002l0 0c-106.038666 0 -192.0 -85.961334 -192.0 -192.00002z" fill-rule="evenodd"/><path stroke="#ffffff" stroke-width="2.0" stroke-linejoin="round" stroke-linecap="butt" d="m4.8005247 196.80052l0 0c0 -106.038666 85.961334 -192.0 192.0 -192.0l0 0c50.92157 0 99.75752 20.228512 135.76451 56.235497c36.00699 36.006985 56.235504 84.842926 56.235504 135.7645l0 0c0 106.03868 -85.961334 192.00002 -192.00002 192.00002l0 0c-106.038666 0 -192.0 -85.961334 -192.0 -192.00002z" fill-rule="evenodd"/><path fill="#000000" fill-opacity="0.0" d="m148.80052 196.80052l0 0c0 -26.509659 21.490341 -48.0 48.0 -48.0l0 0c12.730392 0 24.939377 5.057129 33.94113 14.058884c9.0017395 9.0017395 14.058868 21.210724 14.058868 33.941116l0 0c0 26.509674 -21.490326 48.0 -48.0 48.0l0 0c-26.509659 0 -48.0 -21.490326 -48.0 -48.0z" fill-rule="evenodd"/><path stroke="#ffffff" stroke-width="2.0" stroke-linejoin="round" stroke-linecap="butt" d="m148.80052 196.80052l0 0c0 -26.509659 21.490341 -48.0 48.0 -48.0l0 0c12.730392 0 24.939377 5.057129 33.94113 14.058884c9.0017395 9.0017395 14.058868 21.210724 14.058868 33.941116l0 0c0 26.509674 -21.490326 48.0 -48.0 48.0l0 0c-26.509659 0 -48.0 -21.490326 -48.0 -48.0z" fill-rule="evenodd"/><path fill="#000000" fill-opacity="0.0" d="m196.80052 148.80052c0 -24.0 -12.0 -36.0 -24.0 -48.0c-12.0 -12.0 -24.0 -24.0 -24.0 -47.999996" fill-rule="evenodd"/><path stroke="#ffffff" stroke-width="2.0" stroke-linejoin="round" stroke-linecap="butt" d="m196.80052 148.80052c0 -24.0 -12.0 -36.0 -24.0 -48.0c-12.0 -12.0 -24.0 -24.0 -24.0 -47.999996" fill-rule="evenodd"/><path fill="#000000" fill-opacity="0.0" d="m196.80052 148.80052c0 -24.0 12.0 -36.0 24.0 -48.0c12.0 -12.0 24.0 -24.0 24.0 -47.999996" fill-rule="evenodd"/><path stroke="#ffffff" stroke-width="2.0" stroke-linejoin="round" stroke-linecap="butt" d="m196.80052 148.80052c0 -24.0 12.0 -36.0 24.0 -48.0c12.0 -12.0 24.0 -24.0 24.0 -47.999996" fill-rule="evenodd"/><path fill="#000000" fill-opacity="0.0" d="m148.80052 52.800526l96.0 0" fill-rule="evenodd"/><path stroke="#ffffff" stroke-width="2.0" stroke-linejoin="round" stroke-linecap="butt" d="m148.80052 52.800526l96.0 0" fill-rule="evenodd"/><path fill="#000000" fill-opacity="0.0" d="m196.80052 244.80052c0 24.000015 -12.0 36.000015 -24.0 48.000015c-12.0 12.0 -24.0 24.0 -24.0 48.0" fill-rule="evenodd"/><path stroke="#ffffff" stroke-width="2.0" stroke-linejoin="round" stroke-linecap="butt" d="m196.80052 244.80052c0 24.000015 -12.0 36.000015 -24.0 48.000015c-12.0 12.0 -24.0 24.0 -24.0 48.0" fill-rule="evenodd"/><path fill="#000000" fill-opacity="0.0" d="m196.80052 244.80052c0 24.000015 12.0 36.000015 24.0 48.000015c12.0 12.0 24.0 24.0 24.0 48.0" fill-rule="evenodd"/><path stroke="#ffffff" stroke-width="2.0" stroke-linejoin="round" stroke-linecap="butt" d="m196.80052 244.80052c0 24.000015 12.0 36.000015 24.0 48.000015c12.0 12.0 24.0 24.0 24.0 48.0" fill-rule="evenodd"/><path fill="#000000" fill-opacity="0.0" d="m148.80052 340.80054l96.0 0" fill-rule="evenodd"/><path stroke="#ffffff" stroke-width="2.0" stroke-linejoin="round" stroke-linecap="butt" d="m148.80052 340.80054l96.0 0" fill-rule="evenodd"/><path fill="#000000" fill-opacity="0.0" d="m244.80052 196.80052c24.000015 0 36.000015 -12.0 48.000015 -24.0c12.0 -12.0 24.0 -24.0 48.0 -24.0" fill-rule="evenodd"/><path stroke="#ffffff" stroke-width="2.0" stroke-linejoin="round" stroke-linecap="butt" d="m244.80052 196.80052c24.000015 0 36.000015 -12.0 48.000015 -24.0c12.0 -12.0 24.0 -24.0 48.0 -24.0" fill-rule="evenodd"/><path fill="#000000" fill-opacity="0.0" d="m244.80052 196.80052c24.000015 0 36.000015 12.0 48.000015 24.0c12.0 12.0 24.0 24.0 48.0 24.0" fill-rule="evenodd"/><path stroke="#ffffff" stroke-width="2.0" stroke-linejoin="round" stroke-linecap="butt" d="m244.80052 196.80052c24.000015 0 36.000015 12.0 48.000015 24.0c12.0 12.0 24.0 24.0 48.0 24.0" fill-rule="evenodd"/><path fill="#000000" fill-opacity="0.0" d="m340.80054 148.80052l0 96.0" fill-rule="evenodd"/><path stroke="#ffffff" stroke-width="2.0" stroke-linejoin="round" stroke-linecap="butt" d="m340.80054 148.80052l0 96.0" fill-rule="evenodd"/><path fill="#000000" fill-opacity="0.0" d="m148.80052 196.80052c-24.0 0 -36.0 -12.0 -48.0 -24.0c-12.0 -12.0 -24.0 -24.0 -47.999996 -24.0" fill-rule="evenodd"/><path stroke="#ffffff" stroke-width="2.0" stroke-linejoin="round" stroke-linecap="butt" d="m148.80052 196.80052c-24.0 0 -36.0 -12.0 -48.0 -24.0c-12.0 -12.0 -24.0 -24.0 -47.999996 -24.0" fill-rule="evenodd"/><path fill="#000000" fill-opacity="0.0" d="m148.80052 196.80052c-24.0 0 -36.0 12.0 -48.0 24.0c-12.0 12.0 -24.0 24.0 -47.999996 24.0" fill-rule="evenodd"/><path stroke="#ffffff" stroke-width="2.0" stroke-linejoin="round" stroke-linecap="butt" d="m148.80052 196.80052c-24.0 0 -36.0 12.0 -48.0 24.0c-12.0 12.0 -24.0 24.0 -47.999996 24.0" fill-rule="evenodd"/><path fill="#000000" fill-opacity="0.0" d="m52.800526 148.80052l0 96.0" fill-rule="evenodd"/><path stroke="#ffffff" stroke-width="2.0" stroke-linejoin="round" stroke-linecap="butt" d="m52.800526 148.80052l0 96.0" fill-rule="evenodd"/><path fill="#000000" fill-opacity="0.0" d="m162.84818 162.85513l0 0c18.751587 -18.742905 49.14688 -18.735855 67.88977 0.01574707l0 0c9.000656 9.004822 14.055511 21.21634 14.052551 33.948135c-0.0029449463 12.731796 -5.0634766 24.940964 -14.068298 33.94162l0 0c-18.751587 18.74289 -49.14688 18.73584 -67.88977 -0.01574707l0 0c-18.74289 -18.751587 -18.73584 -49.146866 0.01574707 -67.889755z" fill-rule="evenodd"/><path stroke="#ffffff" stroke-width="2.0" stroke-linejoin="round" stroke-linecap="butt" d="m162.84818 162.85513l0 0c18.751587 -18.742905 49.14688 -18.735855 67.88977 0.01574707l0 0c9.000656 9.004822 14.055511 21.21634 14.052551 33.948135c-0.0029449463 12.731796 -5.0634766 24.940964 -14.068298 33.94162l0 0c-18.751587 18.74289 -49.14688 18.73584 -67.88977 -0.01574707l0 0c-18.74289 -18.751587 -18.73584 -49.146866 0.01574707 -67.889755z" fill-rule="evenodd"/><path fill="#000000" fill-opacity="0.0" d="m230.74207 162.85924c16.97638 -16.968506 16.97638 -33.93306 16.97638 -50.89763c0 -16.96457 0 -33.92914 16.97638 -50.89764" fill-rule="evenodd"/><path stroke="#ffffff" stroke-width="2.0" stroke-linejoin="round" stroke-linecap="butt" d="m230.74207 162.85924c16.97638 -16.968506 16.97638 -33.93306 16.97638 -50.89763c0 -16.96457 0 -33.92914 16.97638 -50.89764" fill-rule="evenodd"/><path fill="#000000" fill-opacity="0.0" d="m230.74207 162.85924c16.97638 -16.968506 33.95276 -16.972443 50.92914 -16.97638c16.97638 -0.0039367676 33.95276 -0.007873535 50.92914 -16.976364" fill-rule="evenodd"/><path stroke="#ffffff" stroke-width="2.0" stroke-linejoin="round" stroke-linecap="butt" d="m230.74207 162.85924c16.97638 -16.968506 33.95276 -16.972443 50.92914 -16.97638c16.97638 -0.0039367676 33.95276 -0.007873535 50.92914 -16.976364" fill-rule="evenodd"/><path fill="#000000" fill-opacity="0.0" d="m264.6832 61.035866l67.87399 67.90551" fill-rule="evenodd"/><path stroke="#ffffff" stroke-width="2.0" stroke-linejoin="round" stroke-linecap="butt" d="m264.6832 61.035866l67.87399 67.90551" fill-rule="evenodd"/><path fill="#000000" fill-opacity="0.0" d="m162.85982 230.7415c-16.97638 16.96849 -33.95276 16.972427 -50.92914 16.976364c-16.97638 0.0039367676 -33.95276 0.007888794 -50.92914 16.97638" fill-rule="evenodd"/><path stroke="#ffffff" stroke-width="2.0" stroke-linejoin="round" stroke-linecap="butt" d="m162.85982 230.7415c-16.97638 16.96849 -33.95276 16.972427 -50.92914 16.976364c-16.97638 0.0039367676 -33.95276 0.007888794 -50.92914 16.97638" fill-rule="evenodd"/><path fill="#000000" fill-opacity="0.0" d="m162.85982 230.7415c-16.97638 16.96849 -16.97638 33.93306 -16.97638 50.89763c0 16.96457 0 33.92914 -16.97638 50.897644" fill-rule="evenodd"/><path stroke="#ffffff" stroke-width="2.0" stroke-linejoin="round" stroke-linecap="butt" d="m162.85982 230.7415c-16.97638 16.96849 -16.97638 33.93306 -16.97638 50.89763c0 16.96457 0 33.92914 -16.97638 50.897644" fill-rule="evenodd"/><path fill="#000000" fill-opacity="0.0" d="m61.036434 264.68262l67.87401 67.90552" fill-rule="evenodd"/><path stroke="#ffffff" stroke-width="2.0" stroke-linejoin="round" stroke-linecap="butt" d="m61.036434 264.68262l67.87401 67.90552" fill-rule="evenodd"/><path fill="#000000" fill-opacity="0.0" d="m230.74207 230.7415c16.968506 16.976364 33.933075 16.976364 50.897644 16.976364c16.96457 0 33.92914 0 50.897614 16.97638" fill-rule="evenodd"/><path stroke="#ffffff" stroke-width="2.0" stroke-linejoin="round" stroke-linecap="butt" d="m230.74207 230.7415c16.968506 16.976364 33.933075 16.976364 50.897644 16.976364c16.96457 0 33.92914 0 50.897614 16.97638" fill-rule="evenodd"/><path fill="#000000" fill-opacity="0.0" d="m230.74207 230.7415c16.968506 16.976364 16.972443 33.952744 16.97638 50.929123c0.0039367676 16.97638 0.007873535 33.95276 16.97638 50.92914" fill-rule="evenodd"/><path stroke="#ffffff" stroke-width="2.0" stroke-linejoin="round" stroke-linecap="butt" d="m230.74207 230.7415c16.968506 16.976364 16.972443 33.952744 16.97638 50.929123c0.0039367676 16.97638 0.007873535 33.95276 16.97638 50.92914" fill-rule="evenodd"/><path fill="#000000" fill-opacity="0.0" d="m332.56543 264.68262l-67.90552 67.87402" fill-rule="evenodd"/><path stroke="#ffffff" stroke-width="2.0" stroke-linejoin="round" stroke-linecap="butt" d="m332.56543 264.68262l-67.90552 67.87402" fill-rule="evenodd"/><path fill="#000000" fill-opacity="0.0" d="m162.85982 162.85924c-16.968506 -16.97638 -16.972443 -33.952744 -16.97638 -50.92913c-0.0039367676 -16.97638 -0.007873535 -33.95275 -16.97638 -50.92913" fill-rule="evenodd"/><path stroke="#ffffff" stroke-width="2.0" stroke-linejoin="round" stroke-linecap="butt" d="m162.85982 162.85924c-16.968506 -16.97638 -16.972443 -33.952744 -16.97638 -50.92913c-0.0039367676 -16.97638 -0.007873535 -33.95275 -16.97638 -50.92913" fill-rule="evenodd"/><path fill="#000000" fill-opacity="0.0" d="m162.85982 162.85924c-16.968506 -16.97638 -33.933075 -16.97638 -50.897644 -16.97638c-16.96457 0 -33.92914 0 -50.89764 -16.976364" fill-rule="evenodd"/><path stroke="#ffffff" stroke-width="2.0" stroke-linejoin="round" stroke-linecap="butt" d="m162.85982 162.85924c-16.968506 -16.97638 -33.933075 -16.97638 -50.897644 -16.97638c-16.96457 0 -33.92914 0 -50.89764 -16.976364" fill-rule="evenodd"/><path fill="#000000" fill-opacity="0.0" d="m128.91869 61.035866l-67.90552 67.874016" fill-rule="evenodd"/><path stroke="#ffffff" stroke-width="2.0" stroke-linejoin="round" stroke-linecap="butt" d="m128.91869 61.035866l-67.90552 67.874016" fill-rule="evenodd"/></g></svg>