<svg version="1.1" viewBox="0.0 0.0 393.6010498687664 393.6010498687664" fill="none" stroke="none" stroke-linecap="square" stroke-miterlimit="10" xmlns:xlink="http://www.w3.org/1999/xlink" xmlns="http://www.w3.org/2000/svg"><clipPath id="p.0"><path d="m0 0l393.60104 0l0 393.60104l-393.60104 0l0 -393.60104z" clip-rule="nonzero"/></clipPath><g clip-path="url(#p.0)"><path fill="#000000" fill-opacity="0.0" d="m0 0l393.60104 0l0 393.60104l-393.60104 0z" fill-rule="evenodd"/><path fill="#ffffff" d="m196.80074 292.8047l0 0c26.509674 0 48.0 21.490326 48.0 48.0l0 0c0 12.730377 -5.057129 24.939362 -14.058868 33.94113c-9.0017395 9.0017395 -21.21074 14.058868 -33.94113 14.058868l0 0c-26.509659 0 -48.0 -21.490326 -48.0 -48.0l0 0c0 -26.509674 21.490341 -48.0 48.0 -48.0z" fill-rule="evenodd"/><path fill="#171717" d="m220.80074 297.60782l0 0c0 2.65271 -10.745163 4.8031616 -24.0 4.8031616l0 0c-13.254822 0 -24.0 -2.1504517 -24.0 -4.8031616l0 0c0 -2.65271 10.745178 -4.803131 24.0 -4.803131l0 0c13.254837 0 24.0 2.1504211 24.0 4.803131z" fill-rule="evenodd"/><path stroke="#171717" stroke-width="1.0" stroke-linejoin="round" stroke-linecap="butt" d="m220.80074 297.60782l0 0c0 2.65271 -10.745163 4.8031616 -24.0 4.8031616l0 0c-13.254822 0 -24.0 -2.1504517 -24.0 -4.8031616l0 0c0 -2.65271 10.745178 -4.803131 24.0 -4.803131l0 0c13.254837 0 24.0 2.1504211 24.0 4.803131z" fill-rule="evenodd"/><path fill="#000000" fill-opacity="0.0" d="m196.80093 104.009926c0 -24.803146 -5.0551147 -37.20472 -10.1102295 -49.606297c-5.05513 -12.401573 -10.110245 -24.80315 -10.110245 -49.6063" fill-rule="evenodd"/><path stroke="#ffffff" stroke-width="2.0" stroke-linejoin="round" stroke-linecap="butt" d="m196.80093 104.009926c0 -24.803146 -5.0551147 -37.20472 -10.1102295 -49.606297c-5.05513 -12.401573 -10.110245 -24.80315 -10.110245 -49.6063" fill-rule="evenodd"/><path fill="#000000" fill-opacity="0.0" d="m196.80093 104.009926c0 -24.803146 5.0551147 -37.20472 10.110245 -49.606297c5.0551147 -12.401573 10.1102295 -24.80315 10.1102295 -49.6063" fill-rule="evenodd"/><path stroke="#ffffff" stroke-width="2.0" stroke-linejoin="round" stroke-linecap="butt" d="m196.80093 104.009926c0 -24.803146 5.0551147 -37.20472 10.110245 -49.606297c5.0551147 -12.401573 10.1102295 -24.80315 10.1102295 -49.6063" fill-rule="evenodd"/><path fill="#000000" fill-opacity="0.0" d="m196.80093 104.009926c0 24.803154 -5.0551147 37.204735 -10.1102295 49.6063c-5.05513 12.401581 -10.110245 24.803146 -10.110245 49.606308" fill-rule="evenodd"/><path stroke="#ffffff" stroke-width="2.0" stroke-linejoin="round" stroke-linecap="butt" d="m196.80093 104.009926c0 24.803154 -5.0551147 37.204735 -10.1102295 49.6063c-5.05513 12.401581 -10.110245 24.803146 -10.110245 49.606308" fill-rule="evenodd"/><path fill="#000000" fill-opacity="0.0" d="m196.80093 104.009926c0 24.803154 5.0551147 37.204735 10.110245 49.6063c5.0551147 12.401581 10.1102295 24.803146 10.1102295 49.606308" fill-rule="evenodd"/><path stroke="#ffffff" stroke-width="2.0" stroke-linejoin="round" stroke-linecap="butt" d="m196.80093 104.009926c0 24.803154 5.0551147 37.204735 10.110245 49.6063c5.0551147 12.401581 10.1102295 24.803146 10.1102295 49.606308" fill-rule="evenodd"/><path fill="#000000" fill-opacity="0.0" d="m196.80093 302.40994c0 -24.803162 -5.0551147 -37.204742 -10.1102295 -49.606308c-5.05513 -12.401581 -10.110245 -24.803162 -10.110245 -49.606308" fill-rule="evenodd"/><path stroke="#ffffff" stroke-width="2.0" stroke-linejoin="round" stroke-linecap="butt" d="m196.80093 302.40994c0 -24.803162 -5.0551147 -37.204742 -10.1102295 -49.606308c-5.05513 -12.401581 -10.110245 -24.803162 -10.110245 -49.606308" fill-rule="evenodd"/><path fill="#000000" fill-opacity="0.0" d="m196.80093 302.40994c0 -24.803162 5.0551147 -37.204742 10.110245 -49.606308c5.0551147 -12.401581 10.1102295 -24.803162 10.1102295 -49.606308" fill-rule="evenodd"/><path stroke="#ffffff" stroke-width="2.0" stroke-linejoin="round" stroke-linecap="butt" d="m196.80093 302.40994c0 -24.803162 5.0551147 -37.204742 10.110245 -49.606308c5.0551147 -12.401581 10.1102295 -24.803162 10.1102295 -49.606308" fill-rule="evenodd"/><path fill="#000000" fill-opacity="0.0" d="m193.88272 300.60904l-84.8504 -87.68503" fill-rule="evenodd"/><path stroke="#ffffff" stroke-width="2.0" stroke-linejoin="round" stroke-linecap="butt" stroke-dasharray="16.0,6.0" d="m193.88272 300.60904l-84.8504 -87.68503" fill-rule="evenodd"/><path fill="#000000" fill-opacity="0.0" d="m196.7997 302.40915l-67.1181 -102.80316" fill-rule="evenodd"/><path stroke="#ffffff" stroke-width="2.0" stroke-linejoin="round" stroke-linecap="butt" stroke-dasharray="16.0,6.0" d="m196.7997 302.40915l-67.1181 -102.80316" fill-rule="evenodd"/><path fill="#000000" fill-opacity="0.0" d="m193.88138 300.6102l-48.818893 -113.29132" fill-rule="evenodd"/><path stroke="#ffffff" stroke-width="2.0" stroke-linejoin="round" stroke-linecap="butt" stroke-dasharray="16.0,6.0" d="m193.88138 300.6102l-48.818893 -113.29132" fill-rule="evenodd"/><path fill="#000000" fill-opacity="0.0" d="m199.71834 299.67987l84.85039 -87.6759" fill-rule="evenodd"/><path stroke="#ffffff" stroke-width="2.0" stroke-linejoin="round" stroke-linecap="butt" stroke-dasharray="16.0,6.0" d="m199.71834 299.67987l84.85039 -87.6759" fill-rule="evenodd"/><path fill="#000000" fill-opacity="0.0" d="m196.80135 301.4799l67.11812 -102.80928" fill-rule="evenodd"/><path stroke="#ffffff" stroke-width="2.0" stroke-linejoin="round" stroke-linecap="butt" stroke-dasharray="16.0,6.0" d="m196.80135 301.4799l67.11812 -102.80928" fill-rule="evenodd"/><path fill="#000000" fill-opacity="0.0" d="m199.71968 299.68103l48.818893 -113.28873" fill-rule="evenodd"/><path stroke="#ffffff" stroke-width="2.0" stroke-linejoin="round" stroke-linecap="butt" stroke-dasharray="16.0,6.0" d="m199.71968 299.68103l48.818893 -113.28873" fill-rule="evenodd"/></g></svg>