<svg version="1.1" viewBox="0.0 0.0 393.6010498687664 393.6010498687664" fill="none" stroke="none" stroke-linecap="square" stroke-miterlimit="10" xmlns:xlink="http://www.w3.org/1999/xlink" xmlns="http://www.w3.org/2000/svg"><clipPath id="p.0"><path d="m0 0l393.60104 0l0 393.60104l-393.60104 0l0 -393.60104z" clip-rule="nonzero"/></clipPath><g clip-path="url(#p.0)"><path fill="#000000" fill-opacity="0.0" d="m0 0l393.60104 0l0 393.60104l-393.60104 0z" fill-rule="evenodd"/><path fill="#000000" fill-opacity="0.0" d="m52.800526 260.80054l0 0c0 -53.01935 42.980663 -96.000015 96.0 -96.000015l0 0c25.460785 0 49.87877 10.114258 67.88225 28.117752c18.003494 18.003494 28.117752 42.421463 28.117752 67.88226l0 0c0 53.019318 -42.980667 96.0 -96.0 96.0l0 0c-53.019333 0 -96.0 -42.980682 -96.0 -96.0z" fill-rule="evenodd"/><path stroke="#ffffff" stroke-width="2.0" stroke-linejoin="round" stroke-linecap="butt" d="m52.800526 260.80054l0 0c0 -53.01935 42.980663 -96.000015 96.0 -96.000015l0 0c25.460785 0 49.87877 10.114258 67.88225 28.117752c18.003494 18.003494 28.117752 42.421463 28.117752 67.88226l0 0c0 53.019318 -42.980667 96.0 -96.0 96.0l0 0c-53.019333 0 -96.0 -42.980682 -96.0 -96.0z" fill-rule="evenodd"/><path fill="#000000" fill-opacity="0.0" d="m84.80052 260.80054l0 0c0 -35.346237 28.653778 -64.000015 64.0 -64.000015l0 0c16.973862 0 33.252502 6.7428436 45.254837 18.745163c12.002335 12.002335 18.745163 28.28099 18.745163 45.254852l0 0c0 35.346222 -28.653778 64.0 -64.0 64.0l0 0c-35.346222 0 -64.0 -28.653778 -64.0 -64.0z" fill-rule="evenodd"/><path stroke="#ffffff" stroke-width="2.0" stroke-linejoin="round" stroke-linecap="butt" d="m84.80052 260.80054l0 0c0 -35.346237 28.653778 -64.000015 64.0 -64.000015l0 0c16.973862 0 33.252502 6.7428436 45.254837 18.745163c12.002335 12.002335 18.745163 28.28099 18.745163 45.254852l0 0c0 35.346222 -28.653778 64.0 -64.0 64.0l0 0c-35.346222 0 -64.0 -28.653778 -64.0 -64.0z" fill-rule="evenodd"/><path fill="#000000" fill-opacity="0.0" d="m116.80052 260.80054l0 0c0 -17.673126 14.326889 -32.000015 32.0 -32.000015l0 0c8.486923 0 16.626251 3.3714294 22.627426 9.372589c6.0011597 6.0011597 9.372574 14.140488 9.372574 22.627426l0 0c0 17.673096 -14.326889 32.0 -32.0 32.0l0 0c-17.673111 0 -32.0 -14.326904 -32.0 -32.0z" fill-rule="evenodd"/><path stroke="#ffffff" stroke-width="2.0" stroke-linejoin="round" stroke-linecap="butt" d="m116.80052 260.80054l0 0c0 -17.673126 14.326889 -32.000015 32.0 -32.000015l0 0c8.486923 0 16.626251 3.3714294 22.627426 9.372589c6.0011597 6.0011597 9.372574 14.140488 9.372574 22.627426l0 0c0 17.673096 -14.326889 32.0 -32.0 32.0l0 0c-17.673111 0 -32.0 -14.326904 -32.0 -32.0z" fill-rule="evenodd"/><path fill="#000000" fill-opacity="0.0" d="m148.80052 4.8005247l0 224.0" fill-rule="evenodd"/><path stroke="#ffffff" stroke-width="2.0" stroke-linejoin="round" stroke-linecap="butt" d="m148.80052 4.8005247l0 224.0" fill-rule="evenodd"/><path fill="#000000" fill-opacity="0.0" d="m307.20746 102.39358l-135.77951 135.77954" fill-rule="evenodd"/><path stroke="#ffffff" stroke-width="2.0" stroke-linejoin="round" stroke-linecap="butt" d="m307.20746 102.39358l-135.77951 135.77954" fill-rule="evenodd"/><path fill="#000000" fill-opacity="0.0" d="m340.80054 260.80054l-160.00002 0" fill-rule="evenodd"/><path stroke="#ffffff" stroke-width="2.0" stroke-linejoin="round" stroke-linecap="butt" d="m340.80054 260.80054l-160.00002 0" fill-rule="evenodd"/><path fill="#000000" fill-opacity="0.0" d="m171.42795 283.42795l90.48819 90.48819" fill-rule="evenodd"/><path stroke="#ffffff" stroke-width="2.0" stroke-linejoin="round" stroke-linecap="butt" d="m171.42795 283.42795l90.48819 90.48819" fill-rule="evenodd"/><path fill="#000000" fill-opacity="0.0" d="m148.80052 292.80054l0 96.0" fill-rule="evenodd"/><path stroke="#ffffff" stroke-width="2.0" stroke-linejoin="round" stroke-linecap="butt" d="m148.80052 292.80054l0 96.0" fill-rule="evenodd"/><path fill="#000000" fill-opacity="0.0" d="m126.17311 283.42795l-45.259842 45.259827" fill-rule="evenodd"/><path stroke="#ffffff" stroke-width="2.0" stroke-linejoin="round" stroke-linecap="butt" d="m126.17311 283.42795l-45.259842 45.259827" fill-rule="evenodd"/><path fill="#000000" fill-opacity="0.0" d="m116.80052 260.80054l-32.0 0" fill-rule="evenodd"/><path stroke="#ffffff" stroke-width="2.0" stroke-linejoin="round" stroke-linecap="butt" d="m116.80052 260.80054l-32.0 0" fill-rule="evenodd"/></g></svg>