<svg version="1.1" viewBox="0.0 0.0 393.6010498687664 393.6010498687664" fill="none" stroke="none" stroke-linecap="square" stroke-miterlimit="10" xmlns:xlink="http://www.w3.org/1999/xlink" xmlns="http://www.w3.org/2000/svg"><clipPath id="p.0"><path d="m0 0l393.60104 0l0 393.60104l-393.60104 0l0 -393.60104z" clip-rule="nonzero"/></clipPath><g clip-path="url(#p.0)"><path fill="#000000" fill-opacity="0.0" d="m0 0l393.60104 0l0 393.60104l-393.60104 0z" fill-rule="evenodd"/><path fill="#ffffff" d="m340.79468 292.80167l0 96.0l-278.61417 0l0 -96.0z" fill-rule="evenodd"/><path fill="#171717" d="m344.3701 313.0551l0 55.496063l-215.3071 0l0 -55.496063z" fill-rule="evenodd"/><path stroke="#171717" stroke-width="1.0" stroke-linejoin="round" stroke-linecap="butt" d="m344.3701 313.0551l0 55.496063l-215.3071 0l0 -55.496063z" fill-rule="evenodd"/><path fill="#ffffff" d="m62.192467 292.80167l0 96.0l-9.385826 0l0 -96.0z" fill-rule="evenodd"/><path fill="#ffffff" d="m129.04512 328.3006l190.99211 0l0 25.039368l-190.99211 0z" fill-rule="evenodd"/><path fill="#ffffff" d="m320.03943 328.3321l20.75589 12.48819l-20.75589 12.48819z" fill-rule="evenodd"/><path fill="#ffffff" d="m129.04445 347.33923l106.64566 0l-106.64566 21.228363z" fill-rule="evenodd"/><path fill="#ffffff" d="m129.04445 334.25397l106.64566 0l-106.64566 -21.228363z" fill-rule="evenodd"/><path stroke="#ffffff" stroke-width="1.0" stroke-linejoin="round" stroke-linecap="butt" d="m129.04445 334.25397l106.64566 0l-106.64566 -21.228363z" fill-rule="evenodd"/><path fill="#171717" d="m43.194225 269.91077l307.21262 0l0 69.35434l-307.21262 0z" fill-rule="evenodd"/><path stroke="#171717" stroke-width="1.0" stroke-linejoin="round" stroke-linecap="butt" d="m43.194225 269.91077l307.21262 0l0 69.35434l-307.21262 0z" fill-rule="evenodd"/><path fill="#ffffff" d="m52.801838 271.44714l70.39371 0l0 -9.606293l-70.39371 0z" fill-rule="evenodd"/><path stroke="#ffffff" stroke-width="1.0" stroke-linejoin="round" stroke-linecap="butt" d="m52.801838 271.44714l70.39371 0l0 -9.606293l-70.39371 0z" fill-rule="evenodd"/><path fill="#ffffff" d="m161.60252 271.44714l70.39369 0l0 -9.606293l-70.39369 0z" fill-rule="evenodd"/><path stroke="#ffffff" stroke-width="1.0" stroke-linejoin="round" stroke-linecap="butt" d="m161.60252 271.44714l70.39369 0l0 -9.606293l-70.39369 0z" fill-rule="evenodd"/><path fill="#ffffff" d="m270.4032 271.44714l70.39371 0l0 -9.606293l-70.39371 0z" fill-rule="evenodd"/><path stroke="#ffffff" stroke-width="1.0" stroke-linejoin="round" stroke-linecap="butt" d="m270.4032 271.44714l70.39371 0l0 -9.606293l-70.39371 0z" fill-rule="evenodd"/><path fill="#ffffff" d="m173.33563 299.88977l46.929123 0l0 -9.606293l-46.929123 0z" fill-rule="evenodd"/><path stroke="#ffffff" stroke-width="1.0" stroke-linejoin="round" stroke-linecap="butt" d="m173.33563 299.88977l46.929123 0l0 -9.606293l-46.929123 0z" fill-rule="evenodd"/><path fill="#ffffff" d="m293.86942 299.88977l46.92914 0l0 -9.606293l-46.92914 0z" fill-rule="evenodd"/><path stroke="#ffffff" stroke-width="1.0" stroke-linejoin="round" stroke-linecap="butt" d="m293.86942 299.88977l46.92914 0l0 -9.606293l-46.92914 0z" fill-rule="evenodd"/><path fill="#ffffff" d="m52.801838 299.88977l46.929134 0l0 -9.606293l-46.929134 0z" fill-rule="evenodd"/><path stroke="#ffffff" stroke-width="1.0" stroke-linejoin="round" stroke-linecap="butt" d="m52.801838 299.88977l46.929134 0l0 -9.606293l-46.929134 0z" fill-rule="evenodd"/><path fill="#ffffff" d="m113.06873 299.88977l46.92913 0l0 -9.606293l-46.92913 0z" fill-rule="evenodd"/><path stroke="#ffffff" stroke-width="1.0" stroke-linejoin="round" stroke-linecap="butt" d="m113.06873 299.88977l46.92913 0l0 -9.606293l-46.92913 0z" fill-rule="evenodd"/><path fill="#ffffff" d="m233.60252 299.88977l46.929123 0l0 -9.606293l-46.929123 0z" fill-rule="evenodd"/><path stroke="#ffffff" stroke-width="1.0" stroke-linejoin="round" stroke-linecap="butt" d="m233.60252 299.88977l46.929123 0l0 -9.606293l-46.929123 0z" fill-rule="evenodd"/><path fill="#ffffff" d="m185.06873 328.33334l23.46457 0l0 -9.606323l-23.46457 0z" fill-rule="evenodd"/><path stroke="#ffffff" stroke-width="1.0" stroke-linejoin="round" stroke-linecap="butt" d="m185.06873 328.33334l23.46457 0l0 -9.606323l-23.46457 0z" fill-rule="evenodd"/><path fill="#ffffff" d="m317.33563 328.33334l23.46457 0l0 -9.606323l-23.46457 0z" fill-rule="evenodd"/><path stroke="#ffffff" stroke-width="1.0" stroke-linejoin="round" stroke-linecap="butt" d="m317.33563 328.33334l23.46457 0l0 -9.606323l-23.46457 0z" fill-rule="evenodd"/><path fill="#ffffff" d="m52.801838 328.33334l23.464565 0l0 -9.606323l-23.464565 0z" fill-rule="evenodd"/><path stroke="#ffffff" stroke-width="1.0" stroke-linejoin="round" stroke-linecap="butt" d="m52.801838 328.33334l23.464565 0l0 -9.606323l-23.464565 0z" fill-rule="evenodd"/><path fill="#ffffff" d="m251.20218 328.33334l23.46457 0l0 -9.606323l-23.46457 0z" fill-rule="evenodd"/><path stroke="#ffffff" stroke-width="1.0" stroke-linejoin="round" stroke-linecap="butt" d="m251.20218 328.33334l23.46457 0l0 -9.606323l-23.46457 0z" fill-rule="evenodd"/><path fill="#ffffff" d="m118.93529 328.33334l23.46457 0l0 -9.606323l-23.46457 0z" fill-rule="evenodd"/><path stroke="#ffffff" stroke-width="1.0" stroke-linejoin="round" stroke-linecap="butt" d="m118.93529 328.33334l23.46457 0l0 -9.606323l-23.46457 0z" fill-rule="evenodd"/><path fill="#ffffff" d="m284.2689 328.33334l23.46457 0l0 -9.606323l-23.46457 0z" fill-rule="evenodd"/><path stroke="#ffffff" stroke-width="1.0" stroke-linejoin="round" stroke-linecap="butt" d="m284.2689 328.33334l23.46457 0l0 -9.606323l-23.46457 0z" fill-rule="evenodd"/><path fill="#ffffff" d="m218.13545 328.33334l23.46457 0l0 -9.606323l-23.46457 0z" fill-rule="evenodd"/><path stroke="#ffffff" stroke-width="1.0" stroke-linejoin="round" stroke-linecap="butt" d="m218.13545 328.33334l23.46457 0l0 -9.606323l-23.46457 0z" fill-rule="evenodd"/><path fill="#ffffff" d="m152.00201 328.33334l23.464554 0l0 -9.606323l-23.464554 0z" fill-rule="evenodd"/><path stroke="#ffffff" stroke-width="1.0" stroke-linejoin="round" stroke-linecap="butt" d="m152.00201 328.33334l23.464554 0l0 -9.606323l-23.464554 0z" fill-rule="evenodd"/><path fill="#ffffff" d="m85.86856 328.33334l23.46457 0l0 -9.606323l-23.46457 0z" fill-rule="evenodd"/><path stroke="#ffffff" stroke-width="1.0" stroke-linejoin="round" stroke-linecap="butt" d="m85.86856 328.33334l23.46457 0l0 -9.606323l-23.46457 0z" fill-rule="evenodd"/><path fill="#ffffff" d="m171.39896 4.8005247l12.700775 152.31496l25.40158 0l12.70079 -152.31496z" fill-rule="evenodd"/><path stroke="#ffffff" stroke-width="1.0" stroke-linejoin="round" stroke-linecap="butt" d="m171.39896 4.8005247l12.700775 152.31496l25.40158 0l12.70079 -152.31496z" fill-rule="evenodd"/><path fill="#000000" fill-opacity="0.0" d="m196.80052 157.11548l-108.7874 104.72443" fill-rule="evenodd"/><path stroke="#ffffff" stroke-width="3.0" stroke-linejoin="round" stroke-linecap="butt" d="m196.80052 157.11548l-108.7874 104.72443" fill-rule="evenodd"/><path fill="#000000" fill-opacity="0.0" d="m196.80052 157.11548l0 104.72443" fill-rule="evenodd"/><path stroke="#ffffff" stroke-width="3.0" stroke-linejoin="round" stroke-linecap="butt" d="m196.80052 157.11548l0 104.72443" fill-rule="evenodd"/><path fill="#000000" fill-opacity="0.0" d="m196.80052 157.11548l108.7874 104.72443" fill-rule="evenodd"/><path stroke="#ffffff" stroke-width="3.0" stroke-linejoin="round" stroke-linecap="butt" d="m196.80052 157.11548l108.7874 104.72443" fill-rule="evenodd"/></g></svg>