<svg version="1.1" viewBox="0.0 0.0 393.6010498687664 393.6010498687664" fill="none" stroke="none" stroke-linecap="square" stroke-miterlimit="10" xmlns:xlink="http://www.w3.org/1999/xlink" xmlns="http://www.w3.org/2000/svg"><clipPath id="p.0"><path d="m0 0l393.60104 0l0 393.60104l-393.60104 0l0 -393.60104z" clip-rule="nonzero"/></clipPath><g clip-path="url(#p.0)"><path fill="#000000" fill-opacity="0.0" d="m0 0l393.60104 0l0 393.60104l-393.60104 0z" fill-rule="evenodd"/><path fill="#000000" fill-opacity="0.0" d="m292.9848 388.79822l0 -191.99998" fill-rule="evenodd"/><path stroke="#ffffff" stroke-width="2.0" stroke-linejoin="round" stroke-linecap="butt" d="m292.9848 388.79822l0 -191.99998" fill-rule="evenodd"/><path fill="#000000" fill-opacity="0.0" d="m196.81158 292.79947l0 0c-25.50673 0 -49.968765 -10.114258 -68.004745 -28.117767c-18.03598 -18.003479 -28.168488 -42.421463 -28.168488 -67.88225l96.17323 0z" fill-rule="evenodd"/><path fill="#000000" fill-opacity="0.0" d="m196.81158 292.79947l0 0c-25.50673 0 -49.968765 -10.114258 -68.004745 -28.117767c-18.03598 -18.003479 -28.168488 -42.421463 -28.168488 -67.88225" fill-rule="evenodd"/><path stroke="#ffffff" stroke-width="2.0" stroke-linejoin="round" stroke-linecap="butt" d="m196.81158 292.79947l0 0c-25.50673 0 -49.968765 -10.114258 -68.004745 -28.117767c-18.03598 -18.003479 -28.168488 -42.421463 -28.168488 -67.88225" fill-rule="evenodd"/><path fill="#000000" fill-opacity="0.0" d="m196.3315 4.7992125l-95.71653 288.0" fill-rule="evenodd"/><path stroke="#ffffff" stroke-width="2.0" stroke-linejoin="round" stroke-linecap="butt" d="m196.3315 4.7992125l-95.71653 288.0" fill-rule="evenodd"/><path fill="#000000" fill-opacity="0.0" d="m100.624756 4.8001966l0 192.0" fill-rule="evenodd"/><path stroke="#ffffff" stroke-width="2.0" stroke-linejoin="round" stroke-linecap="butt" d="m100.624756 4.8001966l0 192.0" fill-rule="evenodd"/><path fill="#000000" fill-opacity="0.0" d="m196.79799 100.798965l0 0c25.50673 0 49.968765 10.114258 68.004745 28.117752c18.03598 18.003494 28.168488 42.421463 28.168488 67.88225l-96.17323 0z" fill-rule="evenodd"/><path fill="#000000" fill-opacity="0.0" d="m196.79799 100.798965l0 0c25.50673 0 49.968765 10.114258 68.004745 28.117752c18.03598 18.003494 28.168488 42.421463 28.168488 67.88225" fill-rule="evenodd"/><path stroke="#ffffff" stroke-width="2.0" stroke-linejoin="round" stroke-linecap="butt" d="m196.79799 100.798965l0 0c25.50673 0 49.968765 10.114258 68.004745 28.117752c18.03598 18.003494 28.168488 42.421463 28.168488 67.88225" fill-rule="evenodd"/><path fill="#000000" fill-opacity="0.0" d="m292.03815 100.79995l-95.71652 288.0" fill-rule="evenodd"/><path stroke="#ffffff" stroke-width="2.0" stroke-linejoin="round" stroke-linecap="butt" d="m292.03815 100.79995l-95.71652 288.0" fill-rule="evenodd"/><path fill="#000000" fill-opacity="0.0" d="m160.73721 196.7998l0 0c0 -19.882263 16.14595 -36.0 36.06299 -36.0l0 0c9.564499 0 18.737274 3.7928314 25.500397 10.544144c6.7631226 6.7513123 10.562607 15.908051 10.562607 25.455856l0 0c0 19.882248 -16.14595 36.0 -36.063004 36.0l0 0c-19.917038 0 -36.06299 -16.117752 -36.06299 -36.0z" fill-rule="evenodd"/><path stroke="#ffffff" stroke-width="2.0" stroke-linejoin="round" stroke-linecap="butt" d="m160.73721 196.7998l0 0c0 -19.882263 16.14595 -36.0 36.06299 -36.0l0 0c9.564499 0 18.737274 3.7928314 25.500397 10.544144c6.7631226 6.7513123 10.562607 15.908051 10.562607 25.455856l0 0c0 19.882248 -16.14595 36.0 -36.063004 36.0l0 0c-19.917038 0 -36.06299 -16.117752 -36.06299 -36.0z" fill-rule="evenodd"/><path fill="#000000" fill-opacity="0.0" d="m220.84976 40.800198l0 0c0 -19.882252 16.14595 -36.0 36.06299 -36.0l0 0c9.564514 0 18.737274 3.7928467 25.500397 10.544156c6.7631226 6.7513103 10.562592 15.908051 10.562592 25.455845l0 0c0 19.882252 -16.145935 35.999996 -36.06299 35.999996l0 0c-19.917038 0 -36.06299 -16.117744 -36.06299 -35.999996z" fill-rule="evenodd"/><path stroke="#ffffff" stroke-width="2.0" stroke-linejoin="round" stroke-linecap="butt" d="m220.84976 40.800198l0 0c0 -19.882252 16.14595 -36.0 36.06299 -36.0l0 0c9.564514 0 18.737274 3.7928467 25.500397 10.544156c6.7631226 6.7513103 10.562592 15.908051 10.562592 25.455845l0 0c0 19.882252 -16.145935 35.999996 -36.06299 35.999996l0 0c-19.917038 0 -36.06299 -16.117744 -36.06299 -35.999996z" fill-rule="evenodd"/><path fill="#000000" fill-opacity="0.0" d="m100.62467 352.7994l0 0c0 -19.882263 16.14595 -36.0 36.062996 -36.0l0 0c9.564499 0 18.737259 3.7928467 25.500381 10.544159c6.7631226 6.7512817 10.562607 15.908051 10.562607 25.455841l0 0c0 19.882233 -16.14595 36.0 -36.06299 36.0l0 0c-19.917046 0 -36.062996 -16.117767 -36.062996 -36.0z" fill-rule="evenodd"/><path stroke="#ffffff" stroke-width="2.0" stroke-linejoin="round" stroke-linecap="butt" d="m100.62467 352.7994l0 0c0 -19.882263 16.14595 -36.0 36.062996 -36.0l0 0c9.564499 0 18.737259 3.7928467 25.500381 10.544159c6.7631226 6.7512817 10.562607 15.908051 10.562607 25.455841l0 0c0 19.882233 -16.14595 36.0 -36.06299 36.0l0 0c-19.917046 0 -36.062996 -16.117767 -36.062996 -36.0z" fill-rule="evenodd"/></g></svg>