<svg version="1.1" viewBox="0.0 0.0 393.6010498687664 393.6010498687664" fill="none" stroke="none" stroke-linecap="square" stroke-miterlimit="10" xmlns:xlink="http://www.w3.org/1999/xlink" xmlns="http://www.w3.org/2000/svg"><clipPath id="p.0"><path d="m0 0l393.60104 0l0 393.60104l-393.60104 0l0 -393.60104z" clip-rule="nonzero"/></clipPath><g clip-path="url(#p.0)"><path fill="#000000" fill-opacity="0.0" d="m0 0l393.60104 0l0 393.60104l-393.60104 0z" fill-rule="evenodd"/><path fill="#000000" fill-opacity="0.0" d="m196.80016 76.80083l0 0c66.02196 0 119.54332 53.72583 119.54332 120.0l0 0c0 31.825989 -12.594727 62.348465 -35.013428 84.85283c-22.418732 22.504364 -52.825043 35.147186 -84.52989 35.147186l0 0c-66.02194 0 -119.54331 -53.72583 -119.54331 -120.000015l0 0c0 -66.27417 53.52137 -120.0 119.54331 -120.0z" fill-rule="evenodd"/><path stroke="#ffffff" stroke-width="2.0" stroke-linejoin="round" stroke-linecap="butt" d="m196.80016 76.80083l0 0c66.02196 0 119.54332 53.72583 119.54332 120.0l0 0c0 31.825989 -12.594727 62.348465 -35.013428 84.85283c-22.418732 22.504364 -52.825043 35.147186 -84.52989 35.147186l0 0c-66.02194 0 -119.54331 -53.72583 -119.54331 -120.000015l0 0c0 -66.27417 53.52137 -120.0 119.54331 -120.0z" fill-rule="evenodd"/><path fill="#171717" d="m225.5154 388.80084l-57.417313 0l0 -384.0l57.417313 0z" fill-rule="evenodd"/><path stroke="#171717" stroke-width="1.0" stroke-linejoin="round" stroke-linecap="butt" d="m225.5154 388.80084l-57.417313 0l0 -384.0l57.417313 0z" fill-rule="evenodd"/><path fill="#000000" fill-opacity="0.0" d="m196.81044 388.76935l0 -127.968506" fill-rule="evenodd"/><path stroke="#ffffff" stroke-width="2.0" stroke-linejoin="round" stroke-linecap="butt" d="m196.81044 388.76935l0 -127.968506" fill-rule="evenodd"/><path fill="#000000" fill-opacity="0.0" d="m196.81044 4.832325l0 127.968506" fill-rule="evenodd"/><path stroke="#ffffff" stroke-width="2.0" stroke-linejoin="round" stroke-linecap="butt" d="m196.81044 4.832325l0 127.968506" fill-rule="evenodd"/><path fill="#000000" fill-opacity="0.0" d="m247.86304 183.99454l0 0c7.0622864 0 12.787415 5.739212 12.787415 12.818893l0 0c0 3.3997803 -1.3472595 6.660324 -3.7453613 9.064331c-2.3981018 2.404007 -5.6506195 3.7545624 -9.042053 3.7545624l0 0c-7.0622864 0 -12.787399 -5.739212 -12.787399 -12.818893l0 0c0 -7.0796814 5.725113 -12.818893 12.787399 -12.818893z" fill-rule="evenodd"/><path stroke="#ffffff" stroke-width="2.0" stroke-linejoin="round" stroke-linecap="butt" d="m247.86304 183.99454l0 0c7.0622864 0 12.787415 5.739212 12.787415 12.818893l0 0c0 3.3997803 -1.3472595 6.660324 -3.7453613 9.064331c-2.3981018 2.404007 -5.6506195 3.7545624 -9.042053 3.7545624l0 0c-7.0622864 0 -12.787399 -5.739212 -12.787399 -12.818893l0 0c0 -7.0796814 5.725113 -12.818893 12.787399 -12.818893z" fill-rule="evenodd"/><path fill="#000000" fill-opacity="0.0" d="m145.7358 183.99454l0 0c7.0622864 0 12.787399 5.739212 12.787399 12.818893l0 0c0 3.3997803 -1.347229 6.660324 -3.7453308 9.064331c-2.398117 2.404007 -5.650635 3.7545624 -9.0420685 3.7545624l0 0c-7.0622864 0 -12.787399 -5.739212 -12.787399 -12.818893l0 0c0 -7.0796814 5.725113 -12.818893 12.787399 -12.818893z" fill-rule="evenodd"/><path stroke="#ffffff" stroke-width="2.0" stroke-linejoin="round" stroke-linecap="butt" d="m145.7358 183.99454l0 0c7.0622864 0 12.787399 5.739212 12.787399 12.818893l0 0c0 3.3997803 -1.347229 6.660324 -3.7453308 9.064331c-2.398117 2.404007 -5.650635 3.7545624 -9.0420685 3.7545624l0 0c-7.0622864 0 -12.787399 -5.739212 -12.787399 -12.818893l0 0c0 -7.0796814 5.725113 -12.818893 12.787399 -12.818893z" fill-rule="evenodd"/><path fill="#000000" fill-opacity="0.0" d="m196.79942 235.17773l0 0c7.0622864 0 12.787399 5.7392273 12.787399 12.818909l0 0c0 3.3997803 -1.3472443 6.660309 -3.745346 9.064331c-2.3981018 2.4039917 -5.650635 3.754547 -9.042053 3.754547l0 0c-7.0622864 0 -12.787399 -5.739197 -12.787399 -12.818878l0 0c0 -7.0796814 5.725113 -12.818909 12.787399 -12.818909z" fill-rule="evenodd"/><path stroke="#ffffff" stroke-width="2.0" stroke-linejoin="round" stroke-linecap="butt" d="m196.79942 235.17773l0 0c7.0622864 0 12.787399 5.7392273 12.787399 12.818909l0 0c0 3.3997803 -1.3472443 6.660309 -3.745346 9.064331c-2.3981018 2.4039917 -5.650635 3.754547 -9.042053 3.754547l0 0c-7.0622864 0 -12.787399 -5.739197 -12.787399 -12.818878l0 0c0 -7.0796814 5.725113 -12.818909 12.787399 -12.818909z" fill-rule="evenodd"/><path fill="#000000" fill-opacity="0.0" d="m196.79942 132.81133l0 0c7.0622864 0 12.787399 5.7392273 12.787399 12.818909l0 0c0 3.3997803 -1.3472443 6.660309 -3.745346 9.064331c-2.3981018 2.404007 -5.650635 3.7545624 -9.042053 3.7545624l0 0c-7.0622864 0 -12.787399 -5.739212 -12.787399 -12.818893l0 0c0 -7.0796814 5.725113 -12.818909 12.787399 -12.818909z" fill-rule="evenodd"/><path stroke="#ffffff" stroke-width="2.0" stroke-linejoin="round" stroke-linecap="butt" d="m196.79942 132.81133l0 0c7.0622864 0 12.787399 5.7392273 12.787399 12.818909l0 0c0 3.3997803 -1.3472443 6.660309 -3.745346 9.064331c-2.3981018 2.404007 -5.650635 3.7545624 -9.042053 3.7545624l0 0c-7.0622864 0 -12.787399 -5.739212 -12.787399 -12.818893l0 0c0 -7.0796814 5.725113 -12.818909 12.787399 -12.818909z" fill-rule="evenodd"/></g></svg>